<?xml version="1.0" encoding="UTF-8" standalone="no"?><svg xmlns="http://www.w3.org/2000/svg" xmlns:xlink="http://www.w3.org/1999/xlink" contentScriptType="application/ecmascript" contentStyleType="text/css" height="275.4px" preserveAspectRatio="none" style="width:794px;height:275px;" version="1.1" viewBox="0 0 794 275" width="794.7px" zoomAndPan="magnify"><defs><filter height="300%" id="f4wo6k06bdokd" width="300%" x="-1" y="-1"><feGaussianBlur result="blurOut" stdDeviation="1.7999999523162842"/><feColorMatrix in="blurOut" result="blurOut2" type="matrix" values="0 0 0 0 0 0 0 0 0 0 0 0 0 0 0 0 0 0 .4 0"/><feOffset dx="3.5999999046325684" dy="3.5999999046325684" in="blurOut2" result="blurOut3"/><feBlend in="SourceGraphic" in2="blurOut3" mode="normal"/></filter></defs><g><!--cluster 抽象工厂--><polygon fill="#FFFFFF" filter="url(#f4wo6k06bdokd)" points="19.8,21.6,79.2,21.6,85.5,44.2081,310.5,44.2081,310.5,264.6,19.8,264.6,19.8,21.6" style="stroke: #000000; stroke-width: 1.3499999642372131;"/><line style="stroke: #000000; stroke-width: 1.3499999642372131;" x1="19.8" x2="85.5" y1="44.2081" y2="44.2081"/><text fill="#000000" font-family="sans-serif" font-size="12.6" font-weight="bold" lengthAdjust="spacingAndGlyphs" textLength="54" x="23.4" y="37.8395">抽象工厂</text><!--cluster 产品--><polygon fill="#FFFFFF" filter="url(#f4wo6k06bdokd)" points="332.1,35.1,364.5,35.1,370.8,57.7081,774.9,57.7081,774.9,251.1,332.1,251.1,332.1,35.1" style="stroke: #000000; stroke-width: 1.3499999642372131;"/><line style="stroke: #000000; stroke-width: 1.3499999642372131;" x1="332.1" x2="370.8" y1="57.7081" y2="57.7081"/><text fill="#000000" font-family="sans-serif" font-size="12.6" font-weight="bold" lengthAdjust="spacingAndGlyphs" textLength="27" x="335.7" y="51.3395">产品</text><!--class AbstractFactory--><rect fill="#FEFECE" filter="url(#f4wo6k06bdokd)" height="70.2413" id="AbstractFactory" style="stroke: #A80036; stroke-width: 1.3499999642372131;" width="105.3" x="112.05" y="55.8"/><ellipse cx="125.55" cy="70.2" fill="#B4A7E5" rx="9.9" ry="9.9" style="stroke: #A80036; stroke-width: 0.8999999761581421;"/><path d="M122.7375,66.6 L122.7375,65.0812 L128.0812,65.0812 L128.0812,66.6 L126.3937,66.6 Q126.2531,66.6 126.2109,66.6281 Q126.1687,66.6562 126.1687,66.6984 L126.1687,73.9828 Q126.1687,74.025 126.2109,74.0531 Q126.2531,74.0812 126.3937,74.0812 L128.0812,74.0812 L128.0812,75.6 L122.7375,75.6 L122.7375,74.0812 L124.425,74.0812 Q124.6078,74.0812 124.6289,74.0672 Q124.65,74.0531 124.65,73.9828 L124.65,66.6984 Q124.65,66.6281 124.6289,66.6141 Q124.6078,66.6 124.425,66.6 L122.7375,66.6 Z "/><text fill="#000000" font-family="sans-serif" font-size="10.8" font-style="italic" lengthAdjust="spacingAndGlyphs" textLength="76.5" x="138.15" y="75.2019">AbstractFactory</text><line style="stroke: #A80036; stroke-width: 1.3499999642372131;" x1="112.95" x2="216.45" y1="84.6" y2="84.6"/><line style="stroke: #A80036; stroke-width: 1.3499999642372131;" x1="112.95" x2="216.45" y1="91.8" y2="91.8"/><text fill="#000000" font-family="sans-serif" font-size="9.9" lengthAdjust="spacingAndGlyphs" textLength="75.6" x="117.45" y="106.7454">createProductA()</text><text fill="#000000" font-family="sans-serif" font-size="9.9" lengthAdjust="spacingAndGlyphs" textLength="74.7" x="117.45" y="120.266">createProductB()</text><!--class ConcreteFactory1--><rect fill="#FEFECE" filter="url(#f4wo6k06bdokd)" height="70.2413" id="ConcreteFactory1" style="stroke: #A80036; stroke-width: 1.3499999642372131;" width="115.2" x="34.2" y="180"/><ellipse cx="47.7" cy="194.4" fill="#ADD1B2" rx="9.9" ry="9.9" style="stroke: #A80036; stroke-width: 0.8999999761581421;"/><path d="M47.4187,199.8 Q45.675,199.8 44.6625,198.5133 Q43.65,197.2266 43.65,194.5687 Q43.65,192.3187 44.7187,190.8 Q45.7875,189.2812 47.6437,189.2812 Q48.0516,189.2812 48.4453,189.2812 Q48.8391,189.2812 49.1203,189.2812 Q49.3453,189.2812 49.493,189.2812 Q49.6406,189.2812 50.0062,189.2812 L50.6391,192.6 L49.6828,192.6 Q49.2891,191.6156 48.7758,191.2078 Q48.2625,190.8 47.4328,190.8 Q46.3922,190.8 45.7805,191.8617 Q45.1687,192.9234 45.1687,194.5687 Q45.1687,196.3828 45.6398,197.332 Q46.1109,198.2812 47.3766,198.2812 Q48.2062,198.2812 48.7898,197.768 Q49.3734,197.2547 49.6828,196.0031 L50.6109,196.4672 Q50.2594,198.0422 49.4156,198.9211 Q48.5719,199.8 47.4187,199.8 Z "/><text fill="#000000" font-family="sans-serif" font-size="10.8" lengthAdjust="spacingAndGlyphs" textLength="86.4" x="60.3" y="199.4019">ConcreteFactory1</text><line style="stroke: #A80036; stroke-width: 1.3499999642372131;" x1="35.1" x2="148.5" y1="208.8" y2="208.8"/><line style="stroke: #A80036; stroke-width: 1.3499999642372131;" x1="35.1" x2="148.5" y1="216" y2="216"/><text fill="#000000" font-family="sans-serif" font-size="9.9" lengthAdjust="spacingAndGlyphs" textLength="75.6" x="39.6" y="230.9454">createProductA()</text><text fill="#000000" font-family="sans-serif" font-size="9.9" lengthAdjust="spacingAndGlyphs" textLength="74.7" x="39.6" y="244.466">createProductB()</text><!--class ConcreteFactory2--><rect fill="#FEFECE" filter="url(#f4wo6k06bdokd)" height="70.2413" id="ConcreteFactory2" style="stroke: #A80036; stroke-width: 1.3499999642372131;" width="115.2" x="180.9" y="180"/><ellipse cx="194.4" cy="194.4" fill="#ADD1B2" rx="9.9" ry="9.9" style="stroke: #A80036; stroke-width: 0.8999999761581421;"/><path d="M194.1187,199.8 Q192.375,199.8 191.3625,198.5133 Q190.35,197.2266 190.35,194.5687 Q190.35,192.3187 191.4187,190.8 Q192.4875,189.2812 194.3437,189.2812 Q194.7516,189.2812 195.1453,189.2812 Q195.5391,189.2812 195.8203,189.2812 Q196.0453,189.2812 196.193,189.2812 Q196.3406,189.2812 196.7062,189.2812 L197.3391,192.6 L196.3828,192.6 Q195.9891,191.6156 195.4758,191.2078 Q194.9625,190.8 194.1328,190.8 Q193.0922,190.8 192.4805,191.8617 Q191.8687,192.9234 191.8687,194.5687 Q191.8687,196.3828 192.3398,197.332 Q192.8109,198.2812 194.0766,198.2812 Q194.9062,198.2812 195.4898,197.768 Q196.0734,197.2547 196.3828,196.0031 L197.3109,196.4672 Q196.9594,198.0422 196.1156,198.9211 Q195.2719,199.8 194.1187,199.8 Z "/><text fill="#000000" font-family="sans-serif" font-size="10.8" lengthAdjust="spacingAndGlyphs" textLength="86.4" x="207" y="199.4019">ConcreteFactory2</text><line style="stroke: #A80036; stroke-width: 1.3499999642372131;" x1="181.8" x2="295.2" y1="208.8" y2="208.8"/><line style="stroke: #A80036; stroke-width: 1.3499999642372131;" x1="181.8" x2="295.2" y1="216" y2="216"/><text fill="#000000" font-family="sans-serif" font-size="9.9" lengthAdjust="spacingAndGlyphs" textLength="75.6" x="186.3" y="230.9454">createProductA()</text><text fill="#000000" font-family="sans-serif" font-size="9.9" lengthAdjust="spacingAndGlyphs" textLength="74.7" x="186.3" y="244.466">createProductB()</text><!--class AbstractProductA--><rect fill="#FEFECE" filter="url(#f4wo6k06bdokd)" height="43.2" id="AbstractProductA" style="stroke: #A80036; stroke-width: 1.3499999642372131;" width="114.3" x="584.55" y="69.3"/><ellipse cx="598.05" cy="83.7" fill="#B4A7E5" rx="9.9" ry="9.9" style="stroke: #A80036; stroke-width: 0.8999999761581421;"/><path d="M595.2375,80.1 L595.2375,78.5812 L600.5812,78.5812 L600.5812,80.1 L598.8937,80.1 Q598.7531,80.1 598.7109,80.1281 Q598.6687,80.1562 598.6687,80.1984 L598.6687,87.4828 Q598.6687,87.525 598.7109,87.5531 Q598.7531,87.5812 598.8937,87.5812 L600.5812,87.5812 L600.5812,89.1 L595.2375,89.1 L595.2375,87.5812 L596.925,87.5812 Q597.1078,87.5812 597.1289,87.5672 Q597.15,87.5531 597.15,87.4828 L597.15,80.1984 Q597.15,80.1281 597.1289,80.1141 Q597.1078,80.1 596.925,80.1 L595.2375,80.1 Z "/><text fill="#000000" font-family="sans-serif" font-size="10.8" font-style="italic" lengthAdjust="spacingAndGlyphs" textLength="85.5" x="610.65" y="88.7019">AbstractProductA</text><line style="stroke: #A80036; stroke-width: 1.3499999642372131;" x1="585.45" x2="697.95" y1="98.1" y2="98.1"/><line style="stroke: #A80036; stroke-width: 1.3499999642372131;" x1="585.45" x2="697.95" y1="105.3" y2="105.3"/><!--class AbstractProductB--><rect fill="#FEFECE" filter="url(#f4wo6k06bdokd)" height="43.2" id="AbstractProductB" style="stroke: #A80036; stroke-width: 1.3499999642372131;" width="114.3" x="409.05" y="69.3"/><ellipse cx="422.55" cy="83.7" fill="#B4A7E5" rx="9.9" ry="9.9" style="stroke: #A80036; stroke-width: 0.8999999761581421;"/><path d="M419.7375,80.1 L419.7375,78.5812 L425.0812,78.5812 L425.0812,80.1 L423.3937,80.1 Q423.2531,80.1 423.2109,80.1281 Q423.1687,80.1562 423.1687,80.1984 L423.1687,87.4828 Q423.1687,87.525 423.2109,87.5531 Q423.2531,87.5812 423.3937,87.5812 L425.0812,87.5812 L425.0812,89.1 L419.7375,89.1 L419.7375,87.5812 L421.425,87.5812 Q421.6078,87.5812 421.6289,87.5672 Q421.65,87.5531 421.65,87.4828 L421.65,80.1984 Q421.65,80.1281 421.6289,80.1141 Q421.6078,80.1 421.425,80.1 L419.7375,80.1 Z "/><text fill="#000000" font-family="sans-serif" font-size="10.8" font-style="italic" lengthAdjust="spacingAndGlyphs" textLength="85.5" x="435.15" y="88.7019">AbstractProductB</text><line style="stroke: #A80036; stroke-width: 1.3499999642372131;" x1="409.95" x2="522.45" y1="98.1" y2="98.1"/><line style="stroke: #A80036; stroke-width: 1.3499999642372131;" x1="409.95" x2="522.45" y1="105.3" y2="105.3"/><!--class ProductA1--><rect fill="#FEFECE" filter="url(#f4wo6k06bdokd)" height="43.2" id="ProductA1" style="stroke: #A80036; stroke-width: 1.3499999642372131;" width="79.2" x="570.6" y="193.5"/><ellipse cx="584.1" cy="207.9" fill="#ADD1B2" rx="9.9" ry="9.9" style="stroke: #A80036; stroke-width: 0.8999999761581421;"/><path d="M583.8187,213.3 Q582.075,213.3 581.0625,212.0133 Q580.05,210.7266 580.05,208.0687 Q580.05,205.8187 581.1187,204.3 Q582.1875,202.7812 584.0437,202.7812 Q584.4515,202.7812 584.8453,202.7812 Q585.239,202.7812 585.5203,202.7812 Q585.7453,202.7812 585.893,202.7812 Q586.0406,202.7812 586.4062,202.7812 L587.039,206.1 L586.0828,206.1 Q585.689,205.1156 585.1758,204.7078 Q584.6625,204.3 583.8328,204.3 Q582.7922,204.3 582.1805,205.3617 Q581.5687,206.4234 581.5687,208.0687 Q581.5687,209.8828 582.0398,210.832 Q582.5109,211.7812 583.7765,211.7812 Q584.6062,211.7812 585.1898,211.268 Q585.7734,210.7547 586.0828,209.5031 L587.0109,209.9672 Q586.6594,211.5422 585.8156,212.4211 Q584.9719,213.3 583.8187,213.3 Z "/><text fill="#000000" font-family="sans-serif" font-size="10.8" lengthAdjust="spacingAndGlyphs" textLength="50.4" x="596.7" y="212.9018">ProductA1</text><line style="stroke: #A80036; stroke-width: 1.3499999642372131;" x1="571.5" x2="648.9" y1="222.3" y2="222.3"/><line style="stroke: #A80036; stroke-width: 1.3499999642372131;" x1="571.5" x2="648.9" y1="229.5" y2="229.5"/><!--class ProductA2--><rect fill="#FEFECE" filter="url(#f4wo6k06bdokd)" height="43.2" id="ProductA2" style="stroke: #A80036; stroke-width: 1.3499999642372131;" width="79.2" x="681.3" y="193.5"/><ellipse cx="694.8" cy="207.9" fill="#ADD1B2" rx="9.9" ry="9.9" style="stroke: #A80036; stroke-width: 0.8999999761581421;"/><path d="M694.5187,213.3 Q692.775,213.3 691.7625,212.0133 Q690.75,210.7266 690.75,208.0687 Q690.75,205.8187 691.8187,204.3 Q692.8875,202.7812 694.7437,202.7812 Q695.1515,202.7812 695.5453,202.7812 Q695.939,202.7812 696.2203,202.7812 Q696.4453,202.7812 696.593,202.7812 Q696.7406,202.7812 697.1062,202.7812 L697.739,206.1 L696.7828,206.1 Q696.389,205.1156 695.8758,204.7078 Q695.3625,204.3 694.5328,204.3 Q693.4922,204.3 692.8805,205.3617 Q692.2687,206.4234 692.2687,208.0687 Q692.2687,209.8828 692.7398,210.832 Q693.2109,211.7812 694.4765,211.7812 Q695.3062,211.7812 695.8898,211.268 Q696.4734,210.7547 696.7828,209.5031 L697.7109,209.9672 Q697.3594,211.5422 696.5156,212.4211 Q695.6719,213.3 694.5187,213.3 Z "/><text fill="#000000" font-family="sans-serif" font-size="10.8" lengthAdjust="spacingAndGlyphs" textLength="50.4" x="707.4" y="212.9018">ProductA2</text><line style="stroke: #A80036; stroke-width: 1.3499999642372131;" x1="682.2" x2="759.6" y1="222.3" y2="222.3"/><line style="stroke: #A80036; stroke-width: 1.3499999642372131;" x1="682.2" x2="759.6" y1="229.5" y2="229.5"/><!--class ProductB1--><rect fill="#FEFECE" filter="url(#f4wo6k06bdokd)" height="43.2" id="ProductB1" style="stroke: #A80036; stroke-width: 1.3499999642372131;" width="80.1" x="346.95" y="193.5"/><ellipse cx="360.45" cy="207.9" fill="#ADD1B2" rx="9.9" ry="9.9" style="stroke: #A80036; stroke-width: 0.8999999761581421;"/><path d="M360.1687,213.3 Q358.425,213.3 357.4125,212.0133 Q356.4,210.7266 356.4,208.0687 Q356.4,205.8187 357.4687,204.3 Q358.5375,202.7812 360.3937,202.7812 Q360.8016,202.7812 361.1953,202.7812 Q361.5891,202.7812 361.8703,202.7812 Q362.0953,202.7812 362.243,202.7812 Q362.3906,202.7812 362.7562,202.7812 L363.3891,206.1 L362.4328,206.1 Q362.0391,205.1156 361.5258,204.7078 Q361.0125,204.3 360.1828,204.3 Q359.1422,204.3 358.5305,205.3617 Q357.9187,206.4234 357.9187,208.0687 Q357.9187,209.8828 358.3898,210.832 Q358.8609,211.7812 360.1266,211.7812 Q360.9562,211.7812 361.5398,211.268 Q362.1234,210.7547 362.4328,209.5031 L363.3609,209.9672 Q363.0094,211.5422 362.1656,212.4211 Q361.3219,213.3 360.1687,213.3 Z "/><text fill="#000000" font-family="sans-serif" font-size="10.8" lengthAdjust="spacingAndGlyphs" textLength="51.3" x="373.05" y="212.9018">ProductB1</text><line style="stroke: #A80036; stroke-width: 1.3499999642372131;" x1="347.85" x2="426.15" y1="222.3" y2="222.3"/><line style="stroke: #A80036; stroke-width: 1.3499999642372131;" x1="347.85" x2="426.15" y1="229.5" y2="229.5"/><!--class ProductB2--><rect fill="#FEFECE" filter="url(#f4wo6k06bdokd)" height="43.2" id="ProductB2" style="stroke: #A80036; stroke-width: 1.3499999642372131;" width="80.1" x="458.55" y="193.5"/><ellipse cx="472.05" cy="207.9" fill="#ADD1B2" rx="9.9" ry="9.9" style="stroke: #A80036; stroke-width: 0.8999999761581421;"/><path d="M471.7687,213.3 Q470.025,213.3 469.0125,212.0133 Q468,210.7266 468,208.0687 Q468,205.8187 469.0687,204.3 Q470.1375,202.7812 471.9937,202.7812 Q472.4015,202.7812 472.7953,202.7812 Q473.189,202.7812 473.4703,202.7812 Q473.6953,202.7812 473.843,202.7812 Q473.9906,202.7812 474.3562,202.7812 L474.989,206.1 L474.0328,206.1 Q473.639,205.1156 473.1258,204.7078 Q472.6125,204.3 471.7828,204.3 Q470.7422,204.3 470.1305,205.3617 Q469.5187,206.4234 469.5187,208.0687 Q469.5187,209.8828 469.9898,210.832 Q470.4609,211.7812 471.7266,211.7812 Q472.5562,211.7812 473.1398,211.268 Q473.7234,210.7547 474.0328,209.5031 L474.9609,209.9672 Q474.6094,211.5422 473.7656,212.4211 Q472.9219,213.3 471.7687,213.3 Z "/><text fill="#000000" font-family="sans-serif" font-size="10.8" lengthAdjust="spacingAndGlyphs" textLength="51.3" x="484.65" y="212.9018">ProductB2</text><line style="stroke: #A80036; stroke-width: 1.3499999642372131;" x1="459.45" x2="537.75" y1="222.3" y2="222.3"/><line style="stroke: #A80036; stroke-width: 1.3499999642372131;" x1="459.45" x2="537.75" y1="229.5" y2="229.5"/><!--link AbstractFactory to ConcreteFactory1--><path d="M134.9289,141.7851 C127.3617,154.4913 119.3967,167.8644 112.3992,179.613 " fill="none" id="AbstractFactory-ConcreteFactory1" style="stroke: #A80036; stroke-width: 0.8999999761581421; stroke-dasharray: 7.0,7.0;"/><polygon fill="none" points="129.5757,138.4623,144.1989,126.2214,140.4009,144.9099,129.5757,138.4623" style="stroke: #A80036; stroke-width: 0.8999999761581421;"/><!--link AbstractFactory to ConcreteFactory2--><path d="M194.8383,141.7851 C202.4991,154.4913 210.5622,167.8644 217.6461,179.613 " fill="none" id="AbstractFactory-ConcreteFactory2" style="stroke: #A80036; stroke-width: 0.8999999761581421; stroke-dasharray: 7.0,7.0;"/><polygon fill="none" points="189.3528,144.8892,185.454,126.2214,200.1429,138.3831,189.3528,144.8892" style="stroke: #A80036; stroke-width: 0.8999999761581421;"/><!--link AbstractProductA to ProductA1--><path d="M631.8108,130.2264 C626.4414,151.0893 620.0127,176.0715 615.5694,193.3347 " fill="none" id="AbstractProductA-ProductA1" style="stroke: #A80036; stroke-width: 0.8999999761581421; stroke-dasharray: 7.0,7.0;"/><polygon fill="none" points="625.7691,128.4255,636.3567,112.5639,637.9713,131.5656,625.7691,128.4255" style="stroke: #A80036; stroke-width: 0.8999999761581421;"/><!--link AbstractProductA to ProductA2--><path d="M664.9245,127.6929 C678.7359,149.0373 695.7729,175.3668 707.3991,193.3347 " fill="none" id="AbstractProductA-ProductA2" style="stroke: #A80036; stroke-width: 0.8999999761581421; stroke-dasharray: 7.0,7.0;"/><polygon fill="none" points="659.6244,131.0985,655.1352,112.5639,670.203,124.2531,659.6244,131.0985" style="stroke: #A80036; stroke-width: 0.8999999761581421;"/><!--link AbstractProductB to ProductB1--><path d="M442.9755,127.6929 C429.1641,149.0373 412.1271,175.3668 400.5009,193.3347 " fill="none" id="AbstractProductB-ProductB1" style="stroke: #A80036; stroke-width: 0.8999999761581421; stroke-dasharray: 7.0,7.0;"/><polygon fill="none" points="437.697,124.2531,452.7648,112.5639,448.2756,131.0985,437.697,124.2531" style="stroke: #A80036; stroke-width: 0.8999999761581421;"/><!--link AbstractProductB to ProductB2--><path d="M476.3718,130.2264 C481.8942,151.0893 488.5074,176.0715 493.0767,193.3347 " fill="none" id="AbstractProductB-ProductB2" style="stroke: #A80036; stroke-width: 0.8999999761581421; stroke-dasharray: 7.0,7.0;"/><polygon fill="none" points="470.2122,131.5764,471.6963,112.5639,482.3928,128.3517,470.2122,131.5764" style="stroke: #A80036; stroke-width: 0.8999999761581421;"/><!--link ConcreteFactory1 to ProductA1--><path d="M130.9122,179.9928 C145.431,169.1505 162.7083,158.5962 180.45,153 C256.3632,129.0564 464.0805,125.1522 538.65,153 C558.5364,160.4268 576.5571,176.1489 589.5387,189.9145 " fill="none" id="ConcreteFactory1-ProductA1" style="stroke: #A80036; stroke-width: 0.8999999761581421;"/><polygon fill="#A80036" points="592.7292,193.3658,589.8743,184.9742,589.6745,190.0614,584.5873,189.8617,592.7292,193.3658" style="stroke: #A80036; stroke-width: 0.8999999761581421;"/><!--link ConcreteFactory1 to ProductB1--><path d="M130.9122,179.9928 C145.431,169.1505 162.7083,158.5962 180.45,153 C228.897,137.7189 246.1626,138.1698 294.75,153 C318.7836,160.3359 342.225,176.265 359.4636,190.1525 " fill="none" id="ConcreteFactory1-ProductB1" style="stroke: #A80036; stroke-width: 0.8999999761581421;"/><polygon fill="#A80036" points="363.2661,193.2639,359.2762,185.3487,359.7831,190.4146,354.7172,190.9215,363.2661,193.2639" style="stroke: #A80036; stroke-width: 0.8999999761581421;"/><!--link ConcreteFactory2 to ProductA2--><path d="M287.8587,179.9064 C305.865,169.0578 326.9529,158.5197 347.85,153 C412.8219,135.8388 587.3706,129.2931 650.25,153 C669.9717,160.4349 687.7647,176.157 700.5609,189.9209 " fill="none" id="ConcreteFactory2-ProductA2" style="stroke: #A80036; stroke-width: 0.8999999761581421;"/><polygon fill="#A80036" points="703.7055,193.3717,700.9116,184.9595,700.6749,190.0452,695.5892,189.8085,703.7055,193.3717" style="stroke: #A80036; stroke-width: 0.8999999761581421;"/><!--link ConcreteFactory2 to ProductB2--><path d="M287.8587,179.9064 C305.865,169.0578 326.9529,158.5197 347.85,153 C381.8826,144.0108 394.074,140.6853 427.05,153 C446.9364,160.4268 464.9571,176.1489 477.9387,189.9145 " fill="none" id="ConcreteFactory2-ProductB2" style="stroke: #A80036; stroke-width: 0.8999999761581421;"/><polygon fill="#A80036" points="481.1292,193.3658,478.2743,184.9742,478.0745,190.0614,472.9873,189.8617,481.1292,193.3658" style="stroke: #A80036; stroke-width: 0.8999999761581421;"/><!--
@startuml

package 抽象工厂{

interface AbstractFactory{
    createProductA()
    createProductB()
}

class ConcreteFactory1{
      createProductA()
      createProductB()
}

class ConcreteFactory2{
      createProductA()
      createProductB()
}


AbstractFactory <|.. ConcreteFactory1
AbstractFactory <|.. ConcreteFactory2

}

package 产品{

 interface AbstractProductA{
 }
 interface AbstractProductB{
 }

 AbstractProductA <|.. ProductA1
 AbstractProductA <|.. ProductA2

 AbstractProductB <|.. ProductB1
 AbstractProductB <|.. ProductB2

}




ConcreteFactory1 -> ProductA1
ConcreteFactory1 -> ProductB1

ConcreteFactory2 -> ProductA2
ConcreteFactory2 -> ProductB2


@enduml

PlantUML version 1.2018.11(Sun Sep 23 00:43:53 CST 2018)
(GPL source distribution)
Java Runtime: OpenJDK Runtime Environment
JVM: OpenJDK 64-Bit Server VM
Java Version: 1.8.0_152-release-1248-b22
Operating System: Windows 10
OS Version: 10.0
Default Encoding: GBK
Language: zh
Country: CN
--></g></svg>