<?xml version="1.0" encoding="UTF-8" standalone="no"?><svg xmlns="http://www.w3.org/2000/svg" xmlns:xlink="http://www.w3.org/1999/xlink" contentScriptType="application/ecmascript" contentStyleType="text/css" height="289.8px" preserveAspectRatio="none" style="width:618px;height:289px;" version="1.1" viewBox="0 0 618 289" width="618.1px" zoomAndPan="magnify"><defs><filter height="300%" id="fzrxpjqo9pce1" width="300%" x="-1" y="-1"><feGaussianBlur result="blurOut" stdDeviation="1.399999976158142"/><feColorMatrix in="blurOut" result="blurOut2" type="matrix" values="0 0 0 0 0 0 0 0 0 0 0 0 0 0 0 0 0 0 .4 0"/><feOffset dx="2.799999952316284" dy="2.799999952316284" in="blurOut2" result="blurOut3"/><feBlend in="SourceGraphic" in2="blurOut3" mode="normal"/></filter></defs><g><!--cluster 抽象工厂--><polygon fill="#FFFFFF" filter="url(#fzrxpjqo9pce1)" points="15.4,16.8,61.6,16.8,66.5,34.3841,241.5,34.3841,241.5,205.8,15.4,205.8,15.4,16.8" style="stroke: #000000; stroke-width: 1.0499999821186066;"/><line style="stroke: #000000; stroke-width: 1.0499999821186066;" x1="15.4" x2="66.5" y1="34.3841" y2="34.3841"/><text fill="#000000" font-family="sans-serif" font-size="9.8" font-weight="bold" lengthAdjust="spacingAndGlyphs" textLength="42" x="18.2" y="29.4308">抽象工厂</text><!--cluster 产品--><polygon fill="#FFFFFF" filter="url(#fzrxpjqo9pce1)" points="258.3,123.9,283.5,123.9,288.4,141.4841,602.7,141.4841,602.7,281.4,258.3,281.4,258.3,123.9" style="stroke: #000000; stroke-width: 1.0499999821186066;"/><line style="stroke: #000000; stroke-width: 1.0499999821186066;" x1="258.3" x2="288.4" y1="141.4841" y2="141.4841"/><text fill="#000000" font-family="sans-serif" font-size="9.8" font-weight="bold" lengthAdjust="spacingAndGlyphs" textLength="21" x="261.1" y="136.5308">产品</text><!--class AbstractFactory--><rect fill="#FEFECE" filter="url(#fzrxpjqo9pce1)" height="54.6321" id="AbstractFactory" style="stroke: #A80036; stroke-width: 1.0499999821186066;" width="81.9" x="87.15" y="43.4"/><ellipse cx="97.65" cy="54.6" fill="#B4A7E5" rx="7.7" ry="7.7" style="stroke: #A80036; stroke-width: 0.699999988079071;"/><path d="M95.4625,51.8 L95.4625,50.6187 L99.6187,50.6187 L99.6187,51.8 L98.3062,51.8 Q98.1969,51.8 98.1641,51.8219 Q98.1312,51.8437 98.1312,51.8766 L98.1312,57.5422 Q98.1312,57.575 98.1641,57.5969 Q98.1969,57.6187 98.3062,57.6187 L99.6187,57.6187 L99.6187,58.8 L95.4625,58.8 L95.4625,57.6187 L96.775,57.6187 Q96.9172,57.6187 96.9336,57.6078 Q96.95,57.5969 96.95,57.5422 L96.95,51.8766 Q96.95,51.8219 96.9336,51.8109 Q96.9172,51.8 96.775,51.8 L95.4625,51.8 Z "/><text fill="#000000" font-family="sans-serif" font-size="8.4" font-style="italic" lengthAdjust="spacingAndGlyphs" textLength="59.5" x="107.45" y="58.4903">AbstractFactory</text><line style="stroke: #A80036; stroke-width: 1.0499999821186066;" x1="87.85" x2="168.35" y1="65.8" y2="65.8"/><line style="stroke: #A80036; stroke-width: 1.0499999821186066;" x1="87.85" x2="168.35" y1="71.4" y2="71.4"/><text fill="#000000" font-family="sans-serif" font-size="7.7" lengthAdjust="spacingAndGlyphs" textLength="58.8" x="91.35" y="83.0242">createProductA()</text><text fill="#000000" font-family="sans-serif" font-size="7.7" lengthAdjust="spacingAndGlyphs" textLength="58.1" x="91.35" y="93.5402">createProductB()</text><!--class ConcreteFactory1--><rect fill="#FEFECE" filter="url(#fzrxpjqo9pce1)" height="54.6321" id="ConcreteFactory1" style="stroke: #A80036; stroke-width: 1.0499999821186066;" width="89.6" x="26.6" y="140"/><ellipse cx="37.1" cy="151.2" fill="#ADD1B2" rx="7.7" ry="7.7" style="stroke: #A80036; stroke-width: 0.699999988079071;"/><path d="M36.8812,155.4 Q35.525,155.4 34.7375,154.3992 Q33.95,153.3984 33.95,151.3312 Q33.95,149.5812 34.7812,148.4 Q35.6125,147.2187 37.0562,147.2187 Q37.3734,147.2187 37.6797,147.2187 Q37.9859,147.2187 38.2047,147.2187 Q38.3797,147.2187 38.4945,147.2187 Q38.6094,147.2187 38.8937,147.2187 L39.3859,149.8 L38.6422,149.8 Q38.3359,149.0344 37.9367,148.7172 Q37.5375,148.4 36.8922,148.4 Q36.0828,148.4 35.607,149.2258 Q35.1312,150.0516 35.1312,151.3312 Q35.1312,152.7422 35.4977,153.4805 Q35.8641,154.2187 36.8484,154.2187 Q37.4937,154.2187 37.9477,153.8195 Q38.4016,153.4203 38.6422,152.4469 L39.3641,152.8078 Q39.0906,154.0328 38.4344,154.7164 Q37.7781,155.4 36.8812,155.4 Z "/><text fill="#000000" font-family="sans-serif" font-size="8.4" lengthAdjust="spacingAndGlyphs" textLength="67.2" x="46.9" y="155.0903">ConcreteFactory1</text><line style="stroke: #A80036; stroke-width: 1.0499999821186066;" x1="27.3" x2="115.5" y1="162.4" y2="162.4"/><line style="stroke: #A80036; stroke-width: 1.0499999821186066;" x1="27.3" x2="115.5" y1="168" y2="168"/><text fill="#000000" font-family="sans-serif" font-size="7.7" lengthAdjust="spacingAndGlyphs" textLength="58.8" x="30.8" y="179.6242">createProductA()</text><text fill="#000000" font-family="sans-serif" font-size="7.7" lengthAdjust="spacingAndGlyphs" textLength="58.1" x="30.8" y="190.1402">createProductB()</text><!--class ConcreteFactory2--><rect fill="#FEFECE" filter="url(#fzrxpjqo9pce1)" height="54.6321" id="ConcreteFactory2" style="stroke: #A80036; stroke-width: 1.0499999821186066;" width="89.6" x="140.7" y="140"/><ellipse cx="151.2" cy="151.2" fill="#ADD1B2" rx="7.7" ry="7.7" style="stroke: #A80036; stroke-width: 0.699999988079071;"/><path d="M150.9812,155.4 Q149.625,155.4 148.8375,154.3992 Q148.05,153.3984 148.05,151.3312 Q148.05,149.5812 148.8812,148.4 Q149.7125,147.2187 151.1562,147.2187 Q151.4734,147.2187 151.7797,147.2187 Q152.0859,147.2187 152.3047,147.2187 Q152.4797,147.2187 152.5945,147.2187 Q152.7094,147.2187 152.9937,147.2187 L153.4859,149.8 L152.7422,149.8 Q152.4359,149.0344 152.0367,148.7172 Q151.6375,148.4 150.9922,148.4 Q150.1828,148.4 149.707,149.2258 Q149.2312,150.0516 149.2312,151.3312 Q149.2312,152.7422 149.5977,153.4805 Q149.9641,154.2187 150.9484,154.2187 Q151.5937,154.2187 152.0477,153.8195 Q152.5016,153.4203 152.7422,152.4469 L153.4641,152.8078 Q153.1906,154.0328 152.5344,154.7164 Q151.8781,155.4 150.9812,155.4 Z "/><text fill="#000000" font-family="sans-serif" font-size="8.4" lengthAdjust="spacingAndGlyphs" textLength="67.2" x="161" y="155.0903">ConcreteFactory2</text><line style="stroke: #A80036; stroke-width: 1.0499999821186066;" x1="141.4" x2="229.6" y1="162.4" y2="162.4"/><line style="stroke: #A80036; stroke-width: 1.0499999821186066;" x1="141.4" x2="229.6" y1="168" y2="168"/><text fill="#000000" font-family="sans-serif" font-size="7.7" lengthAdjust="spacingAndGlyphs" textLength="58.8" x="144.9" y="179.6242">createProductA()</text><text fill="#000000" font-family="sans-serif" font-size="7.7" lengthAdjust="spacingAndGlyphs" textLength="58.1" x="144.9" y="190.1402">createProductB()</text><!--class AbstractProductA--><rect fill="#FEFECE" filter="url(#fzrxpjqo9pce1)" height="33.6" id="AbstractProductA" style="stroke: #A80036; stroke-width: 1.0499999821186066;" width="88.9" x="454.65" y="150.5"/><ellipse cx="465.15" cy="161.7" fill="#B4A7E5" rx="7.7" ry="7.7" style="stroke: #A80036; stroke-width: 0.699999988079071;"/><path d="M462.9625,158.9 L462.9625,157.7187 L467.1187,157.7187 L467.1187,158.9 L465.8062,158.9 Q465.6969,158.9 465.6641,158.9219 Q465.6312,158.9437 465.6312,158.9766 L465.6312,164.6422 Q465.6312,164.675 465.6641,164.6969 Q465.6969,164.7187 465.8062,164.7187 L467.1187,164.7187 L467.1187,165.9 L462.9625,165.9 L462.9625,164.7187 L464.275,164.7187 Q464.4172,164.7187 464.4336,164.7078 Q464.45,164.6969 464.45,164.6422 L464.45,158.9766 Q464.45,158.9219 464.4336,158.9109 Q464.4172,158.9 464.275,158.9 L462.9625,158.9 Z "/><text fill="#000000" font-family="sans-serif" font-size="8.4" font-style="italic" lengthAdjust="spacingAndGlyphs" textLength="66.5" x="474.95" y="165.5903">AbstractProductA</text><line style="stroke: #A80036; stroke-width: 1.0499999821186066;" x1="455.35" x2="542.85" y1="172.9" y2="172.9"/><line style="stroke: #A80036; stroke-width: 1.0499999821186066;" x1="455.35" x2="542.85" y1="178.5" y2="178.5"/><!--class AbstractProductB--><rect fill="#FEFECE" filter="url(#fzrxpjqo9pce1)" height="33.6" id="AbstractProductB" style="stroke: #A80036; stroke-width: 1.0499999821186066;" width="88.9" x="318.15" y="150.5"/><ellipse cx="328.65" cy="161.7" fill="#B4A7E5" rx="7.7" ry="7.7" style="stroke: #A80036; stroke-width: 0.699999988079071;"/><path d="M326.4625,158.9 L326.4625,157.7187 L330.6187,157.7187 L330.6187,158.9 L329.3062,158.9 Q329.1969,158.9 329.1641,158.9219 Q329.1312,158.9437 329.1312,158.9766 L329.1312,164.6422 Q329.1312,164.675 329.1641,164.6969 Q329.1969,164.7187 329.3062,164.7187 L330.6187,164.7187 L330.6187,165.9 L326.4625,165.9 L326.4625,164.7187 L327.775,164.7187 Q327.9172,164.7187 327.9336,164.7078 Q327.95,164.6969 327.95,164.6422 L327.95,158.9766 Q327.95,158.9219 327.9336,158.9109 Q327.9172,158.9 327.775,158.9 L326.4625,158.9 Z "/><text fill="#000000" font-family="sans-serif" font-size="8.4" font-style="italic" lengthAdjust="spacingAndGlyphs" textLength="66.5" x="338.45" y="165.5903">AbstractProductB</text><line style="stroke: #A80036; stroke-width: 1.0499999821186066;" x1="318.85" x2="406.35" y1="172.9" y2="172.9"/><line style="stroke: #A80036; stroke-width: 1.0499999821186066;" x1="318.85" x2="406.35" y1="178.5" y2="178.5"/><!--class ProductA1--><rect fill="#FEFECE" filter="url(#fzrxpjqo9pce1)" height="33.6" id="ProductA1" style="stroke: #A80036; stroke-width: 1.0499999821186066;" width="61.6" x="443.8" y="236.6"/><ellipse cx="454.3" cy="247.8" fill="#ADD1B2" rx="7.7" ry="7.7" style="stroke: #A80036; stroke-width: 0.699999988079071;"/><path d="M454.0812,252 Q452.725,252 451.9375,250.9992 Q451.15,249.9984 451.15,247.9312 Q451.15,246.1812 451.9812,245 Q452.8125,243.8187 454.2562,243.8187 Q454.5734,243.8187 454.8797,243.8187 Q455.1859,243.8187 455.4047,243.8187 Q455.5797,243.8187 455.6945,243.8187 Q455.8094,243.8187 456.0937,243.8187 L456.5859,246.4 L455.8422,246.4 Q455.5359,245.6344 455.1367,245.3172 Q454.7375,245 454.0922,245 Q453.2828,245 452.807,245.8258 Q452.3312,246.6516 452.3312,247.9312 Q452.3312,249.3422 452.6976,250.0805 Q453.0641,250.8187 454.0484,250.8187 Q454.6937,250.8187 455.1476,250.4195 Q455.6016,250.0203 455.8422,249.0469 L456.5641,249.4078 Q456.2906,250.6328 455.6344,251.3164 Q454.9781,252 454.0812,252 Z "/><text fill="#000000" font-family="sans-serif" font-size="8.4" lengthAdjust="spacingAndGlyphs" textLength="39.2" x="464.1" y="251.6903">ProductA1</text><line style="stroke: #A80036; stroke-width: 1.0499999821186066;" x1="444.5" x2="504.7" y1="259" y2="259"/><line style="stroke: #A80036; stroke-width: 1.0499999821186066;" x1="444.5" x2="504.7" y1="264.6" y2="264.6"/><!--class ProductA2--><rect fill="#FEFECE" filter="url(#fzrxpjqo9pce1)" height="33.6" id="ProductA2" style="stroke: #A80036; stroke-width: 1.0499999821186066;" width="61.6" x="529.9" y="236.6"/><ellipse cx="540.4" cy="247.8" fill="#ADD1B2" rx="7.7" ry="7.7" style="stroke: #A80036; stroke-width: 0.699999988079071;"/><path d="M540.1812,252 Q538.825,252 538.0375,250.9992 Q537.25,249.9984 537.25,247.9312 Q537.25,246.1812 538.0812,245 Q538.9125,243.8187 540.3562,243.8187 Q540.6734,243.8187 540.9797,243.8187 Q541.2859,243.8187 541.5047,243.8187 Q541.6797,243.8187 541.7945,243.8187 Q541.9094,243.8187 542.1937,243.8187 L542.6859,246.4 L541.9422,246.4 Q541.6359,245.6344 541.2367,245.3172 Q540.8375,245 540.1922,245 Q539.3828,245 538.907,245.8258 Q538.4312,246.6516 538.4312,247.9312 Q538.4312,249.3422 538.7976,250.0805 Q539.1641,250.8187 540.1484,250.8187 Q540.7937,250.8187 541.2476,250.4195 Q541.7016,250.0203 541.9422,249.0469 L542.6641,249.4078 Q542.3906,250.6328 541.7344,251.3164 Q541.0781,252 540.1812,252 Z "/><text fill="#000000" font-family="sans-serif" font-size="8.4" lengthAdjust="spacingAndGlyphs" textLength="39.2" x="550.2" y="251.6903">ProductA2</text><line style="stroke: #A80036; stroke-width: 1.0499999821186066;" x1="530.6" x2="590.8" y1="259" y2="259"/><line style="stroke: #A80036; stroke-width: 1.0499999821186066;" x1="530.6" x2="590.8" y1="264.6" y2="264.6"/><!--class ProductB1--><rect fill="#FEFECE" filter="url(#fzrxpjqo9pce1)" height="33.6" id="ProductB1" style="stroke: #A80036; stroke-width: 1.0499999821186066;" width="62.3" x="269.85" y="236.6"/><ellipse cx="280.35" cy="247.8" fill="#ADD1B2" rx="7.7" ry="7.7" style="stroke: #A80036; stroke-width: 0.699999988079071;"/><path d="M280.1312,252 Q278.775,252 277.9875,250.9992 Q277.2,249.9984 277.2,247.9312 Q277.2,246.1812 278.0312,245 Q278.8625,243.8187 280.3062,243.8187 Q280.6234,243.8187 280.9297,243.8187 Q281.2359,243.8187 281.4547,243.8187 Q281.6297,243.8187 281.7445,243.8187 Q281.8594,243.8187 282.1437,243.8187 L282.6359,246.4 L281.8922,246.4 Q281.5859,245.6344 281.1867,245.3172 Q280.7875,245 280.1422,245 Q279.3328,245 278.857,245.8258 Q278.3812,246.6516 278.3812,247.9312 Q278.3812,249.3422 278.7477,250.0805 Q279.1141,250.8187 280.0984,250.8187 Q280.7437,250.8187 281.1977,250.4195 Q281.6516,250.0203 281.8922,249.0469 L282.6141,249.4078 Q282.3406,250.6328 281.6844,251.3164 Q281.0281,252 280.1312,252 Z "/><text fill="#000000" font-family="sans-serif" font-size="8.4" lengthAdjust="spacingAndGlyphs" textLength="39.9" x="290.15" y="251.6903">ProductB1</text><line style="stroke: #A80036; stroke-width: 1.0499999821186066;" x1="270.55" x2="331.45" y1="259" y2="259"/><line style="stroke: #A80036; stroke-width: 1.0499999821186066;" x1="270.55" x2="331.45" y1="264.6" y2="264.6"/><!--class ProductB2--><rect fill="#FEFECE" filter="url(#fzrxpjqo9pce1)" height="33.6" id="ProductB2" style="stroke: #A80036; stroke-width: 1.0499999821186066;" width="62.3" x="356.65" y="236.6"/><ellipse cx="367.15" cy="247.8" fill="#ADD1B2" rx="7.7" ry="7.7" style="stroke: #A80036; stroke-width: 0.699999988079071;"/><path d="M366.9312,252 Q365.575,252 364.7875,250.9992 Q364,249.9984 364,247.9312 Q364,246.1812 364.8312,245 Q365.6625,243.8187 367.1062,243.8187 Q367.4234,243.8187 367.7297,243.8187 Q368.0359,243.8187 368.2547,243.8187 Q368.4297,243.8187 368.5445,243.8187 Q368.6594,243.8187 368.9437,243.8187 L369.4359,246.4 L368.6922,246.4 Q368.3859,245.6344 367.9867,245.3172 Q367.5875,245 366.9422,245 Q366.1328,245 365.657,245.8258 Q365.1812,246.6516 365.1812,247.9312 Q365.1812,249.3422 365.5477,250.0805 Q365.9141,250.8187 366.8984,250.8187 Q367.5437,250.8187 367.9976,250.4195 Q368.4516,250.0203 368.6922,249.0469 L369.4141,249.4078 Q369.1406,250.6328 368.4844,251.3164 Q367.8281,252 366.9312,252 Z "/><text fill="#000000" font-family="sans-serif" font-size="8.4" lengthAdjust="spacingAndGlyphs" textLength="39.9" x="376.95" y="251.6903">ProductB2</text><line style="stroke: #A80036; stroke-width: 1.0499999821186066;" x1="357.35" x2="418.25" y1="259" y2="259"/><line style="stroke: #A80036; stroke-width: 1.0499999821186066;" x1="357.35" x2="418.25" y1="264.6" y2="264.6"/><!--link AbstractFactory to ConcreteFactory1--><path d="M104.9447,110.2773 C99.0591,120.1599 92.8641,130.5612 87.4216,139.699 " fill="none" id="AbstractFactory-ConcreteFactory1" style="stroke: #A80036; stroke-width: 0.699999988079071; stroke-dasharray: 7.0,7.0;"/><polygon fill="none" points="100.7811,107.6929,112.1547,98.1722,109.2007,112.7077,100.7811,107.6929" style="stroke: #A80036; stroke-width: 0.699999988079071;"/><!--link AbstractFactory to ConcreteFactory2--><path d="M151.5409,110.2773 C157.4993,120.1599 163.7706,130.5612 169.2803,139.699 " fill="none" id="AbstractFactory-ConcreteFactory2" style="stroke: #A80036; stroke-width: 0.699999988079071; stroke-dasharray: 7.0,7.0;"/><polygon fill="none" points="147.2744,112.6916,144.242,98.1722,155.6667,107.6313,147.2744,112.6916" style="stroke: #A80036; stroke-width: 0.699999988079071;"/><!--link AbstractProductA to ProductA1--><path d="M490.4977,197.7395 C486.7471,210.7056 482.4946,225.4073 479.332,236.3408 " fill="none" id="AbstractProductA-ProductA1" style="stroke: #A80036; stroke-width: 0.699999988079071; stroke-dasharray: 7.0,7.0;"/><polygon fill="none" points="485.8371,196.2177,494.4338,184.1308,495.2507,198.9407,485.8371,196.2177" style="stroke: #A80036; stroke-width: 0.699999988079071;"/><!--link AbstractProductA to ProductA2--><path d="M519.0696,195.4582 C528.8843,208.9535 540.3804,224.7608 548.8021,236.3408 " fill="none" id="AbstractProductA-ProductA2" style="stroke: #A80036; stroke-width: 0.699999988079071; stroke-dasharray: 7.0,7.0;"/><polygon fill="none" points="515.1034,198.3352,510.8313,184.1308,523.0288,192.5714,515.1034,198.3352" style="stroke: #A80036; stroke-width: 0.699999988079071;"/><!--link AbstractProductB to ProductB1--><path d="M342.6304,195.4582 C332.8157,208.9535 321.3196,224.7608 312.8979,236.3408 " fill="none" id="AbstractProductB-ProductB1" style="stroke: #A80036; stroke-width: 0.699999988079071; stroke-dasharray: 7.0,7.0;"/><polygon fill="none" points="338.6712,192.5714,350.8687,184.1308,346.5966,198.3352,338.6712,192.5714" style="stroke: #A80036; stroke-width: 0.699999988079071;"/><!--link AbstractProductB to ProductB2--><path d="M371.448,197.7395 C375.3057,210.7056 379.68,225.4073 382.9329,236.3408 " fill="none" id="AbstractProductB-ProductB2" style="stroke: #A80036; stroke-width: 0.699999988079071; stroke-dasharray: 7.0,7.0;"/><polygon fill="none" points="366.695,198.947,367.3992,184.1308,376.0883,196.1519,366.695,198.947" style="stroke: #A80036; stroke-width: 0.699999988079071;"/><!--link ConcreteFactory1 to ProductA1--><path d="M99.75,194.6952 C108.2662,201.2633 118.0375,207.5192 128.1,211.4 C254.2197,260.0456 299.2556,207.2203 431.2,236.6 C434.1316,237.2528 437.1325,238.0582 440.1201,238.9577 " fill="none" id="ConcreteFactory1-ProductA1" style="stroke: #A80036; stroke-width: 0.699999988079071;"/><polygon fill="#A80036" points="443.6152,240.0532,438.44,235.4983,440.2752,239.0072,436.7663,240.8423,443.6152,240.0532" style="stroke: #A80036; stroke-width: 0.699999988079071;"/><!--link ConcreteFactory1 to ProductB1--><path d="M101.3537,194.6182 C109.5815,200.8657 118.8082,206.9816 128.1,211.4 C173.0988,232.7989 230.111,243.6335 266.084,248.7176 " fill="none" id="ConcreteFactory1-ProductB1" style="stroke: #A80036; stroke-width: 0.699999988079071;"/><polygon fill="#A80036" points="269.7142,249.2212,263.8588,245.582,266.2474,248.7402,263.0892,251.1288,269.7142,249.2212" style="stroke: #A80036; stroke-width: 0.699999988079071;"/><!--link ConcreteFactory2 to ProductA2--><path d="M223.0774,194.663 C233.9743,201.1884 246.2068,207.4303 258.3,211.4 C368.4807,247.5656 405.0536,210.315 518,236.6 C520.7125,237.2313 523.4859,237.9929 526.2516,238.837 " fill="none" id="ConcreteFactory2-ProductA2" style="stroke: #A80036; stroke-width: 0.699999988079071;"/><polygon fill="#A80036" points="529.7453,239.9468,524.5878,235.3717,526.4094,238.8877,522.8934,240.7092,529.7453,239.9468" style="stroke: #A80036; stroke-width: 0.699999988079071;"/><!--link ConcreteFactory2 to ProductB2--><path d="M226.1147,194.663 C236.3536,200.6928 247.5095,206.6953 258.3,211.4 C294.8491,227.3357 306.5517,224.0583 344.4,236.6 C347.2511,237.5448 350.1946,238.5568 353.1437,239.5965 " fill="none" id="ConcreteFactory2-ProductB2" style="stroke: #A80036; stroke-width: 0.699999988079071;"/><polygon fill="#A80036" points="356.6017,240.8271,351.6058,236.0762,353.3044,239.6531,349.7275,241.3518,356.6017,240.8271" style="stroke: #A80036; stroke-width: 0.699999988079071;"/><!--
@startuml

package 抽象工厂{

interface AbstractFactory{
    createProductA()
    createProductB()
}

class ConcreteFactory1{
      createProductA()
      createProductB()
}

class ConcreteFactory2{
      createProductA()
      createProductB()
}


AbstractFactory <|.. ConcreteFactory1
AbstractFactory <|.. ConcreteFactory2

}

package 产品{

 interface AbstractProductA{
 }
 interface AbstractProductB{
 }

 AbstractProductA <|.. ProductA1
 AbstractProductA <|.. ProductA2

 AbstractProductB <|.. ProductB1
 AbstractProductB <|.. ProductB2

}




ConcreteFactory1 - -> ProductA1
ConcreteFactory1 - -> ProductB1

ConcreteFactory2 - -> ProductA2
ConcreteFactory2 - -> ProductB2


@enduml

PlantUML version 1.2018.11(Sun Sep 23 00:43:53 CST 2018)
(GPL source distribution)
Java Runtime: OpenJDK Runtime Environment
JVM: OpenJDK 64-Bit Server VM
Java Version: 1.8.0_152-release-1248-b22
Operating System: Windows 10
OS Version: 10.0
Default Encoding: GBK
Language: zh
Country: CN
--></g></svg>