<?xml version="1.0" encoding="UTF-8" standalone="no"?><svg xmlns="http://www.w3.org/2000/svg" xmlns:xlink="http://www.w3.org/1999/xlink" contentScriptType="application/ecmascript" contentStyleType="text/css" height="214.2px" preserveAspectRatio="none" style="width:798px;height:214px;" version="1.1" viewBox="0 0 798 214" width="798.7px" zoomAndPan="magnify"><defs><filter height="300%" id="f1xxo7df1n8rlr" width="300%" x="-1" y="-1"><feGaussianBlur result="blurOut" stdDeviation="1.399999976158142"/><feColorMatrix in="blurOut" result="blurOut2" type="matrix" values="0 0 0 0 0 0 0 0 0 0 0 0 0 0 0 0 0 0 .4 0"/><feOffset dx="2.799999952316284" dy="2.799999952316284" in="blurOut2" result="blurOut3"/><feBlend in="SourceGraphic" in2="blurOut3" mode="normal"/></filter></defs><g><!--cluster 工厂--><polygon fill="#FFFFFF" filter="url(#f1xxo7df1n8rlr)" points="15.4,16.8,40.6,16.8,45.5,34.3841,321.3,34.3841,321.3,205.8,15.4,205.8,15.4,16.8" style="stroke: #000000; stroke-width: 1.0499999821186066;"/><line style="stroke: #000000; stroke-width: 1.0499999821186066;" x1="15.4" x2="45.5" y1="34.3841" y2="34.3841"/><text fill="#000000" font-family="sans-serif" font-size="9.8" font-weight="bold" lengthAdjust="spacingAndGlyphs" textLength="21" x="18.2" y="29.4308">工厂</text><!--cluster 产品--><polygon fill="#FFFFFF" filter="url(#f1xxo7df1n8rlr)" points="338.1,27.3,363.3,27.3,368.2,44.8841,783.3,44.8841,783.3,195.3,338.1,195.3,338.1,27.3" style="stroke: #000000; stroke-width: 1.0499999821186066;"/><line style="stroke: #000000; stroke-width: 1.0499999821186066;" x1="338.1" x2="368.2" y1="44.8841" y2="44.8841"/><text fill="#000000" font-family="sans-serif" font-size="9.8" font-weight="bold" lengthAdjust="spacingAndGlyphs" textLength="21" x="340.9" y="39.9308">产品</text><!--class PizzaIngredientFactory--><rect fill="#FEFECE" filter="url(#f1xxo7df1n8rlr)" height="54.6321" id="PizzaIngredientFactory" style="stroke: #A80036; stroke-width: 1.0499999821186066;" width="112" x="107.1" y="43.4"/><ellipse cx="117.6" cy="54.6" fill="#B4A7E5" rx="7.7" ry="7.7" style="stroke: #A80036; stroke-width: 0.699999988079071;"/><path d="M115.4125,51.8 L115.4125,50.6187 L119.5687,50.6187 L119.5687,51.8 L118.2562,51.8 Q118.1469,51.8 118.1141,51.8219 Q118.0812,51.8437 118.0812,51.8766 L118.0812,57.5422 Q118.0812,57.575 118.1141,57.5969 Q118.1469,57.6187 118.2562,57.6187 L119.5687,57.6187 L119.5687,58.8 L115.4125,58.8 L115.4125,57.6187 L116.725,57.6187 Q116.8672,57.6187 116.8836,57.6078 Q116.9,57.5969 116.9,57.5422 L116.9,51.8766 Q116.9,51.8219 116.8836,51.8109 Q116.8672,51.8 116.725,51.8 L115.4125,51.8 Z "/><text fill="#000000" font-family="sans-serif" font-size="8.4" font-style="italic" lengthAdjust="spacingAndGlyphs" textLength="89.6" x="127.4" y="58.4903">PizzaIngredientFactory</text><line style="stroke: #A80036; stroke-width: 1.0499999821186066;" x1="107.8" x2="218.4" y1="65.8" y2="65.8"/><line style="stroke: #A80036; stroke-width: 1.0499999821186066;" x1="107.8" x2="218.4" y1="71.4" y2="71.4"/><text fill="#000000" font-family="sans-serif" font-size="7.7" lengthAdjust="spacingAndGlyphs" textLength="49" x="111.3" y="83.0242">createDough()</text><text fill="#000000" font-family="sans-serif" font-size="7.7" lengthAdjust="spacingAndGlyphs" textLength="49" x="111.3" y="93.5402">createSauce()</text><!--class NYPizzaIngredientFactory--><rect fill="#FEFECE" filter="url(#f1xxo7df1n8rlr)" height="54.6321" id="NYPizzaIngredientFactory" style="stroke: #A80036; stroke-width: 1.0499999821186066;" width="119" x="26.6" y="140"/><ellipse cx="37.1" cy="151.2" fill="#ADD1B2" rx="7.7" ry="7.7" style="stroke: #A80036; stroke-width: 0.699999988079071;"/><path d="M36.8812,155.4 Q35.525,155.4 34.7375,154.3992 Q33.95,153.3984 33.95,151.3312 Q33.95,149.5812 34.7812,148.4 Q35.6125,147.2187 37.0562,147.2187 Q37.3734,147.2187 37.6797,147.2187 Q37.9859,147.2187 38.2047,147.2187 Q38.3797,147.2187 38.4945,147.2187 Q38.6094,147.2187 38.8937,147.2187 L39.3859,149.8 L38.6422,149.8 Q38.3359,149.0344 37.9367,148.7172 Q37.5375,148.4 36.8922,148.4 Q36.0828,148.4 35.607,149.2258 Q35.1312,150.0516 35.1312,151.3312 Q35.1312,152.7422 35.4977,153.4805 Q35.8641,154.2187 36.8484,154.2187 Q37.4937,154.2187 37.9477,153.8195 Q38.4016,153.4203 38.6422,152.4469 L39.3641,152.8078 Q39.0906,154.0328 38.4344,154.7164 Q37.7781,155.4 36.8812,155.4 Z "/><text fill="#000000" font-family="sans-serif" font-size="8.4" lengthAdjust="spacingAndGlyphs" textLength="96.6" x="46.9" y="155.0903">NYPizzaIngredientFactory</text><line style="stroke: #A80036; stroke-width: 1.0499999821186066;" x1="27.3" x2="144.9" y1="162.4" y2="162.4"/><line style="stroke: #A80036; stroke-width: 1.0499999821186066;" x1="27.3" x2="144.9" y1="168" y2="168"/><text fill="#000000" font-family="sans-serif" font-size="7.7" lengthAdjust="spacingAndGlyphs" textLength="49" x="30.8" y="179.6242">createDough()</text><text fill="#000000" font-family="sans-serif" font-size="7.7" lengthAdjust="spacingAndGlyphs" textLength="49" x="30.8" y="190.1402">createSauce()</text><!--class ChicagoPizzaIngredientFactory--><rect fill="#FEFECE" filter="url(#f1xxo7df1n8rlr)" height="54.6321" id="ChicagoPizzaIngredientFactory" style="stroke: #A80036; stroke-width: 1.0499999821186066;" width="140" x="170.1" y="140"/><ellipse cx="180.6" cy="151.2" fill="#ADD1B2" rx="7.7" ry="7.7" style="stroke: #A80036; stroke-width: 0.699999988079071;"/><path d="M180.3812,155.4 Q179.025,155.4 178.2375,154.3992 Q177.45,153.3984 177.45,151.3312 Q177.45,149.5812 178.2812,148.4 Q179.1125,147.2187 180.5562,147.2187 Q180.8734,147.2187 181.1797,147.2187 Q181.4859,147.2187 181.7047,147.2187 Q181.8797,147.2187 181.9945,147.2187 Q182.1094,147.2187 182.3937,147.2187 L182.8859,149.8 L182.1422,149.8 Q181.8359,149.0344 181.4367,148.7172 Q181.0375,148.4 180.3922,148.4 Q179.5828,148.4 179.107,149.2258 Q178.6312,150.0516 178.6312,151.3312 Q178.6312,152.7422 178.9977,153.4805 Q179.3641,154.2187 180.3484,154.2187 Q180.9937,154.2187 181.4477,153.8195 Q181.9016,153.4203 182.1422,152.4469 L182.8641,152.8078 Q182.5906,154.0328 181.9344,154.7164 Q181.2781,155.4 180.3812,155.4 Z "/><text fill="#000000" font-family="sans-serif" font-size="8.4" lengthAdjust="spacingAndGlyphs" textLength="117.6" x="190.4" y="155.0903">ChicagoPizzaIngredientFactory</text><line style="stroke: #A80036; stroke-width: 1.0499999821186066;" x1="170.8" x2="309.4" y1="162.4" y2="162.4"/><line style="stroke: #A80036; stroke-width: 1.0499999821186066;" x1="170.8" x2="309.4" y1="168" y2="168"/><text fill="#000000" font-family="sans-serif" font-size="7.7" lengthAdjust="spacingAndGlyphs" textLength="49" x="174.3" y="179.6242">createDough()</text><text fill="#000000" font-family="sans-serif" font-size="7.7" lengthAdjust="spacingAndGlyphs" textLength="49" x="174.3" y="190.1402">createSauce()</text><!--class Dough--><rect fill="#FEFECE" filter="url(#f1xxo7df1n8rlr)" height="33.6" id="Dough" style="stroke: #A80036; stroke-width: 1.0499999821186066;" width="48.3" x="650.65" y="53.9"/><ellipse cx="661.15" cy="65.1" fill="#B4A7E5" rx="7.7" ry="7.7" style="stroke: #A80036; stroke-width: 0.699999988079071;"/><path d="M658.9625,62.3 L658.9625,61.1187 L663.1187,61.1187 L663.1187,62.3 L661.8062,62.3 Q661.6969,62.3 661.6641,62.3219 Q661.6312,62.3437 661.6312,62.3766 L661.6312,68.0422 Q661.6312,68.075 661.6641,68.0969 Q661.6969,68.1187 661.8062,68.1187 L663.1187,68.1187 L663.1187,69.3 L658.9625,69.3 L658.9625,68.1187 L660.275,68.1187 Q660.4172,68.1187 660.4336,68.1078 Q660.45,68.0969 660.45,68.0422 L660.45,62.3766 Q660.45,62.3219 660.4336,62.3109 Q660.4172,62.3 660.275,62.3 L658.9625,62.3 Z "/><text fill="#000000" font-family="sans-serif" font-size="8.4" font-style="italic" lengthAdjust="spacingAndGlyphs" textLength="25.9" x="670.95" y="68.9903">Dough</text><line style="stroke: #A80036; stroke-width: 1.0499999821186066;" x1="651.35" x2="698.25" y1="76.3" y2="76.3"/><line style="stroke: #A80036; stroke-width: 1.0499999821186066;" x1="651.35" x2="698.25" y1="81.9" y2="81.9"/><!--class Sauce--><rect fill="#FEFECE" filter="url(#f1xxo7df1n8rlr)" height="33.6" id="Sauce" style="stroke: #A80036; stroke-width: 1.0499999821186066;" width="46.9" x="430.85" y="53.9"/><ellipse cx="441.35" cy="65.1" fill="#B4A7E5" rx="7.7" ry="7.7" style="stroke: #A80036; stroke-width: 0.699999988079071;"/><path d="M439.1625,62.3 L439.1625,61.1187 L443.3187,61.1187 L443.3187,62.3 L442.0062,62.3 Q441.8969,62.3 441.8641,62.3219 Q441.8312,62.3437 441.8312,62.3766 L441.8312,68.0422 Q441.8312,68.075 441.8641,68.0969 Q441.8969,68.1187 442.0062,68.1187 L443.3187,68.1187 L443.3187,69.3 L439.1625,69.3 L439.1625,68.1187 L440.475,68.1187 Q440.6172,68.1187 440.6336,68.1078 Q440.65,68.0969 440.65,68.0422 L440.65,62.3766 Q440.65,62.3219 440.6336,62.3109 Q440.6172,62.3 440.475,62.3 L439.1625,62.3 Z "/><text fill="#000000" font-family="sans-serif" font-size="8.4" font-style="italic" lengthAdjust="spacingAndGlyphs" textLength="24.5" x="451.15" y="68.9903">Sauce</text><line style="stroke: #A80036; stroke-width: 1.0499999821186066;" x1="431.55" x2="477.05" y1="76.3" y2="76.3"/><line style="stroke: #A80036; stroke-width: 1.0499999821186066;" x1="431.55" x2="477.05" y1="81.9" y2="81.9"/><!--class ThickCursDough--><rect fill="#FEFECE" filter="url(#f1xxo7df1n8rlr)" height="33.6" id="ThickCursDough" style="stroke: #A80036; stroke-width: 1.0499999821186066;" width="87.5" x="575.75" y="150.5"/><ellipse cx="586.25" cy="161.7" fill="#ADD1B2" rx="7.7" ry="7.7" style="stroke: #A80036; stroke-width: 0.699999988079071;"/><path d="M586.0312,165.9 Q584.675,165.9 583.8875,164.8992 Q583.1,163.8984 583.1,161.8312 Q583.1,160.0812 583.9312,158.9 Q584.7625,157.7187 586.2062,157.7187 Q586.5234,157.7187 586.8297,157.7187 Q587.1359,157.7187 587.3547,157.7187 Q587.5297,157.7187 587.6445,157.7187 Q587.7594,157.7187 588.0437,157.7187 L588.5359,160.3 L587.7922,160.3 Q587.4859,159.5344 587.0867,159.2172 Q586.6875,158.9 586.0422,158.9 Q585.2328,158.9 584.757,159.7258 Q584.2812,160.5516 584.2812,161.8312 Q584.2812,163.2422 584.6476,163.9805 Q585.0141,164.7187 585.9984,164.7187 Q586.6437,164.7187 587.0976,164.3195 Q587.5516,163.9203 587.7922,162.9469 L588.5141,163.3078 Q588.2406,164.5328 587.5844,165.2164 Q586.9281,165.9 586.0312,165.9 Z "/><text fill="#000000" font-family="sans-serif" font-size="8.4" lengthAdjust="spacingAndGlyphs" textLength="65.1" x="596.05" y="165.5903">ThickCursDough</text><line style="stroke: #A80036; stroke-width: 1.0499999821186066;" x1="576.45" x2="662.55" y1="172.9" y2="172.9"/><line style="stroke: #A80036; stroke-width: 1.0499999821186066;" x1="576.45" x2="662.55" y1="178.5" y2="178.5"/><!--class ThinCursDough--><rect fill="#FEFECE" filter="url(#f1xxo7df1n8rlr)" height="33.6" id="ThinCursDough" style="stroke: #A80036; stroke-width: 1.0499999821186066;" width="84" x="688.1" y="150.5"/><ellipse cx="698.6" cy="161.7" fill="#ADD1B2" rx="7.7" ry="7.7" style="stroke: #A80036; stroke-width: 0.699999988079071;"/><path d="M698.3812,165.9 Q697.025,165.9 696.2375,164.8992 Q695.45,163.8984 695.45,161.8312 Q695.45,160.0812 696.2812,158.9 Q697.1125,157.7187 698.5562,157.7187 Q698.8734,157.7187 699.1797,157.7187 Q699.4859,157.7187 699.7047,157.7187 Q699.8797,157.7187 699.9945,157.7187 Q700.1094,157.7187 700.3937,157.7187 L700.8859,160.3 L700.1422,160.3 Q699.8359,159.5344 699.4367,159.2172 Q699.0375,158.9 698.3922,158.9 Q697.5828,158.9 697.107,159.7258 Q696.6312,160.5516 696.6312,161.8312 Q696.6312,163.2422 696.9976,163.9805 Q697.3641,164.7187 698.3484,164.7187 Q698.9937,164.7187 699.4476,164.3195 Q699.9016,163.9203 700.1422,162.9469 L700.8641,163.3078 Q700.5906,164.5328 699.9344,165.2164 Q699.2781,165.9 698.3812,165.9 Z "/><text fill="#000000" font-family="sans-serif" font-size="8.4" lengthAdjust="spacingAndGlyphs" textLength="61.6" x="708.4" y="165.5903">ThinCursDough</text><line style="stroke: #A80036; stroke-width: 1.0499999821186066;" x1="688.8" x2="771.4" y1="172.9" y2="172.9"/><line style="stroke: #A80036; stroke-width: 1.0499999821186066;" x1="688.8" x2="771.4" y1="178.5" y2="178.5"/><!--class PlumTomatoSauce--><rect fill="#FEFECE" filter="url(#f1xxo7df1n8rlr)" height="33.6" id="PlumTomatoSauce" style="stroke: #A80036; stroke-width: 1.0499999821186066;" width="96.6" x="349.3" y="150.5"/><ellipse cx="359.8" cy="161.7" fill="#ADD1B2" rx="7.7" ry="7.7" style="stroke: #A80036; stroke-width: 0.699999988079071;"/><path d="M359.5812,165.9 Q358.225,165.9 357.4375,164.8992 Q356.65,163.8984 356.65,161.8312 Q356.65,160.0812 357.4812,158.9 Q358.3125,157.7187 359.7562,157.7187 Q360.0734,157.7187 360.3797,157.7187 Q360.6859,157.7187 360.9047,157.7187 Q361.0797,157.7187 361.1945,157.7187 Q361.3094,157.7187 361.5937,157.7187 L362.0859,160.3 L361.3422,160.3 Q361.0359,159.5344 360.6367,159.2172 Q360.2375,158.9 359.5922,158.9 Q358.7828,158.9 358.307,159.7258 Q357.8312,160.5516 357.8312,161.8312 Q357.8312,163.2422 358.1977,163.9805 Q358.5641,164.7187 359.5484,164.7187 Q360.1937,164.7187 360.6477,164.3195 Q361.1016,163.9203 361.3422,162.9469 L362.0641,163.3078 Q361.7906,164.5328 361.1344,165.2164 Q360.4781,165.9 359.5812,165.9 Z "/><text fill="#000000" font-family="sans-serif" font-size="8.4" lengthAdjust="spacingAndGlyphs" textLength="74.2" x="369.6" y="165.5903">PlumTomatoSauce</text><line style="stroke: #A80036; stroke-width: 1.0499999821186066;" x1="350" x2="445.2" y1="172.9" y2="172.9"/><line style="stroke: #A80036; stroke-width: 1.0499999821186066;" x1="350" x2="445.2" y1="178.5" y2="178.5"/><!--class MarinaraSauce--><rect fill="#FEFECE" filter="url(#f1xxo7df1n8rlr)" height="33.6" id="MarinaraSauce" style="stroke: #A80036; stroke-width: 1.0499999821186066;" width="80.5" x="470.75" y="150.5"/><ellipse cx="481.25" cy="161.7" fill="#ADD1B2" rx="7.7" ry="7.7" style="stroke: #A80036; stroke-width: 0.699999988079071;"/><path d="M481.0312,165.9 Q479.675,165.9 478.8875,164.8992 Q478.1,163.8984 478.1,161.8312 Q478.1,160.0812 478.9312,158.9 Q479.7625,157.7187 481.2062,157.7187 Q481.5234,157.7187 481.8297,157.7187 Q482.1359,157.7187 482.3547,157.7187 Q482.5297,157.7187 482.6445,157.7187 Q482.7594,157.7187 483.0437,157.7187 L483.5359,160.3 L482.7922,160.3 Q482.4859,159.5344 482.0867,159.2172 Q481.6875,158.9 481.0422,158.9 Q480.2328,158.9 479.757,159.7258 Q479.2812,160.5516 479.2812,161.8312 Q479.2812,163.2422 479.6476,163.9805 Q480.0141,164.7187 480.9984,164.7187 Q481.6437,164.7187 482.0976,164.3195 Q482.5516,163.9203 482.7922,162.9469 L483.5141,163.3078 Q483.2406,164.5328 482.5844,165.2164 Q481.9281,165.9 481.0312,165.9 Z "/><text fill="#000000" font-family="sans-serif" font-size="8.4" lengthAdjust="spacingAndGlyphs" textLength="58.1" x="491.05" y="165.5903">MarinaraSauce</text><line style="stroke: #A80036; stroke-width: 1.0499999821186066;" x1="471.45" x2="550.55" y1="172.9" y2="172.9"/><line style="stroke: #A80036; stroke-width: 1.0499999821186066;" x1="471.45" x2="550.55" y1="178.5" y2="178.5"/><!--link PizzaIngredientFactory to NYPizzaIngredientFactory--><path d="M132.4526,109.291 C124.2241,119.4648 115.4951,130.2567 107.8581,139.699 " fill="none" id="PizzaIngredientFactory-NYPizzaIngredientFactory" style="stroke: #A80036; stroke-width: 0.699999988079071; stroke-dasharray: 7.0,7.0;"/><polygon fill="none" points="128.8322,105.9758,141.4462,98.1722,136.4517,112.1386,128.8322,105.9758" style="stroke: #A80036; stroke-width: 0.699999988079071;"/><!--link PizzaIngredientFactory to ChicagoPizzaIngredientFactory--><path d="M193.7474,109.291 C201.9759,119.4648 210.7049,130.2567 218.3419,139.699 " fill="none" id="PizzaIngredientFactory-ChicagoPizzaIngredientFactory" style="stroke: #A80036; stroke-width: 0.699999988079071; stroke-dasharray: 7.0,7.0;"/><polygon fill="none" points="189.7483,112.1386,184.7538,98.1722,197.3678,105.9758,189.7483,112.1386" style="stroke: #A80036; stroke-width: 0.699999988079071;"/><!--link Dough to ThickCursDough--><path d="M658.2996,99.806 C648.7075,116.319 636.965,136.5336 628.9269,150.3714 " fill="none" id="Dough-ThickCursDough" style="stroke: #A80036; stroke-width: 0.699999988079071; stroke-dasharray: 7.0,7.0;"/><polygon fill="none" points="654.15,97.1943,665.4193,87.5497,662.6242,102.1167,654.15,97.1943" style="stroke: #A80036; stroke-width: 0.699999988079071;"/><!--link Dough to ThinCursDough--><path d="M691.3004,99.806 C700.8925,116.319 712.635,136.5336 720.671,150.3714 " fill="none" id="Dough-ThinCursDough" style="stroke: #A80036; stroke-width: 0.699999988079071; stroke-dasharray: 7.0,7.0;"/><polygon fill="none" points="686.9758,102.1167,684.1807,87.5497,695.45,97.1943,686.9758,102.1167" style="stroke: #A80036; stroke-width: 0.699999988079071;"/><!--link Sauce to PlumTomatoSauce--><path d="M437.3817,99.806 C427.5467,116.319 415.5074,136.5336 407.2656,150.3714 " fill="none" id="Sauce-PlumTomatoSauce" style="stroke: #A80036; stroke-width: 0.699999988079071; stroke-dasharray: 7.0,7.0;"/><polygon fill="none" points="433.3077,97.0704,444.6813,87.5497,441.7273,102.0852,433.3077,97.0704" style="stroke: #A80036; stroke-width: 0.699999988079071;"/><!--link Sauce to MarinaraSauce--><path d="M471.2183,99.806 C481.0533,116.319 493.0926,136.5336 501.3344,150.3714 " fill="none" id="Sauce-MarinaraSauce" style="stroke: #A80036; stroke-width: 0.699999988079071; stroke-dasharray: 7.0,7.0;"/><polygon fill="none" points="466.8727,102.0852,463.9187,87.5497,475.2923,97.0704,466.8727,102.0852" style="stroke: #A80036; stroke-width: 0.699999988079071;"/><!--link NYPizzaIngredientFactory to ThickCursDough--><path d="M123.8013,139.9321 C137.571,131.4943 153.7137,123.2973 169.75,119 C251.6388,97.0564 470.4602,93.3044 551.25,119 C569.2547,124.7267 586.5937,137.1153 599.2896,147.9115 " fill="none" id="NYPizzaIngredientFactory-ThickCursDough" style="stroke: #A80036; stroke-width: 0.699999988079071;"/><polygon fill="#A80036" points="602.0889,150.3302,599.1534,144.0922,599.4409,148.0415,595.4915,148.329,602.0889,150.3302" style="stroke: #A80036; stroke-width: 0.699999988079071;"/><!--link NYPizzaIngredientFactory to PlumTomatoSauce--><path d="M123.8013,139.9321 C137.571,131.4943 153.7137,123.2973 169.75,119 C229.551,102.9749 249.0586,103.7022 309.05,119 C331.4941,124.7232 354.3841,137.4261 371.2674,148.3681 " fill="none" id="NYPizzaIngredientFactory-PlumTomatoSauce" style="stroke: #A80036; stroke-width: 0.699999988079071;"/><polygon fill="#A80036" points="374.3488,150.3888,370.6169,144.5919,371.4223,148.469,367.5453,149.2743,374.3488,150.3888" style="stroke: #A80036; stroke-width: 0.699999988079071;"/><!--link ChicagoPizzaIngredientFactory to ThinCursDough--><path d="M290.5147,139.9965 C308.8127,131.5076 329.9989,123.2623 350.35,119 C418.4068,104.7466 597.0916,97.6003 663.25,119 C680.9817,124.7351 697.963,137.1244 710.374,147.918 " fill="none" id="ChicagoPizzaIngredientFactory-ThinCursDough" style="stroke: #A80036; stroke-width: 0.699999988079071;"/><polygon fill="#A80036" points="713.111,150.3362,710.2478,144.0647,710.4896,148.0171,706.5372,148.2589,713.111,150.3362" style="stroke: #A80036; stroke-width: 0.699999988079071;"/><!--link ChicagoPizzaIngredientFactory to MarinaraSauce--><path d="M290.5147,139.9965 C308.8127,131.5076 329.9989,123.2623 350.35,119 C392.0672,110.2626 405.7977,105.574 446.25,119 C463.5743,124.7498 480.0201,137.1384 492.002,147.9284 " fill="none" id="ChicagoPizzaIngredientFactory-MarinaraSauce" style="stroke: #A80036; stroke-width: 0.699999988079071;"/><polygon fill="#A80036" points="494.6424,150.3456,491.8857,144.0266,492.0606,147.9825,488.1047,148.1574,494.6424,150.3456" style="stroke: #A80036; stroke-width: 0.699999988079071;"/><!--
@startuml

package 工厂{

interface PizzaIngredientFactory{
    createDough()
    createSauce()

}

class NYPizzaIngredientFactory{
  createDough()
    createSauce()

}


class ChicagoPizzaIngredientFactory{
    createDough()
    createSauce()
}

PizzaIngredientFactory <|.. NYPizzaIngredientFactory
PizzaIngredientFactory <|.. ChicagoPizzaIngredientFactory


}


package 产品{


interface Dough{
}

interface Sauce{
}

Dough <|.. ThickCursDough
Dough <|.. ThinCursDough

Sauce <|.. PlumTomatoSauce
Sauce <|.. MarinaraSauce


}



NYPizzaIngredientFactory -> ThickCursDough
NYPizzaIngredientFactory -> PlumTomatoSauce


ChicagoPizzaIngredientFactory -> ThinCursDough
ChicagoPizzaIngredientFactory -> MarinaraSauce


@enduml

PlantUML version 1.2018.11(Sun Sep 23 00:43:53 CST 2018)
(GPL source distribution)
Java Runtime: OpenJDK Runtime Environment
JVM: OpenJDK 64-Bit Server VM
Java Version: 1.8.0_152-release-1248-b22
Operating System: Windows 10
OS Version: 10.0
Default Encoding: GBK
Language: zh
Country: CN
--></g></svg>