<?xml version="1.0" encoding="UTF-8" standalone="no"?><svg xmlns="http://www.w3.org/2000/svg" xmlns:xlink="http://www.w3.org/1999/xlink" contentScriptType="application/ecmascript" contentStyleType="text/css" height="289.8px" preserveAspectRatio="none" style="width:798px;height:289px;" version="1.1" viewBox="0 0 798 289" width="798.7px" zoomAndPan="magnify"><defs><filter height="300%" id="f1iy43kw0pi30h" width="300%" x="-1" y="-1"><feGaussianBlur result="blurOut" stdDeviation="1.399999976158142"/><feColorMatrix in="blurOut" result="blurOut2" type="matrix" values="0 0 0 0 0 0 0 0 0 0 0 0 0 0 0 0 0 0 .4 0"/><feOffset dx="2.799999952316284" dy="2.799999952316284" in="blurOut2" result="blurOut3"/><feBlend in="SourceGraphic" in2="blurOut3" mode="normal"/></filter></defs><g><!--cluster 工厂--><polygon fill="#FFFFFF" filter="url(#f1iy43kw0pi30h)" points="15.4,16.8,40.6,16.8,45.5,34.3841,321.3,34.3841,321.3,205.8,15.4,205.8,15.4,16.8" style="stroke: #000000; stroke-width: 1.0499999821186066;"/><line style="stroke: #000000; stroke-width: 1.0499999821186066;" x1="15.4" x2="45.5" y1="34.3841" y2="34.3841"/><text fill="#000000" font-family="sans-serif" font-size="9.8" font-weight="bold" lengthAdjust="spacingAndGlyphs" textLength="21" x="18.2" y="29.4308">工厂</text><!--cluster 产品--><polygon fill="#FFFFFF" filter="url(#f1iy43kw0pi30h)" points="338.1,123.9,363.3,123.9,368.2,141.4841,783.3,141.4841,783.3,281.4,338.1,281.4,338.1,123.9" style="stroke: #000000; stroke-width: 1.0499999821186066;"/><line style="stroke: #000000; stroke-width: 1.0499999821186066;" x1="338.1" x2="368.2" y1="141.4841" y2="141.4841"/><text fill="#000000" font-family="sans-serif" font-size="9.8" font-weight="bold" lengthAdjust="spacingAndGlyphs" textLength="21" x="340.9" y="136.5308">产品</text><!--class PizzaIngredientFactory--><rect fill="#FEFECE" filter="url(#f1iy43kw0pi30h)" height="54.6321" id="PizzaIngredientFactory" style="stroke: #A80036; stroke-width: 1.0499999821186066;" width="112" x="107.1" y="43.4"/><ellipse cx="117.6" cy="54.6" fill="#B4A7E5" rx="7.7" ry="7.7" style="stroke: #A80036; stroke-width: 0.699999988079071;"/><path d="M115.4125,51.8 L115.4125,50.6187 L119.5687,50.6187 L119.5687,51.8 L118.2562,51.8 Q118.1469,51.8 118.1141,51.8219 Q118.0812,51.8437 118.0812,51.8766 L118.0812,57.5422 Q118.0812,57.575 118.1141,57.5969 Q118.1469,57.6187 118.2562,57.6187 L119.5687,57.6187 L119.5687,58.8 L115.4125,58.8 L115.4125,57.6187 L116.725,57.6187 Q116.8672,57.6187 116.8836,57.6078 Q116.9,57.5969 116.9,57.5422 L116.9,51.8766 Q116.9,51.8219 116.8836,51.8109 Q116.8672,51.8 116.725,51.8 L115.4125,51.8 Z "/><text fill="#000000" font-family="sans-serif" font-size="8.4" font-style="italic" lengthAdjust="spacingAndGlyphs" textLength="89.6" x="127.4" y="58.4903">PizzaIngredientFactory</text><line style="stroke: #A80036; stroke-width: 1.0499999821186066;" x1="107.8" x2="218.4" y1="65.8" y2="65.8"/><line style="stroke: #A80036; stroke-width: 1.0499999821186066;" x1="107.8" x2="218.4" y1="71.4" y2="71.4"/><text fill="#000000" font-family="sans-serif" font-size="7.7" lengthAdjust="spacingAndGlyphs" textLength="49" x="111.3" y="83.0242">createDough()</text><text fill="#000000" font-family="sans-serif" font-size="7.7" lengthAdjust="spacingAndGlyphs" textLength="49" x="111.3" y="93.5402">createSauce()</text><!--class NYPizzaIngredientFactory--><rect fill="#FEFECE" filter="url(#f1iy43kw0pi30h)" height="54.6321" id="NYPizzaIngredientFactory" style="stroke: #A80036; stroke-width: 1.0499999821186066;" width="119" x="26.6" y="140"/><ellipse cx="37.1" cy="151.2" fill="#ADD1B2" rx="7.7" ry="7.7" style="stroke: #A80036; stroke-width: 0.699999988079071;"/><path d="M36.8812,155.4 Q35.525,155.4 34.7375,154.3992 Q33.95,153.3984 33.95,151.3312 Q33.95,149.5812 34.7812,148.4 Q35.6125,147.2187 37.0562,147.2187 Q37.3734,147.2187 37.6797,147.2187 Q37.9859,147.2187 38.2047,147.2187 Q38.3797,147.2187 38.4945,147.2187 Q38.6094,147.2187 38.8937,147.2187 L39.3859,149.8 L38.6422,149.8 Q38.3359,149.0344 37.9367,148.7172 Q37.5375,148.4 36.8922,148.4 Q36.0828,148.4 35.607,149.2258 Q35.1312,150.0516 35.1312,151.3312 Q35.1312,152.7422 35.4977,153.4805 Q35.8641,154.2187 36.8484,154.2187 Q37.4937,154.2187 37.9477,153.8195 Q38.4016,153.4203 38.6422,152.4469 L39.3641,152.8078 Q39.0906,154.0328 38.4344,154.7164 Q37.7781,155.4 36.8812,155.4 Z "/><text fill="#000000" font-family="sans-serif" font-size="8.4" lengthAdjust="spacingAndGlyphs" textLength="96.6" x="46.9" y="155.0903">NYPizzaIngredientFactory</text><line style="stroke: #A80036; stroke-width: 1.0499999821186066;" x1="27.3" x2="144.9" y1="162.4" y2="162.4"/><line style="stroke: #A80036; stroke-width: 1.0499999821186066;" x1="27.3" x2="144.9" y1="168" y2="168"/><text fill="#000000" font-family="sans-serif" font-size="7.7" lengthAdjust="spacingAndGlyphs" textLength="49" x="30.8" y="179.6242">createDough()</text><text fill="#000000" font-family="sans-serif" font-size="7.7" lengthAdjust="spacingAndGlyphs" textLength="49" x="30.8" y="190.1402">createSauce()</text><!--class ChicagoPizzaIngredientFactory--><rect fill="#FEFECE" filter="url(#f1iy43kw0pi30h)" height="54.6321" id="ChicagoPizzaIngredientFactory" style="stroke: #A80036; stroke-width: 1.0499999821186066;" width="140" x="170.1" y="140"/><ellipse cx="180.6" cy="151.2" fill="#ADD1B2" rx="7.7" ry="7.7" style="stroke: #A80036; stroke-width: 0.699999988079071;"/><path d="M180.3812,155.4 Q179.025,155.4 178.2375,154.3992 Q177.45,153.3984 177.45,151.3312 Q177.45,149.5812 178.2812,148.4 Q179.1125,147.2187 180.5562,147.2187 Q180.8734,147.2187 181.1797,147.2187 Q181.4859,147.2187 181.7047,147.2187 Q181.8797,147.2187 181.9945,147.2187 Q182.1094,147.2187 182.3937,147.2187 L182.8859,149.8 L182.1422,149.8 Q181.8359,149.0344 181.4367,148.7172 Q181.0375,148.4 180.3922,148.4 Q179.5828,148.4 179.107,149.2258 Q178.6312,150.0516 178.6312,151.3312 Q178.6312,152.7422 178.9977,153.4805 Q179.3641,154.2187 180.3484,154.2187 Q180.9937,154.2187 181.4477,153.8195 Q181.9016,153.4203 182.1422,152.4469 L182.8641,152.8078 Q182.5906,154.0328 181.9344,154.7164 Q181.2781,155.4 180.3812,155.4 Z "/><text fill="#000000" font-family="sans-serif" font-size="8.4" lengthAdjust="spacingAndGlyphs" textLength="117.6" x="190.4" y="155.0903">ChicagoPizzaIngredientFactory</text><line style="stroke: #A80036; stroke-width: 1.0499999821186066;" x1="170.8" x2="309.4" y1="162.4" y2="162.4"/><line style="stroke: #A80036; stroke-width: 1.0499999821186066;" x1="170.8" x2="309.4" y1="168" y2="168"/><text fill="#000000" font-family="sans-serif" font-size="7.7" lengthAdjust="spacingAndGlyphs" textLength="49" x="174.3" y="179.6242">createDough()</text><text fill="#000000" font-family="sans-serif" font-size="7.7" lengthAdjust="spacingAndGlyphs" textLength="49" x="174.3" y="190.1402">createSauce()</text><!--class Dough--><rect fill="#FEFECE" filter="url(#f1iy43kw0pi30h)" height="33.6" id="Dough" style="stroke: #A80036; stroke-width: 1.0499999821186066;" width="48.3" x="650.65" y="150.5"/><ellipse cx="661.15" cy="161.7" fill="#B4A7E5" rx="7.7" ry="7.7" style="stroke: #A80036; stroke-width: 0.699999988079071;"/><path d="M658.9625,158.9 L658.9625,157.7187 L663.1187,157.7187 L663.1187,158.9 L661.8062,158.9 Q661.6969,158.9 661.6641,158.9219 Q661.6312,158.9437 661.6312,158.9766 L661.6312,164.6422 Q661.6312,164.675 661.6641,164.6969 Q661.6969,164.7187 661.8062,164.7187 L663.1187,164.7187 L663.1187,165.9 L658.9625,165.9 L658.9625,164.7187 L660.275,164.7187 Q660.4172,164.7187 660.4336,164.7078 Q660.45,164.6969 660.45,164.6422 L660.45,158.9766 Q660.45,158.9219 660.4336,158.9109 Q660.4172,158.9 660.275,158.9 L658.9625,158.9 Z "/><text fill="#000000" font-family="sans-serif" font-size="8.4" font-style="italic" lengthAdjust="spacingAndGlyphs" textLength="25.9" x="670.95" y="165.5903">Dough</text><line style="stroke: #A80036; stroke-width: 1.0499999821186066;" x1="651.35" x2="698.25" y1="172.9" y2="172.9"/><line style="stroke: #A80036; stroke-width: 1.0499999821186066;" x1="651.35" x2="698.25" y1="178.5" y2="178.5"/><!--class Sauce--><rect fill="#FEFECE" filter="url(#f1iy43kw0pi30h)" height="33.6" id="Sauce" style="stroke: #A80036; stroke-width: 1.0499999821186066;" width="46.9" x="430.85" y="150.5"/><ellipse cx="441.35" cy="161.7" fill="#B4A7E5" rx="7.7" ry="7.7" style="stroke: #A80036; stroke-width: 0.699999988079071;"/><path d="M439.1625,158.9 L439.1625,157.7187 L443.3187,157.7187 L443.3187,158.9 L442.0062,158.9 Q441.8969,158.9 441.8641,158.9219 Q441.8312,158.9437 441.8312,158.9766 L441.8312,164.6422 Q441.8312,164.675 441.8641,164.6969 Q441.8969,164.7187 442.0062,164.7187 L443.3187,164.7187 L443.3187,165.9 L439.1625,165.9 L439.1625,164.7187 L440.475,164.7187 Q440.6172,164.7187 440.6336,164.7078 Q440.65,164.6969 440.65,164.6422 L440.65,158.9766 Q440.65,158.9219 440.6336,158.9109 Q440.6172,158.9 440.475,158.9 L439.1625,158.9 Z "/><text fill="#000000" font-family="sans-serif" font-size="8.4" font-style="italic" lengthAdjust="spacingAndGlyphs" textLength="24.5" x="451.15" y="165.5903">Sauce</text><line style="stroke: #A80036; stroke-width: 1.0499999821186066;" x1="431.55" x2="477.05" y1="172.9" y2="172.9"/><line style="stroke: #A80036; stroke-width: 1.0499999821186066;" x1="431.55" x2="477.05" y1="178.5" y2="178.5"/><!--class ThickCursDough--><rect fill="#FEFECE" filter="url(#f1iy43kw0pi30h)" height="33.6" id="ThickCursDough" style="stroke: #A80036; stroke-width: 1.0499999821186066;" width="87.5" x="575.75" y="236.6"/><ellipse cx="586.25" cy="247.8" fill="#ADD1B2" rx="7.7" ry="7.7" style="stroke: #A80036; stroke-width: 0.699999988079071;"/><path d="M586.0312,252 Q584.675,252 583.8875,250.9992 Q583.1,249.9984 583.1,247.9312 Q583.1,246.1812 583.9312,245 Q584.7625,243.8187 586.2062,243.8187 Q586.5234,243.8187 586.8297,243.8187 Q587.1359,243.8187 587.3547,243.8187 Q587.5297,243.8187 587.6445,243.8187 Q587.7594,243.8187 588.0437,243.8187 L588.5359,246.4 L587.7922,246.4 Q587.4859,245.6344 587.0867,245.3172 Q586.6875,245 586.0422,245 Q585.2328,245 584.757,245.8258 Q584.2812,246.6516 584.2812,247.9312 Q584.2812,249.3422 584.6476,250.0805 Q585.0141,250.8187 585.9984,250.8187 Q586.6437,250.8187 587.0976,250.4195 Q587.5516,250.0203 587.7922,249.0469 L588.5141,249.4078 Q588.2406,250.6328 587.5844,251.3164 Q586.9281,252 586.0312,252 Z "/><text fill="#000000" font-family="sans-serif" font-size="8.4" lengthAdjust="spacingAndGlyphs" textLength="65.1" x="596.05" y="251.6903">ThickCursDough</text><line style="stroke: #A80036; stroke-width: 1.0499999821186066;" x1="576.45" x2="662.55" y1="259" y2="259"/><line style="stroke: #A80036; stroke-width: 1.0499999821186066;" x1="576.45" x2="662.55" y1="264.6" y2="264.6"/><!--class ThinCursDough--><rect fill="#FEFECE" filter="url(#f1iy43kw0pi30h)" height="33.6" id="ThinCursDough" style="stroke: #A80036; stroke-width: 1.0499999821186066;" width="84" x="688.1" y="236.6"/><ellipse cx="698.6" cy="247.8" fill="#ADD1B2" rx="7.7" ry="7.7" style="stroke: #A80036; stroke-width: 0.699999988079071;"/><path d="M698.3812,252 Q697.025,252 696.2375,250.9992 Q695.45,249.9984 695.45,247.9312 Q695.45,246.1812 696.2812,245 Q697.1125,243.8187 698.5562,243.8187 Q698.8734,243.8187 699.1797,243.8187 Q699.4859,243.8187 699.7047,243.8187 Q699.8797,243.8187 699.9945,243.8187 Q700.1094,243.8187 700.3937,243.8187 L700.8859,246.4 L700.1422,246.4 Q699.8359,245.6344 699.4367,245.3172 Q699.0375,245 698.3922,245 Q697.5828,245 697.107,245.8258 Q696.6312,246.6516 696.6312,247.9312 Q696.6312,249.3422 696.9976,250.0805 Q697.3641,250.8187 698.3484,250.8187 Q698.9937,250.8187 699.4476,250.4195 Q699.9016,250.0203 700.1422,249.0469 L700.8641,249.4078 Q700.5906,250.6328 699.9344,251.3164 Q699.2781,252 698.3812,252 Z "/><text fill="#000000" font-family="sans-serif" font-size="8.4" lengthAdjust="spacingAndGlyphs" textLength="61.6" x="708.4" y="251.6903">ThinCursDough</text><line style="stroke: #A80036; stroke-width: 1.0499999821186066;" x1="688.8" x2="771.4" y1="259" y2="259"/><line style="stroke: #A80036; stroke-width: 1.0499999821186066;" x1="688.8" x2="771.4" y1="264.6" y2="264.6"/><!--class PlumTomatoSauce--><rect fill="#FEFECE" filter="url(#f1iy43kw0pi30h)" height="33.6" id="PlumTomatoSauce" style="stroke: #A80036; stroke-width: 1.0499999821186066;" width="96.6" x="349.3" y="236.6"/><ellipse cx="359.8" cy="247.8" fill="#ADD1B2" rx="7.7" ry="7.7" style="stroke: #A80036; stroke-width: 0.699999988079071;"/><path d="M359.5812,252 Q358.225,252 357.4375,250.9992 Q356.65,249.9984 356.65,247.9312 Q356.65,246.1812 357.4812,245 Q358.3125,243.8187 359.7562,243.8187 Q360.0734,243.8187 360.3797,243.8187 Q360.6859,243.8187 360.9047,243.8187 Q361.0797,243.8187 361.1945,243.8187 Q361.3094,243.8187 361.5937,243.8187 L362.0859,246.4 L361.3422,246.4 Q361.0359,245.6344 360.6367,245.3172 Q360.2375,245 359.5922,245 Q358.7828,245 358.307,245.8258 Q357.8312,246.6516 357.8312,247.9312 Q357.8312,249.3422 358.1977,250.0805 Q358.5641,250.8187 359.5484,250.8187 Q360.1937,250.8187 360.6477,250.4195 Q361.1016,250.0203 361.3422,249.0469 L362.0641,249.4078 Q361.7906,250.6328 361.1344,251.3164 Q360.4781,252 359.5812,252 Z "/><text fill="#000000" font-family="sans-serif" font-size="8.4" lengthAdjust="spacingAndGlyphs" textLength="74.2" x="369.6" y="251.6903">PlumTomatoSauce</text><line style="stroke: #A80036; stroke-width: 1.0499999821186066;" x1="350" x2="445.2" y1="259" y2="259"/><line style="stroke: #A80036; stroke-width: 1.0499999821186066;" x1="350" x2="445.2" y1="264.6" y2="264.6"/><!--class MarinaraSauce--><rect fill="#FEFECE" filter="url(#f1iy43kw0pi30h)" height="33.6" id="MarinaraSauce" style="stroke: #A80036; stroke-width: 1.0499999821186066;" width="80.5" x="470.75" y="236.6"/><ellipse cx="481.25" cy="247.8" fill="#ADD1B2" rx="7.7" ry="7.7" style="stroke: #A80036; stroke-width: 0.699999988079071;"/><path d="M481.0312,252 Q479.675,252 478.8875,250.9992 Q478.1,249.9984 478.1,247.9312 Q478.1,246.1812 478.9312,245 Q479.7625,243.8187 481.2062,243.8187 Q481.5234,243.8187 481.8297,243.8187 Q482.1359,243.8187 482.3547,243.8187 Q482.5297,243.8187 482.6445,243.8187 Q482.7594,243.8187 483.0437,243.8187 L483.5359,246.4 L482.7922,246.4 Q482.4859,245.6344 482.0867,245.3172 Q481.6875,245 481.0422,245 Q480.2328,245 479.757,245.8258 Q479.2812,246.6516 479.2812,247.9312 Q479.2812,249.3422 479.6476,250.0805 Q480.0141,250.8187 480.9984,250.8187 Q481.6437,250.8187 482.0976,250.4195 Q482.5516,250.0203 482.7922,249.0469 L483.5141,249.4078 Q483.2406,250.6328 482.5844,251.3164 Q481.9281,252 481.0312,252 Z "/><text fill="#000000" font-family="sans-serif" font-size="8.4" lengthAdjust="spacingAndGlyphs" textLength="58.1" x="491.05" y="251.6903">MarinaraSauce</text><line style="stroke: #A80036; stroke-width: 1.0499999821186066;" x1="471.45" x2="550.55" y1="259" y2="259"/><line style="stroke: #A80036; stroke-width: 1.0499999821186066;" x1="471.45" x2="550.55" y1="264.6" y2="264.6"/><!--link PizzaIngredientFactory to NYPizzaIngredientFactory--><path d="M132.4526,109.291 C124.2241,119.4648 115.4951,130.2567 107.8581,139.699 " fill="none" id="PizzaIngredientFactory-NYPizzaIngredientFactory" style="stroke: #A80036; stroke-width: 0.699999988079071; stroke-dasharray: 7.0,7.0;"/><polygon fill="none" points="128.8322,105.9758,141.4462,98.1722,136.4517,112.1386,128.8322,105.9758" style="stroke: #A80036; stroke-width: 0.699999988079071;"/><!--link PizzaIngredientFactory to ChicagoPizzaIngredientFactory--><path d="M193.7474,109.291 C201.9759,119.4648 210.7049,130.2567 218.3419,139.699 " fill="none" id="PizzaIngredientFactory-ChicagoPizzaIngredientFactory" style="stroke: #A80036; stroke-width: 0.699999988079071; stroke-dasharray: 7.0,7.0;"/><polygon fill="none" points="189.7483,112.1386,184.7538,98.1722,197.3678,105.9758,189.7483,112.1386" style="stroke: #A80036; stroke-width: 0.699999988079071;"/><!--link Dough to ThickCursDough--><path d="M656.6042,195.8698 C647.8528,209.2741 637.6643,224.8783 630.1806,236.3408 " fill="none" id="Dough-ThickCursDough" style="stroke: #A80036; stroke-width: 0.699999988079071; stroke-dasharray: 7.0,7.0;"/><polygon fill="none" points="652.512,193.1748,664.2685,184.1308,660.7174,198.5326,652.512,193.1748" style="stroke: #A80036; stroke-width: 0.699999988079071;"/><!--link Dough to ThinCursDough--><path d="M692.9958,195.8698 C701.7472,209.2741 711.935,224.8783 719.418,236.3408 " fill="none" id="Dough-ThinCursDough" style="stroke: #A80036; stroke-width: 0.699999988079071; stroke-dasharray: 7.0,7.0;"/><polygon fill="none" points="688.8826,198.5326,685.3315,184.1308,697.088,193.1748,688.8826,198.5326" style="stroke: #A80036; stroke-width: 0.699999988079071;"/><!--link Sauce to PlumTomatoSauce--><path d="M435.6429,195.8698 C426.6703,209.2741 416.2242,224.8783 408.5515,236.3408 " fill="none" id="Sauce-PlumTomatoSauce" style="stroke: #A80036; stroke-width: 0.699999988079071; stroke-dasharray: 7.0,7.0;"/><polygon fill="none" points="431.6417,193.039,443.5018,184.1308,439.7855,198.4906,431.6417,193.039" style="stroke: #A80036; stroke-width: 0.699999988079071;"/><!--link Sauce to MarinaraSauce--><path d="M472.9571,195.8698 C481.9297,209.2741 492.3758,224.8783 500.0485,236.3408 " fill="none" id="Sauce-MarinaraSauce" style="stroke: #A80036; stroke-width: 0.699999988079071; stroke-dasharray: 7.0,7.0;"/><polygon fill="none" points="468.8145,198.4906,465.0982,184.1308,476.9583,193.039,468.8145,198.4906" style="stroke: #A80036; stroke-width: 0.699999988079071;"/><!--link NYPizzaIngredientFactory to ThickCursDough--><path d="M122.2536,194.6028 C133.077,201.2549 145.32,207.578 157.5,211.4 C329.9975,265.5315 385.3444,205.8406 563.5,236.6 C566.3658,237.0948 569.2946,237.6816 572.2353,238.3333 " fill="none" id="NYPizzaIngredientFactory-ThickCursDough" style="stroke: #A80036; stroke-width: 0.699999988079071;"/><polygon fill="#A80036" points="575.6905,239.1267,570.1766,234.9883,572.2792,238.3437,568.9238,240.4463,575.6905,239.1267" style="stroke: #A80036; stroke-width: 0.699999988079071;"/><!--link NYPizzaIngredientFactory to PlumTomatoSauce--><path d="M124.0288,194.6623 C134.4784,200.9861 146.0886,207.1272 157.5,211.4 C219.779,234.7179 296.1245,244.9721 345.7664,249.4136 " fill="none" id="NYPizzaIngredientFactory-PlumTomatoSauce" style="stroke: #A80036; stroke-width: 0.699999988079071;"/><polygon fill="#A80036" points="349.2937,249.7234,343.2626,246.3833,345.8071,249.4174,342.773,251.9619,349.2937,249.7234" style="stroke: #A80036; stroke-width: 0.699999988079071;"/><!--link ChicagoPizzaIngredientFactory to ThinCursDough--><path d="M291.3085,194.621 C306.0498,201.1884 322.3976,207.4618 338.1,211.4 C483.9562,247.9796 527.5739,209.5828 675.5,236.6 C678.4351,237.136 681.4367,237.7695 684.4488,238.47 " fill="none" id="ChicagoPizzaIngredientFactory-ThinCursDough" style="stroke: #A80036; stroke-width: 0.699999988079071;"/><polygon fill="#A80036" points="687.9866,239.3212,682.5167,235.1248,684.5838,238.5023,681.2063,240.5693,687.9866,239.3212" style="stroke: #A80036; stroke-width: 0.699999988079071;"/><!--link ChicagoPizzaIngredientFactory to MarinaraSauce--><path d="M294.763,194.6364 C308.6748,200.7376 323.7535,206.7793 338.1,211.4 C390.138,228.1616 405.5555,222.9713 458.5,236.6 C461.3532,237.3345 464.2834,238.1263 467.229,238.9509 " fill="none" id="ChicagoPizzaIngredientFactory-MarinaraSauce" style="stroke: #A80036; stroke-width: 0.699999988079071;"/><polygon fill="#A80036" points="470.6912,239.9325,465.3942,235.5198,467.324,238.9775,463.8663,240.9073,470.6912,239.9325" style="stroke: #A80036; stroke-width: 0.699999988079071;"/><!--
@startuml

package 工厂{

interface PizzaIngredientFactory{
    createDough()
    createSauce()

}

class NYPizzaIngredientFactory{
  createDough()
    createSauce()

}


class ChicagoPizzaIngredientFactory{
    createDough()
    createSauce()
}

PizzaIngredientFactory <|.. NYPizzaIngredientFactory
PizzaIngredientFactory <|.. ChicagoPizzaIngredientFactory


}


package 产品{


interface Dough{
}

interface Sauce{
}

Dough <|.. ThickCursDough
Dough <|.. ThinCursDough

Sauce <|.. PlumTomatoSauce
Sauce <|.. MarinaraSauce


}



NYPizzaIngredientFactory - -> ThickCursDough
NYPizzaIngredientFactory - -> PlumTomatoSauce


ChicagoPizzaIngredientFactory - -> ThinCursDough
ChicagoPizzaIngredientFactory - -> MarinaraSauce


@enduml

PlantUML version 1.2018.11(Sun Sep 23 00:43:53 CST 2018)
(GPL source distribution)
Java Runtime: OpenJDK Runtime Environment
JVM: OpenJDK 64-Bit Server VM
Java Version: 1.8.0_152-release-1248-b22
Operating System: Windows 10
OS Version: 10.0
Default Encoding: GBK
Language: zh
Country: CN
--></g></svg>