<?xml version="1.0" encoding="UTF-8" standalone="no"?><svg xmlns="http://www.w3.org/2000/svg" xmlns:xlink="http://www.w3.org/1999/xlink" contentScriptType="application/ecmascript" contentStyleType="text/css" height="184.5px" preserveAspectRatio="none" style="width:512px;height:184px;" version="1.1" viewBox="0 0 512 184" width="513px" zoomAndPan="magnify"><defs><filter height="300%" id="f1wxscyyscctea" width="300%" x="-1" y="-1"><feGaussianBlur result="blurOut" stdDeviation="1.7999999523162842"/><feColorMatrix in="blurOut" result="blurOut2" type="matrix" values="0 0 0 0 0 0 0 0 0 0 0 0 0 0 0 0 0 0 .4 0"/><feOffset dx="3.5999999046325684" dy="3.5999999046325684" in="blurOut2" result="blurOut3"/><feBlend in="SourceGraphic" in2="blurOut3" mode="normal"/></filter></defs><g><!--class Target--><rect fill="#FEFECE" filter="url(#f1wxscyyscctea)" height="43.2" id="Target" style="stroke: #A80036; stroke-width: 1.3499999642372131;" width="60.3" x="94.95" y="124.65"/><ellipse cx="108.45" cy="139.05" fill="#B4A7E5" rx="9.9" ry="9.9" style="stroke: #A80036; stroke-width: 0.8999999761581421;"/><path d="M105.6375,135.45 L105.6375,133.9312 L110.9812,133.9312 L110.9812,135.45 L109.2937,135.45 Q109.1531,135.45 109.1109,135.4781 Q109.0687,135.5062 109.0687,135.5484 L109.0687,142.8328 Q109.0687,142.875 109.1109,142.9031 Q109.1531,142.9312 109.2937,142.9312 L110.9812,142.9312 L110.9812,144.45 L105.6375,144.45 L105.6375,142.9312 L107.325,142.9312 Q107.5078,142.9312 107.5289,142.9172 Q107.55,142.9031 107.55,142.8328 L107.55,135.5484 Q107.55,135.4781 107.5289,135.4641 Q107.5078,135.45 107.325,135.45 L105.6375,135.45 Z "/><text fill="#000000" font-family="sans-serif" font-size="10.8" font-style="italic" lengthAdjust="spacingAndGlyphs" textLength="31.5" x="121.05" y="144.0519">Target</text><line style="stroke: #A80036; stroke-width: 1.3499999642372131;" x1="95.85" x2="154.35" y1="153.45" y2="153.45"/><line style="stroke: #A80036; stroke-width: 1.3499999642372131;" x1="95.85" x2="154.35" y1="160.65" y2="160.65"/><!--class Adapter--><rect fill="#FEFECE" filter="url(#f1wxscyyscctea)" height="56.7207" id="Adapter" style="stroke: #A80036; stroke-width: 1.3499999642372131;" width="66.6" x="187.2" y="117.9"/><ellipse cx="200.7" cy="132.3" fill="#ADD1B2" rx="9.9" ry="9.9" style="stroke: #A80036; stroke-width: 0.8999999761581421;"/><path d="M200.4187,137.7 Q198.675,137.7 197.6625,136.4133 Q196.65,135.1266 196.65,132.4687 Q196.65,130.2187 197.7187,128.7 Q198.7875,127.1812 200.6437,127.1812 Q201.0516,127.1812 201.4453,127.1812 Q201.8391,127.1812 202.1203,127.1812 Q202.3453,127.1812 202.493,127.1812 Q202.6406,127.1812 203.0062,127.1812 L203.6391,130.5 L202.6828,130.5 Q202.2891,129.5156 201.7758,129.1078 Q201.2625,128.7 200.4328,128.7 Q199.3922,128.7 198.7805,129.7617 Q198.1687,130.8234 198.1687,132.4687 Q198.1687,134.2828 198.6398,135.232 Q199.1109,136.1812 200.3766,136.1812 Q201.2062,136.1812 201.7898,135.668 Q202.3734,135.1547 202.6828,133.9031 L203.6109,134.3672 Q203.2594,135.9422 202.4156,136.8211 Q201.5719,137.7 200.4187,137.7 Z "/><text fill="#000000" font-family="sans-serif" font-size="10.8" lengthAdjust="spacingAndGlyphs" textLength="37.8" x="213.3" y="137.3019">Adapter</text><line style="stroke: #A80036; stroke-width: 1.3499999642372131;" x1="188.1" x2="252.9" y1="146.7" y2="146.7"/><line style="stroke: #A80036; stroke-width: 1.3499999642372131;" x1="188.1" x2="252.9" y1="153.9" y2="153.9"/><text fill="#000000" font-family="sans-serif" font-size="9.9" lengthAdjust="spacingAndGlyphs" textLength="40.5" x="192.6" y="168.8454">request()</text><!--class Adaptee--><rect fill="#FEFECE" filter="url(#f1wxscyyscctea)" height="56.7207" id="Adaptee" style="stroke: #A80036; stroke-width: 1.3499999642372131;" width="88.2" x="176.4" y="7.2"/><ellipse cx="198.405" cy="21.6" fill="#ADD1B2" rx="9.9" ry="9.9" style="stroke: #A80036; stroke-width: 0.8999999761581421;"/><path d="M198.1237,27 Q196.38,27 195.3675,25.7133 Q194.355,24.4266 194.355,21.7687 Q194.355,19.5187 195.4237,18 Q196.4925,16.4812 198.3487,16.4812 Q198.7566,16.4812 199.1503,16.4812 Q199.5441,16.4812 199.8253,16.4812 Q200.0503,16.4812 200.198,16.4812 Q200.3456,16.4812 200.7112,16.4812 L201.3441,19.8 L200.3878,19.8 Q199.9941,18.8156 199.4808,18.4078 Q198.9675,18 198.1378,18 Q197.0972,18 196.4855,19.0617 Q195.8737,20.1234 195.8737,21.7687 Q195.8737,23.5828 196.3448,24.532 Q196.8159,25.4812 198.0816,25.4812 Q198.9112,25.4812 199.4948,24.968 Q200.0784,24.4547 200.3878,23.2031 L201.3159,23.6672 Q200.9644,25.2422 200.1206,26.1211 Q199.2769,27 198.1237,27 Z "/><text fill="#000000" font-family="sans-serif" font-size="10.8" lengthAdjust="spacingAndGlyphs" textLength="40.5" x="212.895" y="26.6019">Adaptee</text><line style="stroke: #A80036; stroke-width: 1.3499999642372131;" x1="177.3" x2="263.7" y1="36" y2="36"/><line style="stroke: #A80036; stroke-width: 1.3499999642372131;" x1="177.3" x2="263.7" y1="43.2" y2="43.2"/><text fill="#000000" font-family="sans-serif" font-size="9.9" lengthAdjust="spacingAndGlyphs" textLength="77.4" x="181.8" y="58.1454">specificRequest()</text><!--class Client--><rect fill="#FEFECE" filter="url(#f1wxscyyscctea)" height="43.2" id="Client" style="stroke: #A80036; stroke-width: 1.3499999642372131;" width="57.6" x="5.4" y="124.65"/><ellipse cx="18.9" cy="139.05" fill="#ADD1B2" rx="9.9" ry="9.9" style="stroke: #A80036; stroke-width: 0.8999999761581421;"/><path d="M18.6187,144.45 Q16.875,144.45 15.8625,143.1633 Q14.85,141.8766 14.85,139.2187 Q14.85,136.9687 15.9187,135.45 Q16.9875,133.9312 18.8437,133.9312 Q19.2516,133.9312 19.6453,133.9312 Q20.0391,133.9312 20.3203,133.9312 Q20.5453,133.9312 20.693,133.9312 Q20.8406,133.9312 21.2062,133.9312 L21.8391,137.25 L20.8828,137.25 Q20.4891,136.2656 19.9758,135.8578 Q19.4625,135.45 18.6328,135.45 Q17.5922,135.45 16.9805,136.5117 Q16.3687,137.5734 16.3687,139.2187 Q16.3687,141.0328 16.8398,141.982 Q17.3109,142.9312 18.5766,142.9312 Q19.4062,142.9312 19.9898,142.418 Q20.5734,141.9047 20.8828,140.6531 L21.8109,141.1172 Q21.4594,142.6922 20.6156,143.5711 Q19.7719,144.45 18.6187,144.45 Z "/><text fill="#000000" font-family="sans-serif" font-size="10.8" lengthAdjust="spacingAndGlyphs" textLength="28.8" x="31.5" y="144.0519">Client</text><line style="stroke: #A80036; stroke-width: 1.3499999642372131;" x1="6.3" x2="62.1" y1="153.45" y2="153.45"/><line style="stroke: #A80036; stroke-width: 1.3499999642372131;" x1="6.3" x2="62.1" y1="160.65" y2="160.65"/><path d="M296.55,22.95 L296.55,47.929 L502.65,47.929 L502.65,31.95 L493.65,22.95 L296.55,22.95 " fill="#FBFB77" filter="url(#f1wxscyyscctea)" style="stroke: #A80036; stroke-width: 0.8999999761581421;"/><path d="M493.65,22.95 L493.65,31.95 L502.65,31.95 L493.65,22.95 " fill="#FBFB77" style="stroke: #A80036; stroke-width: 0.8999999761581421;"/><text fill="#000000" font-family="sans-serif" font-size="11.7" lengthAdjust="spacingAndGlyphs" textLength="187.2" x="301.95" y="40.8582">将被适配者转换成客户所需要的目标</text><!--link Client to Target--><path d="M63.3164,146.25 C72.2907,146.25 81.265,146.25 90.2392,146.25 " fill="none" id="Client-Target" style="stroke: #A80036; stroke-width: 0.8999999761581421;"/><polygon fill="#A80036" points="94.9323,146.25,86.8323,142.65,90.4323,146.25,86.8323,149.85,94.9323,146.25" style="stroke: #A80036; stroke-width: 0.8999999761581421;"/><!--link Target to Adapter--><path d="M173.4453,146.25 C178.0065,146.25 182.5677,146.25 187.128,146.25 " fill="none" id="Target-Adapter" style="stroke: #A80036; stroke-width: 0.8999999761581421; stroke-dasharray: 7.0,7.0;"/><polygon fill="none" points="173.2851,152.5499,155.2851,146.25,173.2851,139.9499,173.2851,152.5499" style="stroke: #A80036; stroke-width: 0.8999999761581421;"/><!--link Adaptee to Adapter--><path d="M220.5,63.9297 C220.5,78.8904 220.5,97.4857 220.5,113.1268 " fill="none" id="Adaptee-Adapter" style="stroke: #A80036; stroke-width: 0.8999999761581421;"/><polygon fill="#A80036" points="220.5,117.8788,224.1,109.7788,220.5,113.3788,216.9,109.7788,220.5,117.8788" style="stroke: #A80036; stroke-width: 0.8999999761581421;"/><!--
@startuml

interface Target{

}

class Adapter{
    request()
}

class Adaptee{
    specificRequest()
}

Client -> Target
Target <|. Adapter
Adaptee - -> Adapter

note as N1
    将被适配者转换成客户所需要的目标
end note

@enduml

PlantUML version 1.2018.11(Sun Sep 23 00:43:53 CST 2018)
(GPL source distribution)
Java Runtime: OpenJDK Runtime Environment
JVM: OpenJDK 64-Bit Server VM
Java Version: 1.8.0_152-release-1248-b22
Operating System: Windows 10
OS Version: 10.0
Default Encoding: GBK
Language: zh
Country: CN
--></g></svg>