<?xml version="1.0" encoding="UTF-8" standalone="no"?><svg xmlns="http://www.w3.org/2000/svg" xmlns:xlink="http://www.w3.org/1999/xlink" contentScriptType="application/ecmascript" contentStyleType="text/css" height="184.5px" preserveAspectRatio="none" style="width:258px;height:184px;" version="1.1" viewBox="0 0 258 184" width="258.3px" zoomAndPan="magnify"><defs><filter height="300%" id="fvj4qy02w9d9k" width="300%" x="-1" y="-1"><feGaussianBlur result="blurOut" stdDeviation="1.7999999523162842"/><feColorMatrix in="blurOut" result="blurOut2" type="matrix" values="0 0 0 0 0 0 0 0 0 0 0 0 0 0 0 0 0 0 .4 0"/><feOffset dx="3.5999999046325684" dy="3.5999999046325684" in="blurOut2" result="blurOut3"/><feBlend in="SourceGraphic" in2="blurOut3" mode="normal"/></filter></defs><g><!--class Duck--><rect fill="#FEFECE" filter="url(#fvj4qy02w9d9k)" height="56.7207" id="Duck" style="stroke: #A80036; stroke-width: 1.3499999642372131;" width="54.9" x="94.95" y="7.2"/><ellipse cx="108.45" cy="21.6" fill="#B4A7E5" rx="9.9" ry="9.9" style="stroke: #A80036; stroke-width: 0.8999999761581421;"/><path d="M105.6375,18 L105.6375,16.4812 L110.9812,16.4812 L110.9812,18 L109.2937,18 Q109.1531,18 109.1109,18.0281 Q109.0687,18.0562 109.0687,18.0984 L109.0687,25.3828 Q109.0687,25.425 109.1109,25.4531 Q109.1531,25.4812 109.2937,25.4812 L110.9812,25.4812 L110.9812,27 L105.6375,27 L105.6375,25.4812 L107.325,25.4812 Q107.5078,25.4812 107.5289,25.4672 Q107.55,25.4531 107.55,25.3828 L107.55,18.0984 Q107.55,18.0281 107.5289,18.0141 Q107.5078,18 107.325,18 L105.6375,18 Z "/><text fill="#000000" font-family="sans-serif" font-size="10.8" font-style="italic" lengthAdjust="spacingAndGlyphs" textLength="26.1" x="121.05" y="26.6019">Duck</text><line style="stroke: #A80036; stroke-width: 1.3499999642372131;" x1="95.85" x2="148.95" y1="36" y2="36"/><line style="stroke: #A80036; stroke-width: 1.3499999642372131;" x1="95.85" x2="148.95" y1="43.2" y2="43.2"/><text fill="#000000" font-family="sans-serif" font-size="9.9" lengthAdjust="spacingAndGlyphs" textLength="33.3" x="100.35" y="58.1454">quack()</text><!--class Adapter--><rect fill="#FEFECE" filter="url(#fvj4qy02w9d9k)" height="56.7207" id="Adapter" style="stroke: #A80036; stroke-width: 1.3499999642372131;" width="66.6" x="181.8" y="7.2"/><ellipse cx="195.3" cy="21.6" fill="#ADD1B2" rx="9.9" ry="9.9" style="stroke: #A80036; stroke-width: 0.8999999761581421;"/><path d="M195.0187,27 Q193.275,27 192.2625,25.7133 Q191.25,24.4266 191.25,21.7687 Q191.25,19.5187 192.3187,18 Q193.3875,16.4812 195.2437,16.4812 Q195.6516,16.4812 196.0453,16.4812 Q196.4391,16.4812 196.7203,16.4812 Q196.9453,16.4812 197.093,16.4812 Q197.2406,16.4812 197.6062,16.4812 L198.2391,19.8 L197.2828,19.8 Q196.8891,18.8156 196.3758,18.4078 Q195.8625,18 195.0328,18 Q193.9922,18 193.3805,19.0617 Q192.7687,20.1234 192.7687,21.7687 Q192.7687,23.5828 193.2398,24.532 Q193.7109,25.4812 194.9766,25.4812 Q195.8062,25.4812 196.3898,24.968 Q196.9734,24.4547 197.2828,23.2031 L198.2109,23.6672 Q197.8594,25.2422 197.0156,26.1211 Q196.1719,27 195.0187,27 Z "/><text fill="#000000" font-family="sans-serif" font-size="10.8" lengthAdjust="spacingAndGlyphs" textLength="37.8" x="207.9" y="26.6019">Adapter</text><line style="stroke: #A80036; stroke-width: 1.3499999642372131;" x1="182.7" x2="247.5" y1="36" y2="36"/><line style="stroke: #A80036; stroke-width: 1.3499999642372131;" x1="182.7" x2="247.5" y1="43.2" y2="43.2"/><text fill="#000000" font-family="sans-serif" font-size="9.9" lengthAdjust="spacingAndGlyphs" textLength="33.3" x="187.2" y="58.1454">quack()</text><!--class Goose--><rect fill="#FEFECE" filter="url(#fvj4qy02w9d9k)" height="56.7207" id="Goose" style="stroke: #A80036; stroke-width: 1.3499999642372131;" width="62.1" x="184.05" y="117.9"/><ellipse cx="197.55" cy="132.3" fill="#ADD1B2" rx="9.9" ry="9.9" style="stroke: #A80036; stroke-width: 0.8999999761581421;"/><path d="M197.2687,137.7 Q195.525,137.7 194.5125,136.4133 Q193.5,135.1266 193.5,132.4687 Q193.5,130.2187 194.5687,128.7 Q195.6375,127.1812 197.4937,127.1812 Q197.9016,127.1812 198.2953,127.1812 Q198.6891,127.1812 198.9703,127.1812 Q199.1953,127.1812 199.343,127.1812 Q199.4906,127.1812 199.8562,127.1812 L200.4891,130.5 L199.5328,130.5 Q199.1391,129.5156 198.6258,129.1078 Q198.1125,128.7 197.2828,128.7 Q196.2422,128.7 195.6305,129.7617 Q195.0187,130.8234 195.0187,132.4687 Q195.0187,134.2828 195.4898,135.232 Q195.9609,136.1812 197.2266,136.1812 Q198.0562,136.1812 198.6398,135.668 Q199.2234,135.1547 199.5328,133.9031 L200.4609,134.3672 Q200.1094,135.9422 199.2656,136.8211 Q198.4219,137.7 197.2687,137.7 Z "/><text fill="#000000" font-family="sans-serif" font-size="10.8" lengthAdjust="spacingAndGlyphs" textLength="33.3" x="210.15" y="137.3019">Goose</text><line style="stroke: #A80036; stroke-width: 1.3499999642372131;" x1="184.95" x2="245.25" y1="146.7" y2="146.7"/><line style="stroke: #A80036; stroke-width: 1.3499999642372131;" x1="184.95" x2="245.25" y1="153.9" y2="153.9"/><text fill="#000000" font-family="sans-serif" font-size="9.9" lengthAdjust="spacingAndGlyphs" textLength="27.9" x="189.45" y="168.8454">hook()</text><!--class Client--><rect fill="#FEFECE" filter="url(#fvj4qy02w9d9k)" height="43.2" id="Client" style="stroke: #A80036; stroke-width: 1.3499999642372131;" width="57.6" x="5.4" y="13.95"/><ellipse cx="18.9" cy="28.35" fill="#ADD1B2" rx="9.9" ry="9.9" style="stroke: #A80036; stroke-width: 0.8999999761581421;"/><path d="M18.6187,33.75 Q16.875,33.75 15.8625,32.4633 Q14.85,31.1766 14.85,28.5187 Q14.85,26.2687 15.9187,24.75 Q16.9875,23.2312 18.8437,23.2312 Q19.2516,23.2312 19.6453,23.2312 Q20.0391,23.2312 20.3203,23.2312 Q20.5453,23.2312 20.693,23.2312 Q20.8406,23.2312 21.2062,23.2312 L21.8391,26.55 L20.8828,26.55 Q20.4891,25.5656 19.9758,25.1578 Q19.4625,24.75 18.6328,24.75 Q17.5922,24.75 16.9805,25.8117 Q16.3687,26.8734 16.3687,28.5187 Q16.3687,30.3328 16.8398,31.282 Q17.3109,32.2312 18.5766,32.2312 Q19.4062,32.2312 19.9898,31.718 Q20.5734,31.2047 20.8828,29.9531 L21.8109,30.4172 Q21.4594,31.9922 20.6156,32.8711 Q19.7719,33.75 18.6187,33.75 Z "/><text fill="#000000" font-family="sans-serif" font-size="10.8" lengthAdjust="spacingAndGlyphs" textLength="28.8" x="31.5" y="33.3519">Client</text><line style="stroke: #A80036; stroke-width: 1.3499999642372131;" x1="6.3" x2="62.1" y1="42.75" y2="42.75"/><line style="stroke: #A80036; stroke-width: 1.3499999642372131;" x1="6.3" x2="62.1" y1="49.95" y2="49.95"/><!--link Client to Duck--><path d="M63.1407,35.55 C72.1425,35.55 81.1444,35.55 90.1462,35.55 " fill="none" id="Client-Duck" style="stroke: #A80036; stroke-width: 0.8999999761581421;"/><polygon fill="#A80036" points="94.8536,35.55,86.7536,31.95,90.3536,35.55,86.7536,39.15,94.8536,35.55" style="stroke: #A80036; stroke-width: 0.8999999761581421;"/><!--link Duck to Adapter--><path d="M168.0714,35.55 C172.6299,35.55 177.1875,35.55 181.746,35.55 " fill="none" id="Duck-Adapter" style="stroke: #A80036; stroke-width: 0.8999999761581421; stroke-dasharray: 7.0,7.0;"/><polygon fill="none" points="167.9202,41.85,149.9202,35.55,167.9202,29.25,167.9202,41.85" style="stroke: #A80036; stroke-width: 0.8999999761581421;"/><!--link Adapter to Goose--><path d="M215.1,63.9297 C215.1,78.8904 215.1,97.4857 215.1,113.1268 " fill="none" id="Adapter-Goose" style="stroke: #A80036; stroke-width: 0.8999999761581421;"/><polygon fill="#A80036" points="215.1,117.8788,218.7,109.7788,215.1,113.3788,211.5,109.7788,215.1,117.8788" style="stroke: #A80036; stroke-width: 0.8999999761581421;"/><!--
@startuml


interface Duck{
    quack()
}

class Adapter{
    quack()
}


class Goose{
    hook()
}


Client -> Duck
Duck <|. Adapter
Adapter - -> Goose
@enduml

PlantUML version 1.2018.11(Sun Sep 23 00:43:53 CST 2018)
(GPL source distribution)
Java Runtime: OpenJDK Runtime Environment
JVM: OpenJDK 64-Bit Server VM
Java Version: 1.8.0_152-release-1248-b22
Operating System: Windows 10
OS Version: 10.0
Default Encoding: GBK
Language: zh
Country: CN
--></g></svg>