<?xml version="1.0" encoding="UTF-8" standalone="no"?><svg xmlns="http://www.w3.org/2000/svg" xmlns:xlink="http://www.w3.org/1999/xlink" contentScriptType="application/ecmascript" contentStyleType="text/css" height="372px" preserveAspectRatio="none" style="width:388px;height:372px;" version="1.1" viewBox="0 0 388 372" width="388.8px" zoomAndPan="magnify"><defs><filter height="300%" id="f9knpgct1kxnp" width="300%" x="-1" y="-1"><feGaussianBlur result="blurOut" stdDeviation="2.4000000953674316"/><feColorMatrix in="blurOut" result="blurOut2" type="matrix" values="0 0 0 0 0 0 0 0 0 0 0 0 0 0 0 0 0 0 .4 0"/><feOffset dx="4.800000190734863" dy="4.800000190734863" in="blurOut2" result="blurOut3"/><feBlend in="SourceGraphic" in2="blurOut3" mode="normal"/></filter></defs><g><!--class MenuComponent--><rect fill="#FEFECE" filter="url(#f9knpgct1kxnp)" height="129.7102" id="MenuComponent" style="stroke: #A80036; stroke-width: 1.8000000715255737;" width="163.2" x="212.4" y="9.6"/><ellipse cx="235.26" cy="28.8" fill="#B4A7E5" rx="13.2" ry="13.2" style="stroke: #A80036; stroke-width: 1.2000000476837158;"/><path d="M231.51,24 L231.51,21.975 L238.635,21.975 L238.635,24 L236.385,24 Q236.1975,24 236.1413,24.0375 Q236.085,24.075 236.085,24.1313 L236.085,33.8438 Q236.085,33.9 236.1413,33.9375 Q236.1975,33.975 236.385,33.975 L238.635,33.975 L238.635,36 L231.51,36 L231.51,33.975 L233.76,33.975 Q234.0038,33.975 234.0319,33.9563 Q234.06,33.9375 234.06,33.8438 L234.06,24.1313 Q234.06,24.0375 234.0319,24.0188 Q234.0038,24 233.76,24 L231.51,24 Z "/><text fill="#000000" font-family="sans-serif" font-size="14.4" font-style="italic" lengthAdjust="spacingAndGlyphs" textLength="114" x="253.14" y="35.4691">MenuComponent</text><line style="stroke: #A80036; stroke-width: 1.8000000715255737;" x1="213.6" x2="374.4" y1="48" y2="48"/><line style="stroke: #A80036; stroke-width: 1.8000000715255737;" x1="213.6" x2="374.4" y1="57.6" y2="57.6"/><text fill="#000000" font-family="sans-serif" font-size="13.2" lengthAdjust="spacingAndGlyphs" textLength="60" x="219.6" y="77.5272">getName()</text><text fill="#000000" font-family="sans-serif" font-size="13.2" lengthAdjust="spacingAndGlyphs" textLength="127.2" x="219.6" y="95.5547">add(MenuComponent)</text><text fill="#000000" font-family="sans-serif" font-size="13.2" lengthAdjust="spacingAndGlyphs" textLength="148.8" x="219.6" y="113.5822">remove(MenuComponent)</text><text fill="#000000" font-family="sans-serif" font-size="13.2" lengthAdjust="spacingAndGlyphs" textLength="68.4" x="219.6" y="131.6098">getChild(int)</text><!--class MenuItem--><rect fill="#FEFECE" filter="url(#f9knpgct1kxnp)" height="129.7102" id="MenuItem" style="stroke: #A80036; stroke-width: 1.8000000715255737;" width="163.2" x="7.2" y="220.2"/><ellipse cx="52.2" cy="239.4" fill="#ADD1B2" rx="13.2" ry="13.2" style="stroke: #A80036; stroke-width: 1.2000000476837158;"/><path d="M51.825,246.6 Q49.5,246.6 48.15,244.8844 Q46.8,243.1688 46.8,239.625 Q46.8,236.625 48.225,234.6 Q49.65,232.575 52.125,232.575 Q52.6688,232.575 53.1938,232.575 Q53.7188,232.575 54.0938,232.575 Q54.3938,232.575 54.5906,232.575 Q54.7875,232.575 55.275,232.575 L56.1188,237 L54.8438,237 Q54.3188,235.6875 53.6344,235.1438 Q52.95,234.6 51.8438,234.6 Q50.4563,234.6 49.6406,236.0156 Q48.825,237.4313 48.825,239.625 Q48.825,242.0438 49.4531,243.3094 Q50.0813,244.575 51.7688,244.575 Q52.875,244.575 53.6531,243.8906 Q54.4313,243.2063 54.8438,241.5375 L56.0813,242.1563 Q55.6125,244.2563 54.4875,245.4281 Q53.3625,246.6 51.825,246.6 Z "/><text fill="#000000" font-family="sans-serif" font-size="14.4" lengthAdjust="spacingAndGlyphs" textLength="64.8" x="75" y="246.0692">MenuItem</text><line style="stroke: #A80036; stroke-width: 1.8000000715255737;" x1="8.4" x2="169.2" y1="258.6" y2="258.6"/><line style="stroke: #A80036; stroke-width: 1.8000000715255737;" x1="8.4" x2="169.2" y1="268.2" y2="268.2"/><text fill="#000000" font-family="sans-serif" font-size="13.2" lengthAdjust="spacingAndGlyphs" textLength="60" x="14.4" y="288.1272">getName()</text><text fill="#000000" font-family="sans-serif" font-size="13.2" lengthAdjust="spacingAndGlyphs" textLength="127.2" x="14.4" y="306.1547">add(MenuComponent)</text><text fill="#000000" font-family="sans-serif" font-size="13.2" lengthAdjust="spacingAndGlyphs" textLength="148.8" x="14.4" y="324.1822">remove(MenuComponent)</text><text fill="#000000" font-family="sans-serif" font-size="13.2" lengthAdjust="spacingAndGlyphs" textLength="68.4" x="14.4" y="342.2098">getChild(int)</text><!--class Menu--><rect fill="#FEFECE" filter="url(#f9knpgct1kxnp)" height="147.7377" id="Menu" style="stroke: #A80036; stroke-width: 1.8000000715255737;" width="163.2" x="212.4" y="211.2"/><ellipse cx="270.9" cy="230.4" fill="#ADD1B2" rx="13.2" ry="13.2" style="stroke: #A80036; stroke-width: 1.2000000476837158;"/><path d="M270.525,237.6 Q268.2,237.6 266.85,235.8844 Q265.5,234.1688 265.5,230.625 Q265.5,227.625 266.925,225.6 Q268.35,223.575 270.825,223.575 Q271.3688,223.575 271.8938,223.575 Q272.4188,223.575 272.7938,223.575 Q273.0938,223.575 273.2906,223.575 Q273.4875,223.575 273.975,223.575 L274.8188,228 L273.5438,228 Q273.0188,226.6875 272.3344,226.1438 Q271.65,225.6 270.5438,225.6 Q269.1563,225.6 268.3406,227.0156 Q267.525,228.4313 267.525,230.625 Q267.525,233.0438 268.1531,234.3094 Q268.7813,235.575 270.4688,235.575 Q271.575,235.575 272.3531,234.8906 Q273.1313,234.2063 273.5438,232.5375 L274.7813,233.1563 Q274.3125,235.2563 273.1875,236.4281 Q272.0625,237.6 270.525,237.6 Z "/><text fill="#000000" font-family="sans-serif" font-size="14.4" lengthAdjust="spacingAndGlyphs" textLength="36" x="295.5" y="237.0692">Menu</text><line style="stroke: #A80036; stroke-width: 1.8000000715255737;" x1="213.6" x2="374.4" y1="249.6" y2="249.6"/><text fill="#000000" font-family="sans-serif" font-size="13.2" lengthAdjust="spacingAndGlyphs" textLength="103.2" x="219.6" y="269.5272">menuComponents</text><line style="stroke: #A80036; stroke-width: 1.8000000715255737;" x1="213.6" x2="374.4" y1="277.2276" y2="277.2276"/><text fill="#000000" font-family="sans-serif" font-size="13.2" lengthAdjust="spacingAndGlyphs" textLength="60" x="219.6" y="297.1547">getName()</text><text fill="#000000" font-family="sans-serif" font-size="13.2" lengthAdjust="spacingAndGlyphs" textLength="127.2" x="219.6" y="315.1822">add(MenuComponent)</text><text fill="#000000" font-family="sans-serif" font-size="13.2" lengthAdjust="spacingAndGlyphs" textLength="148.8" x="219.6" y="333.2098">remove(MenuComponent)</text><text fill="#000000" font-family="sans-serif" font-size="13.2" lengthAdjust="spacingAndGlyphs" textLength="68.4" x="219.6" y="351.2373">getChild(int)</text><!--link MenuComponent to MenuItem--><path d="M213.8448,156.9264 C193.2624,177.8112 171.4116,199.98 151.8324,219.846 " fill="none" id="MenuComponent-MenuItem" style="stroke: #A80036; stroke-width: 1.2000000476837158;"/><polygon fill="none" points="207.9288,150.9624,230.7588,139.7652,219.894,162.756,207.9288,150.9624" style="stroke: #A80036; stroke-width: 1.2000000476837158;"/><!--link MenuComponent to Menu--><path d="M278.8584,163.8876 C278.5416,179.6316 278.7012,195.8712 279.3372,211.1172 " fill="none" id="MenuComponent-Menu" style="stroke: #A80036; stroke-width: 1.2000000476837158;"/><polygon fill="none" points="270.4692,163.44,279.7476,139.7652,287.2572,164.0592,270.4692,163.44" style="stroke: #A80036; stroke-width: 1.2000000476837158;"/><!--link MenuComponent to Menu--><path d="M309.4296,146.19 C310.4232,167.1156 310.4556,190.062 309.5256,211.1172 " fill="none" id="MenuComponent-Menu" style="stroke: #A80036; stroke-width: 1.2000000476837158;"/><polygon fill="#A80036" points="309.09,139.7652,304.8676,150.8038,309.4072,145.7568,314.4542,150.2964,309.09,139.7652" style="stroke: #A80036; stroke-width: 1.2000000476837158;"/><!--
@startuml

interface MenuComponent{
    getName()
    add(MenuComponent)
    remove(MenuComponent)
    getChild(int)
}

class MenuItem{
      getName()
        add(MenuComponent)
        remove(MenuComponent)
    getChild(int)
 }

class Menu{
    menuComponents
     getName()
        add(MenuComponent)
        remove(MenuComponent)
        getChild(int)
}


MenuComponent <|- - MenuItem
MenuComponent <|- - Menu
MenuComponent <- - Menu




@enduml

PlantUML version 1.2018.11(Sun Sep 23 00:43:53 CST 2018)
(GPL source distribution)
Java Runtime: OpenJDK Runtime Environment
JVM: OpenJDK 64-Bit Server VM
Java Version: 1.8.0_152-release-1248-b22
Operating System: Windows 10
OS Version: 10.0
Default Encoding: GBK
Language: zh
Country: CN
--></g></svg>