<?xml version="1.0" encoding="UTF-8" standalone="no"?><svg xmlns="http://www.w3.org/2000/svg" xmlns:xlink="http://www.w3.org/1999/xlink" contentScriptType="application/ecmascript" contentStyleType="text/css" height="157.5px" preserveAspectRatio="none" style="width:269px;height:157px;" version="1.1" viewBox="0 0 269 157" width="269.1px" zoomAndPan="magnify"><defs><filter height="300%" id="f1kux1oh1hzw3x" width="300%" x="-1" y="-1"><feGaussianBlur result="blurOut" stdDeviation="1.7999999523162842"/><feColorMatrix in="blurOut" result="blurOut2" type="matrix" values="0 0 0 0 0 0 0 0 0 0 0 0 0 0 0 0 0 0 .4 0"/><feOffset dx="3.5999999046325684" dy="3.5999999046325684" in="blurOut2" result="blurOut3"/><feBlend in="SourceGraphic" in2="blurOut3" mode="normal"/></filter></defs><g><!--class Product--><rect fill="#FEFECE" filter="url(#f1kux1oh1hzw3x)" height="43.2" id="Product" style="stroke: #A80036; stroke-width: 1.3499999642372131;" width="66.6" x="27.9" y="7.2"/><ellipse cx="41.4" cy="21.6" fill="#A9DCDF" rx="9.9" ry="9.9" style="stroke: #A80036; stroke-width: 0.8999999761581421;"/><path d="M42.3703,22.5 L39.8391,22.5 L39.1078,23.9484 Q39.0656,24.0891 39.0656,24.2156 Q39.0656,24.3844 39.1078,24.4828 Q39.15,24.5812 39.3469,24.5812 L39.8391,24.5812 L39.8391,26.1 L36.9,26.1 L36.9,24.5812 L37.4062,24.5812 Q37.6031,24.5812 37.7086,24.525 Q37.8141,24.4687 37.8562,24.3 L40.6406,15.5812 L41.8781,15.5812 L44.6062,24.2016 Q44.6906,24.4125 44.8172,24.4969 Q44.9437,24.5812 45.1125,24.5812 L45.6187,24.5812 L45.6187,26.1 L42.3281,26.1 L42.3281,24.5812 L42.8766,24.5812 Q43.0312,24.5812 43.0383,24.5672 Q43.0453,24.5531 43.0453,24.4969 Q43.0453,24.3422 43.0172,24.2578 L42.3703,22.5 Z M37.6734,25.2 L37.6734,25.2 Z M38.2781,25.2 L38.2781,25.2 Z M42.525,25.2 L42.525,25.2 Z M43.5375,25.2 L43.5375,25.2 Z M41.0203,17.4656 L41.0906,17.4656 L40.3172,20.9812 L42.075,20.9812 L41.0203,17.4656 Z "/><text fill="#000000" font-family="sans-serif" font-size="10.8" font-style="italic" lengthAdjust="spacingAndGlyphs" textLength="37.8" x="54" y="26.6019">Product</text><line style="stroke: #A80036; stroke-width: 1.3499999642372131;" x1="28.8" x2="93.6" y1="36" y2="36"/><line style="stroke: #A80036; stroke-width: 1.3499999642372131;" x1="28.8" x2="93.6" y1="43.2" y2="43.2"/><!--class ConcreteProduct--><rect fill="#FEFECE" filter="url(#f1kux1oh1hzw3x)" height="43.2" id="ConcreteProduct" style="stroke: #A80036; stroke-width: 1.3499999642372131;" width="111.6" x="5.4" y="104.4"/><ellipse cx="18.9" cy="118.8" fill="#ADD1B2" rx="9.9" ry="9.9" style="stroke: #A80036; stroke-width: 0.8999999761581421;"/><path d="M18.6187,124.2 Q16.875,124.2 15.8625,122.9133 Q14.85,121.6266 14.85,118.9687 Q14.85,116.7187 15.9187,115.2 Q16.9875,113.6812 18.8437,113.6812 Q19.2516,113.6812 19.6453,113.6812 Q20.0391,113.6812 20.3203,113.6812 Q20.5453,113.6812 20.693,113.6812 Q20.8406,113.6812 21.2062,113.6812 L21.8391,117 L20.8828,117 Q20.4891,116.0156 19.9758,115.6078 Q19.4625,115.2 18.6328,115.2 Q17.5922,115.2 16.9805,116.2617 Q16.3687,117.3234 16.3687,118.9687 Q16.3687,120.7828 16.8398,121.732 Q17.3109,122.6812 18.5766,122.6812 Q19.4062,122.6812 19.9898,122.168 Q20.5734,121.6547 20.8828,120.4031 L21.8109,120.8672 Q21.4594,122.4422 20.6156,123.3211 Q19.7719,124.2 18.6187,124.2 Z "/><text fill="#000000" font-family="sans-serif" font-size="10.8" lengthAdjust="spacingAndGlyphs" textLength="82.8" x="31.5" y="123.8019">ConcreteProduct</text><line style="stroke: #A80036; stroke-width: 1.3499999642372131;" x1="6.3" x2="116.1" y1="133.2" y2="133.2"/><line style="stroke: #A80036; stroke-width: 1.3499999642372131;" x1="6.3" x2="116.1" y1="140.4" y2="140.4"/><!--class Creator--><rect fill="#FEFECE" filter="url(#f1kux1oh1hzw3x)" height="43.2" id="Creator" style="stroke: #A80036; stroke-width: 1.3499999642372131;" width="65.7" x="171.45" y="7.2"/><ellipse cx="184.95" cy="21.6" fill="#A9DCDF" rx="9.9" ry="9.9" style="stroke: #A80036; stroke-width: 0.8999999761581421;"/><path d="M185.9203,22.5 L183.3891,22.5 L182.6578,23.9484 Q182.6156,24.0891 182.6156,24.2156 Q182.6156,24.3844 182.6578,24.4828 Q182.7,24.5812 182.8969,24.5812 L183.3891,24.5812 L183.3891,26.1 L180.45,26.1 L180.45,24.5812 L180.9562,24.5812 Q181.1531,24.5812 181.2586,24.525 Q181.3641,24.4687 181.4062,24.3 L184.1906,15.5812 L185.4281,15.5812 L188.1562,24.2016 Q188.2406,24.4125 188.3672,24.4969 Q188.4937,24.5812 188.6625,24.5812 L189.1687,24.5812 L189.1687,26.1 L185.8781,26.1 L185.8781,24.5812 L186.4266,24.5812 Q186.5812,24.5812 186.5883,24.5672 Q186.5953,24.5531 186.5953,24.4969 Q186.5953,24.3422 186.5672,24.2578 L185.9203,22.5 Z M181.2234,25.2 L181.2234,25.2 Z M181.8281,25.2 L181.8281,25.2 Z M186.075,25.2 L186.075,25.2 Z M187.0875,25.2 L187.0875,25.2 Z M184.5703,17.4656 L184.6406,17.4656 L183.8672,20.9812 L185.625,20.9812 L184.5703,17.4656 Z "/><text fill="#000000" font-family="sans-serif" font-size="10.8" font-style="italic" lengthAdjust="spacingAndGlyphs" textLength="36.9" x="197.55" y="26.6019">Creator</text><line style="stroke: #A80036; stroke-width: 1.3499999642372131;" x1="172.35" x2="236.25" y1="36" y2="36"/><line style="stroke: #A80036; stroke-width: 1.3499999642372131;" x1="172.35" x2="236.25" y1="43.2" y2="43.2"/><!--class ConcreteCreator--><rect fill="#FEFECE" filter="url(#f1kux1oh1hzw3x)" height="43.2" id="ConcreteCreator" style="stroke: #A80036; stroke-width: 1.3499999642372131;" width="110.7" x="148.95" y="104.4"/><ellipse cx="162.45" cy="118.8" fill="#ADD1B2" rx="9.9" ry="9.9" style="stroke: #A80036; stroke-width: 0.8999999761581421;"/><path d="M162.1687,124.2 Q160.425,124.2 159.4125,122.9133 Q158.4,121.6266 158.4,118.9687 Q158.4,116.7187 159.4687,115.2 Q160.5375,113.6812 162.3937,113.6812 Q162.8016,113.6812 163.1953,113.6812 Q163.5891,113.6812 163.8703,113.6812 Q164.0953,113.6812 164.243,113.6812 Q164.3906,113.6812 164.7562,113.6812 L165.3891,117 L164.4328,117 Q164.0391,116.0156 163.5258,115.6078 Q163.0125,115.2 162.1828,115.2 Q161.1422,115.2 160.5305,116.2617 Q159.9187,117.3234 159.9187,118.9687 Q159.9187,120.7828 160.3898,121.732 Q160.8609,122.6812 162.1266,122.6812 Q162.9562,122.6812 163.5398,122.168 Q164.1234,121.6547 164.4328,120.4031 L165.3609,120.8672 Q165.0094,122.4422 164.1656,123.3211 Q163.3219,124.2 162.1687,124.2 Z "/><text fill="#000000" font-family="sans-serif" font-size="10.8" lengthAdjust="spacingAndGlyphs" textLength="81.9" x="175.05" y="123.8019">ConcreteCreator</text><line style="stroke: #A80036; stroke-width: 1.3499999642372131;" x1="149.85" x2="258.75" y1="133.2" y2="133.2"/><line style="stroke: #A80036; stroke-width: 1.3499999642372131;" x1="149.85" x2="258.75" y1="140.4" y2="140.4"/><!--link Product to ConcreteProduct--><path d="M61.2,68.4212 C61.2,80.6213 61.2,93.6343 61.2,104.1106 " fill="none" id="Product-ConcreteProduct" style="stroke: #A80036; stroke-width: 0.8999999761581421;"/><polygon fill="none" points="54.9001,68.4004,61.2,50.4,67.5001,68.4004,54.9001,68.4004" style="stroke: #A80036; stroke-width: 0.8999999761581421;"/><!--link Creator to ConcreteCreator--><path d="M204.3,68.4212 C204.3,80.6213 204.3,93.6343 204.3,104.1106 " fill="none" id="Creator-ConcreteCreator" style="stroke: #A80036; stroke-width: 0.8999999761581421;"/><polygon fill="none" points="198,68.4004,204.3,50.4,210.6,68.4004,198,68.4004" style="stroke: #A80036; stroke-width: 0.8999999761581421;"/><!--link ConcreteProduct to ConcreteCreator--><path d="M121.8006,126 C130.7925,126 139.7853,126 148.7772,126 " fill="none" id="ConcreteProduct-ConcreteCreator" style="stroke: #A80036; stroke-width: 0.8999999761581421;"/><polygon fill="#A80036" points="117.0981,126,125.1981,129.6,121.5981,126,125.1981,122.4,117.0981,126" style="stroke: #A80036; stroke-width: 0.8999999761581421;"/><!--
@startuml

abstract Product{

}


class ConcreteProduct{

}

Product <|- - ConcreteProduct

abstract Creator{

}

class ConcreteCreator{

}

Creator <|- - ConcreteCreator


ConcreteProduct <- ConcreteCreator

@enduml

PlantUML version 1.2018.11(Sun Sep 23 00:43:53 CST 2018)
(GPL source distribution)
Java Runtime: OpenJDK Runtime Environment
JVM: OpenJDK 64-Bit Server VM
Java Version: 1.8.0_152-release-1248-b22
Operating System: Windows 10
OS Version: 10.0
Default Encoding: GBK
Language: zh
Country: CN
--></g></svg>