<?xml version="1.0" encoding="UTF-8" standalone="no"?><svg xmlns="http://www.w3.org/2000/svg" xmlns:xlink="http://www.w3.org/1999/xlink" contentScriptType="application/ecmascript" contentStyleType="text/css" height="220.8px" preserveAspectRatio="none" style="width:612px;height:220px;" version="1.1" viewBox="0 0 612 220" width="612px" zoomAndPan="magnify"><defs><filter height="300%" id="fa18hn21hmoq" width="300%" x="-1" y="-1"><feGaussianBlur result="blurOut" stdDeviation="1.600000023841858"/><feColorMatrix in="blurOut" result="blurOut2" type="matrix" values="0 0 0 0 0 0 0 0 0 0 0 0 0 0 0 0 0 0 .4 0"/><feOffset dx="3.200000047683716" dy="3.200000047683716" in="blurOut2" result="blurOut3"/><feBlend in="SourceGraphic" in2="blurOut3" mode="normal"/></filter></defs><g><!--cluster 产品类--><polygon fill="#FFFFFF" filter="url(#fa18hn21hmoq)" points="283.2,25.2,324,25.2,329.6,45.2961,594.4,45.2961,594.4,205.2,283.2,205.2,283.2,25.2" style="stroke: #000000; stroke-width: 1.2000000178813934;"/><line style="stroke: #000000; stroke-width: 1.2000000178813934;" x1="283.2" x2="329.6" y1="45.2961" y2="45.2961"/><text fill="#000000" font-family="sans-serif" font-size="11.2" font-weight="bold" lengthAdjust="spacingAndGlyphs" textLength="36" x="286.4" y="39.6352">产品类</text><!--cluster 创建者类--><polygon fill="#FFFFFF" filter="url(#fa18hn21hmoq)" points="17.6,19.2,70.4,19.2,76,39.2961,264,39.2961,264,211.2,17.6,211.2,17.6,19.2" style="stroke: #000000; stroke-width: 1.2000000178813934;"/><line style="stroke: #000000; stroke-width: 1.2000000178813934;" x1="17.6" x2="76" y1="39.2961" y2="39.2961"/><text fill="#000000" font-family="sans-serif" font-size="11.2" font-weight="bold" lengthAdjust="spacingAndGlyphs" textLength="48" x="20.8" y="33.6352">创建者类</text><!--class Pizza--><rect fill="#FEFECE" filter="url(#fa18hn21hmoq)" height="38.4" id="Pizza" style="stroke: #A80036; stroke-width: 1.2000000178813934;" width="48" x="408.8" y="55.6"/><ellipse cx="420.8" cy="68.4" fill="#ADD1B2" rx="8.8" ry="8.8" style="stroke: #A80036; stroke-width: 0.800000011920929;"/><path d="M420.55,73.2 Q419,73.2 418.1,72.0563 Q417.2,70.9125 417.2,68.55 Q417.2,66.55 418.15,65.2 Q419.1,63.85 420.75,63.85 Q421.1125,63.85 421.4625,63.85 Q421.8125,63.85 422.0625,63.85 Q422.2625,63.85 422.3938,63.85 Q422.525,63.85 422.85,63.85 L423.4125,66.8 L422.5625,66.8 Q422.2125,65.925 421.7563,65.5625 Q421.3,65.2 420.5625,65.2 Q419.6375,65.2 419.0938,66.1438 Q418.55,67.0875 418.55,68.55 Q418.55,70.1625 418.9688,71.0063 Q419.3875,71.85 420.5125,71.85 Q421.25,71.85 421.7688,71.3938 Q422.2875,70.9375 422.5625,69.825 L423.3875,70.2375 Q423.075,71.6375 422.325,72.4188 Q421.575,73.2 420.55,73.2 Z "/><text fill="#000000" font-family="sans-serif" font-size="9.6" lengthAdjust="spacingAndGlyphs" textLength="22.4" x="432" y="72.8461">Pizza</text><line style="stroke: #A80036; stroke-width: 1.2000000178813934;" x1="409.6" x2="456" y1="81.2" y2="81.2"/><line style="stroke: #A80036; stroke-width: 1.2000000178813934;" x1="409.6" x2="456" y1="87.6" y2="87.6"/><!--class NYStyleCheesePizza--><rect fill="#FEFECE" filter="url(#fa18hn21hmoq)" height="38.4" id="NYStyleCheesePizza" style="stroke: #A80036; stroke-width: 1.2000000178813934;" width="116.8" x="296" y="154"/><ellipse cx="308" cy="166.8" fill="#ADD1B2" rx="8.8" ry="8.8" style="stroke: #A80036; stroke-width: 0.800000011920929;"/><path d="M307.75,171.6 Q306.2,171.6 305.3,170.4563 Q304.4,169.3125 304.4,166.95 Q304.4,164.95 305.35,163.6 Q306.3,162.25 307.95,162.25 Q308.3125,162.25 308.6625,162.25 Q309.0125,162.25 309.2625,162.25 Q309.4625,162.25 309.5938,162.25 Q309.725,162.25 310.05,162.25 L310.6125,165.2 L309.7625,165.2 Q309.4125,164.325 308.9563,163.9625 Q308.5,163.6 307.7625,163.6 Q306.8375,163.6 306.2938,164.5438 Q305.75,165.4875 305.75,166.95 Q305.75,168.5625 306.1688,169.4063 Q306.5875,170.25 307.7125,170.25 Q308.45,170.25 308.9688,169.7938 Q309.4875,169.3375 309.7625,168.225 L310.5875,168.6375 Q310.275,170.0375 309.525,170.8188 Q308.775,171.6 307.75,171.6 Z "/><text fill="#000000" font-family="sans-serif" font-size="9.6" lengthAdjust="spacingAndGlyphs" textLength="91.2" x="319.2" y="171.2461">NYStyleCheesePizza</text><line style="stroke: #A80036; stroke-width: 1.2000000178813934;" x1="296.8" x2="412" y1="179.6" y2="179.6"/><line style="stroke: #A80036; stroke-width: 1.2000000178813934;" x1="296.8" x2="412" y1="186" y2="186"/><!--class ChicagoStyleCheesePizza--><rect fill="#FEFECE" filter="url(#fa18hn21hmoq)" height="38.4" id="ChicagoStyleCheesePizza" style="stroke: #A80036; stroke-width: 1.2000000178813934;" width="140.8" x="440.8" y="154"/><ellipse cx="452.8" cy="166.8" fill="#ADD1B2" rx="8.8" ry="8.8" style="stroke: #A80036; stroke-width: 0.800000011920929;"/><path d="M452.55,171.6 Q451,171.6 450.1,170.4563 Q449.2,169.3125 449.2,166.95 Q449.2,164.95 450.15,163.6 Q451.1,162.25 452.75,162.25 Q453.1125,162.25 453.4625,162.25 Q453.8125,162.25 454.0625,162.25 Q454.2625,162.25 454.3938,162.25 Q454.525,162.25 454.85,162.25 L455.4125,165.2 L454.5625,165.2 Q454.2125,164.325 453.7563,163.9625 Q453.3,163.6 452.5625,163.6 Q451.6375,163.6 451.0938,164.5438 Q450.55,165.4875 450.55,166.95 Q450.55,168.5625 450.9688,169.4063 Q451.3875,170.25 452.5125,170.25 Q453.25,170.25 453.7688,169.7938 Q454.2875,169.3375 454.5625,168.225 L455.3875,168.6375 Q455.075,170.0375 454.325,170.8188 Q453.575,171.6 452.55,171.6 Z "/><text fill="#000000" font-family="sans-serif" font-size="9.6" lengthAdjust="spacingAndGlyphs" textLength="115.2" x="464" y="171.2461">ChicagoStyleCheesePizza</text><line style="stroke: #A80036; stroke-width: 1.2000000178813934;" x1="441.6" x2="580.8" y1="179.6" y2="179.6"/><line style="stroke: #A80036; stroke-width: 1.2000000178813934;" x1="441.6" x2="580.8" y1="186" y2="186"/><!--class PizzaStore--><rect fill="#FEFECE" filter="url(#fa18hn21hmoq)" height="50.4184" id="PizzaStore" style="stroke: #A80036; stroke-width: 1.2000000178813934;" width="71.2" x="98.8" y="49.6"/><ellipse cx="110.8" cy="62.4" fill="#ADD1B2" rx="8.8" ry="8.8" style="stroke: #A80036; stroke-width: 0.800000011920929;"/><path d="M110.55,67.2 Q109,67.2 108.1,66.0563 Q107.2,64.9125 107.2,62.55 Q107.2,60.55 108.15,59.2 Q109.1,57.85 110.75,57.85 Q111.1125,57.85 111.4625,57.85 Q111.8125,57.85 112.0625,57.85 Q112.2625,57.85 112.3938,57.85 Q112.525,57.85 112.85,57.85 L113.4125,60.8 L112.5625,60.8 Q112.2125,59.925 111.7563,59.5625 Q111.3,59.2 110.5625,59.2 Q109.6375,59.2 109.0938,60.1438 Q108.55,61.0875 108.55,62.55 Q108.55,64.1625 108.9688,65.0063 Q109.3875,65.85 110.5125,65.85 Q111.25,65.85 111.7688,65.3938 Q112.2875,64.9375 112.5625,63.825 L113.3875,64.2375 Q113.075,65.6375 112.325,66.4188 Q111.575,67.2 110.55,67.2 Z "/><text fill="#000000" font-family="sans-serif" font-size="9.6" lengthAdjust="spacingAndGlyphs" textLength="45.6" x="122" y="66.8461">PizzaStore</text><line style="stroke: #A80036; stroke-width: 1.2000000178813934;" x1="99.6" x2="169.2" y1="75.2" y2="75.2"/><line style="stroke: #A80036; stroke-width: 1.2000000178813934;" x1="99.6" x2="169.2" y1="81.6" y2="81.6"/><text fill="#000000" font-family="sans-serif" font-size="8.8" lengthAdjust="spacingAndGlyphs" textLength="52" x="103.6" y="94.8848">createPizza()</text><!--class NYPizzaStore--><rect fill="#FEFECE" filter="url(#fa18hn21hmoq)" height="50.4184" id="NYPizzaStore" style="stroke: #A80036; stroke-width: 1.2000000178813934;" width="84" x="30.8" y="148"/><ellipse cx="42.8" cy="160.8" fill="#ADD1B2" rx="8.8" ry="8.8" style="stroke: #A80036; stroke-width: 0.800000011920929;"/><path d="M42.55,165.6 Q41,165.6 40.1,164.4563 Q39.2,163.3125 39.2,160.95 Q39.2,158.95 40.15,157.6 Q41.1,156.25 42.75,156.25 Q43.1125,156.25 43.4625,156.25 Q43.8125,156.25 44.0625,156.25 Q44.2625,156.25 44.3938,156.25 Q44.525,156.25 44.85,156.25 L45.4125,159.2 L44.5625,159.2 Q44.2125,158.325 43.7563,157.9625 Q43.3,157.6 42.5625,157.6 Q41.6375,157.6 41.0938,158.5438 Q40.55,159.4875 40.55,160.95 Q40.55,162.5625 40.9688,163.4063 Q41.3875,164.25 42.5125,164.25 Q43.25,164.25 43.7688,163.7938 Q44.2875,163.3375 44.5625,162.225 L45.3875,162.6375 Q45.075,164.0375 44.325,164.8188 Q43.575,165.6 42.55,165.6 Z "/><text fill="#000000" font-family="sans-serif" font-size="9.6" lengthAdjust="spacingAndGlyphs" textLength="58.4" x="54" y="165.2461">NYPizzaStore</text><line style="stroke: #A80036; stroke-width: 1.2000000178813934;" x1="31.6" x2="114" y1="173.6" y2="173.6"/><line style="stroke: #A80036; stroke-width: 1.2000000178813934;" x1="31.6" x2="114" y1="180" y2="180"/><text fill="#000000" font-family="sans-serif" font-size="8.8" lengthAdjust="spacingAndGlyphs" textLength="52" x="35.6" y="193.2848">createPizza()</text><!--class ChicagoPizzaStore--><rect fill="#FEFECE" filter="url(#fa18hn21hmoq)" height="50.4184" id="ChicagoPizzaStore" style="stroke: #A80036; stroke-width: 1.2000000178813934;" width="108" x="142.8" y="148"/><ellipse cx="154.8" cy="160.8" fill="#ADD1B2" rx="8.8" ry="8.8" style="stroke: #A80036; stroke-width: 0.800000011920929;"/><path d="M154.55,165.6 Q153,165.6 152.1,164.4563 Q151.2,163.3125 151.2,160.95 Q151.2,158.95 152.15,157.6 Q153.1,156.25 154.75,156.25 Q155.1125,156.25 155.4625,156.25 Q155.8125,156.25 156.0625,156.25 Q156.2625,156.25 156.3938,156.25 Q156.525,156.25 156.85,156.25 L157.4125,159.2 L156.5625,159.2 Q156.2125,158.325 155.7563,157.9625 Q155.3,157.6 154.5625,157.6 Q153.6375,157.6 153.0938,158.5438 Q152.55,159.4875 152.55,160.95 Q152.55,162.5625 152.9688,163.4063 Q153.3875,164.25 154.5125,164.25 Q155.25,164.25 155.7688,163.7938 Q156.2875,163.3375 156.5625,162.225 L157.3875,162.6375 Q157.075,164.0375 156.325,164.8188 Q155.575,165.6 154.55,165.6 Z "/><text fill="#000000" font-family="sans-serif" font-size="9.6" lengthAdjust="spacingAndGlyphs" textLength="82.4" x="166" y="165.2461">ChicagoPizzaStore</text><line style="stroke: #A80036; stroke-width: 1.2000000178813934;" x1="143.6" x2="250" y1="173.6" y2="173.6"/><line style="stroke: #A80036; stroke-width: 1.2000000178813934;" x1="143.6" x2="250" y1="180" y2="180"/><text fill="#000000" font-family="sans-serif" font-size="8.8" lengthAdjust="spacingAndGlyphs" textLength="52" x="147.6" y="193.2848">createPizza()</text><!--link Pizza to NYStyleCheesePizza--><path d="M407.764,106.512 C395.1904,122.0368 380.3696,140.3352 369.5424,153.7038 " fill="none" id="Pizza-NYStyleCheesePizza" style="stroke: #A80036; stroke-width: 0.800000011920929;"/><polygon fill="none" points="403.4472,102.944,417.8688,94.0352,412.1504,109.9936,403.4472,102.944" style="stroke: #A80036; stroke-width: 0.800000011920929;"/><!--link Pizza to ChicagoStyleCheesePizza--><path d="M457.836,106.512 C470.4096,122.0368 485.2304,140.3352 496.0576,153.7038 " fill="none" id="Pizza-ChicagoStyleCheesePizza" style="stroke: #A80036; stroke-width: 0.800000011920929;"/><polygon fill="none" points="453.4496,109.9936,447.7312,94.0352,462.1528,102.944,453.4496,109.9936" style="stroke: #A80036; stroke-width: 0.800000011920929;"/><!--link PizzaStore to NYPizzaStore--><path d="M110.2512,113.548 C102.8816,125.1296 94.9776,137.5496 88.3392,147.9811 " fill="none" id="PizzaStore-NYPizzaStore" style="stroke: #A80036; stroke-width: 0.800000011920929;"/><polygon fill="none" points="105.5408,110.5192,118.856,100.0264,114.9904,116.532,105.5408,110.5192" style="stroke: #A80036; stroke-width: 0.800000011920929;"/><!--link PizzaStore to ChicagoPizzaStore--><path d="M158.8624,113.548 C166.328,125.1296 174.3344,137.5496 181.0592,147.9811 " fill="none" id="PizzaStore-ChicagoPizzaStore" style="stroke: #A80036; stroke-width: 0.800000011920929;"/><polygon fill="none" points="154.108,116.5088,150.1464,100.0264,163.5216,110.4408,154.108,116.5088" style="stroke: #A80036; stroke-width: 0.800000011920929;"/><!--link NYPizzaStore to NYStyleCheesePizza--><path d="M100.2656,147.9926 C112.3808,138.5264 127.3624,128.8824 142.8,124 C188.2264,109.6328 203.5056,113.5936 250,124 C274.3896,129.4592 299.7976,141.2792 319.4408,151.9651 " fill="none" id="NYPizzaStore-NYStyleCheesePizza" style="stroke: #A80036; stroke-width: 0.800000011920929;"/><polygon fill="#A80036" points="323.04,153.9454,318.2741,147.6712,319.5353,152.0174,315.1892,153.2787,323.04,153.9454" style="stroke: #A80036; stroke-width: 0.800000011920929;"/><!--link ChicagoPizzaStore to ChicagoStyleCheesePizza--><path d="M237.7072,147.8898 C255.328,138.4072 276.5888,128.7784 297.2,124 C347.4232,112.356 363.0336,112.1144 413.2,124 C436.2112,129.452 459.9648,141.1968 478.3224,151.8445 " fill="none" id="ChicagoPizzaStore-ChicagoStyleCheesePizza" style="stroke: #A80036; stroke-width: 0.800000011920929;"/><polygon fill="#A80036" points="481.92,153.9571,477.3312,147.5522,478.4706,151.9319,474.0909,153.0713,481.92,153.9571" style="stroke: #A80036; stroke-width: 0.800000011920929;"/><!--
@startuml


package 产品类{
Pizza <|- - NYStyleCheesePizza
Pizza <|- - ChicagoStyleCheesePizza
}

package 创建者类{
    class PizzaStore{
        createPizza()
    }
    
    class NYPizzaStore{
        createPizza()
    }
    
  class ChicagoPizzaStore{
        createPizza()
    }
    
    PizzaStore <|- - NYPizzaStore
    PizzaStore <|- - ChicagoPizzaStore
}

NYPizzaStore -> NYStyleCheesePizza
ChicagoPizzaStore -> ChicagoStyleCheesePizza



@enduml

PlantUML version 1.2018.11(Sun Sep 23 00:43:53 CST 2018)
(GPL source distribution)
Java Runtime: OpenJDK Runtime Environment
JVM: OpenJDK 64-Bit Server VM
Java Version: 1.8.0_152-release-1248-b22
Operating System: Windows 10
OS Version: 10.0
Default Encoding: GBK
Language: zh
Country: CN
--></g></svg>