<?xml version="1.0" encoding="UTF-8" standalone="no"?><svg xmlns="http://www.w3.org/2000/svg" xmlns:xlink="http://www.w3.org/1999/xlink" contentScriptType="application/ecmascript" contentStyleType="text/css" height="302.4px" preserveAspectRatio="none" style="width:780px;height:302px;" version="1.1" viewBox="0 0 780 302" width="780.3px" zoomAndPan="magnify"><defs><filter height="300%" id="fov320n0u32i7" width="300%" x="-1" y="-1"><feGaussianBlur result="blurOut" stdDeviation="1.7999999523162842"/><feColorMatrix in="blurOut" result="blurOut2" type="matrix" values="0 0 0 0 0 0 0 0 0 0 0 0 0 0 0 0 0 0 .4 0"/><feOffset dx="3.5999999046325684" dy="3.5999999046325684" in="blurOut2" result="blurOut3"/><feBlend in="SourceGraphic" in2="blurOut3" mode="normal"/></filter></defs><g><!--cluster 客户--><polygon fill="#FFFFFF" filter="url(#fov320n0u32i7)" points="19.8,21.6,52.2,21.6,58.5,44.2081,451.8,44.2081,451.8,291.6,19.8,291.6,19.8,21.6" style="stroke: #000000; stroke-width: 1.3499999642372131;"/><line style="stroke: #000000; stroke-width: 1.3499999642372131;" x1="19.8" x2="58.5" y1="44.2081" y2="44.2081"/><text fill="#000000" font-family="sans-serif" font-size="12.6" font-weight="bold" lengthAdjust="spacingAndGlyphs" textLength="27" x="23.4" y="37.8395">客户</text><!--cluster 封装飞行行为--><polygon fill="#FFFFFF" filter="url(#fov320n0u32i7)" points="473.4,35.1,559.8,35.1,566.1,57.7081,760.5,57.7081,760.5,278.1,473.4,278.1,473.4,35.1" style="stroke: #000000; stroke-width: 1.3499999642372131;"/><line style="stroke: #000000; stroke-width: 1.3499999642372131;" x1="473.4" x2="566.1" y1="57.7081" y2="57.7081"/><text fill="#000000" font-family="sans-serif" font-size="12.6" font-weight="bold" lengthAdjust="spacingAndGlyphs" textLength="81" x="477" y="51.3395">封装飞行行为</text><!--class Duck--><rect fill="#FEFECE" filter="url(#fov320n0u32i7)" height="83.762" id="Duck" style="stroke: #A80036; stroke-width: 1.3499999642372131;" width="113.4" x="251.1" y="55.8"/><ellipse cx="290.925" cy="70.2" fill="#A9DCDF" rx="9.9" ry="9.9" style="stroke: #A80036; stroke-width: 0.8999999761581421;"/><path d="M291.8953,71.1 L289.3641,71.1 L288.6328,72.5484 Q288.5906,72.6891 288.5906,72.8156 Q288.5906,72.9844 288.6328,73.0828 Q288.675,73.1812 288.8719,73.1812 L289.3641,73.1812 L289.3641,74.7 L286.425,74.7 L286.425,73.1812 L286.9312,73.1812 Q287.1281,73.1812 287.2336,73.125 Q287.3391,73.0687 287.3812,72.9 L290.1656,64.1812 L291.4031,64.1812 L294.1312,72.8016 Q294.2156,73.0125 294.3422,73.0969 Q294.4687,73.1812 294.6375,73.1812 L295.1437,73.1812 L295.1437,74.7 L291.8531,74.7 L291.8531,73.1812 L292.4016,73.1812 Q292.5562,73.1812 292.5633,73.1672 Q292.5703,73.1531 292.5703,73.0969 Q292.5703,72.9422 292.5422,72.8578 L291.8953,71.1 Z M287.1984,73.8 L287.1984,73.8 Z M287.8031,73.8 L287.8031,73.8 Z M292.05,73.8 L292.05,73.8 Z M293.0625,73.8 L293.0625,73.8 Z M290.5453,66.0656 L290.6156,66.0656 L289.8422,69.5812 L291.6,69.5812 L290.5453,66.0656 Z "/><text fill="#000000" font-family="sans-serif" font-size="10.8" font-style="italic" lengthAdjust="spacingAndGlyphs" textLength="26.1" x="309.375" y="75.2019">Duck</text><line style="stroke: #A80036; stroke-width: 1.3499999642372131;" x1="252" x2="363.6" y1="84.6" y2="84.6"/><text fill="#000000" font-family="sans-serif" font-size="9.9" lengthAdjust="spacingAndGlyphs" textLength="102.6" x="256.5" y="99.5454">FlyBehavior flybehavior</text><line style="stroke: #A80036; stroke-width: 1.3499999642372131;" x1="252" x2="363.6" y1="105.3207" y2="105.3207"/><text fill="#000000" font-family="sans-serif" font-size="9.9" lengthAdjust="spacingAndGlyphs" textLength="72" x="256.5" y="120.266">setFlyBehavior()</text><text fill="#000000" font-family="sans-serif" font-size="9.9" lengthAdjust="spacingAndGlyphs" textLength="30.6" x="256.5" y="133.7867">siwm()</text><!--class MallardDuck--><rect fill="#FEFECE" filter="url(#fov320n0u32i7)" height="83.762" id="MallardDuck" style="stroke: #A80036; stroke-width: 1.3499999642372131;" width="113.4" x="34.2" y="193.5"/><ellipse cx="58.23" cy="207.9" fill="#ADD1B2" rx="9.9" ry="9.9" style="stroke: #A80036; stroke-width: 0.8999999761581421;"/><path d="M57.9487,213.3 Q56.205,213.3 55.1925,212.0133 Q54.18,210.7266 54.18,208.0687 Q54.18,205.8187 55.2487,204.3 Q56.3175,202.7812 58.1737,202.7812 Q58.5816,202.7812 58.9753,202.7812 Q59.3691,202.7812 59.6503,202.7812 Q59.8753,202.7812 60.023,202.7812 Q60.1706,202.7812 60.5362,202.7812 L61.1691,206.1 L60.2128,206.1 Q59.8191,205.1156 59.3058,204.7078 Q58.7925,204.3 57.9628,204.3 Q56.9222,204.3 56.3105,205.3617 Q55.6987,206.4234 55.6987,208.0687 Q55.6987,209.8828 56.1698,210.832 Q56.6409,211.7812 57.9066,211.7812 Q58.7362,211.7812 59.3198,211.268 Q59.9034,210.7547 60.2128,209.5031 L61.1409,209.9672 Q60.7894,211.5422 59.9456,212.4211 Q59.1019,213.3 57.9487,213.3 Z "/><text fill="#000000" font-family="sans-serif" font-size="10.8" lengthAdjust="spacingAndGlyphs" textLength="61.2" x="73.17" y="212.9018">MallardDuck</text><line style="stroke: #A80036; stroke-width: 1.3499999642372131;" x1="35.1" x2="146.7" y1="222.3" y2="222.3"/><text fill="#000000" font-family="sans-serif" font-size="9.9" lengthAdjust="spacingAndGlyphs" textLength="102.6" x="39.6" y="237.2454">FlyBehavior flybehavior</text><line style="stroke: #A80036; stroke-width: 1.3499999642372131;" x1="35.1" x2="146.7" y1="243.0206" y2="243.0206"/><text fill="#000000" font-family="sans-serif" font-size="9.9" lengthAdjust="spacingAndGlyphs" textLength="72" x="39.6" y="257.966">setFlyBehavior()</text><text fill="#000000" font-family="sans-serif" font-size="9.9" lengthAdjust="spacingAndGlyphs" textLength="30.6" x="39.6" y="271.4867">siwm()</text><!--class RedHeadDuck--><rect fill="#FEFECE" filter="url(#fov320n0u32i7)" height="83.762" id="RedHeadDuck" style="stroke: #A80036; stroke-width: 1.3499999642372131;" width="113.4" x="179.1" y="193.5"/><ellipse cx="197.865" cy="207.9" fill="#ADD1B2" rx="9.9" ry="9.9" style="stroke: #A80036; stroke-width: 0.8999999761581421;"/><path d="M197.5837,213.3 Q195.84,213.3 194.8275,212.0133 Q193.815,210.7266 193.815,208.0687 Q193.815,205.8187 194.8837,204.3 Q195.9525,202.7812 197.8087,202.7812 Q198.2166,202.7812 198.6103,202.7812 Q199.0041,202.7812 199.2853,202.7812 Q199.5103,202.7812 199.658,202.7812 Q199.8056,202.7812 200.1712,202.7812 L200.8041,206.1 L199.8478,206.1 Q199.4541,205.1156 198.9408,204.7078 Q198.4275,204.3 197.5978,204.3 Q196.5572,204.3 195.9455,205.3617 Q195.3337,206.4234 195.3337,208.0687 Q195.3337,209.8828 195.8048,210.832 Q196.2759,211.7812 197.5416,211.7812 Q198.3712,211.7812 198.9548,211.268 Q199.5384,210.7547 199.8478,209.5031 L200.7759,209.9672 Q200.4244,211.5422 199.5806,212.4211 Q198.7369,213.3 197.5837,213.3 Z "/><text fill="#000000" font-family="sans-serif" font-size="10.8" lengthAdjust="spacingAndGlyphs" textLength="72.9" x="211.635" y="212.9018">RedHeadDuck</text><line style="stroke: #A80036; stroke-width: 1.3499999642372131;" x1="180" x2="291.6" y1="222.3" y2="222.3"/><text fill="#000000" font-family="sans-serif" font-size="9.9" lengthAdjust="spacingAndGlyphs" textLength="102.6" x="184.5" y="237.2454">FlyBehavior flybehavior</text><line style="stroke: #A80036; stroke-width: 1.3499999642372131;" x1="180" x2="291.6" y1="243.0206" y2="243.0206"/><text fill="#000000" font-family="sans-serif" font-size="9.9" lengthAdjust="spacingAndGlyphs" textLength="72" x="184.5" y="257.966">setFlyBehavior()</text><text fill="#000000" font-family="sans-serif" font-size="9.9" lengthAdjust="spacingAndGlyphs" textLength="30.6" x="184.5" y="271.4867">siwm()</text><!--class RubberDuck--><rect fill="#FEFECE" filter="url(#fov320n0u32i7)" height="83.762" id="RubberDuck" style="stroke: #A80036; stroke-width: 1.3499999642372131;" width="113.4" x="324" y="193.5"/><ellipse cx="347.625" cy="207.9" fill="#ADD1B2" rx="9.9" ry="9.9" style="stroke: #A80036; stroke-width: 0.8999999761581421;"/><path d="M347.3437,213.3 Q345.6,213.3 344.5875,212.0133 Q343.575,210.7266 343.575,208.0687 Q343.575,205.8187 344.6437,204.3 Q345.7125,202.7812 347.5687,202.7812 Q347.9766,202.7812 348.3703,202.7812 Q348.7641,202.7812 349.0453,202.7812 Q349.2703,202.7812 349.418,202.7812 Q349.5656,202.7812 349.9312,202.7812 L350.5641,206.1 L349.6078,206.1 Q349.2141,205.1156 348.7008,204.7078 Q348.1875,204.3 347.3578,204.3 Q346.3172,204.3 345.7055,205.3617 Q345.0937,206.4234 345.0937,208.0687 Q345.0937,209.8828 345.5648,210.832 Q346.0359,211.7812 347.3016,211.7812 Q348.1312,211.7812 348.7148,211.268 Q349.2984,210.7547 349.6078,209.5031 L350.5359,209.9672 Q350.1844,211.5422 349.3406,212.4211 Q348.4969,213.3 347.3437,213.3 Z "/><text fill="#000000" font-family="sans-serif" font-size="10.8" lengthAdjust="spacingAndGlyphs" textLength="62.1" x="362.475" y="212.9018">RubberDuck</text><line style="stroke: #A80036; stroke-width: 1.3499999642372131;" x1="324.9" x2="436.5" y1="222.3" y2="222.3"/><text fill="#000000" font-family="sans-serif" font-size="9.9" lengthAdjust="spacingAndGlyphs" textLength="102.6" x="329.4" y="237.2454">FlyBehavior flybehavior</text><line style="stroke: #A80036; stroke-width: 1.3499999642372131;" x1="324.9" x2="436.5" y1="243.0206" y2="243.0206"/><text fill="#000000" font-family="sans-serif" font-size="9.9" lengthAdjust="spacingAndGlyphs" textLength="72" x="329.4" y="257.966">setFlyBehavior()</text><text fill="#000000" font-family="sans-serif" font-size="9.9" lengthAdjust="spacingAndGlyphs" textLength="30.6" x="329.4" y="271.4867">siwm()</text><!--class FlyBehavior--><rect fill="#FEFECE" filter="url(#fov320n0u32i7)" height="56.7207" id="FlyBehavior" style="stroke: #A80036; stroke-width: 1.3499999642372131;" width="87.3" x="499.05" y="69.3"/><ellipse cx="512.55" cy="83.7" fill="#B4A7E5" rx="9.9" ry="9.9" style="stroke: #A80036; stroke-width: 0.8999999761581421;"/><path d="M509.7375,80.1 L509.7375,78.5812 L515.0812,78.5812 L515.0812,80.1 L513.3937,80.1 Q513.2531,80.1 513.2109,80.1281 Q513.1687,80.1562 513.1687,80.1984 L513.1687,87.4828 Q513.1687,87.525 513.2109,87.5531 Q513.2531,87.5812 513.3937,87.5812 L515.0812,87.5812 L515.0812,89.1 L509.7375,89.1 L509.7375,87.5812 L511.425,87.5812 Q511.6078,87.5812 511.6289,87.5672 Q511.65,87.5531 511.65,87.4828 L511.65,80.1984 Q511.65,80.1281 511.6289,80.1141 Q511.6078,80.1 511.425,80.1 L509.7375,80.1 Z "/><text fill="#000000" font-family="sans-serif" font-size="10.8" font-style="italic" lengthAdjust="spacingAndGlyphs" textLength="58.5" x="525.15" y="88.7019">FlyBehavior</text><line style="stroke: #A80036; stroke-width: 1.3499999642372131;" x1="499.95" x2="585.45" y1="98.1" y2="98.1"/><line style="stroke: #A80036; stroke-width: 1.3499999642372131;" x1="499.95" x2="585.45" y1="105.3" y2="105.3"/><text fill="#000000" font-family="sans-serif" font-size="9.9" lengthAdjust="spacingAndGlyphs" textLength="18" x="504.45" y="120.2454">fly()</text><!--class FlyWithWings--><rect fill="#FEFECE" filter="url(#fov320n0u32i7)" height="56.7207" id="FlyWithWings" style="stroke: #A80036; stroke-width: 1.3499999642372131;" width="109.8" x="487.8" y="207"/><ellipse cx="507.78" cy="221.4" fill="#ADD1B2" rx="9.9" ry="9.9" style="stroke: #A80036; stroke-width: 0.8999999761581421;"/><path d="M507.4987,226.8 Q505.755,226.8 504.7425,225.5133 Q503.73,224.2266 503.73,221.5687 Q503.73,219.3187 504.7987,217.8 Q505.8675,216.2812 507.7237,216.2812 Q508.1315,216.2812 508.5253,216.2812 Q508.919,216.2812 509.2003,216.2812 Q509.4253,216.2812 509.573,216.2812 Q509.7206,216.2812 510.0862,216.2812 L510.719,219.6 L509.7628,219.6 Q509.369,218.6156 508.8558,218.2078 Q508.3425,217.8 507.5128,217.8 Q506.4722,217.8 505.8605,218.8617 Q505.2487,219.9234 505.2487,221.5687 Q505.2487,223.3828 505.7198,224.332 Q506.1909,225.2812 507.4565,225.2812 Q508.2862,225.2812 508.8698,224.768 Q509.4534,224.2547 509.7628,223.0031 L510.6909,223.4672 Q510.3394,225.0422 509.4956,225.9211 Q508.6519,226.8 507.4987,226.8 Z "/><text fill="#000000" font-family="sans-serif" font-size="10.8" lengthAdjust="spacingAndGlyphs" textLength="66.6" x="521.82" y="226.4018">FlyWithWings</text><line style="stroke: #A80036; stroke-width: 1.3499999642372131;" x1="488.7" x2="596.7" y1="235.8" y2="235.8"/><text fill="#000000" font-family="sans-serif" font-size="9.9" lengthAdjust="spacingAndGlyphs" textLength="99" x="493.2" y="250.7454">fly{    //实现鸭的飞行  }</text><line style="stroke: #A80036; stroke-width: 1.3499999642372131;" x1="488.7" x2="596.7" y1="256.5206" y2="256.5206"/><!--class FlyNoWay--><rect fill="#FEFECE" filter="url(#fov320n0u32i7)" height="56.7207" id="FlyNoWay" style="stroke: #A80036; stroke-width: 1.3499999642372131;" width="116.1" x="629.55" y="207"/><ellipse cx="660.465" cy="221.4" fill="#ADD1B2" rx="9.9" ry="9.9" style="stroke: #A80036; stroke-width: 0.8999999761581421;"/><path d="M660.1837,226.8 Q658.44,226.8 657.4275,225.5133 Q656.415,224.2266 656.415,221.5687 Q656.415,219.3187 657.4837,217.8 Q658.5525,216.2812 660.4087,216.2812 Q660.8165,216.2812 661.2103,216.2812 Q661.604,216.2812 661.8853,216.2812 Q662.1103,216.2812 662.258,216.2812 Q662.4056,216.2812 662.7712,216.2812 L663.404,219.6 L662.4478,219.6 Q662.054,218.6156 661.5408,218.2078 Q661.0275,217.8 660.1978,217.8 Q659.1572,217.8 658.5455,218.8617 Q657.9337,219.9234 657.9337,221.5687 Q657.9337,223.3828 658.4048,224.332 Q658.8759,225.2812 660.1415,225.2812 Q660.9712,225.2812 661.5548,224.768 Q662.1384,224.2547 662.4478,223.0031 L663.3759,223.4672 Q663.0244,225.0422 662.1806,225.9211 Q661.3369,226.8 660.1837,226.8 Z "/><text fill="#000000" font-family="sans-serif" font-size="10.8" lengthAdjust="spacingAndGlyphs" textLength="48.6" x="676.935" y="226.4018">FlyNoWay</text><line style="stroke: #A80036; stroke-width: 1.3499999642372131;" x1="630.45" x2="744.75" y1="235.8" y2="235.8"/><text fill="#000000" font-family="sans-serif" font-size="9.9" lengthAdjust="spacingAndGlyphs" textLength="105.3" x="634.95" y="250.7454">fly{    //什么也不做        }</text><line style="stroke: #A80036; stroke-width: 1.3499999642372131;" x1="630.45" x2="744.75" y1="256.5206" y2="256.5206"/><!--link Duck to MallardDuck--><path d="M235.6398,143.7624 C207.0054,161.703 174.5568,182.0349 147.6504,198.8928 " fill="none" id="Duck-MallardDuck" style="stroke: #A80036; stroke-width: 0.8999999761581421;"/><polygon fill="none" points="232.497,138.2967,251.0955,134.0784,239.1867,148.9743,232.497,138.2967" style="stroke: #A80036; stroke-width: 0.8999999761581421;"/><!--link Duck to RedHeadDuck--><path d="M277.4403,155.8539 C270.7497,168.4827 263.7918,181.6155 257.5233,193.4469 " fill="none" id="Duck-RedHeadDuck" style="stroke: #A80036; stroke-width: 0.8999999761581421;"/><polygon fill="none" points="272.0088,152.6499,286.002,139.6935,283.1427,158.5485,272.0088,152.6499" style="stroke: #A80036; stroke-width: 0.8999999761581421;"/><!--link Duck to RubberDuck--><path d="M338.5395,155.8539 C345.3138,168.4827 352.3581,181.6155 358.7049,193.4469 " fill="none" id="Duck-RubberDuck" style="stroke: #A80036; stroke-width: 0.8999999761581421;"/><polygon fill="none" points="332.8272,158.5332,329.8698,139.6935,343.9305,152.577,332.8272,158.5332" style="stroke: #A80036; stroke-width: 0.8999999761581421;"/><!--link FlyBehavior to FlyWithWings--><path d="M542.7,144.3699 C542.7,165.1536 542.7,189.0387 542.7,206.9892 " fill="none" id="FlyBehavior-FlyWithWings" style="stroke: #A80036; stroke-width: 0.8999999761581421; stroke-dasharray: 7.0,7.0;"/><polygon fill="none" points="536.4,144.0513,542.7,126.0513,549,144.0513,536.4,144.0513" style="stroke: #A80036; stroke-width: 0.8999999761581421;"/><!--link FlyBehavior to FlyNoWay--><path d="M585.1791,138.3912 C608.6916,160.443 637.3161,187.29 658.3212,206.9892 " fill="none" id="FlyBehavior-FlyNoWay" style="stroke: #A80036; stroke-width: 0.8999999761581421; stroke-dasharray: 7.0,7.0;"/><polygon fill="none" points="580.842,142.9605,572.0229,126.0513,589.4613,133.7697,580.842,142.9605" style="stroke: #A80036; stroke-width: 0.8999999761581421;"/><!--link Duck to FlyBehavior--><path d="M364.6899,97.65 C407.8512,97.65 451.0134,97.65 494.1747,97.65 " fill="none" id="Duck-FlyBehavior" style="stroke: #A80036; stroke-width: 0.8999999761581421;"/><polygon fill="#A80036" points="498.8925,97.65,490.7925,94.05,494.3925,97.65,490.7925,101.25,498.8925,97.65" style="stroke: #A80036; stroke-width: 0.8999999761581421;"/><!--
@startuml


package 客户{

    abstract Duck{
        FlyBehavior flybehavior
        setFlyBehavior()
        siwm()
    }


    class MallardDuck{
          FlyBehavior flybehavior
                setFlyBehavior()
                siwm()
    }

    class RedHeadDuck{
              FlyBehavior flybehavior
                    setFlyBehavior()
                    siwm()
    }

    class RubberDuck{
             FlyBehavior flybehavior
                   setFlyBehavior()
                   siwm()
    }


    Duck <|- - MallardDuck
    Duck <|- - RedHeadDuck
    Duck <|- - RubberDuck


}



package 封装飞行行为{

    interface FlyBehavior{
        fly()
    }

    class FlyWithWings{
        fly{    //实现鸭的飞行  }
    }

    class FlyNoWay{
        fly{    //什么也不做        }
    }

    FlyBehavior <|.. FlyWithWings
    FlyBehavior <|.. FlyNoWay

}

Duck -> FlyBehavior



@enduml

PlantUML version 1.2018.11(Sun Sep 23 00:43:53 CST 2018)
(GPL source distribution)
Java Runtime: OpenJDK Runtime Environment
JVM: OpenJDK 64-Bit Server VM
Java Version: 1.8.0_152-release-1248-b22
Operating System: Windows 10
OS Version: 10.0
Default Encoding: GBK
Language: zh
Country: CN
--></g></svg>