<?xml version="1.0" encoding="UTF-8" standalone="no"?><svg xmlns="http://www.w3.org/2000/svg" xmlns:xlink="http://www.w3.org/1999/xlink" contentScriptType="application/ecmascript" contentStyleType="text/css" height="275.4px" preserveAspectRatio="none" style="width:520px;height:275px;" version="1.1" viewBox="0 0 520 275" width="520.2px" zoomAndPan="magnify"><defs><filter height="300%" id="f1oztb1a7wojh6" width="300%" x="-1" y="-1"><feGaussianBlur result="blurOut" stdDeviation="1.2000000476837158"/><feColorMatrix in="blurOut" result="blurOut2" type="matrix" values="0 0 0 0 0 0 0 0 0 0 0 0 0 0 0 0 0 0 .4 0"/><feOffset dx="2.4000000953674316" dy="2.4000000953674316" in="blurOut2" result="blurOut3"/><feBlend in="SourceGraphic" in2="blurOut3" mode="normal"/></filter></defs><g><!--cluster 客户--><polygon fill="#FFFFFF" filter="url(#f1oztb1a7wojh6)" points="13.2,14.4,34.8,14.4,39,29.4721,301.2,29.4721,301.2,194.4,13.2,194.4,13.2,14.4" style="stroke: #000000; stroke-width: 0.9000000357627869;"/><line style="stroke: #000000; stroke-width: 0.9000000357627869;" x1="13.2" x2="39" y1="29.4721" y2="29.4721"/><text fill="#000000" font-family="sans-serif" font-size="8.4" font-weight="bold" lengthAdjust="spacingAndGlyphs" textLength="18" x="15.6" y="25.2264">客户</text><!--cluster 封装飞行行为--><polygon fill="#FFFFFF" filter="url(#f1oztb1a7wojh6)" points="315.6,115.2,373.2,115.2,377.4,130.2721,507,130.2721,507,268.2,315.6,268.2,315.6,115.2" style="stroke: #000000; stroke-width: 0.9000000357627869;"/><line style="stroke: #000000; stroke-width: 0.9000000357627869;" x1="315.6" x2="377.4" y1="130.2721" y2="130.2721"/><text fill="#000000" font-family="sans-serif" font-size="8.4" font-weight="bold" lengthAdjust="spacingAndGlyphs" textLength="54" x="318" y="126.0264">封装飞行行为</text><!--class Duck--><rect fill="#FEFECE" filter="url(#f1oztb1a7wojh6)" height="55.8413" id="Duck" style="stroke: #A80036; stroke-width: 0.9000000357627869;" width="75.6" x="167.4" y="37.2"/><ellipse cx="193.95" cy="46.8" fill="#A9DCDF" rx="6.6" ry="6.6" style="stroke: #A80036; stroke-width: 0.6000000238418579;"/><path d="M194.5969,47.4 L192.9094,47.4 L192.4219,48.3656 Q192.3938,48.4594 192.3938,48.5438 Q192.3938,48.6563 192.4219,48.7219 Q192.45,48.7875 192.5813,48.7875 L192.9094,48.7875 L192.9094,49.8 L190.95,49.8 L190.95,48.7875 L191.2875,48.7875 Q191.4188,48.7875 191.4891,48.75 Q191.5594,48.7125 191.5875,48.6 L193.4438,42.7875 L194.2688,42.7875 L196.0875,48.5344 Q196.1438,48.675 196.2281,48.7313 Q196.3125,48.7875 196.425,48.7875 L196.7625,48.7875 L196.7625,49.8 L194.5688,49.8 L194.5688,48.7875 L194.9344,48.7875 Q195.0375,48.7875 195.0422,48.7781 Q195.0469,48.7688 195.0469,48.7313 Q195.0469,48.6281 195.0281,48.5719 L194.5969,47.4 Z M191.4656,49.2 L191.4656,49.2 Z M191.8688,49.2 L191.8688,49.2 Z M194.7,49.2 L194.7,49.2 Z M195.375,49.2 L195.375,49.2 Z M193.6969,44.0438 L193.7438,44.0438 L193.2281,46.3875 L194.4,46.3875 L193.6969,44.0438 Z "/><text fill="#000000" font-family="sans-serif" font-size="7.2" font-style="italic" lengthAdjust="spacingAndGlyphs" textLength="17.4" x="206.25" y="50.1346">Duck</text><line style="stroke: #A80036; stroke-width: 0.9000000357627869;" x1="168" x2="242.4" y1="56.4" y2="56.4"/><text fill="#000000" font-family="sans-serif" font-size="6.6" lengthAdjust="spacingAndGlyphs" textLength="68.4" x="171" y="66.3636">FlyBehavior flybehavior</text><line style="stroke: #A80036; stroke-width: 0.9000000357627869;" x1="168" x2="242.4" y1="70.2138" y2="70.2138"/><text fill="#000000" font-family="sans-serif" font-size="6.6" lengthAdjust="spacingAndGlyphs" textLength="48" x="171" y="80.1773">setFlyBehavior()</text><text fill="#000000" font-family="sans-serif" font-size="6.6" lengthAdjust="spacingAndGlyphs" textLength="20.4" x="171" y="89.1911">siwm()</text><!--class MallardDuck--><rect fill="#FEFECE" filter="url(#f1oztb1a7wojh6)" height="55.8413" id="MallardDuck" style="stroke: #A80036; stroke-width: 0.9000000357627869;" width="75.6" x="22.8" y="129"/><ellipse cx="38.82" cy="138.6" fill="#ADD1B2" rx="6.6" ry="6.6" style="stroke: #A80036; stroke-width: 0.6000000238418579;"/><path d="M38.6325,142.2 Q37.47,142.2 36.795,141.3422 Q36.12,140.4844 36.12,138.7125 Q36.12,137.2125 36.8325,136.2 Q37.545,135.1875 38.7825,135.1875 Q39.0544,135.1875 39.3169,135.1875 Q39.5794,135.1875 39.7669,135.1875 Q39.9169,135.1875 40.0153,135.1875 Q40.1138,135.1875 40.3575,135.1875 L40.7794,137.4 L40.1419,137.4 Q39.8794,136.7438 39.5372,136.4719 Q39.195,136.2 38.6419,136.2 Q37.9481,136.2 37.5403,136.9078 Q37.1325,137.6156 37.1325,138.7125 Q37.1325,139.9219 37.4466,140.5547 Q37.7606,141.1875 38.6044,141.1875 Q39.1575,141.1875 39.5466,140.8453 Q39.9356,140.5031 40.1419,139.6688 L40.7606,139.9781 Q40.5263,141.0281 39.9638,141.6141 Q39.4013,142.2 38.6325,142.2 Z "/><text fill="#000000" font-family="sans-serif" font-size="7.2" lengthAdjust="spacingAndGlyphs" textLength="40.8" x="48.78" y="141.9346">MallardDuck</text><line style="stroke: #A80036; stroke-width: 0.9000000357627869;" x1="23.4" x2="97.8" y1="148.2" y2="148.2"/><text fill="#000000" font-family="sans-serif" font-size="6.6" lengthAdjust="spacingAndGlyphs" textLength="68.4" x="26.4" y="158.1636">FlyBehavior flybehavior</text><line style="stroke: #A80036; stroke-width: 0.9000000357627869;" x1="23.4" x2="97.8" y1="162.0138" y2="162.0138"/><text fill="#000000" font-family="sans-serif" font-size="6.6" lengthAdjust="spacingAndGlyphs" textLength="48" x="26.4" y="171.9774">setFlyBehavior()</text><text fill="#000000" font-family="sans-serif" font-size="6.6" lengthAdjust="spacingAndGlyphs" textLength="20.4" x="26.4" y="180.9911">siwm()</text><!--class RedHeadDuck--><rect fill="#FEFECE" filter="url(#f1oztb1a7wojh6)" height="55.8413" id="RedHeadDuck" style="stroke: #A80036; stroke-width: 0.9000000357627869;" width="75.6" x="119.4" y="129"/><ellipse cx="131.91" cy="138.6" fill="#ADD1B2" rx="6.6" ry="6.6" style="stroke: #A80036; stroke-width: 0.6000000238418579;"/><path d="M131.7225,142.2 Q130.56,142.2 129.885,141.3422 Q129.21,140.4844 129.21,138.7125 Q129.21,137.2125 129.9225,136.2 Q130.635,135.1875 131.8725,135.1875 Q132.1444,135.1875 132.4069,135.1875 Q132.6694,135.1875 132.8569,135.1875 Q133.0069,135.1875 133.1053,135.1875 Q133.2038,135.1875 133.4475,135.1875 L133.8694,137.4 L133.2319,137.4 Q132.9694,136.7438 132.6272,136.4719 Q132.285,136.2 131.7319,136.2 Q131.0381,136.2 130.6303,136.9078 Q130.2225,137.6156 130.2225,138.7125 Q130.2225,139.9219 130.5366,140.5547 Q130.8506,141.1875 131.6944,141.1875 Q132.2475,141.1875 132.6366,140.8453 Q133.0256,140.5031 133.2319,139.6688 L133.8506,139.9781 Q133.6163,141.0281 133.0538,141.6141 Q132.4913,142.2 131.7225,142.2 Z "/><text fill="#000000" font-family="sans-serif" font-size="7.2" lengthAdjust="spacingAndGlyphs" textLength="48.6" x="141.09" y="141.9346">RedHeadDuck</text><line style="stroke: #A80036; stroke-width: 0.9000000357627869;" x1="120" x2="194.4" y1="148.2" y2="148.2"/><text fill="#000000" font-family="sans-serif" font-size="6.6" lengthAdjust="spacingAndGlyphs" textLength="68.4" x="123" y="158.1636">FlyBehavior flybehavior</text><line style="stroke: #A80036; stroke-width: 0.9000000357627869;" x1="120" x2="194.4" y1="162.0138" y2="162.0138"/><text fill="#000000" font-family="sans-serif" font-size="6.6" lengthAdjust="spacingAndGlyphs" textLength="48" x="123" y="171.9774">setFlyBehavior()</text><text fill="#000000" font-family="sans-serif" font-size="6.6" lengthAdjust="spacingAndGlyphs" textLength="20.4" x="123" y="180.9911">siwm()</text><!--class RubberDuck--><rect fill="#FEFECE" filter="url(#f1oztb1a7wojh6)" height="55.8413" id="RubberDuck" style="stroke: #A80036; stroke-width: 0.9000000357627869;" width="75.6" x="216" y="129"/><ellipse cx="231.75" cy="138.6" fill="#ADD1B2" rx="6.6" ry="6.6" style="stroke: #A80036; stroke-width: 0.6000000238418579;"/><path d="M231.5625,142.2 Q230.4,142.2 229.725,141.3422 Q229.05,140.4844 229.05,138.7125 Q229.05,137.2125 229.7625,136.2 Q230.475,135.1875 231.7125,135.1875 Q231.9844,135.1875 232.2469,135.1875 Q232.5094,135.1875 232.6969,135.1875 Q232.8469,135.1875 232.9453,135.1875 Q233.0438,135.1875 233.2875,135.1875 L233.7094,137.4 L233.0719,137.4 Q232.8094,136.7438 232.4672,136.4719 Q232.125,136.2 231.5719,136.2 Q230.8781,136.2 230.4703,136.9078 Q230.0625,137.6156 230.0625,138.7125 Q230.0625,139.9219 230.3766,140.5547 Q230.6906,141.1875 231.5344,141.1875 Q232.0875,141.1875 232.4766,140.8453 Q232.8656,140.5031 233.0719,139.6688 L233.6906,139.9781 Q233.4563,141.0281 232.8938,141.6141 Q232.3313,142.2 231.5625,142.2 Z "/><text fill="#000000" font-family="sans-serif" font-size="7.2" lengthAdjust="spacingAndGlyphs" textLength="41.4" x="241.65" y="141.9346">RubberDuck</text><line style="stroke: #A80036; stroke-width: 0.9000000357627869;" x1="216.6" x2="291" y1="148.2" y2="148.2"/><text fill="#000000" font-family="sans-serif" font-size="6.6" lengthAdjust="spacingAndGlyphs" textLength="68.4" x="219.6" y="158.1636">FlyBehavior flybehavior</text><line style="stroke: #A80036; stroke-width: 0.9000000357627869;" x1="216.6" x2="291" y1="162.0138" y2="162.0138"/><text fill="#000000" font-family="sans-serif" font-size="6.6" lengthAdjust="spacingAndGlyphs" textLength="48" x="219.6" y="171.9774">setFlyBehavior()</text><text fill="#000000" font-family="sans-serif" font-size="6.6" lengthAdjust="spacingAndGlyphs" textLength="20.4" x="219.6" y="180.9911">siwm()</text><!--class FlyBehavior--><rect fill="#FEFECE" filter="url(#f1oztb1a7wojh6)" height="37.8138" id="FlyBehavior" style="stroke: #A80036; stroke-width: 0.9000000357627869;" width="58.2" x="332.7" y="138"/><ellipse cx="341.7" cy="147.6" fill="#B4A7E5" rx="6.6" ry="6.6" style="stroke: #A80036; stroke-width: 0.6000000238418579;"/><path d="M339.825,145.2 L339.825,144.1875 L343.3875,144.1875 L343.3875,145.2 L342.2625,145.2 Q342.1688,145.2 342.1406,145.2188 Q342.1125,145.2375 342.1125,145.2656 L342.1125,150.1219 Q342.1125,150.15 342.1406,150.1688 Q342.1688,150.1875 342.2625,150.1875 L343.3875,150.1875 L343.3875,151.2 L339.825,151.2 L339.825,150.1875 L340.95,150.1875 Q341.0719,150.1875 341.086,150.1781 Q341.1,150.1688 341.1,150.1219 L341.1,145.2656 Q341.1,145.2188 341.086,145.2094 Q341.0719,145.2 340.95,145.2 L339.825,145.2 Z "/><text fill="#000000" font-family="sans-serif" font-size="7.2" font-style="italic" lengthAdjust="spacingAndGlyphs" textLength="39" x="350.1" y="150.9346">FlyBehavior</text><line style="stroke: #A80036; stroke-width: 0.9000000357627869;" x1="333.3" x2="390.3" y1="157.2" y2="157.2"/><line style="stroke: #A80036; stroke-width: 0.9000000357627869;" x1="333.3" x2="390.3" y1="162" y2="162"/><text fill="#000000" font-family="sans-serif" font-size="6.6" lengthAdjust="spacingAndGlyphs" textLength="12" x="336.3" y="171.9636">fly()</text><!--class FlyWithWings--><rect fill="#FEFECE" filter="url(#f1oztb1a7wojh6)" height="37.8138" id="FlyWithWings" style="stroke: #A80036; stroke-width: 0.9000000357627869;" width="73.2" x="325.2" y="220.8"/><ellipse cx="338.52" cy="230.4" fill="#ADD1B2" rx="6.6" ry="6.6" style="stroke: #A80036; stroke-width: 0.6000000238418579;"/><path d="M338.3325,234 Q337.17,234 336.495,233.1422 Q335.82,232.2844 335.82,230.5125 Q335.82,229.0125 336.5325,228 Q337.245,226.9875 338.4825,226.9875 Q338.7544,226.9875 339.0169,226.9875 Q339.2794,226.9875 339.4669,226.9875 Q339.6169,226.9875 339.7153,226.9875 Q339.8138,226.9875 340.0575,226.9875 L340.4794,229.2 L339.8419,229.2 Q339.5794,228.5438 339.2372,228.2719 Q338.895,228 338.3419,228 Q337.6481,228 337.2403,228.7078 Q336.8325,229.4156 336.8325,230.5125 Q336.8325,231.7219 337.1466,232.3547 Q337.4606,232.9875 338.3044,232.9875 Q338.8575,232.9875 339.2466,232.6453 Q339.6356,232.3031 339.8419,231.4688 L340.4606,231.7781 Q340.2263,232.8281 339.6638,233.4141 Q339.1013,234 338.3325,234 Z "/><text fill="#000000" font-family="sans-serif" font-size="7.2" lengthAdjust="spacingAndGlyphs" textLength="44.4" x="347.88" y="233.7346">FlyWithWings</text><line style="stroke: #A80036; stroke-width: 0.9000000357627869;" x1="325.8" x2="397.8" y1="240" y2="240"/><text fill="#000000" font-family="sans-serif" font-size="6.6" lengthAdjust="spacingAndGlyphs" textLength="66" x="328.8" y="249.9636">fly{    //实现鸭的飞行  }</text><line style="stroke: #A80036; stroke-width: 0.9000000357627869;" x1="325.8" x2="397.8" y1="253.8138" y2="253.8138"/><!--class FlyNoWay--><rect fill="#FEFECE" filter="url(#f1oztb1a7wojh6)" height="37.8138" id="FlyNoWay" style="stroke: #A80036; stroke-width: 0.9000000357627869;" width="77.4" x="419.7" y="220.8"/><ellipse cx="440.31" cy="230.4" fill="#ADD1B2" rx="6.6" ry="6.6" style="stroke: #A80036; stroke-width: 0.6000000238418579;"/><path d="M440.1225,234 Q438.96,234 438.285,233.1422 Q437.61,232.2844 437.61,230.5125 Q437.61,229.0125 438.3225,228 Q439.035,226.9875 440.2725,226.9875 Q440.5444,226.9875 440.8069,226.9875 Q441.0694,226.9875 441.2569,226.9875 Q441.4069,226.9875 441.5053,226.9875 Q441.6038,226.9875 441.8475,226.9875 L442.2694,229.2 L441.6319,229.2 Q441.3694,228.5438 441.0272,228.2719 Q440.685,228 440.1319,228 Q439.4381,228 439.0303,228.7078 Q438.6225,229.4156 438.6225,230.5125 Q438.6225,231.7219 438.9366,232.3547 Q439.2506,232.9875 440.0944,232.9875 Q440.6475,232.9875 441.0366,232.6453 Q441.4256,232.3031 441.6319,231.4688 L442.2506,231.7781 Q442.0163,232.8281 441.4538,233.4141 Q440.8913,234 440.1225,234 Z "/><text fill="#000000" font-family="sans-serif" font-size="7.2" lengthAdjust="spacingAndGlyphs" textLength="32.4" x="451.29" y="233.7346">FlyNoWay</text><line style="stroke: #A80036; stroke-width: 0.9000000357627869;" x1="420.3" x2="496.5" y1="240" y2="240"/><text fill="#000000" font-family="sans-serif" font-size="6.6" lengthAdjust="spacingAndGlyphs" textLength="70.2" x="423.3" y="249.9636">fly{    //什么也不做        }</text><line style="stroke: #A80036; stroke-width: 0.9000000357627869;" x1="420.3" x2="496.5" y1="253.8138" y2="253.8138"/><!--link Duck to MallardDuck--><path d="M156.0246,84.6918 C140.277,91.7436 123.1608,100.4766 108.6,110.4 C100.7874,115.7244 93.0546,122.3478 86.1522,128.8908 " fill="none" id="Duck-MallardDuck" style="stroke: #A80036; stroke-width: 0.6000000238418579;"/><polygon fill="none" points="154.512,80.7696,167.1936,79.8606,157.8468,88.4796,154.512,80.7696" style="stroke: #A80036; stroke-width: 0.6000000238418579;"/><!--link Duck to RedHeadDuck--><path d="M184.9602,103.9026 C180.4998,112.3218 175.8612,121.077 171.6822,128.9646 " fill="none" id="Duck-RedHeadDuck" style="stroke: #A80036; stroke-width: 0.6000000238418579;"/><polygon fill="none" points="181.3392,101.7666,190.668,93.129,188.7618,105.699,181.3392,101.7666" style="stroke: #A80036; stroke-width: 0.6000000238418579;"/><!--link Duck to RubberDuck--><path d="M225.693,103.9026 C230.2092,112.3218 234.9054,121.077 239.1366,128.9646 " fill="none" id="Duck-RubberDuck" style="stroke: #A80036; stroke-width: 0.6000000238418579;"/><polygon fill="none" points="221.8848,105.6888,219.9132,93.129,229.287,101.718,221.8848,105.6888" style="stroke: #A80036; stroke-width: 0.6000000238418579;"/><!--link FlyBehavior to FlyWithWings--><path d="M361.8,187.9734 C361.8,198.9246 361.8,210.9378 361.8,220.5662 " fill="none" id="FlyBehavior-FlyWithWings" style="stroke: #A80036; stroke-width: 0.6000000238418579; stroke-dasharray: 7.0,7.0;"/><polygon fill="none" points="357.6,187.8126,361.8,175.8126,366,187.8126,357.6,187.8126" style="stroke: #A80036; stroke-width: 0.6000000238418579;"/><!--link FlyBehavior to FlyNoWay--><path d="M392.7048,183.606 C407.01,195.69 423.6654,209.7588 436.6266,220.7075 " fill="none" id="FlyBehavior-FlyNoWay" style="stroke: #A80036; stroke-width: 0.6000000238418579; stroke-dasharray: 7.0,7.0;"/><polygon fill="none" points="389.9358,186.765,383.4792,175.8126,395.3562,180.348,389.9358,186.765" style="stroke: #A80036; stroke-width: 0.6000000238418579;"/><!--link Duck to FlyBehavior--><path d="M243.0744,81.1098 C261.1368,89.0136 282.7728,99.3036 301.2,110.4 C313.7088,117.9324 326.7234,127.5264 337.4712,135.9942 " fill="none" id="Duck-FlyBehavior" style="stroke: #A80036; stroke-width: 0.6000000238418579;"/><polygon fill="#A80036" points="339.8694,137.8944,337.1281,132.6594,337.5183,136.031,334.1467,136.4212,339.8694,137.8944" style="stroke: #A80036; stroke-width: 0.6000000238418579;"/><!--
@startuml


package 客户{

    abstract Duck{
        FlyBehavior flybehavior
        setFlyBehavior()
        siwm()
    }


    class MallardDuck{
          FlyBehavior flybehavior
                setFlyBehavior()
                siwm()
    }

    class RedHeadDuck{
              FlyBehavior flybehavior
                    setFlyBehavior()
                    siwm()
    }

    class RubberDuck{
             FlyBehavior flybehavior
                   setFlyBehavior()
                   siwm()
    }


    Duck <|- - MallardDuck
    Duck <|- - RedHeadDuck
    Duck <|- - RubberDuck


}



package 封装飞行行为{

    interface FlyBehavior{
        fly()
    }

    class FlyWithWings{
        fly{    //实现鸭的飞行  }
    }

    class FlyNoWay{
        fly{    //什么也不做        }
    }

    FlyBehavior <|.. FlyWithWings
    FlyBehavior <|.. FlyNoWay

}

Duck - -> FlyBehavior



@enduml

PlantUML version 1.2018.11(Sun Sep 23 00:43:53 CST 2018)
(GPL source distribution)
Java Runtime: OpenJDK Runtime Environment
JVM: OpenJDK 64-Bit Server VM
Java Version: 1.8.0_152-release-1248-b22
Operating System: Windows 10
OS Version: 10.0
Default Encoding: GBK
Language: zh
Country: CN
--></g></svg>