<?xml version="1.0" encoding="UTF-8" standalone="no"?><svg xmlns="http://www.w3.org/2000/svg" xmlns:xlink="http://www.w3.org/1999/xlink" contentScriptType="application/ecmascript" contentStyleType="text/css" height="204px" preserveAspectRatio="none" style="width:642px;height:204px;" version="1.1" viewBox="0 0 642 204" width="642px" zoomAndPan="magnify"><defs><filter height="300%" id="f1gouz31jpw48l" width="300%" x="-1" y="-1"><feGaussianBlur result="blurOut" stdDeviation="1.2000000476837158"/><feColorMatrix in="blurOut" result="blurOut2" type="matrix" values="0 0 0 0 0 0 0 0 0 0 0 0 0 0 0 0 0 0 .4 0"/><feOffset dx="2.4000000953674316" dy="2.4000000953674316" in="blurOut2" result="blurOut3"/><feBlend in="SourceGraphic" in2="blurOut3" mode="normal"/></filter></defs><g><!--cluster 场景/客户--><polygon fill="#FFFFFF" filter="url(#f1gouz31jpw48l)" points="13.2,34.8,55.2,34.8,59.4,49.8721,310.8,49.8721,310.8,196.8,13.2,196.8,13.2,34.8" style="stroke: #000000; stroke-width: 0.9000000357627869;"/><line style="stroke: #000000; stroke-width: 0.9000000357627869;" x1="13.2" x2="59.4" y1="49.8721" y2="49.8721"/><text fill="#000000" font-family="sans-serif" font-size="8.4" font-weight="bold" lengthAdjust="spacingAndGlyphs" textLength="38.4" x="15.6" y="45.6264">场景/客户</text><!--cluster 策略/算法族--><polygon fill="#FFFFFF" filter="url(#f1gouz31jpw48l)" points="325.2,39.3,376.2,39.3,380.4,54.3721,628.8,54.3721,628.8,192.3,325.2,192.3,325.2,39.3" style="stroke: #000000; stroke-width: 0.9000000357627869;"/><line style="stroke: #000000; stroke-width: 0.9000000357627869;" x1="325.2" x2="380.4" y1="54.3721" y2="54.3721"/><text fill="#000000" font-family="sans-serif" font-size="8.4" font-weight="bold" lengthAdjust="spacingAndGlyphs" textLength="47.4" x="327.6" y="50.1264">策略/算法族</text><!--class Context--><rect fill="#FEFECE" filter="url(#f1gouz31jpw48l)" height="46.8275" id="Context" style="stroke: #A80036; stroke-width: 0.9000000357627869;" width="75.6" x="126" y="57.6"/><ellipse cx="149.04" cy="67.2" fill="#A9DCDF" rx="6.6" ry="6.6" style="stroke: #A80036; stroke-width: 0.6000000238418579;"/><path d="M149.6869,67.8 L147.9994,67.8 L147.5119,68.7656 Q147.4838,68.8594 147.4838,68.9438 Q147.4838,69.0563 147.5119,69.1219 Q147.54,69.1875 147.6713,69.1875 L147.9994,69.1875 L147.9994,70.2 L146.04,70.2 L146.04,69.1875 L146.3775,69.1875 Q146.5088,69.1875 146.5791,69.15 Q146.6494,69.1125 146.6775,69 L148.5338,63.1875 L149.3588,63.1875 L151.1775,68.9344 Q151.2338,69.075 151.3181,69.1313 Q151.4025,69.1875 151.515,69.1875 L151.8525,69.1875 L151.8525,70.2 L149.6588,70.2 L149.6588,69.1875 L150.0244,69.1875 Q150.1275,69.1875 150.1322,69.1781 Q150.1369,69.1688 150.1369,69.1313 Q150.1369,69.0281 150.1181,68.9719 L149.6869,67.8 Z M146.5556,69.6 L146.5556,69.6 Z M146.9588,69.6 L146.9588,69.6 Z M149.79,69.6 L149.79,69.6 Z M150.465,69.6 L150.465,69.6 Z M148.7869,64.4438 L148.8338,64.4438 L148.3181,66.7875 L149.49,66.7875 L148.7869,64.4438 Z "/><text fill="#000000" font-family="sans-serif" font-size="7.2" font-style="italic" lengthAdjust="spacingAndGlyphs" textLength="25.2" x="160.56" y="70.5346">Context</text><line style="stroke: #A80036; stroke-width: 0.9000000357627869;" x1="126.6" x2="201" y1="76.8" y2="76.8"/><text fill="#000000" font-family="sans-serif" font-size="6.6" lengthAdjust="spacingAndGlyphs" textLength="24.6" x="129.6" y="86.7636">Strategy</text><line style="stroke: #A80036; stroke-width: 0.9000000357627869;" x1="126.6" x2="201" y1="90.6138" y2="90.6138"/><text fill="#000000" font-family="sans-serif" font-size="6.6" lengthAdjust="spacingAndGlyphs" textLength="68.4" x="129.6" y="100.5773">setStrategy(Strategy s)</text><path d="M222.9,72.6 L222.9,78.6 L201.723,81 L222.9,83.4 L222.9,89.2526 A0,0 0 0 0 222.9,89.2526 L297.9,89.2526 A0,0 0 0 0 297.9,89.2526 L297.9,78.6 L291.9,72.6 L222.9,72.6 A0,0 0 0 0 222.9,72.6 " fill="#FBFB77" filter="url(#f1gouz31jpw48l)" style="stroke: #A80036; stroke-width: 0.6000000238418579;"/><path d="M291.9,72.6 L291.9,78.6 L297.9,78.6 L291.9,72.6 " fill="#FBFB77" style="stroke: #A80036; stroke-width: 0.6000000238418579;"/><text fill="#000000" font-family="sans-serif" font-size="7.8" lengthAdjust="spacingAndGlyphs" textLength="62.4" x="226.5" y="84.5388">不一定需要抽象类</text><!--class ConcreteContextA--><rect fill="#FEFECE" filter="url(#f1gouz31jpw48l)" height="46.8275" id="ConcreteContextA" style="stroke: #A80036; stroke-width: 0.9000000357627869;" width="78" x="22.8" y="140.4"/><ellipse cx="31.8" cy="150" fill="#ADD1B2" rx="6.6" ry="6.6" style="stroke: #A80036; stroke-width: 0.6000000238418579;"/><path d="M31.6125,153.6 Q30.45,153.6 29.775,152.7422 Q29.1,151.8844 29.1,150.1125 Q29.1,148.6125 29.8125,147.6 Q30.525,146.5875 31.7625,146.5875 Q32.0344,146.5875 32.2969,146.5875 Q32.5594,146.5875 32.7469,146.5875 Q32.8969,146.5875 32.9953,146.5875 Q33.0938,146.5875 33.3375,146.5875 L33.7594,148.8 L33.1219,148.8 Q32.8594,148.1438 32.5172,147.8719 Q32.175,147.6 31.6219,147.6 Q30.9281,147.6 30.5203,148.3078 Q30.1125,149.0156 30.1125,150.1125 Q30.1125,151.3219 30.4266,151.9547 Q30.7406,152.5875 31.5844,152.5875 Q32.1375,152.5875 32.5266,152.2453 Q32.9156,151.9031 33.1219,151.0688 L33.7406,151.3781 Q33.5063,152.4281 32.9438,153.0141 Q32.3813,153.6 31.6125,153.6 Z "/><text fill="#000000" font-family="sans-serif" font-size="7.2" lengthAdjust="spacingAndGlyphs" textLength="58.8" x="40.2" y="153.3346">ConcreteContextA</text><line style="stroke: #A80036; stroke-width: 0.9000000357627869;" x1="23.4" x2="100.2" y1="159.6" y2="159.6"/><text fill="#000000" font-family="sans-serif" font-size="6.6" lengthAdjust="spacingAndGlyphs" textLength="24.6" x="26.4" y="169.5636">Strategy</text><line style="stroke: #A80036; stroke-width: 0.9000000357627869;" x1="23.4" x2="100.2" y1="173.4138" y2="173.4138"/><text fill="#000000" font-family="sans-serif" font-size="6.6" lengthAdjust="spacingAndGlyphs" textLength="68.4" x="26.4" y="183.3774">setStrategy(Strategy s)</text><!--class ConcreteContextB--><rect fill="#FEFECE" filter="url(#f1gouz31jpw48l)" height="46.8275" id="ConcreteContextB" style="stroke: #A80036; stroke-width: 0.9000000357627869;" width="78.6" x="122.1" y="140.4"/><ellipse cx="131.1" cy="150" fill="#ADD1B2" rx="6.6" ry="6.6" style="stroke: #A80036; stroke-width: 0.6000000238418579;"/><path d="M130.9125,153.6 Q129.75,153.6 129.075,152.7422 Q128.4,151.8844 128.4,150.1125 Q128.4,148.6125 129.1125,147.6 Q129.825,146.5875 131.0625,146.5875 Q131.3344,146.5875 131.5969,146.5875 Q131.8594,146.5875 132.0469,146.5875 Q132.1969,146.5875 132.2953,146.5875 Q132.3938,146.5875 132.6375,146.5875 L133.0594,148.8 L132.4219,148.8 Q132.1594,148.1438 131.8172,147.8719 Q131.475,147.6 130.9219,147.6 Q130.2281,147.6 129.8203,148.3078 Q129.4125,149.0156 129.4125,150.1125 Q129.4125,151.3219 129.7266,151.9547 Q130.0406,152.5875 130.8844,152.5875 Q131.4375,152.5875 131.8266,152.2453 Q132.2156,151.9031 132.4219,151.0688 L133.0406,151.3781 Q132.8063,152.4281 132.2438,153.0141 Q131.6813,153.6 130.9125,153.6 Z "/><text fill="#000000" font-family="sans-serif" font-size="7.2" lengthAdjust="spacingAndGlyphs" textLength="59.4" x="139.5" y="153.3346">ConcreteContextB</text><line style="stroke: #A80036; stroke-width: 0.9000000357627869;" x1="122.7" x2="200.1" y1="159.6" y2="159.6"/><text fill="#000000" font-family="sans-serif" font-size="6.6" lengthAdjust="spacingAndGlyphs" textLength="24.6" x="125.7" y="169.5636">Strategy</text><line style="stroke: #A80036; stroke-width: 0.9000000357627869;" x1="122.7" x2="200.1" y1="173.4138" y2="173.4138"/><text fill="#000000" font-family="sans-serif" font-size="6.6" lengthAdjust="spacingAndGlyphs" textLength="68.4" x="125.7" y="183.3774">setStrategy(Strategy s)</text><!--class ConcreteContextC--><rect fill="#FEFECE" filter="url(#f1gouz31jpw48l)" height="46.8275" id="ConcreteContextC" style="stroke: #A80036; stroke-width: 0.9000000357627869;" width="79.2" x="222" y="140.4"/><ellipse cx="231" cy="150" fill="#ADD1B2" rx="6.6" ry="6.6" style="stroke: #A80036; stroke-width: 0.6000000238418579;"/><path d="M230.8125,153.6 Q229.65,153.6 228.975,152.7422 Q228.3,151.8844 228.3,150.1125 Q228.3,148.6125 229.0125,147.6 Q229.725,146.5875 230.9625,146.5875 Q231.2344,146.5875 231.4969,146.5875 Q231.7594,146.5875 231.9469,146.5875 Q232.0969,146.5875 232.1953,146.5875 Q232.2938,146.5875 232.5375,146.5875 L232.9594,148.8 L232.3219,148.8 Q232.0594,148.1438 231.7172,147.8719 Q231.375,147.6 230.8219,147.6 Q230.1281,147.6 229.7203,148.3078 Q229.3125,149.0156 229.3125,150.1125 Q229.3125,151.3219 229.6266,151.9547 Q229.9406,152.5875 230.7844,152.5875 Q231.3375,152.5875 231.7266,152.2453 Q232.1156,151.9031 232.3219,151.0688 L232.9406,151.3781 Q232.7063,152.4281 232.1438,153.0141 Q231.5813,153.6 230.8125,153.6 Z "/><text fill="#000000" font-family="sans-serif" font-size="7.2" lengthAdjust="spacingAndGlyphs" textLength="60" x="239.4" y="153.3346">ConcreteContextC</text><line style="stroke: #A80036; stroke-width: 0.9000000357627869;" x1="222.6" x2="300.6" y1="159.6" y2="159.6"/><text fill="#000000" font-family="sans-serif" font-size="6.6" lengthAdjust="spacingAndGlyphs" textLength="24.6" x="225.6" y="169.5636">Strategy</text><line style="stroke: #A80036; stroke-width: 0.9000000357627869;" x1="222.6" x2="300.6" y1="173.4138" y2="173.4138"/><text fill="#000000" font-family="sans-serif" font-size="6.6" lengthAdjust="spacingAndGlyphs" textLength="68.4" x="225.6" y="183.3774">setStrategy(Strategy s)</text><!--class Strategy--><rect fill="#FEFECE" filter="url(#f1gouz31jpw48l)" height="37.8138" id="Strategy" style="stroke: #A80036; stroke-width: 0.9000000357627869;" width="46.2" x="402.3" y="62.1"/><ellipse cx="411.3" cy="71.7" fill="#B4A7E5" rx="6.6" ry="6.6" style="stroke: #A80036; stroke-width: 0.6000000238418579;"/><path d="M409.425,69.3 L409.425,68.2875 L412.9875,68.2875 L412.9875,69.3 L411.8625,69.3 Q411.7688,69.3 411.7406,69.3188 Q411.7125,69.3375 411.7125,69.3656 L411.7125,74.2219 Q411.7125,74.25 411.7406,74.2688 Q411.7688,74.2875 411.8625,74.2875 L412.9875,74.2875 L412.9875,75.3 L409.425,75.3 L409.425,74.2875 L410.55,74.2875 Q410.6719,74.2875 410.686,74.2781 Q410.7,74.2688 410.7,74.2219 L410.7,69.3656 Q410.7,69.3188 410.686,69.3094 Q410.6719,69.3 410.55,69.3 L409.425,69.3 Z "/><text fill="#000000" font-family="sans-serif" font-size="7.2" font-style="italic" lengthAdjust="spacingAndGlyphs" textLength="27" x="419.7" y="75.0346">Strategy</text><line style="stroke: #A80036; stroke-width: 0.9000000357627869;" x1="402.9" x2="447.9" y1="81.3" y2="81.3"/><line style="stroke: #A80036; stroke-width: 0.9000000357627869;" x1="402.9" x2="447.9" y1="86.1" y2="86.1"/><text fill="#000000" font-family="sans-serif" font-size="6.6" lengthAdjust="spacingAndGlyphs" textLength="25.8" x="405.9" y="96.0636">method()</text><path d="M469.5,72.6 L469.5,78.6 L448.6032,81 L469.5,83.4 L469.5,89.2526 A0,0 0 0 0 469.5,89.2526 L513.3,89.2526 A0,0 0 0 0 513.3,89.2526 L513.3,78.6 L507.3,72.6 L469.5,72.6 A0,0 0 0 0 469.5,72.6 " fill="#FBFB77" filter="url(#f1gouz31jpw48l)" style="stroke: #A80036; stroke-width: 0.6000000238418579;"/><path d="M507.3,72.6 L507.3,78.6 L513.3,78.6 L507.3,72.6 " fill="#FBFB77" style="stroke: #A80036; stroke-width: 0.6000000238418579;"/><text fill="#000000" font-family="sans-serif" font-size="7.8" lengthAdjust="spacingAndGlyphs" textLength="31.2" x="473.1" y="84.5388">封装策略</text><!--class ConcreteStrategyA--><rect fill="#FEFECE" filter="url(#f1gouz31jpw48l)" height="37.8138" id="ConcreteStrategyA" style="stroke: #A80036; stroke-width: 0.9000000357627869;" width="79.8" x="335.1" y="144.9"/><ellipse cx="344.1" cy="154.5" fill="#ADD1B2" rx="6.6" ry="6.6" style="stroke: #A80036; stroke-width: 0.6000000238418579;"/><path d="M343.9125,158.1 Q342.75,158.1 342.075,157.2422 Q341.4,156.3844 341.4,154.6125 Q341.4,153.1125 342.1125,152.1 Q342.825,151.0875 344.0625,151.0875 Q344.3344,151.0875 344.5969,151.0875 Q344.8594,151.0875 345.0469,151.0875 Q345.1969,151.0875 345.2953,151.0875 Q345.3938,151.0875 345.6375,151.0875 L346.0594,153.3 L345.4219,153.3 Q345.1594,152.6438 344.8172,152.3719 Q344.475,152.1 343.9219,152.1 Q343.2281,152.1 342.8203,152.8078 Q342.4125,153.5156 342.4125,154.6125 Q342.4125,155.8219 342.7266,156.4547 Q343.0406,157.0875 343.8844,157.0875 Q344.4375,157.0875 344.8266,156.7453 Q345.2156,156.4031 345.4219,155.5688 L346.0406,155.8781 Q345.8063,156.9281 345.2438,157.5141 Q344.6813,158.1 343.9125,158.1 Z "/><text fill="#000000" font-family="sans-serif" font-size="7.2" lengthAdjust="spacingAndGlyphs" textLength="60.6" x="352.5" y="157.8346">ConcreteStrategyA</text><line style="stroke: #A80036; stroke-width: 0.9000000357627869;" x1="335.7" x2="414.3" y1="164.1" y2="164.1"/><line style="stroke: #A80036; stroke-width: 0.9000000357627869;" x1="335.7" x2="414.3" y1="168.9" y2="168.9"/><text fill="#000000" font-family="sans-serif" font-size="6.6" lengthAdjust="spacingAndGlyphs" textLength="25.8" x="338.7" y="178.8636">method()</text><!--class ConcreteStrategyB--><rect fill="#FEFECE" filter="url(#f1gouz31jpw48l)" height="37.8138" id="ConcreteStrategyB" style="stroke: #A80036; stroke-width: 0.9000000357627869;" width="80.4" x="436.2" y="144.9"/><ellipse cx="445.2" cy="154.5" fill="#ADD1B2" rx="6.6" ry="6.6" style="stroke: #A80036; stroke-width: 0.6000000238418579;"/><path d="M445.0125,158.1 Q443.85,158.1 443.175,157.2422 Q442.5,156.3844 442.5,154.6125 Q442.5,153.1125 443.2125,152.1 Q443.925,151.0875 445.1625,151.0875 Q445.4344,151.0875 445.6969,151.0875 Q445.9594,151.0875 446.1469,151.0875 Q446.2969,151.0875 446.3953,151.0875 Q446.4938,151.0875 446.7375,151.0875 L447.1594,153.3 L446.5219,153.3 Q446.2594,152.6438 445.9172,152.3719 Q445.575,152.1 445.0219,152.1 Q444.3281,152.1 443.9203,152.8078 Q443.5125,153.5156 443.5125,154.6125 Q443.5125,155.8219 443.8266,156.4547 Q444.1406,157.0875 444.9844,157.0875 Q445.5375,157.0875 445.9266,156.7453 Q446.3156,156.4031 446.5219,155.5688 L447.1406,155.8781 Q446.9063,156.9281 446.3438,157.5141 Q445.7813,158.1 445.0125,158.1 Z "/><text fill="#000000" font-family="sans-serif" font-size="7.2" lengthAdjust="spacingAndGlyphs" textLength="61.2" x="453.6" y="157.8346">ConcreteStrategyB</text><line style="stroke: #A80036; stroke-width: 0.9000000357627869;" x1="436.8" x2="516" y1="164.1" y2="164.1"/><line style="stroke: #A80036; stroke-width: 0.9000000357627869;" x1="436.8" x2="516" y1="168.9" y2="168.9"/><text fill="#000000" font-family="sans-serif" font-size="6.6" lengthAdjust="spacingAndGlyphs" textLength="25.8" x="439.8" y="178.8636">method()</text><!--class ConcreteStrategyC--><rect fill="#FEFECE" filter="url(#f1gouz31jpw48l)" height="37.8138" id="ConcreteStrategyC" style="stroke: #A80036; stroke-width: 0.9000000357627869;" width="81" x="537.9" y="144.9"/><ellipse cx="546.9" cy="154.5" fill="#ADD1B2" rx="6.6" ry="6.6" style="stroke: #A80036; stroke-width: 0.6000000238418579;"/><path d="M546.7125,158.1 Q545.55,158.1 544.875,157.2422 Q544.2,156.3844 544.2,154.6125 Q544.2,153.1125 544.9125,152.1 Q545.625,151.0875 546.8625,151.0875 Q547.1344,151.0875 547.3969,151.0875 Q547.6594,151.0875 547.8469,151.0875 Q547.9969,151.0875 548.0953,151.0875 Q548.1938,151.0875 548.4375,151.0875 L548.8594,153.3 L548.2219,153.3 Q547.9594,152.6438 547.6172,152.3719 Q547.275,152.1 546.7219,152.1 Q546.0281,152.1 545.6203,152.8078 Q545.2125,153.5156 545.2125,154.6125 Q545.2125,155.8219 545.5266,156.4547 Q545.8406,157.0875 546.6844,157.0875 Q547.2375,157.0875 547.6266,156.7453 Q548.0156,156.4031 548.2219,155.5688 L548.8406,155.8781 Q548.6063,156.9281 548.0438,157.5141 Q547.4813,158.1 546.7125,158.1 Z "/><text fill="#000000" font-family="sans-serif" font-size="7.2" lengthAdjust="spacingAndGlyphs" textLength="61.8" x="555.3" y="157.8346">ConcreteStrategyC</text><line style="stroke: #A80036; stroke-width: 0.9000000357627869;" x1="538.5" x2="618.3" y1="164.1" y2="164.1"/><line style="stroke: #A80036; stroke-width: 0.9000000357627869;" x1="538.5" x2="618.3" y1="168.9" y2="168.9"/><text fill="#000000" font-family="sans-serif" font-size="6.6" lengthAdjust="spacingAndGlyphs" textLength="25.8" x="541.5" y="178.8636">method()</text><path d="M248.4,4.8 L248.4,21.4526 L340.8,21.4526 L340.8,10.8 L334.8,4.8 L248.4,4.8 " fill="#FBFB77" filter="url(#f1gouz31jpw48l)" style="stroke: #A80036; stroke-width: 0.6000000238418579;"/><path d="M334.8,4.8 L334.8,10.8 L340.8,10.8 L334.8,4.8 " fill="#FBFB77" style="stroke: #A80036; stroke-width: 0.6000000238418579;"/><text fill="#000000" font-family="sans-serif" font-size="7.8" lengthAdjust="spacingAndGlyphs" textLength="79.8" x="252" y="16.7388">Has a(多用组合的思想)</text><!--link Context to ConcreteContextA--><path d="M125.6106,112.1514 C113.958,121.4736 101.3514,131.559 90.4452,140.2836 " fill="none" id="Context-ConcreteContextA" style="stroke: #A80036; stroke-width: 0.6000000238418579;"/><polygon fill="none" points="123.1218,108.7638,135.1158,104.5476,128.3694,115.3236,123.1218,108.7638" style="stroke: #A80036; stroke-width: 0.6000000238418579;"/><!--link Context to ConcreteContextB--><path d="M162.7698,116.6232 C162.5358,124.578 162.2934,132.8322 162.078,140.142 " fill="none" id="Context-ConcreteContextB" style="stroke: #A80036; stroke-width: 0.6000000238418579;"/><polygon fill="none" points="158.574,116.4186,163.125,104.5476,166.9704,116.6658,158.574,116.4186" style="stroke: #A80036; stroke-width: 0.6000000238418579;"/><!--link Context to ConcreteContextC--><path d="M200.5848,112.2918 C211.7106,121.5744 223.7292,131.6022 234.1344,140.2836 " fill="none" id="Context-ConcreteContextC" style="stroke: #A80036; stroke-width: 0.6000000238418579;"/><polygon fill="none" points="197.8266,115.4598,191.3028,104.5476,203.208,109.0104,197.8266,115.4598" style="stroke: #A80036; stroke-width: 0.6000000238418579;"/><!--link Strategy to ConcreteStrategyA--><path d="M407.6748,110.298 C400.6254,121.7118 392.7174,134.5146 386.4474,144.666 " fill="none" id="Strategy-ConcreteStrategyA" style="stroke: #A80036; stroke-width: 0.6000000238418579; stroke-dasharray: 7.0,7.0;"/><polygon fill="none" points="404.2098,107.9154,414.0894,99.9126,411.3564,112.329,404.2098,107.9154" style="stroke: #A80036; stroke-width: 0.6000000238418579;"/><!--link Strategy to ConcreteStrategyB--><path d="M443.226,110.1216 C450.387,121.5798 458.439,134.4624 464.8164,144.666 " fill="none" id="Strategy-ConcreteStrategyB" style="stroke: #A80036; stroke-width: 0.6000000238418579; stroke-dasharray: 7.0,7.0;"/><polygon fill="none" points="439.644,112.3146,436.8456,99.9126,446.7672,107.8626,439.644,112.3146" style="stroke: #A80036; stroke-width: 0.6000000238418579;"/><!--link Strategy to ConcreteStrategyC--><path d="M458.8398,104.307 C458.8932,104.3382 458.9466,104.3688 459,104.4 C484.5648,119.2728 514.4148,133.9728 537.8736,144.9546 " fill="none" id="Strategy-ConcreteStrategyC" style="stroke: #A80036; stroke-width: 0.6000000238418579; stroke-dasharray: 7.0,7.0;"/><polygon fill="none" points="456.6114,107.8668,448.632,97.9692,461.0424,100.7304,456.6114,107.8668" style="stroke: #A80036; stroke-width: 0.6000000238418579;"/><!--link N1 to Strategy--><path d="M310.1184,21.7014 C332.166,32.9274 372.8358,53.6358 399.4992,67.212 " fill="none" id="N1-Strategy" style="stroke: #A80036; stroke-width: 0.6000000238418579;"/><polygon fill="#A80036" points="402.1956,68.5848,398.4735,63.995,399.5225,67.223,396.2946,68.272,402.1956,68.5848" style="stroke: #A80036; stroke-width: 0.6000000238418579;"/><!--link N1 to Context--><path d="M248.313,17.865 C236.1138,20.2644 223.3194,24.048 212.4,30 C200.1264,36.6906 189.0726,47.5404 180.6192,57.4632 " fill="none" id="N1-Context" style="stroke: #A80036; stroke-width: 0.6000000238418579;"/><!--
@startuml

package 场景/客户{
abstract class Context{
    Strategy
    setStrategy(Strategy s)
}

note right of Context: 不一定需要抽象类

class ConcreteContextA{
    Strategy
   setStrategy(Strategy s)
}

class ConcreteContextB{
    Strategy
   setStrategy(Strategy s)
}

class ConcreteContextC{
    Strategy
   setStrategy(Strategy s)
}

Context <|- - ConcreteContextA
Context <|- - ConcreteContextB
Context <|- - ConcreteContextC
}


package 策略/算法族{
interface Strategy{
    method()
}
note right: 封装策略

class ConcreteStrategyA{
    method()
}

class ConcreteStrategyB{
    method()
}

class ConcreteStrategyC{
    method()
}

Strategy <|.. ConcreteStrategyA
Strategy <|.. ConcreteStrategyB
Strategy <|.. ConcreteStrategyC
}


note "Has a(多用组合的思想)" as N1
N1- ->Strategy
N1- -Context




@enduml

PlantUML version 1.2018.11(Sun Sep 23 00:43:53 CST 2018)
(GPL source distribution)
Java Runtime: OpenJDK Runtime Environment
JVM: OpenJDK 64-Bit Server VM
Java Version: 1.8.0_152-release-1248-b22
Operating System: Windows 10
OS Version: 10.0
Default Encoding: GBK
Language: zh
Country: CN
--></g></svg>