<?xml version="1.0" encoding="UTF-8" standalone="no"?><svg xmlns="http://www.w3.org/2000/svg" xmlns:xlink="http://www.w3.org/1999/xlink" contentScriptType="application/ecmascript" contentStyleType="text/css" height="255.6px" preserveAspectRatio="none" style="width:480px;height:255px;" version="1.1" viewBox="0 0 480 255" width="480.6px" zoomAndPan="magnify"><defs><filter height="300%" id="f1946i7o8qqyzm" width="300%" x="-1" y="-1"><feGaussianBlur result="blurOut" stdDeviation="1.7999999523162842"/><feColorMatrix in="blurOut" result="blurOut2" type="matrix" values="0 0 0 0 0 0 0 0 0 0 0 0 0 0 0 0 0 0 .4 0"/><feOffset dx="3.5999999046325684" dy="3.5999999046325684" in="blurOut2" result="blurOut3"/><feBlend in="SourceGraphic" in2="blurOut3" mode="normal"/></filter></defs><g><!--class Subject--><rect fill="#FEFECE" filter="url(#f1946i7o8qqyzm)" height="83.762" id="Subject" style="stroke: #A80036; stroke-width: 1.3499999642372131;" width="92.7" x="355.5" y="7.2"/><ellipse cx="380.745" cy="21.6" fill="#B4A7E5" rx="9.9" ry="9.9" style="stroke: #A80036; stroke-width: 0.8999999761581421;"/><path d="M377.9325,18 L377.9325,16.4812 L383.2762,16.4812 L383.2762,18 L381.5887,18 Q381.4481,18 381.4059,18.0281 Q381.3637,18.0562 381.3637,18.0984 L381.3637,25.3828 Q381.3637,25.425 381.4059,25.4531 Q381.4481,25.4812 381.5887,25.4812 L383.2762,25.4812 L383.2762,27 L377.9325,27 L377.9325,25.4812 L379.62,25.4812 Q379.8028,25.4812 379.8239,25.4672 Q379.845,25.4531 379.845,25.3828 L379.845,18.0984 Q379.845,18.0281 379.8239,18.0141 Q379.8028,18 379.62,18 L377.9325,18 Z "/><text fill="#000000" font-family="sans-serif" font-size="10.8" font-style="italic" lengthAdjust="spacingAndGlyphs" textLength="37.8" x="395.955" y="26.6019">Subject</text><line style="stroke: #A80036; stroke-width: 1.3499999642372131;" x1="356.4" x2="447.3" y1="36" y2="36"/><line style="stroke: #A80036; stroke-width: 1.3499999642372131;" x1="356.4" x2="447.3" y1="43.2" y2="43.2"/><text fill="#000000" font-family="sans-serif" font-size="9.9" lengthAdjust="spacingAndGlyphs" textLength="81.9" x="360.9" y="58.1454">registerObserver()</text><text fill="#000000" font-family="sans-serif" font-size="9.9" lengthAdjust="spacingAndGlyphs" textLength="81" x="360.9" y="71.666">removeObserver()</text><text fill="#000000" font-family="sans-serif" font-size="9.9" lengthAdjust="spacingAndGlyphs" textLength="78.3" x="360.9" y="85.1867">notifyObservers()</text><!--class WeatherData--><rect fill="#FEFECE" filter="url(#f1946i7o8qqyzm)" height="83.762" id="WeatherData" style="stroke: #A80036; stroke-width: 1.3499999642372131;" width="93.6" x="377.55" y="162"/><ellipse cx="391.05" cy="176.4" fill="#ADD1B2" rx="9.9" ry="9.9" style="stroke: #A80036; stroke-width: 0.8999999761581421;"/><path d="M390.7687,181.8 Q389.025,181.8 388.0125,180.5133 Q387,179.2266 387,176.5687 Q387,174.3187 388.0687,172.8 Q389.1375,171.2812 390.9937,171.2812 Q391.4016,171.2812 391.7953,171.2812 Q392.1891,171.2812 392.4703,171.2812 Q392.6953,171.2812 392.843,171.2812 Q392.9906,171.2812 393.3562,171.2812 L393.9891,174.6 L393.0328,174.6 Q392.6391,173.6156 392.1258,173.2078 Q391.6125,172.8 390.7828,172.8 Q389.7422,172.8 389.1305,173.8617 Q388.5187,174.9234 388.5187,176.5687 Q388.5187,178.3828 388.9898,179.332 Q389.4609,180.2812 390.7266,180.2812 Q391.5562,180.2812 392.1398,179.768 Q392.7234,179.2547 393.0328,178.0031 L393.9609,178.4672 Q393.6094,180.0422 392.7656,180.9211 Q391.9219,181.8 390.7687,181.8 Z "/><text fill="#000000" font-family="sans-serif" font-size="10.8" lengthAdjust="spacingAndGlyphs" textLength="64.8" x="403.65" y="181.4019">WeatherData</text><line style="stroke: #A80036; stroke-width: 1.3499999642372131;" x1="378.45" x2="470.25" y1="190.8" y2="190.8"/><line style="stroke: #A80036; stroke-width: 1.3499999642372131;" x1="378.45" x2="470.25" y1="198" y2="198"/><text fill="#000000" font-family="sans-serif" font-size="9.9" lengthAdjust="spacingAndGlyphs" textLength="81.9" x="382.95" y="212.9454">registerObserver()</text><text fill="#000000" font-family="sans-serif" font-size="9.9" lengthAdjust="spacingAndGlyphs" textLength="81" x="382.95" y="226.466">removeObserver()</text><text fill="#000000" font-family="sans-serif" font-size="9.9" lengthAdjust="spacingAndGlyphs" textLength="78.3" x="382.95" y="239.9867">notifyObservers()</text><!--class Observer--><rect fill="#FEFECE" filter="url(#f1946i7o8qqyzm)" height="56.7207" id="Observer" style="stroke: #A80036; stroke-width: 1.3499999642372131;" width="74.7" x="205.2" y="20.7"/><ellipse cx="218.7" cy="35.1" fill="#B4A7E5" rx="9.9" ry="9.9" style="stroke: #A80036; stroke-width: 0.8999999761581421;"/><path d="M215.8875,31.5 L215.8875,29.9812 L221.2312,29.9812 L221.2312,31.5 L219.5437,31.5 Q219.4031,31.5 219.3609,31.5281 Q219.3187,31.5562 219.3187,31.5984 L219.3187,38.8828 Q219.3187,38.925 219.3609,38.9531 Q219.4031,38.9812 219.5437,38.9812 L221.2312,38.9812 L221.2312,40.5 L215.8875,40.5 L215.8875,38.9812 L217.575,38.9812 Q217.7578,38.9812 217.7789,38.9672 Q217.8,38.9531 217.8,38.8828 L217.8,31.5984 Q217.8,31.5281 217.7789,31.5141 Q217.7578,31.5 217.575,31.5 L215.8875,31.5 Z "/><text fill="#000000" font-family="sans-serif" font-size="10.8" font-style="italic" lengthAdjust="spacingAndGlyphs" textLength="45.9" x="231.3" y="40.1019">Observer</text><line style="stroke: #A80036; stroke-width: 1.3499999642372131;" x1="206.1" x2="279" y1="49.5" y2="49.5"/><line style="stroke: #A80036; stroke-width: 1.3499999642372131;" x1="206.1" x2="279" y1="56.7" y2="56.7"/><text fill="#000000" font-family="sans-serif" font-size="9.9" lengthAdjust="spacingAndGlyphs" textLength="36.9" x="210.6" y="71.6454">update()</text><!--class CurrentConditionDisplay--><rect fill="#FEFECE" filter="url(#f1946i7o8qqyzm)" height="56.7207" id="CurrentConditionDisplay" style="stroke: #A80036; stroke-width: 1.3499999642372131;" width="150.3" x="5.4" y="175.5"/><ellipse cx="18.9" cy="189.9" fill="#ADD1B2" rx="9.9" ry="9.9" style="stroke: #A80036; stroke-width: 0.8999999761581421;"/><path d="M18.6187,195.3 Q16.875,195.3 15.8625,194.0133 Q14.85,192.7266 14.85,190.0687 Q14.85,187.8187 15.9187,186.3 Q16.9875,184.7812 18.8437,184.7812 Q19.2516,184.7812 19.6453,184.7812 Q20.0391,184.7812 20.3203,184.7812 Q20.5453,184.7812 20.693,184.7812 Q20.8406,184.7812 21.2062,184.7812 L21.8391,188.1 L20.8828,188.1 Q20.4891,187.1156 19.9758,186.7078 Q19.4625,186.3 18.6328,186.3 Q17.5922,186.3 16.9805,187.3617 Q16.3687,188.4234 16.3687,190.0687 Q16.3687,191.8828 16.8398,192.832 Q17.3109,193.7812 18.5766,193.7812 Q19.4062,193.7812 19.9898,193.268 Q20.5734,192.7547 20.8828,191.5031 L21.8109,191.9672 Q21.4594,193.5422 20.6156,194.4211 Q19.7719,195.3 18.6187,195.3 Z "/><text fill="#000000" font-family="sans-serif" font-size="10.8" lengthAdjust="spacingAndGlyphs" textLength="121.5" x="31.5" y="194.9019">CurrentConditionDisplay</text><line style="stroke: #A80036; stroke-width: 1.3499999642372131;" x1="6.3" x2="154.8" y1="204.3" y2="204.3"/><line style="stroke: #A80036; stroke-width: 1.3499999642372131;" x1="6.3" x2="154.8" y1="211.5" y2="211.5"/><text fill="#000000" font-family="sans-serif" font-size="9.9" lengthAdjust="spacingAndGlyphs" textLength="36.9" x="10.8" y="226.4454">update()</text><!--class StatisticsDisplay--><rect fill="#FEFECE" filter="url(#f1946i7o8qqyzm)" height="56.7207" id="StatisticsDisplay" style="stroke: #A80036; stroke-width: 1.3499999642372131;" width="110.7" x="187.2" y="175.5"/><ellipse cx="200.7" cy="189.9" fill="#ADD1B2" rx="9.9" ry="9.9" style="stroke: #A80036; stroke-width: 0.8999999761581421;"/><path d="M200.4187,195.3 Q198.675,195.3 197.6625,194.0133 Q196.65,192.7266 196.65,190.0687 Q196.65,187.8187 197.7187,186.3 Q198.7875,184.7812 200.6437,184.7812 Q201.0516,184.7812 201.4453,184.7812 Q201.8391,184.7812 202.1203,184.7812 Q202.3453,184.7812 202.493,184.7812 Q202.6406,184.7812 203.0062,184.7812 L203.6391,188.1 L202.6828,188.1 Q202.2891,187.1156 201.7758,186.7078 Q201.2625,186.3 200.4328,186.3 Q199.3922,186.3 198.7805,187.3617 Q198.1687,188.4234 198.1687,190.0687 Q198.1687,191.8828 198.6398,192.832 Q199.1109,193.7812 200.3766,193.7812 Q201.2062,193.7812 201.7898,193.268 Q202.3734,192.7547 202.6828,191.5031 L203.6109,191.9672 Q203.2594,193.5422 202.4156,194.4211 Q201.5719,195.3 200.4187,195.3 Z "/><text fill="#000000" font-family="sans-serif" font-size="10.8" lengthAdjust="spacingAndGlyphs" textLength="81.9" x="213.3" y="194.9019">StatisticsDisplay</text><line style="stroke: #A80036; stroke-width: 1.3499999642372131;" x1="188.1" x2="297" y1="204.3" y2="204.3"/><line style="stroke: #A80036; stroke-width: 1.3499999642372131;" x1="188.1" x2="297" y1="211.5" y2="211.5"/><text fill="#000000" font-family="sans-serif" font-size="9.9" lengthAdjust="spacingAndGlyphs" textLength="36.9" x="192.6" y="226.4454">update()</text><!--link Subject to WeatherData--><path d="M410.5395,109.0377 C413.1333,126.675 415.9188,145.6164 418.3038,161.8357 " fill="none" id="Subject-WeatherData" style="stroke: #A80036; stroke-width: 0.8999999761581421; stroke-dasharray: 7.0,7.0;"/><polygon fill="none" points="404.2656,109.6767,407.88,90.9513,416.7315,107.8434,404.2656,109.6767" style="stroke: #A80036; stroke-width: 0.8999999761581421;"/><!--link Observer to CurrentConditionDisplay--><path d="M191.0367,88.6131 C179.5437,97.857 167.634,107.9424 157.05,117.9 C137.8116,135.999 117.9153,158.2481 103.2363,175.45 " fill="none" id="Observer-CurrentConditionDisplay" style="stroke: #A80036; stroke-width: 0.8999999761581421;"/><polygon fill="none" points="187.2018,83.6136,205.2414,77.4261,194.9985,93.5127,187.2018,83.6136" style="stroke: #A80036; stroke-width: 0.8999999761581421;"/><!--link Observer to StatisticsDisplay--><path d="M242.55,95.7447 C242.55,121.6971 242.55,153.3024 242.55,175.449 " fill="none" id="Observer-StatisticsDisplay" style="stroke: #A80036; stroke-width: 0.8999999761581421;"/><polygon fill="none" points="236.25,95.6574,242.55,77.6574,248.85,95.6574,236.25,95.6574" style="stroke: #A80036; stroke-width: 0.8999999761581421;"/><!--link Observer to Subject--><path d="M298.422,49.05 C316.9944,49.05 337.464,49.05 355.2588,49.05 " fill="none" id="Observer-Subject" style="stroke: #A80036; stroke-width: 0.8999999761581421;"/><polygon fill="none" points="298.3023,55.35,280.3023,49.05,298.3014,42.75,298.3023,55.35" style="stroke: #A80036; stroke-width: 0.8999999761581421;"/><text fill="#000000" font-family="sans-serif" font-size="11.7" lengthAdjust="spacingAndGlyphs" textLength="35.1" x="300.15" y="43.5582">观察者</text><!--link CurrentConditionDisplay to WeatherData--><path d="M103.6368,175.214 C118.8711,158.7005 140.3784,139.4793 164.25,130.5 C235.2951,103.7754 320.4243,140.1246 373.4613,170.499 " fill="none" id="CurrentConditionDisplay-WeatherData" style="stroke: #A80036; stroke-width: 0.8999999761581421;"/><polygon fill="#A80036" points="377.541,172.8596,372.3333,165.6867,373.6461,170.6057,368.7271,171.9185,377.541,172.8596" style="stroke: #A80036; stroke-width: 0.8999999761581421;"/><text fill="#000000" font-family="sans-serif" font-size="11.7" lengthAdjust="spacingAndGlyphs" textLength="46.8" x="165.15" y="132.2082">订阅主题</text><!--link StatisticsDisplay to WeatherData--><path d="M298.0836,203.85 C321.8724,203.85 349.4898,203.85 372.8187,203.85 " fill="none" id="StatisticsDisplay-WeatherData" style="stroke: #A80036; stroke-width: 0.8999999761581421;"/><polygon fill="#A80036" points="377.4249,203.85,369.3249,200.25,372.9249,203.85,369.3249,207.45,377.4249,203.85" style="stroke: #A80036; stroke-width: 0.8999999761581421;"/><text fill="#000000" font-family="sans-serif" font-size="11.7" lengthAdjust="spacingAndGlyphs" textLength="46.8" x="314.325" y="198.3581">订阅主题</text><!--
@startuml


interface Subject{
    registerObserver()
    removeObserver()
    notifyObservers()
}


class WeatherData{
    registerObserver()
    removeObserver()
    notifyObservers()
}

Subject <|.. WeatherData


interface Observer{
    update()
}

class CurrentConditionDisplay{
    update()
}

class StatisticsDisplay{
    update()
}

Observer <|- - CurrentConditionDisplay
Observer <|- - StatisticsDisplay


Observer <|- Subject: 观察者
CurrentConditionDisplay -> WeatherData: 订阅主题
StatisticsDisplay -> WeatherData: 订阅主题



@enduml

PlantUML version 1.2018.11(Sun Sep 23 00:43:53 CST 2018)
(GPL source distribution)
Java Runtime: OpenJDK Runtime Environment
JVM: OpenJDK 64-Bit Server VM
Java Version: 1.8.0_152-release-1248-b22
Operating System: Windows 10
OS Version: 10.0
Default Encoding: GBK
Language: zh
Country: CN
--></g></svg>