<?xml version="1.0" encoding="UTF-8" standalone="no"?><svg xmlns="http://www.w3.org/2000/svg" xmlns:xlink="http://www.w3.org/1999/xlink" contentScriptType="application/ecmascript" contentStyleType="text/css" height="244.8px" preserveAspectRatio="none" style="width:304px;height:244px;" version="1.1" viewBox="0 0 304 244" width="304.8px" zoomAndPan="magnify"><defs><filter height="300%" id="f15t8qz830wot9" width="300%" x="-1" y="-1"><feGaussianBlur result="blurOut" stdDeviation="1.2000000476837158"/><feColorMatrix in="blurOut" result="blurOut2" type="matrix" values="0 0 0 0 0 0 0 0 0 0 0 0 0 0 0 0 0 0 .4 0"/><feOffset dx="2.4000000953674316" dy="2.4000000953674316" in="blurOut2" result="blurOut3"/><feBlend in="SourceGraphic" in2="blurOut3" mode="normal"/></filter></defs><g><!--class Subject--><rect fill="#FEFECE" filter="url(#f15t8qz830wot9)" height="55.8413" id="Subject" style="stroke: #A80036; stroke-width: 0.9000000357627869;" width="61.8" x="3.9" y="90"/><ellipse cx="20.73" cy="99.6" fill="#B4A7E5" rx="6.6" ry="6.6" style="stroke: #A80036; stroke-width: 0.6000000238418579;"/><path d="M18.855,97.2 L18.855,96.1875 L22.4175,96.1875 L22.4175,97.2 L21.2925,97.2 Q21.1988,97.2 21.1706,97.2188 Q21.1425,97.2375 21.1425,97.2656 L21.1425,102.1219 Q21.1425,102.15 21.1706,102.1688 Q21.1988,102.1875 21.2925,102.1875 L22.4175,102.1875 L22.4175,103.2 L18.855,103.2 L18.855,102.1875 L19.98,102.1875 Q20.1019,102.1875 20.1159,102.1781 Q20.13,102.1688 20.13,102.1219 L20.13,97.2656 Q20.13,97.2188 20.1159,97.2094 Q20.1019,97.2 19.98,97.2 L18.855,97.2 Z "/><text fill="#000000" font-family="sans-serif" font-size="7.2" font-style="italic" lengthAdjust="spacingAndGlyphs" textLength="25.2" x="30.87" y="102.9346">Subject</text><line style="stroke: #A80036; stroke-width: 0.9000000357627869;" x1="4.5" x2="65.1" y1="109.2" y2="109.2"/><line style="stroke: #A80036; stroke-width: 0.9000000357627869;" x1="4.5" x2="65.1" y1="114" y2="114"/><text fill="#000000" font-family="sans-serif" font-size="6.6" lengthAdjust="spacingAndGlyphs" textLength="54.6" x="7.5" y="123.9636">registerObserver()</text><text fill="#000000" font-family="sans-serif" font-size="6.6" lengthAdjust="spacingAndGlyphs" textLength="54" x="7.5" y="132.9773">removeObserver()</text><text fill="#000000" font-family="sans-serif" font-size="6.6" lengthAdjust="spacingAndGlyphs" textLength="52.2" x="7.5" y="141.9911">notifyObservers()</text><!--class WeatherData--><rect fill="#FEFECE" filter="url(#f15t8qz830wot9)" height="55.8413" id="WeatherData" style="stroke: #A80036; stroke-width: 0.9000000357627869;" width="62.4" x="3.6" y="182.4"/><ellipse cx="12.6" cy="192" fill="#ADD1B2" rx="6.6" ry="6.6" style="stroke: #A80036; stroke-width: 0.6000000238418579;"/><path d="M12.4125,195.6 Q11.25,195.6 10.575,194.7422 Q9.9,193.8844 9.9,192.1125 Q9.9,190.6125 10.6125,189.6 Q11.325,188.5875 12.5625,188.5875 Q12.8344,188.5875 13.0969,188.5875 Q13.3594,188.5875 13.5469,188.5875 Q13.6969,188.5875 13.7953,188.5875 Q13.8938,188.5875 14.1375,188.5875 L14.5594,190.8 L13.9219,190.8 Q13.6594,190.1438 13.3172,189.8719 Q12.975,189.6 12.4219,189.6 Q11.7281,189.6 11.3203,190.3078 Q10.9125,191.0156 10.9125,192.1125 Q10.9125,193.3219 11.2266,193.9547 Q11.5406,194.5875 12.3844,194.5875 Q12.9375,194.5875 13.3266,194.2453 Q13.7156,193.9031 13.9219,193.0688 L14.5406,193.3781 Q14.3063,194.4281 13.7438,195.0141 Q13.1813,195.6 12.4125,195.6 Z "/><text fill="#000000" font-family="sans-serif" font-size="7.2" lengthAdjust="spacingAndGlyphs" textLength="43.2" x="21" y="195.3346">WeatherData</text><line style="stroke: #A80036; stroke-width: 0.9000000357627869;" x1="4.2" x2="65.4" y1="201.6" y2="201.6"/><line style="stroke: #A80036; stroke-width: 0.9000000357627869;" x1="4.2" x2="65.4" y1="206.4" y2="206.4"/><text fill="#000000" font-family="sans-serif" font-size="6.6" lengthAdjust="spacingAndGlyphs" textLength="54.6" x="7.2" y="216.3636">registerObserver()</text><text fill="#000000" font-family="sans-serif" font-size="6.6" lengthAdjust="spacingAndGlyphs" textLength="54" x="7.2" y="225.3774">removeObserver()</text><text fill="#000000" font-family="sans-serif" font-size="6.6" lengthAdjust="spacingAndGlyphs" textLength="52.2" x="7.2" y="234.3911">notifyObservers()</text><!--class Observer--><rect fill="#FEFECE" filter="url(#f15t8qz830wot9)" height="37.8138" id="Observer" style="stroke: #A80036; stroke-width: 0.9000000357627869;" width="49.8" x="128.7" y="4.8"/><ellipse cx="137.7" cy="14.4" fill="#B4A7E5" rx="6.6" ry="6.6" style="stroke: #A80036; stroke-width: 0.6000000238418579;"/><path d="M135.825,12 L135.825,10.9875 L139.3875,10.9875 L139.3875,12 L138.2625,12 Q138.1688,12 138.1406,12.0188 Q138.1125,12.0375 138.1125,12.0656 L138.1125,16.9219 Q138.1125,16.95 138.1406,16.9688 Q138.1688,16.9875 138.2625,16.9875 L139.3875,16.9875 L139.3875,18 L135.825,18 L135.825,16.9875 L136.95,16.9875 Q137.0719,16.9875 137.0859,16.9781 Q137.1,16.9688 137.1,16.9219 L137.1,12.0656 Q137.1,12.0188 137.0859,12.0094 Q137.0719,12 136.95,12 L135.825,12 Z "/><text fill="#000000" font-family="sans-serif" font-size="7.2" font-style="italic" lengthAdjust="spacingAndGlyphs" textLength="30.6" x="146.1" y="17.7346">Observer</text><line style="stroke: #A80036; stroke-width: 0.9000000357627869;" x1="129.3" x2="177.9" y1="24" y2="24"/><line style="stroke: #A80036; stroke-width: 0.9000000357627869;" x1="129.3" x2="177.9" y1="28.8" y2="28.8"/><text fill="#000000" font-family="sans-serif" font-size="6.6" lengthAdjust="spacingAndGlyphs" textLength="24.6" x="132.3" y="38.7636">update()</text><!--class CurrentConditionDisplay--><rect fill="#FEFECE" filter="url(#f15t8qz830wot9)" height="37.8138" id="CurrentConditionDisplay" style="stroke: #A80036; stroke-width: 0.9000000357627869;" width="100.2" x="103.5" y="99"/><ellipse cx="112.5" cy="108.6" fill="#ADD1B2" rx="6.6" ry="6.6" style="stroke: #A80036; stroke-width: 0.6000000238418579;"/><path d="M112.3125,112.2 Q111.15,112.2 110.475,111.3422 Q109.8,110.4844 109.8,108.7125 Q109.8,107.2125 110.5125,106.2 Q111.225,105.1875 112.4625,105.1875 Q112.7344,105.1875 112.9969,105.1875 Q113.2594,105.1875 113.4469,105.1875 Q113.5969,105.1875 113.6953,105.1875 Q113.7938,105.1875 114.0375,105.1875 L114.4594,107.4 L113.8219,107.4 Q113.5594,106.7438 113.2172,106.4719 Q112.875,106.2 112.3219,106.2 Q111.6281,106.2 111.2203,106.9078 Q110.8125,107.6156 110.8125,108.7125 Q110.8125,109.9219 111.1266,110.5547 Q111.4406,111.1875 112.2844,111.1875 Q112.8375,111.1875 113.2266,110.8453 Q113.6156,110.5031 113.8219,109.6688 L114.4406,109.9781 Q114.2063,111.0281 113.6438,111.6141 Q113.0813,112.2 112.3125,112.2 Z "/><text fill="#000000" font-family="sans-serif" font-size="7.2" lengthAdjust="spacingAndGlyphs" textLength="81" x="120.9" y="111.9346">CurrentConditionDisplay</text><line style="stroke: #A80036; stroke-width: 0.9000000357627869;" x1="104.1" x2="203.1" y1="118.2" y2="118.2"/><line style="stroke: #A80036; stroke-width: 0.9000000357627869;" x1="104.1" x2="203.1" y1="123" y2="123"/><text fill="#000000" font-family="sans-serif" font-size="6.6" lengthAdjust="spacingAndGlyphs" textLength="24.6" x="107.1" y="132.9636">update()</text><!--class StatisticsDisplay--><rect fill="#FEFECE" filter="url(#f15t8qz830wot9)" height="37.8138" id="StatisticsDisplay" style="stroke: #A80036; stroke-width: 0.9000000357627869;" width="73.8" x="224.7" y="99"/><ellipse cx="233.7" cy="108.6" fill="#ADD1B2" rx="6.6" ry="6.6" style="stroke: #A80036; stroke-width: 0.6000000238418579;"/><path d="M233.5125,112.2 Q232.35,112.2 231.675,111.3422 Q231,110.4844 231,108.7125 Q231,107.2125 231.7125,106.2 Q232.425,105.1875 233.6625,105.1875 Q233.9344,105.1875 234.1969,105.1875 Q234.4594,105.1875 234.6469,105.1875 Q234.7969,105.1875 234.8953,105.1875 Q234.9938,105.1875 235.2375,105.1875 L235.6594,107.4 L235.0219,107.4 Q234.7594,106.7438 234.4172,106.4719 Q234.075,106.2 233.5219,106.2 Q232.8281,106.2 232.4203,106.9078 Q232.0125,107.6156 232.0125,108.7125 Q232.0125,109.9219 232.3266,110.5547 Q232.6406,111.1875 233.4844,111.1875 Q234.0375,111.1875 234.4266,110.8453 Q234.8156,110.5031 235.0219,109.6688 L235.6406,109.9781 Q235.4063,111.0281 234.8438,111.6141 Q234.2813,112.2 233.5125,112.2 Z "/><text fill="#000000" font-family="sans-serif" font-size="7.2" lengthAdjust="spacingAndGlyphs" textLength="54.6" x="242.1" y="111.9346">StatisticsDisplay</text><line style="stroke: #A80036; stroke-width: 0.9000000357627869;" x1="225.3" x2="297.9" y1="118.2" y2="118.2"/><line style="stroke: #A80036; stroke-width: 0.9000000357627869;" x1="225.3" x2="297.9" y1="123" y2="123"/><text fill="#000000" font-family="sans-serif" font-size="6.6" lengthAdjust="spacingAndGlyphs" textLength="24.6" x="228.3" y="132.9636">update()</text><!--link Subject to WeatherData--><path d="M34.8,157.9866 C34.8,166.2048 34.8,174.6924 34.8,182.3563 " fill="none" id="Subject-WeatherData" style="stroke: #A80036; stroke-width: 0.6000000238418579; stroke-dasharray: 7.0,7.0;"/><polygon fill="none" points="30.6001,157.863,34.8,145.863,39.0001,157.863,30.6001,157.863" style="stroke: #A80036; stroke-width: 0.6000000238418579;"/><!--link Observer to CurrentConditionDisplay--><path d="M153.6,54.7212 C153.6,69.3342 153.6,86.3628 153.6,98.9646 " fill="none" id="Observer-CurrentConditionDisplay" style="stroke: #A80036; stroke-width: 0.6000000238418579;"/><polygon fill="none" points="149.4,54.6738,153.6,42.6738,157.8,54.6738,149.4,54.6738" style="stroke: #A80036; stroke-width: 0.6000000238418579;"/><!--link Observer to StatisticsDisplay--><path d="M184.1274,50.5878 C202.0554,66.0252 224.2692,85.1538 240.3072,98.9646 " fill="none" id="Observer-StatisticsDisplay" style="stroke: #A80036; stroke-width: 0.6000000238418579;"/><polygon fill="none" points="181.29,53.6868,174.9372,42.6738,186.771,47.3214,181.29,53.6868" style="stroke: #A80036; stroke-width: 0.6000000238418579;"/><!--link Observer to Subject--><path d="M120.5394,50.181 C103.4376,63.5688 82.683,79.8156 65.8776,92.9718 " fill="none" id="Observer-Subject" style="stroke: #A80036; stroke-width: 0.6000000238418579;"/><polygon fill="none" points="118.0908,46.7634,130.1292,42.6738,123.2688,53.3778,118.0908,46.7634" style="stroke: #A80036; stroke-width: 0.6000000238418579;"/><text fill="#000000" font-family="sans-serif" font-size="7.8" lengthAdjust="spacingAndGlyphs" textLength="23.4" x="105.6" y="70.1388">观察者</text><!--link Subject to CurrentConditionDisplay--><path d="M77.8122,117.9 C86.0844,117.9 94.8162,117.9 103.2954,117.9 " fill="none" id="Subject-CurrentConditionDisplay" style="stroke: #A80036; stroke-width: 0.6000000238418579;"/><polygon fill="none" points="77.703,122.1,65.703,117.9,77.703,113.7,77.703,122.1" style="stroke: #A80036; stroke-width: 0.6000000238418579;"/><text fill="#000000" font-family="sans-serif" font-size="7.8" lengthAdjust="spacingAndGlyphs" textLength="15.6" x="76.8" y="114.2388">主题</text><!--
@startuml


interface Subject{
    registerObserver()
    removeObserver()
    notifyObservers()
}


class WeatherData{
    registerObserver()
    removeObserver()
    notifyObservers()
}

Subject <|.. WeatherData


interface Observer{
    update()
}

class CurrentConditionDisplay{
    update()
}

class StatisticsDisplay{
    update()
}

Observer <|- - CurrentConditionDisplay
Observer <|- - StatisticsDisplay


Observer <|- - Subject: 观察者
Subject <|- CurrentConditionDisplay: 主题



@enduml

PlantUML version 1.2018.11(Sun Sep 23 00:43:53 CST 2018)
(GPL source distribution)
Java Runtime: OpenJDK Runtime Environment
JVM: OpenJDK 64-Bit Server VM
Java Version: 1.8.0_152-release-1248-b22
Operating System: Windows 10
OS Version: 10.0
Default Encoding: GBK
Language: zh
Country: CN
--></g></svg>