<?xml version="1.0" encoding="UTF-8" standalone="no"?><svg xmlns="http://www.w3.org/2000/svg" xmlns:xlink="http://www.w3.org/1999/xlink" contentScriptType="application/ecmascript" contentStyleType="text/css" height="391px" preserveAspectRatio="none" style="width:1477px;height:391px;" version="1.1" viewBox="0 0 1477 391" width="1477px" zoomAndPan="magnify"><defs><filter height="300%" id="f120zel3x3ce5z" width="300%" x="-1" y="-1"><feGaussianBlur result="blurOut" stdDeviation="2.0"/><feColorMatrix in="blurOut" result="blurOut2" type="matrix" values="0 0 0 0 0 0 0 0 0 0 0 0 0 0 0 0 0 0 .4 0"/><feOffset dx="4.0" dy="4.0" in="blurOut2" result="blurOut3"/><feBlend in="SourceGraphic" in2="blurOut3" mode="normal"/></filter></defs><g><!--class Client--><rect fill="#FEFECE" filter="url(#f120zel3x3ce5z)" height="48" id="Client" style="stroke: #A80036; stroke-width: 1.5;" width="64" x="701" y="8"/><ellipse cx="716" cy="24" fill="#ADD1B2" rx="11" ry="11" style="stroke: #A80036; stroke-width: 1.0;"/><path d="M715.6875,30 Q713.75,30 712.625,28.5703 Q711.5,27.1406 711.5,24.1875 Q711.5,21.6875 712.6875,20 Q713.875,18.3125 715.9375,18.3125 Q716.3906,18.3125 716.8281,18.3125 Q717.2656,18.3125 717.5781,18.3125 Q717.8281,18.3125 717.9922,18.3125 Q718.1563,18.3125 718.5625,18.3125 L719.2656,22 L718.2031,22 Q717.7656,20.9063 717.1953,20.4531 Q716.625,20 715.7031,20 Q714.5469,20 713.8672,21.1797 Q713.1875,22.3594 713.1875,24.1875 Q713.1875,26.2031 713.7109,27.2578 Q714.2344,28.3125 715.6406,28.3125 Q716.5625,28.3125 717.2109,27.7422 Q717.8594,27.1719 718.2031,25.7813 L719.2344,26.2969 Q718.8438,28.0469 717.9063,29.0234 Q716.9688,30 715.6875,30 Z "/><text fill="#000000" font-family="sans-serif" font-size="12" lengthAdjust="spacingAndGlyphs" textLength="32" x="730" y="29.5576">Client</text><line style="stroke: #A80036; stroke-width: 1.5;" x1="702" x2="764" y1="40" y2="40"/><line style="stroke: #A80036; stroke-width: 1.5;" x1="702" x2="764" y1="48" y2="48"/><!--class Facade--><rect fill="#FEFECE" filter="url(#f120zel3x3ce5z)" height="48" id="Facade" style="stroke: #A80036; stroke-width: 1.5;" width="73" x="696.5" y="116"/><ellipse cx="711.5" cy="132" fill="#ADD1B2" rx="11" ry="11" style="stroke: #A80036; stroke-width: 1.0;"/><path d="M711.1875,138 Q709.25,138 708.125,136.5703 Q707,135.1406 707,132.1875 Q707,129.6875 708.1875,128 Q709.375,126.3125 711.4375,126.3125 Q711.8906,126.3125 712.3281,126.3125 Q712.7656,126.3125 713.0781,126.3125 Q713.3281,126.3125 713.4922,126.3125 Q713.6563,126.3125 714.0625,126.3125 L714.7656,130 L713.7031,130 Q713.2656,128.9063 712.6953,128.4531 Q712.125,128 711.2031,128 Q710.0469,128 709.3672,129.1797 Q708.6875,130.3594 708.6875,132.1875 Q708.6875,134.2031 709.2109,135.2578 Q709.7344,136.3125 711.1406,136.3125 Q712.0625,136.3125 712.7109,135.7422 Q713.3594,135.1719 713.7031,133.7813 L714.7344,134.2969 Q714.3438,136.0469 713.4063,137.0234 Q712.4688,138 711.1875,138 Z "/><text fill="#000000" font-family="sans-serif" font-size="12" lengthAdjust="spacingAndGlyphs" textLength="41" x="725.5" y="137.5576">Facade</text><line style="stroke: #A80036; stroke-width: 1.5;" x1="697.5" x2="768.5" y1="148" y2="148"/><line style="stroke: #A80036; stroke-width: 1.5;" x1="697.5" x2="768.5" y1="156" y2="156"/><!--class SubSystem1--><rect fill="#FEFECE" filter="url(#f120zel3x3ce5z)" height="48" id="SubSystem1" style="stroke: #A80036; stroke-width: 1.5;" width="102" x="268" y="224"/><ellipse cx="283" cy="240" fill="#ADD1B2" rx="11" ry="11" style="stroke: #A80036; stroke-width: 1.0;"/><path d="M282.6875,246 Q280.75,246 279.625,244.5703 Q278.5,243.1406 278.5,240.1875 Q278.5,237.6875 279.6875,236 Q280.875,234.3125 282.9375,234.3125 Q283.3906,234.3125 283.8281,234.3125 Q284.2656,234.3125 284.5781,234.3125 Q284.8281,234.3125 284.9922,234.3125 Q285.1563,234.3125 285.5625,234.3125 L286.2656,238 L285.2031,238 Q284.7656,236.9063 284.1953,236.4531 Q283.625,236 282.7031,236 Q281.5469,236 280.8672,237.1797 Q280.1875,238.3594 280.1875,240.1875 Q280.1875,242.2031 280.7109,243.2578 Q281.2344,244.3125 282.6406,244.3125 Q283.5625,244.3125 284.2109,243.7422 Q284.8594,243.1719 285.2031,241.7813 L286.2344,242.2969 Q285.8438,244.0469 284.9063,245.0234 Q283.9688,246 282.6875,246 Z "/><text fill="#000000" font-family="sans-serif" font-size="12" lengthAdjust="spacingAndGlyphs" textLength="70" x="297" y="245.5576">SubSystem1</text><line style="stroke: #A80036; stroke-width: 1.5;" x1="269" x2="369" y1="256" y2="256"/><line style="stroke: #A80036; stroke-width: 1.5;" x1="269" x2="369" y1="264" y2="264"/><!--class SubSystem2--><rect fill="#FEFECE" filter="url(#f120zel3x3ce5z)" height="48" id="SubSystem2" style="stroke: #A80036; stroke-width: 1.5;" width="102" x="682" y="224"/><ellipse cx="697" cy="240" fill="#ADD1B2" rx="11" ry="11" style="stroke: #A80036; stroke-width: 1.0;"/><path d="M696.6875,246 Q694.75,246 693.625,244.5703 Q692.5,243.1406 692.5,240.1875 Q692.5,237.6875 693.6875,236 Q694.875,234.3125 696.9375,234.3125 Q697.3906,234.3125 697.8281,234.3125 Q698.2656,234.3125 698.5781,234.3125 Q698.8281,234.3125 698.9922,234.3125 Q699.1563,234.3125 699.5625,234.3125 L700.2656,238 L699.2031,238 Q698.7656,236.9063 698.1953,236.4531 Q697.625,236 696.7031,236 Q695.5469,236 694.8672,237.1797 Q694.1875,238.3594 694.1875,240.1875 Q694.1875,242.2031 694.7109,243.2578 Q695.2344,244.3125 696.6406,244.3125 Q697.5625,244.3125 698.2109,243.7422 Q698.8594,243.1719 699.2031,241.7813 L700.2344,242.2969 Q699.8438,244.0469 698.9063,245.0234 Q697.9688,246 696.6875,246 Z "/><text fill="#000000" font-family="sans-serif" font-size="12" lengthAdjust="spacingAndGlyphs" textLength="70" x="711" y="245.5576">SubSystem2</text><line style="stroke: #A80036; stroke-width: 1.5;" x1="683" x2="783" y1="256" y2="256"/><line style="stroke: #A80036; stroke-width: 1.5;" x1="683" x2="783" y1="264" y2="264"/><!--class SubSystem3--><rect fill="#FEFECE" filter="url(#f120zel3x3ce5z)" height="48" id="SubSystem3" style="stroke: #A80036; stroke-width: 1.5;" width="102" x="1098" y="224"/><ellipse cx="1113" cy="240" fill="#ADD1B2" rx="11" ry="11" style="stroke: #A80036; stroke-width: 1.0;"/><path d="M1112.6875,246 Q1110.75,246 1109.625,244.5703 Q1108.5,243.1406 1108.5,240.1875 Q1108.5,237.6875 1109.6875,236 Q1110.875,234.3125 1112.9375,234.3125 Q1113.3906,234.3125 1113.8281,234.3125 Q1114.2656,234.3125 1114.5781,234.3125 Q1114.8281,234.3125 1114.9922,234.3125 Q1115.1563,234.3125 1115.5625,234.3125 L1116.2656,238 L1115.2031,238 Q1114.7656,236.9063 1114.1953,236.4531 Q1113.625,236 1112.7031,236 Q1111.5469,236 1110.8672,237.1797 Q1110.1875,238.3594 1110.1875,240.1875 Q1110.1875,242.2031 1110.7109,243.2578 Q1111.2344,244.3125 1112.6406,244.3125 Q1113.5625,244.3125 1114.2109,243.7422 Q1114.8594,243.1719 1115.2031,241.7813 L1116.2344,242.2969 Q1115.8438,244.0469 1114.9063,245.0234 Q1113.9688,246 1112.6875,246 Z "/><text fill="#000000" font-family="sans-serif" font-size="12" lengthAdjust="spacingAndGlyphs" textLength="70" x="1127" y="245.5576">SubSystem3</text><line style="stroke: #A80036; stroke-width: 1.5;" x1="1099" x2="1199" y1="256" y2="256"/><line style="stroke: #A80036; stroke-width: 1.5;" x1="1099" x2="1199" y1="264" y2="264"/><!--class SubsubSystemA1--><rect fill="#FEFECE" filter="url(#f120zel3x3ce5z)" height="48" id="SubsubSystemA1" style="stroke: #A80036; stroke-width: 1.5;" width="130" x="6" y="332"/><ellipse cx="21" cy="348" fill="#ADD1B2" rx="11" ry="11" style="stroke: #A80036; stroke-width: 1.0;"/><path d="M20.6875,354 Q18.75,354 17.625,352.5703 Q16.5,351.1406 16.5,348.1875 Q16.5,345.6875 17.6875,344 Q18.875,342.3125 20.9375,342.3125 Q21.3906,342.3125 21.8281,342.3125 Q22.2656,342.3125 22.5781,342.3125 Q22.8281,342.3125 22.9922,342.3125 Q23.1563,342.3125 23.5625,342.3125 L24.2656,346 L23.2031,346 Q22.7656,344.9063 22.1953,344.4531 Q21.625,344 20.7031,344 Q19.5469,344 18.8672,345.1797 Q18.1875,346.3594 18.1875,348.1875 Q18.1875,350.2031 18.7109,351.2578 Q19.2344,352.3125 20.6406,352.3125 Q21.5625,352.3125 22.2109,351.7422 Q22.8594,351.1719 23.2031,349.7813 L24.2344,350.2969 Q23.8438,352.0469 22.9063,353.0234 Q21.9688,354 20.6875,354 Z "/><text fill="#000000" font-family="sans-serif" font-size="12" lengthAdjust="spacingAndGlyphs" textLength="98" x="35" y="353.5576">SubsubSystemA1</text><line style="stroke: #A80036; stroke-width: 1.5;" x1="7" x2="135" y1="364" y2="364"/><line style="stroke: #A80036; stroke-width: 1.5;" x1="7" x2="135" y1="372" y2="372"/><!--class SubsubSystemA2--><rect fill="#FEFECE" filter="url(#f120zel3x3ce5z)" height="48" id="SubsubSystemA2" style="stroke: #A80036; stroke-width: 1.5;" width="130" x="171" y="332"/><ellipse cx="186" cy="348" fill="#ADD1B2" rx="11" ry="11" style="stroke: #A80036; stroke-width: 1.0;"/><path d="M185.6875,354 Q183.75,354 182.625,352.5703 Q181.5,351.1406 181.5,348.1875 Q181.5,345.6875 182.6875,344 Q183.875,342.3125 185.9375,342.3125 Q186.3906,342.3125 186.8281,342.3125 Q187.2656,342.3125 187.5781,342.3125 Q187.8281,342.3125 187.9922,342.3125 Q188.1563,342.3125 188.5625,342.3125 L189.2656,346 L188.2031,346 Q187.7656,344.9063 187.1953,344.4531 Q186.625,344 185.7031,344 Q184.5469,344 183.8672,345.1797 Q183.1875,346.3594 183.1875,348.1875 Q183.1875,350.2031 183.7109,351.2578 Q184.2344,352.3125 185.6406,352.3125 Q186.5625,352.3125 187.2109,351.7422 Q187.8594,351.1719 188.2031,349.7813 L189.2344,350.2969 Q188.8438,352.0469 187.9063,353.0234 Q186.9688,354 185.6875,354 Z "/><text fill="#000000" font-family="sans-serif" font-size="12" lengthAdjust="spacingAndGlyphs" textLength="98" x="200" y="353.5576">SubsubSystemA2</text><line style="stroke: #A80036; stroke-width: 1.5;" x1="172" x2="300" y1="364" y2="364"/><line style="stroke: #A80036; stroke-width: 1.5;" x1="172" x2="300" y1="372" y2="372"/><!--class SubsubSystemA3--><rect fill="#FEFECE" filter="url(#f120zel3x3ce5z)" height="48" id="SubsubSystemA3" style="stroke: #A80036; stroke-width: 1.5;" width="130" x="336" y="332"/><ellipse cx="351" cy="348" fill="#ADD1B2" rx="11" ry="11" style="stroke: #A80036; stroke-width: 1.0;"/><path d="M350.6875,354 Q348.75,354 347.625,352.5703 Q346.5,351.1406 346.5,348.1875 Q346.5,345.6875 347.6875,344 Q348.875,342.3125 350.9375,342.3125 Q351.3906,342.3125 351.8281,342.3125 Q352.2656,342.3125 352.5781,342.3125 Q352.8281,342.3125 352.9922,342.3125 Q353.1563,342.3125 353.5625,342.3125 L354.2656,346 L353.2031,346 Q352.7656,344.9063 352.1953,344.4531 Q351.625,344 350.7031,344 Q349.5469,344 348.8672,345.1797 Q348.1875,346.3594 348.1875,348.1875 Q348.1875,350.2031 348.7109,351.2578 Q349.2344,352.3125 350.6406,352.3125 Q351.5625,352.3125 352.2109,351.7422 Q352.8594,351.1719 353.2031,349.7813 L354.2344,350.2969 Q353.8438,352.0469 352.9063,353.0234 Q351.9688,354 350.6875,354 Z "/><text fill="#000000" font-family="sans-serif" font-size="12" lengthAdjust="spacingAndGlyphs" textLength="98" x="365" y="353.5576">SubsubSystemA3</text><line style="stroke: #A80036; stroke-width: 1.5;" x1="337" x2="465" y1="364" y2="364"/><line style="stroke: #A80036; stroke-width: 1.5;" x1="337" x2="465" y1="372" y2="372"/><!--class SubsubSystemB1--><rect fill="#FEFECE" filter="url(#f120zel3x3ce5z)" height="48" id="SubsubSystemB1" style="stroke: #A80036; stroke-width: 1.5;" width="131" x="501.5" y="332"/><ellipse cx="516.5" cy="348" fill="#ADD1B2" rx="11" ry="11" style="stroke: #A80036; stroke-width: 1.0;"/><path d="M516.1875,354 Q514.25,354 513.125,352.5703 Q512,351.1406 512,348.1875 Q512,345.6875 513.1875,344 Q514.375,342.3125 516.4375,342.3125 Q516.8906,342.3125 517.3281,342.3125 Q517.7656,342.3125 518.0781,342.3125 Q518.3281,342.3125 518.4922,342.3125 Q518.6563,342.3125 519.0625,342.3125 L519.7656,346 L518.7031,346 Q518.2656,344.9063 517.6953,344.4531 Q517.125,344 516.2031,344 Q515.0469,344 514.3672,345.1797 Q513.6875,346.3594 513.6875,348.1875 Q513.6875,350.2031 514.2109,351.2578 Q514.7344,352.3125 516.1406,352.3125 Q517.0625,352.3125 517.7109,351.7422 Q518.3594,351.1719 518.7031,349.7813 L519.7344,350.2969 Q519.3438,352.0469 518.4063,353.0234 Q517.4688,354 516.1875,354 Z "/><text fill="#000000" font-family="sans-serif" font-size="12" lengthAdjust="spacingAndGlyphs" textLength="99" x="530.5" y="353.5576">SubsubSystemB1</text><line style="stroke: #A80036; stroke-width: 1.5;" x1="502.5" x2="631.5" y1="364" y2="364"/><line style="stroke: #A80036; stroke-width: 1.5;" x1="502.5" x2="631.5" y1="372" y2="372"/><!--class SubsubSystemB2--><rect fill="#FEFECE" filter="url(#f120zel3x3ce5z)" height="48" id="SubsubSystemB2" style="stroke: #A80036; stroke-width: 1.5;" width="131" x="667.5" y="332"/><ellipse cx="682.5" cy="348" fill="#ADD1B2" rx="11" ry="11" style="stroke: #A80036; stroke-width: 1.0;"/><path d="M682.1875,354 Q680.25,354 679.125,352.5703 Q678,351.1406 678,348.1875 Q678,345.6875 679.1875,344 Q680.375,342.3125 682.4375,342.3125 Q682.8906,342.3125 683.3281,342.3125 Q683.7656,342.3125 684.0781,342.3125 Q684.3281,342.3125 684.4922,342.3125 Q684.6563,342.3125 685.0625,342.3125 L685.7656,346 L684.7031,346 Q684.2656,344.9063 683.6953,344.4531 Q683.125,344 682.2031,344 Q681.0469,344 680.3672,345.1797 Q679.6875,346.3594 679.6875,348.1875 Q679.6875,350.2031 680.2109,351.2578 Q680.7344,352.3125 682.1406,352.3125 Q683.0625,352.3125 683.7109,351.7422 Q684.3594,351.1719 684.7031,349.7813 L685.7344,350.2969 Q685.3438,352.0469 684.4063,353.0234 Q683.4688,354 682.1875,354 Z "/><text fill="#000000" font-family="sans-serif" font-size="12" lengthAdjust="spacingAndGlyphs" textLength="99" x="696.5" y="353.5576">SubsubSystemB2</text><line style="stroke: #A80036; stroke-width: 1.5;" x1="668.5" x2="797.5" y1="364" y2="364"/><line style="stroke: #A80036; stroke-width: 1.5;" x1="668.5" x2="797.5" y1="372" y2="372"/><!--class SubsubSystemB3--><rect fill="#FEFECE" filter="url(#f120zel3x3ce5z)" height="48" id="SubsubSystemB3" style="stroke: #A80036; stroke-width: 1.5;" width="131" x="833.5" y="332"/><ellipse cx="848.5" cy="348" fill="#ADD1B2" rx="11" ry="11" style="stroke: #A80036; stroke-width: 1.0;"/><path d="M848.1875,354 Q846.25,354 845.125,352.5703 Q844,351.1406 844,348.1875 Q844,345.6875 845.1875,344 Q846.375,342.3125 848.4375,342.3125 Q848.8906,342.3125 849.3281,342.3125 Q849.7656,342.3125 850.0781,342.3125 Q850.3281,342.3125 850.4922,342.3125 Q850.6563,342.3125 851.0625,342.3125 L851.7656,346 L850.7031,346 Q850.2656,344.9063 849.6953,344.4531 Q849.125,344 848.2031,344 Q847.0469,344 846.3672,345.1797 Q845.6875,346.3594 845.6875,348.1875 Q845.6875,350.2031 846.2109,351.2578 Q846.7344,352.3125 848.1406,352.3125 Q849.0625,352.3125 849.7109,351.7422 Q850.3594,351.1719 850.7031,349.7813 L851.7344,350.2969 Q851.3438,352.0469 850.4063,353.0234 Q849.4688,354 848.1875,354 Z "/><text fill="#000000" font-family="sans-serif" font-size="12" lengthAdjust="spacingAndGlyphs" textLength="99" x="862.5" y="353.5576">SubsubSystemB3</text><line style="stroke: #A80036; stroke-width: 1.5;" x1="834.5" x2="963.5" y1="364" y2="364"/><line style="stroke: #A80036; stroke-width: 1.5;" x1="834.5" x2="963.5" y1="372" y2="372"/><!--class SubsubSystemC1--><rect fill="#FEFECE" filter="url(#f120zel3x3ce5z)" height="48" id="SubsubSystemC1" style="stroke: #A80036; stroke-width: 1.5;" width="132" x="1000" y="332"/><ellipse cx="1015" cy="348" fill="#ADD1B2" rx="11" ry="11" style="stroke: #A80036; stroke-width: 1.0;"/><path d="M1014.6875,354 Q1012.75,354 1011.625,352.5703 Q1010.5,351.1406 1010.5,348.1875 Q1010.5,345.6875 1011.6875,344 Q1012.875,342.3125 1014.9375,342.3125 Q1015.3906,342.3125 1015.8281,342.3125 Q1016.2656,342.3125 1016.5781,342.3125 Q1016.8281,342.3125 1016.9922,342.3125 Q1017.1563,342.3125 1017.5625,342.3125 L1018.2656,346 L1017.2031,346 Q1016.7656,344.9063 1016.1953,344.4531 Q1015.625,344 1014.7031,344 Q1013.5469,344 1012.8672,345.1797 Q1012.1875,346.3594 1012.1875,348.1875 Q1012.1875,350.2031 1012.7109,351.2578 Q1013.2344,352.3125 1014.6406,352.3125 Q1015.5625,352.3125 1016.2109,351.7422 Q1016.8594,351.1719 1017.2031,349.7813 L1018.2344,350.2969 Q1017.8438,352.0469 1016.9063,353.0234 Q1015.9688,354 1014.6875,354 Z "/><text fill="#000000" font-family="sans-serif" font-size="12" lengthAdjust="spacingAndGlyphs" textLength="100" x="1029" y="353.5576">SubsubSystemC1</text><line style="stroke: #A80036; stroke-width: 1.5;" x1="1001" x2="1131" y1="364" y2="364"/><line style="stroke: #A80036; stroke-width: 1.5;" x1="1001" x2="1131" y1="372" y2="372"/><!--class SubsubSystemC2--><rect fill="#FEFECE" filter="url(#f120zel3x3ce5z)" height="48" id="SubsubSystemC2" style="stroke: #A80036; stroke-width: 1.5;" width="132" x="1167" y="332"/><ellipse cx="1182" cy="348" fill="#ADD1B2" rx="11" ry="11" style="stroke: #A80036; stroke-width: 1.0;"/><path d="M1181.6875,354 Q1179.75,354 1178.625,352.5703 Q1177.5,351.1406 1177.5,348.1875 Q1177.5,345.6875 1178.6875,344 Q1179.875,342.3125 1181.9375,342.3125 Q1182.3906,342.3125 1182.8281,342.3125 Q1183.2656,342.3125 1183.5781,342.3125 Q1183.8281,342.3125 1183.9922,342.3125 Q1184.1563,342.3125 1184.5625,342.3125 L1185.2656,346 L1184.2031,346 Q1183.7656,344.9063 1183.1953,344.4531 Q1182.625,344 1181.7031,344 Q1180.5469,344 1179.8672,345.1797 Q1179.1875,346.3594 1179.1875,348.1875 Q1179.1875,350.2031 1179.7109,351.2578 Q1180.2344,352.3125 1181.6406,352.3125 Q1182.5625,352.3125 1183.2109,351.7422 Q1183.8594,351.1719 1184.2031,349.7813 L1185.2344,350.2969 Q1184.8438,352.0469 1183.9063,353.0234 Q1182.9688,354 1181.6875,354 Z "/><text fill="#000000" font-family="sans-serif" font-size="12" lengthAdjust="spacingAndGlyphs" textLength="100" x="1196" y="353.5576">SubsubSystemC2</text><line style="stroke: #A80036; stroke-width: 1.5;" x1="1168" x2="1298" y1="364" y2="364"/><line style="stroke: #A80036; stroke-width: 1.5;" x1="1168" x2="1298" y1="372" y2="372"/><!--class SubsubSystemC3--><rect fill="#FEFECE" filter="url(#f120zel3x3ce5z)" height="48" id="SubsubSystemC3" style="stroke: #A80036; stroke-width: 1.5;" width="132" x="1334" y="332"/><ellipse cx="1349" cy="348" fill="#ADD1B2" rx="11" ry="11" style="stroke: #A80036; stroke-width: 1.0;"/><path d="M1348.6875,354 Q1346.75,354 1345.625,352.5703 Q1344.5,351.1406 1344.5,348.1875 Q1344.5,345.6875 1345.6875,344 Q1346.875,342.3125 1348.9375,342.3125 Q1349.3906,342.3125 1349.8281,342.3125 Q1350.2656,342.3125 1350.5781,342.3125 Q1350.8281,342.3125 1350.9922,342.3125 Q1351.1563,342.3125 1351.5625,342.3125 L1352.2656,346 L1351.2031,346 Q1350.7656,344.9063 1350.1953,344.4531 Q1349.625,344 1348.7031,344 Q1347.5469,344 1346.8672,345.1797 Q1346.1875,346.3594 1346.1875,348.1875 Q1346.1875,350.2031 1346.7109,351.2578 Q1347.2344,352.3125 1348.6406,352.3125 Q1349.5625,352.3125 1350.2109,351.7422 Q1350.8594,351.1719 1351.2031,349.7813 L1352.2344,350.2969 Q1351.8438,352.0469 1350.9063,353.0234 Q1349.9688,354 1348.6875,354 Z "/><text fill="#000000" font-family="sans-serif" font-size="12" lengthAdjust="spacingAndGlyphs" textLength="100" x="1363" y="353.5576">SubsubSystemC3</text><line style="stroke: #A80036; stroke-width: 1.5;" x1="1335" x2="1465" y1="364" y2="364"/><line style="stroke: #A80036; stroke-width: 1.5;" x1="1335" x2="1465" y1="372" y2="372"/><!--link Client to Facade--><path d="M733,56 C733,72.003 733,93.446 733,110.528 " fill="none" id="Client-Facade" style="stroke: #A80036; stroke-width: 1.0;"/><polygon fill="#A80036" points="733,115.678,737,106.678,733,110.678,729,106.678,733,115.678" style="stroke: #A80036; stroke-width: 1.0;"/><!--link Facade to SubSystem1--><path d="M696.26,150.407 C622.248,169.357 455.063,212.163 370.316,233.861 " fill="none" id="Facade-SubSystem1" style="stroke: #A80036; stroke-width: 1.0;"/><!--link Facade to SubSystem2--><path d="M733,164 C733,181.658 733,205.941 733,223.678 " fill="none" id="Facade-SubSystem2" style="stroke: #A80036; stroke-width: 1.0;"/><!--link Facade to SubSystem3--><path d="M769.553,150.314 C843.803,169.233 1012.44,212.204 1097.66,233.919 " fill="none" id="Facade-SubSystem3" style="stroke: #A80036; stroke-width: 1.0;"/><!--link SubSystem1 to SubsubSystemA1--><path d="M267.915,270.835 C226.227,288.6528 167.487,313.7595 125.024,331.9092 " fill="none" id="SubSystem1-SubsubSystemA1" style="stroke: #A80036; stroke-width: 1.0;"/><!--link SubSystem1 to SubsubSystemA2--><path d="M300.99,272 C287.164,289.6584 268.15,313.9408 254.261,331.6784 " fill="none" id="SubSystem1-SubsubSystemA2" style="stroke: #A80036; stroke-width: 1.0;"/><!--link SubSystem1 to SubsubSystemA3--><path d="M336.793,272 C350.453,289.6584 369.237,313.9408 382.959,331.6784 " fill="none" id="SubSystem1-SubsubSystemA3" style="stroke: #A80036; stroke-width: 1.0;"/><!--link SubSystem2 to SubsubSystemB1--><path d="M696.98,272 C669.232,289.7193 631.038,314.1083 603.235,331.8617 " fill="none" id="SubSystem2-SubsubSystemB1" style="stroke: #A80036; stroke-width: 1.0;"/><!--link SubSystem2 to SubsubSystemB2--><path d="M733,272 C733,289.6584 733,313.9408 733,331.6784 " fill="none" id="SubSystem2-SubsubSystemB2" style="stroke: #A80036; stroke-width: 1.0;"/><!--link SubSystem2 to SubsubSystemB3--><path d="M769.02,272 C796.768,289.7193 834.962,314.1083 862.765,331.8617 " fill="none" id="SubSystem2-SubsubSystemB3" style="stroke: #A80036; stroke-width: 1.0;"/><!--link SubSystem3 to SubsubSystemC1--><path d="M1130.99,272 C1117.16,289.6584 1098.15,313.9408 1084.26,331.6784 " fill="none" id="SubSystem3-SubsubSystemC1" style="stroke: #A80036; stroke-width: 1.0;"/><!--link SubSystem3 to SubsubSystemC2--><path d="M1167.23,272 C1181.22,289.6584 1200.46,313.9408 1214.52,331.6784 " fill="none" id="SubSystem3-SubsubSystemC2" style="stroke: #A80036; stroke-width: 1.0;"/><!--link SubSystem3 to SubsubSystemC3--><path d="M1200.1,270.578 C1242.38,288.4356 1302.3,313.741 1345.5,331.9835 " fill="none" id="SubSystem3-SubsubSystemC3" style="stroke: #A80036; stroke-width: 1.0;"/><!--
@startuml

class Client{

}


Client - -> Facade

Facade - - SubSystem1
Facade - - SubSystem2
Facade - - SubSystem3

SubSystem1 - - SubsubSystemA1
SubSystem1 - - SubsubSystemA2
SubSystem1 - - SubsubSystemA3

SubSystem2 - - SubsubSystemB1
SubSystem2 - - SubsubSystemB2
SubSystem2 - - SubsubSystemB3

SubSystem3 - - SubsubSystemC1
SubSystem3 - - SubsubSystemC2
SubSystem3 - - SubsubSystemC3





@enduml

PlantUML version 1.2018.11(Sun Sep 23 00:43:53 CST 2018)
(GPL source distribution)
Java Runtime: OpenJDK Runtime Environment
JVM: OpenJDK 64-Bit Server VM
Java Version: 1.8.0_152-release-1248-b22
Operating System: Windows 10
OS Version: 10.0
Default Encoding: GBK
Language: zh
Country: CN
--></g></svg>