<?xml version="1.0" encoding="UTF-8" standalone="no"?><svg xmlns="http://www.w3.org/2000/svg" xmlns:xlink="http://www.w3.org/1999/xlink" contentScriptType="application/ecmascript" contentStyleType="text/css" height="329px" preserveAspectRatio="none" style="width:473px;height:328px;" version="1.1" viewBox="0 0 473 328" width="473.2px" zoomAndPan="magnify"><defs><filter height="300%" id="fwm1l3953pb3r" width="300%" x="-1" y="-1"><feGaussianBlur result="blurOut" stdDeviation="2.799999952316284"/><feColorMatrix in="blurOut" result="blurOut2" type="matrix" values="0 0 0 0 0 0 0 0 0 0 0 0 0 0 0 0 0 0 .4 0"/><feOffset dx="5.599999904632568" dy="5.599999904632568" in="blurOut2" result="blurOut3"/><feBlend in="SourceGraphic" in2="blurOut3" mode="normal"/></filter></defs><g><!--class Client--><rect fill="#FEFECE" filter="url(#fwm1l3953pb3r)" height="67.2" id="Client" style="stroke: #A80036; stroke-width: 2.099999964237213;" width="89.6" x="8.4" y="225.4"/><ellipse cx="29.4" cy="247.8" fill="#ADD1B2" rx="15.4" ry="15.4" style="stroke: #A80036; stroke-width: 1.399999976158142;"/><path d="M28.9625,256.2 Q26.25,256.2 24.675,254.1984 Q23.1,252.1969 23.1,248.0625 Q23.1,244.5625 24.7625,242.2 Q26.425,239.8375 29.3125,239.8375 Q29.9469,239.8375 30.5594,239.8375 Q31.1719,239.8375 31.6094,239.8375 Q31.9594,239.8375 32.1891,239.8375 Q32.4187,239.8375 32.9875,239.8375 L33.9719,245 L32.4844,245 Q31.8719,243.4687 31.0734,242.8344 Q30.275,242.2 28.9844,242.2 Q27.3656,242.2 26.4141,243.8516 Q25.4625,245.5031 25.4625,248.0625 Q25.4625,250.8844 26.1953,252.3609 Q26.9281,253.8375 28.8969,253.8375 Q30.1875,253.8375 31.0953,253.0391 Q32.0031,252.2406 32.4844,250.2937 L33.9281,251.0156 Q33.3812,253.4656 32.0687,254.8328 Q30.7562,256.2 28.9625,256.2 Z "/><text fill="#000000" font-family="sans-serif" font-size="16.8" lengthAdjust="spacingAndGlyphs" textLength="44.8" x="49" y="255.5807">Client</text><line style="stroke: #A80036; stroke-width: 2.099999964237213;" x1="9.8" x2="96.6" y1="270.2" y2="270.2"/><line style="stroke: #A80036; stroke-width: 2.099999964237213;" x1="9.8" x2="96.6" y1="281.4" y2="281.4"/><!--class Receiver--><rect fill="#FEFECE" filter="url(#fwm1l3953pb3r)" height="88.2321" id="Receiver" style="stroke: #A80036; stroke-width: 2.099999964237213;" width="112" x="8.4" y="21.7"/><ellipse cx="29.4" cy="44.1" fill="#ADD1B2" rx="15.4" ry="15.4" style="stroke: #A80036; stroke-width: 1.399999976158142;"/><path d="M28.9625,52.5 Q26.25,52.5 24.675,50.4984 Q23.1,48.4969 23.1,44.3625 Q23.1,40.8625 24.7625,38.5 Q26.425,36.1375 29.3125,36.1375 Q29.9469,36.1375 30.5594,36.1375 Q31.1719,36.1375 31.6094,36.1375 Q31.9594,36.1375 32.1891,36.1375 Q32.4187,36.1375 32.9875,36.1375 L33.9719,41.3 L32.4844,41.3 Q31.8719,39.7687 31.0734,39.1344 Q30.275,38.5 28.9844,38.5 Q27.3656,38.5 26.4141,40.1516 Q25.4625,41.8031 25.4625,44.3625 Q25.4625,47.1844 26.1953,48.6609 Q26.9281,50.1375 28.8969,50.1375 Q30.1875,50.1375 31.0953,49.3391 Q32.0031,48.5406 32.4844,46.5937 L33.9281,47.3156 Q33.3812,49.7656 32.0687,51.1328 Q30.7562,52.5 28.9625,52.5 Z "/><text fill="#000000" font-family="sans-serif" font-size="16.8" lengthAdjust="spacingAndGlyphs" textLength="67.2" x="49" y="51.8807">Receiver</text><line style="stroke: #A80036; stroke-width: 2.099999964237213;" x1="9.8" x2="119" y1="66.5" y2="66.5"/><line style="stroke: #A80036; stroke-width: 2.099999964237213;" x1="9.8" x2="119" y1="77.7" y2="77.7"/><text fill="#000000" font-family="sans-serif" font-size="15.4" lengthAdjust="spacingAndGlyphs" textLength="51.8" x="16.8" y="100.9483">action()</text><!--class Command--><rect fill="#FEFECE" filter="url(#fwm1l3953pb3r)" height="109.2643" id="Command" style="stroke: #A80036; stroke-width: 2.099999964237213;" width="127.4" x="182.7" y="11.2"/><ellipse cx="203.7" cy="33.6" fill="#B4A7E5" rx="15.4" ry="15.4" style="stroke: #A80036; stroke-width: 1.399999976158142;"/><path d="M199.325,28 L199.325,25.6375 L207.6375,25.6375 L207.6375,28 L205.0125,28 Q204.7937,28 204.7281,28.0437 Q204.6625,28.0875 204.6625,28.1531 L204.6625,39.4844 Q204.6625,39.55 204.7281,39.5937 Q204.7937,39.6375 205.0125,39.6375 L207.6375,39.6375 L207.6375,42 L199.325,42 L199.325,39.6375 L201.95,39.6375 Q202.2344,39.6375 202.2672,39.6156 Q202.3,39.5937 202.3,39.4844 L202.3,28.1531 Q202.3,28.0437 202.2672,28.0219 Q202.2344,28 201.95,28 L199.325,28 Z "/><text fill="#000000" font-family="sans-serif" font-size="16.8" font-style="italic" lengthAdjust="spacingAndGlyphs" textLength="82.6" x="223.3" y="41.3807">Command</text><line style="stroke: #A80036; stroke-width: 2.099999964237213;" x1="184.1" x2="308.7" y1="56" y2="56"/><line style="stroke: #A80036; stroke-width: 2.099999964237213;" x1="184.1" x2="308.7" y1="67.2" y2="67.2"/><text fill="#000000" font-family="sans-serif" font-size="15.4" lengthAdjust="spacingAndGlyphs" textLength="65.8" x="191.1" y="90.4483">execute()</text><text fill="#000000" font-family="sans-serif" font-size="15.4" lengthAdjust="spacingAndGlyphs" textLength="44.8" x="191.1" y="111.4805">undo()</text><!--class ConcreteCommand--><rect fill="#FEFECE" filter="url(#fwm1l3953pb3r)" height="109.2643" id="ConcreteCommand" style="stroke: #A80036; stroke-width: 2.099999964237213;" width="197.4" x="147.7" y="204.4"/><ellipse cx="168.7" cy="226.8" fill="#ADD1B2" rx="15.4" ry="15.4" style="stroke: #A80036; stroke-width: 1.399999976158142;"/><path d="M168.2625,235.2 Q165.55,235.2 163.975,233.1984 Q162.4,231.1969 162.4,227.0625 Q162.4,223.5625 164.0625,221.2 Q165.725,218.8375 168.6125,218.8375 Q169.2469,218.8375 169.8594,218.8375 Q170.4719,218.8375 170.9094,218.8375 Q171.2594,218.8375 171.4891,218.8375 Q171.7187,218.8375 172.2875,218.8375 L173.2719,224 L171.7844,224 Q171.1719,222.4687 170.3734,221.8344 Q169.575,221.2 168.2844,221.2 Q166.6656,221.2 165.7141,222.8516 Q164.7625,224.5031 164.7625,227.0625 Q164.7625,229.8844 165.4953,231.3609 Q166.2281,232.8375 168.1969,232.8375 Q169.4875,232.8375 170.3953,232.0391 Q171.3031,231.2406 171.7844,229.2937 L173.2281,230.0156 Q172.6812,232.4656 171.3687,233.8328 Q170.0562,235.2 168.2625,235.2 Z "/><text fill="#000000" font-family="sans-serif" font-size="16.8" lengthAdjust="spacingAndGlyphs" textLength="152.6" x="188.3" y="234.5807">ConcreteCommand</text><line style="stroke: #A80036; stroke-width: 2.099999964237213;" x1="149.1" x2="343.7" y1="249.2" y2="249.2"/><line style="stroke: #A80036; stroke-width: 2.099999964237213;" x1="149.1" x2="343.7" y1="260.4" y2="260.4"/><text fill="#000000" font-family="sans-serif" font-size="15.4" lengthAdjust="spacingAndGlyphs" textLength="65.8" x="156.1" y="283.6483">execute()</text><text fill="#000000" font-family="sans-serif" font-size="15.4" lengthAdjust="spacingAndGlyphs" textLength="44.8" x="156.1" y="304.6805">undo()</text><!--class Invoker--><rect fill="#FEFECE" filter="url(#fwm1l3953pb3r)" height="67.2" id="Invoker" style="stroke: #A80036; stroke-width: 2.099999964237213;" width="99.4" x="359.1" y="32.2"/><ellipse cx="380.1" cy="54.6" fill="#ADD1B2" rx="15.4" ry="15.4" style="stroke: #A80036; stroke-width: 1.399999976158142;"/><path d="M379.6625,63 Q376.95,63 375.375,60.9984 Q373.8,58.9969 373.8,54.8625 Q373.8,51.3625 375.4625,49 Q377.125,46.6375 380.0125,46.6375 Q380.6469,46.6375 381.2594,46.6375 Q381.8719,46.6375 382.3094,46.6375 Q382.6594,46.6375 382.8891,46.6375 Q383.1187,46.6375 383.6875,46.6375 L384.6719,51.8 L383.1844,51.8 Q382.5719,50.2687 381.7734,49.6344 Q380.975,49 379.6844,49 Q378.0656,49 377.1141,50.6516 Q376.1625,52.3031 376.1625,54.8625 Q376.1625,57.6844 376.8953,59.1609 Q377.6281,60.6375 379.5969,60.6375 Q380.8875,60.6375 381.7953,59.8391 Q382.7031,59.0406 383.1844,57.0937 L384.6281,57.8156 Q384.0812,60.2656 382.7687,61.6328 Q381.4562,63 379.6625,63 Z "/><text fill="#000000" font-family="sans-serif" font-size="16.8" lengthAdjust="spacingAndGlyphs" textLength="54.6" x="399.7" y="62.3807">Invoker</text><line style="stroke: #A80036; stroke-width: 2.099999964237213;" x1="360.5" x2="457.1" y1="77" y2="77"/><line style="stroke: #A80036; stroke-width: 2.099999964237213;" x1="360.5" x2="457.1" y1="88.2" y2="88.2"/><!--link Receiver to Client--><path d="M61.4678,117.047 C59.4608,151.165 56.8574,195.4256 55.113,225.0804 " fill="none" id="Receiver-Client" style="stroke: #A80036; stroke-width: 1.399999976158142;"/><polygon fill="#A80036" points="61.8864,109.9294,55.558,122.1798,61.4764,116.9174,66.7388,122.8358,61.8864,109.9294" style="stroke: #A80036; stroke-width: 1.399999976158142;"/><!--link Client to ConcreteCommand--><path d="M98.1039,259 C112.0806,259 126.0573,259 140.0339,259 " fill="none" id="Client-ConcreteCommand" style="stroke: #A80036; stroke-width: 1.399999976158142;"/><polygon fill="#A80036" points="147.3429,259,134.7429,253.4,140.3429,259,134.7429,264.6,147.3429,259" style="stroke: #A80036; stroke-width: 1.399999976158142;"/><!--link Receiver to ConcreteCommand--><path d="M110.3297,115.2494 C136.2077,142.3212 168.5908,176.1998 195.2734,204.1137 " fill="none" id="Receiver-ConcreteCommand" style="stroke: #A80036; stroke-width: 1.399999976158142;"/><polygon fill="#A80036" points="105.2443,109.9294,109.904,122.9066,110.0817,114.989,117.9993,115.1667,105.2443,109.9294" style="stroke: #A80036; stroke-width: 1.399999976158142;"/><!--link Command to ConcreteCommand--><path d="M246.4,148.9208 C246.4,167.482 246.4,186.7412 246.4,203.7984 " fill="none" id="Command-ConcreteCommand" style="stroke: #A80036; stroke-width: 1.399999976158142; stroke-dasharray: 7.0,7.0;"/><polygon fill="none" points="236.6,148.7444,246.4,120.7444,256.2,148.743,236.6,148.7444" style="stroke: #A80036; stroke-width: 1.399999976158142;"/><!--link Command to Invoker--><path d="M317.6558,65.8 C331.3926,65.8 345.1308,65.8 358.8676,65.8 " fill="none" id="Command-Invoker" style="stroke: #A80036; stroke-width: 1.399999976158142;"/><polygon fill="#A80036" points="310.4724,65.8,323.0724,71.4,317.4724,65.8,323.0724,60.2,310.4724,65.8" style="stroke: #A80036; stroke-width: 1.399999976158142;"/><!--
@startuml

class Client{
}

class Receiver{
    action()
}

interface Command{
    execute()
    undo()
}

class ConcreteCommand{
    execute()
    undo()
}

class Invoker{

}

Receiver <- Client
Client -> ConcreteCommand
Receiver <- - ConcreteCommand

Command <|.. ConcreteCommand

Command <- Invoker




@enduml

PlantUML version 1.2018.11(Sun Sep 23 00:43:53 CST 2018)
(GPL source distribution)
Java Runtime: OpenJDK Runtime Environment
JVM: OpenJDK 64-Bit Server VM
Java Version: 1.8.0_152-release-1248-b22
Operating System: Windows 10
OS Version: 10.0
Default Encoding: GBK
Language: zh
Country: CN
--></g></svg>