<?xml version="1.0" encoding="UTF-8" standalone="no"?><svg xmlns="http://www.w3.org/2000/svg" xmlns:xlink="http://www.w3.org/1999/xlink" contentScriptType="application/ecmascript" contentStyleType="text/css" height="308.7px" preserveAspectRatio="none" style="width:264px;height:308px;" version="1.1" viewBox="0 0 264 308" width="264.6px" zoomAndPan="magnify"><defs><filter height="300%" id="f1j3bgpvsyw1kc" width="300%" x="-1" y="-1"><feGaussianBlur result="blurOut" stdDeviation="1.7999999523162842"/><feColorMatrix in="blurOut" result="blurOut2" type="matrix" values="0 0 0 0 0 0 0 0 0 0 0 0 0 0 0 0 0 0 .4 0"/><feOffset dx="3.5999999046325684" dy="3.5999999046325684" in="blurOut2" result="blurOut3"/><feBlend in="SourceGraphic" in2="blurOut3" mode="normal"/></filter></defs><g><!--class Client--><rect fill="#FEFECE" filter="url(#f1j3bgpvsyw1kc)" height="43.2" id="Client" style="stroke: #A80036; stroke-width: 1.3499999642372131;" width="57.6" x="52.2" y="7.2"/><ellipse cx="65.7" cy="21.6" fill="#ADD1B2" rx="9.9" ry="9.9" style="stroke: #A80036; stroke-width: 0.8999999761581421;"/><path d="M65.4187,27 Q63.675,27 62.6625,25.7133 Q61.65,24.4266 61.65,21.7687 Q61.65,19.5187 62.7187,18 Q63.7875,16.4812 65.6437,16.4812 Q66.0516,16.4812 66.4453,16.4812 Q66.8391,16.4812 67.1203,16.4812 Q67.3453,16.4812 67.493,16.4812 Q67.6406,16.4812 68.0062,16.4812 L68.6391,19.8 L67.6828,19.8 Q67.2891,18.8156 66.7758,18.4078 Q66.2625,18 65.4328,18 Q64.3922,18 63.7805,19.0617 Q63.1687,20.1234 63.1687,21.7687 Q63.1687,23.5828 63.6398,24.532 Q64.1109,25.4812 65.3766,25.4812 Q66.2062,25.4812 66.7898,24.968 Q67.3734,24.4547 67.6828,23.2031 L68.6109,23.6672 Q68.2594,25.2422 67.4156,26.1211 Q66.5719,27 65.4187,27 Z "/><text fill="#000000" font-family="sans-serif" font-size="10.8" lengthAdjust="spacingAndGlyphs" textLength="28.8" x="78.3" y="26.6019">Client</text><line style="stroke: #A80036; stroke-width: 1.3499999642372131;" x1="53.1" x2="108.9" y1="36" y2="36"/><line style="stroke: #A80036; stroke-width: 1.3499999642372131;" x1="53.1" x2="108.9" y1="43.2" y2="43.2"/><!--class Receiver--><rect fill="#FEFECE" filter="url(#f1j3bgpvsyw1kc)" height="56.7207" id="Receiver" style="stroke: #A80036; stroke-width: 1.3499999642372131;" width="72" x="5.4" y="111.15"/><ellipse cx="18.9" cy="125.55" fill="#ADD1B2" rx="9.9" ry="9.9" style="stroke: #A80036; stroke-width: 0.8999999761581421;"/><path d="M18.6187,130.95 Q16.875,130.95 15.8625,129.6633 Q14.85,128.3766 14.85,125.7187 Q14.85,123.4687 15.9187,121.95 Q16.9875,120.4312 18.8437,120.4312 Q19.2516,120.4312 19.6453,120.4312 Q20.0391,120.4312 20.3203,120.4312 Q20.5453,120.4312 20.693,120.4312 Q20.8406,120.4312 21.2062,120.4312 L21.8391,123.75 L20.8828,123.75 Q20.4891,122.7656 19.9758,122.3578 Q19.4625,121.95 18.6328,121.95 Q17.5922,121.95 16.9805,123.0117 Q16.3687,124.0734 16.3687,125.7187 Q16.3687,127.5328 16.8398,128.482 Q17.3109,129.4312 18.5766,129.4312 Q19.4062,129.4312 19.9898,128.918 Q20.5734,128.4047 20.8828,127.1531 L21.8109,127.6172 Q21.4594,129.1922 20.6156,130.0711 Q19.7719,130.95 18.6187,130.95 Z "/><text fill="#000000" font-family="sans-serif" font-size="10.8" lengthAdjust="spacingAndGlyphs" textLength="43.2" x="31.5" y="130.5519">Receiver</text><line style="stroke: #A80036; stroke-width: 1.3499999642372131;" x1="6.3" x2="76.5" y1="139.95" y2="139.95"/><line style="stroke: #A80036; stroke-width: 1.3499999642372131;" x1="6.3" x2="76.5" y1="147.15" y2="147.15"/><text fill="#000000" font-family="sans-serif" font-size="9.9" lengthAdjust="spacingAndGlyphs" textLength="33.3" x="10.8" y="162.0954">action()</text><!--class Command--><rect fill="#FEFECE" filter="url(#f1j3bgpvsyw1kc)" height="70.2413" id="Command" style="stroke: #A80036; stroke-width: 1.3499999642372131;" width="81.9" x="173.25" y="104.4"/><ellipse cx="186.75" cy="118.8" fill="#B4A7E5" rx="9.9" ry="9.9" style="stroke: #A80036; stroke-width: 0.8999999761581421;"/><path d="M183.9375,115.2 L183.9375,113.6812 L189.2812,113.6812 L189.2812,115.2 L187.5937,115.2 Q187.4531,115.2 187.4109,115.2281 Q187.3687,115.2562 187.3687,115.2984 L187.3687,122.5828 Q187.3687,122.625 187.4109,122.6531 Q187.4531,122.6812 187.5937,122.6812 L189.2812,122.6812 L189.2812,124.2 L183.9375,124.2 L183.9375,122.6812 L185.625,122.6812 Q185.8078,122.6812 185.8289,122.6672 Q185.85,122.6531 185.85,122.5828 L185.85,115.2984 Q185.85,115.2281 185.8289,115.2141 Q185.8078,115.2 185.625,115.2 L183.9375,115.2 Z "/><text fill="#000000" font-family="sans-serif" font-size="10.8" font-style="italic" lengthAdjust="spacingAndGlyphs" textLength="53.1" x="199.35" y="123.8019">Command</text><line style="stroke: #A80036; stroke-width: 1.3499999642372131;" x1="174.15" x2="254.25" y1="133.2" y2="133.2"/><line style="stroke: #A80036; stroke-width: 1.3499999642372131;" x1="174.15" x2="254.25" y1="140.4" y2="140.4"/><text fill="#000000" font-family="sans-serif" font-size="9.9" lengthAdjust="spacingAndGlyphs" textLength="42.3" x="178.65" y="155.3454">execute()</text><text fill="#000000" font-family="sans-serif" font-size="9.9" lengthAdjust="spacingAndGlyphs" textLength="28.8" x="178.65" y="168.866">undo()</text><!--class ConcreteCommand--><rect fill="#FEFECE" filter="url(#f1j3bgpvsyw1kc)" height="70.2413" id="ConcreteCommand" style="stroke: #A80036; stroke-width: 1.3499999642372131;" width="126.9" x="61.65" y="228.6"/><ellipse cx="75.15" cy="243" fill="#ADD1B2" rx="9.9" ry="9.9" style="stroke: #A80036; stroke-width: 0.8999999761581421;"/><path d="M74.8687,248.4 Q73.125,248.4 72.1125,247.1133 Q71.1,245.8266 71.1,243.1687 Q71.1,240.9187 72.1687,239.4 Q73.2375,237.8812 75.0937,237.8812 Q75.5016,237.8812 75.8953,237.8812 Q76.2891,237.8812 76.5703,237.8812 Q76.7953,237.8812 76.943,237.8812 Q77.0906,237.8812 77.4562,237.8812 L78.0891,241.2 L77.1328,241.2 Q76.7391,240.2156 76.2258,239.8078 Q75.7125,239.4 74.8828,239.4 Q73.8422,239.4 73.2305,240.4617 Q72.6187,241.5234 72.6187,243.1687 Q72.6187,244.9828 73.0898,245.932 Q73.5609,246.8812 74.8266,246.8812 Q75.6562,246.8812 76.2398,246.368 Q76.8234,245.8547 77.1328,244.6031 L78.0609,245.0672 Q77.7094,246.6422 76.8656,247.5211 Q76.0219,248.4 74.8687,248.4 Z "/><text fill="#000000" font-family="sans-serif" font-size="10.8" lengthAdjust="spacingAndGlyphs" textLength="98.1" x="87.75" y="248.0018">ConcreteCommand</text><line style="stroke: #A80036; stroke-width: 1.3499999642372131;" x1="62.55" x2="187.65" y1="257.4" y2="257.4"/><line style="stroke: #A80036; stroke-width: 1.3499999642372131;" x1="62.55" x2="187.65" y1="264.6" y2="264.6"/><text fill="#000000" font-family="sans-serif" font-size="9.9" lengthAdjust="spacingAndGlyphs" textLength="42.3" x="67.05" y="279.5454">execute()</text><text fill="#000000" font-family="sans-serif" font-size="9.9" lengthAdjust="spacingAndGlyphs" textLength="28.8" x="67.05" y="293.066">undo()</text><!--class Invoker--><rect fill="#FEFECE" filter="url(#f1j3bgpvsyw1kc)" height="43.2" id="Invoker" style="stroke: #A80036; stroke-width: 1.3499999642372131;" width="63.9" x="182.25" y="7.2"/><ellipse cx="195.75" cy="21.6" fill="#ADD1B2" rx="9.9" ry="9.9" style="stroke: #A80036; stroke-width: 0.8999999761581421;"/><path d="M195.4687,27 Q193.725,27 192.7125,25.7133 Q191.7,24.4266 191.7,21.7687 Q191.7,19.5187 192.7687,18 Q193.8375,16.4812 195.6937,16.4812 Q196.1016,16.4812 196.4953,16.4812 Q196.8891,16.4812 197.1703,16.4812 Q197.3953,16.4812 197.543,16.4812 Q197.6906,16.4812 198.0562,16.4812 L198.6891,19.8 L197.7328,19.8 Q197.3391,18.8156 196.8258,18.4078 Q196.3125,18 195.4828,18 Q194.4422,18 193.8305,19.0617 Q193.2187,20.1234 193.2187,21.7687 Q193.2187,23.5828 193.6898,24.532 Q194.1609,25.4812 195.4266,25.4812 Q196.2562,25.4812 196.8398,24.968 Q197.4234,24.4547 197.7328,23.2031 L198.6609,23.6672 Q198.3094,25.2422 197.4656,26.1211 Q196.6219,27 195.4687,27 Z "/><text fill="#000000" font-family="sans-serif" font-size="10.8" lengthAdjust="spacingAndGlyphs" textLength="35.1" x="208.35" y="26.6019">Invoker</text><line style="stroke: #A80036; stroke-width: 1.3499999642372131;" x1="183.15" x2="245.25" y1="36" y2="36"/><line style="stroke: #A80036; stroke-width: 1.3499999642372131;" x1="183.15" x2="245.25" y1="43.2" y2="43.2"/><!--link Client to Receiver--><path d="M73.4584,50.4396 C67.6829,66.3219 59.6133,88.5132 53.0153,106.6581 " fill="none" id="Client-Receiver" style="stroke: #A80036; stroke-width: 0.8999999761581421;"/><polygon fill="#A80036" points="51.4588,110.9385,57.6099,104.5563,52.9965,106.7094,50.8434,102.0959,51.4588,110.9385" style="stroke: #A80036; stroke-width: 0.8999999761581421;"/><!--link Client to ConcreteCommand--><path d="M84.9913,50.7969 C92.3857,89.8812 108.3159,174.0834 117.7227,223.8056 " fill="none" id="Client-ConcreteCommand" style="stroke: #A80036; stroke-width: 0.8999999761581421;"/><polygon fill="#A80036" points="118.6119,228.507,120.6435,219.879,117.7754,224.0855,113.569,221.2174,118.6119,228.507" style="stroke: #A80036; stroke-width: 0.8999999761581421;"/><!--link Receiver to ConcreteCommand--><path d="M60.1839,167.8689 C71.6134,184.5828 86.3806,206.1783 98.9424,224.5479 " fill="none" id="Receiver-ConcreteCommand" style="stroke: #A80036; stroke-width: 0.8999999761581421;"/><polygon fill="#A80036" points="101.5875,228.4159,99.9867,219.6977,99.0473,224.7015,94.0435,223.7621,101.5875,228.4159" style="stroke: #A80036; stroke-width: 0.8999999761581421;"/><!--link Command to ConcreteCommand--><path d="M178.4295,189.5391 C168.9975,202.4964 159.0192,216.2037 150.2775,228.2133 " fill="none" id="Command-ConcreteCommand" style="stroke: #A80036; stroke-width: 0.8999999761581421; stroke-dasharray: 7.0,7.0;"/><polygon fill="none" points="173.457,185.6655,189.144,174.8214,183.6432,193.0815,173.457,185.6655" style="stroke: #A80036; stroke-width: 0.8999999761581421;"/><!--link Invoker to Command--><path d="M214.2,50.4396 C214.2,64.3158 214.2,83.0079 214.2,99.6093 " fill="none" id="Invoker-Command" style="stroke: #A80036; stroke-width: 0.8999999761581421;"/><polygon fill="#A80036" points="214.2,104.2308,217.8,96.1308,214.2,99.7308,210.6,96.1308,214.2,104.2308" style="stroke: #A80036; stroke-width: 0.8999999761581421;"/><!--
@startuml

class Client{
}

class Receiver{
    action()
}

interface Command{
    execute()
    undo()
}

class ConcreteCommand{
    execute()
    undo()
}

class Invoker{

}

Client - -> Receiver
Client - -> ConcreteCommand
Receiver - -> ConcreteCommand

Command <|.. ConcreteCommand

Invoker - -> Command




@enduml

PlantUML version 1.2018.11(Sun Sep 23 00:43:53 CST 2018)
(GPL source distribution)
Java Runtime: OpenJDK Runtime Environment
JVM: OpenJDK 64-Bit Server VM
Java Version: 1.8.0_152-release-1248-b22
Operating System: Windows 10
OS Version: 10.0
Default Encoding: GBK
Language: zh
Country: CN
--></g></svg>