<?xml version="1.0" encoding="UTF-8" standalone="no"?><svg xmlns="http://www.w3.org/2000/svg" xmlns:xlink="http://www.w3.org/1999/xlink" contentScriptType="application/ecmascript" contentStyleType="text/css" height="250px" preserveAspectRatio="none" style="width:263px;height:250px;" version="1.1" viewBox="0 0 263 250" width="263px" zoomAndPan="magnify"><defs><filter height="300%" id="f1vniexab011uf" width="300%" x="-1" y="-1"><feGaussianBlur result="blurOut" stdDeviation="2.0"/><feColorMatrix in="blurOut" result="blurOut2" type="matrix" values="0 0 0 0 0 0 0 0 0 0 0 0 0 0 0 0 0 0 .4 0"/><feOffset dx="4.0" dy="4.0" in="blurOut2" result="blurOut3"/><feBlend in="SourceGraphic" in2="blurOut3" mode="normal"/></filter></defs><g><!--class CaffeineBeverageWithHook--><rect fill="#FEFECE" filter="url(#f1vniexab011uf)" height="93.0688" id="CaffeineBeverageWithHook" style="stroke: #A80036; stroke-width: 1.5;" width="246" x="6" y="8"/><ellipse cx="48.45" cy="24" fill="#A9DCDF" rx="11" ry="11" style="stroke: #A80036; stroke-width: 1.0;"/><path d="M49.5281,25 L46.7156,25 L45.9031,26.6094 Q45.8563,26.7656 45.8563,26.9063 Q45.8563,27.0938 45.9031,27.2031 Q45.95,27.3125 46.1688,27.3125 L46.7156,27.3125 L46.7156,29 L43.45,29 L43.45,27.3125 L44.0125,27.3125 Q44.2313,27.3125 44.3484,27.25 Q44.4656,27.1875 44.5125,27 L47.6063,17.3125 L48.9813,17.3125 L52.0125,26.8906 Q52.1063,27.125 52.2469,27.2188 Q52.3875,27.3125 52.575,27.3125 L53.1375,27.3125 L53.1375,29 L49.4813,29 L49.4813,27.3125 L50.0906,27.3125 Q50.2625,27.3125 50.2703,27.2969 Q50.2781,27.2813 50.2781,27.2188 Q50.2781,27.0469 50.2469,26.9531 L49.5281,25 Z M44.3094,28 L44.3094,28 Z M44.9813,28 L44.9813,28 Z M49.7,28 L49.7,28 Z M50.825,28 L50.825,28 Z M48.0281,19.4063 L48.1063,19.4063 L47.2469,23.3125 L49.2,23.3125 L48.0281,19.4063 Z "/><text fill="#000000" font-family="sans-serif" font-size="12" font-style="italic" lengthAdjust="spacingAndGlyphs" textLength="153" x="68.55" y="29.5576">CaffeineBeverageWithHook</text><line style="stroke: #A80036; stroke-width: 1.5;" x1="7" x2="251" y1="40" y2="40"/><line style="stroke: #A80036; stroke-width: 1.5;" x1="7" x2="251" y1="48" y2="48"/><text fill="#000000" font-family="sans-serif" font-size="11" lengthAdjust="spacingAndGlyphs" textLength="105" x="12" y="64.606">prepare()   //模板方法</text><text fill="#000000" font-family="sans-serif" font-size="11" lengthAdjust="spacingAndGlyphs" textLength="234" x="12" y="79.6289">brew()      //抽象方法，交给具体实现的类去实现</text><text fill="#000000" font-family="sans-serif" font-size="11" lengthAdjust="spacingAndGlyphs" textLength="229" x="12" y="94.6519">add()       //抽象方法，交给具体实现的类去实现</text><!--class CaffeWithHook--><rect fill="#FEFECE" filter="url(#f1vniexab011uf)" height="78.0459" id="CaffeWithHook" style="stroke: #A80036; stroke-width: 1.5;" width="114" x="13" y="161"/><ellipse cx="28" cy="177" fill="#ADD1B2" rx="11" ry="11" style="stroke: #A80036; stroke-width: 1.0;"/><path d="M27.6875,183 Q25.75,183 24.625,181.5703 Q23.5,180.1406 23.5,177.1875 Q23.5,174.6875 24.6875,173 Q25.875,171.3125 27.9375,171.3125 Q28.3906,171.3125 28.8281,171.3125 Q29.2656,171.3125 29.5781,171.3125 Q29.8281,171.3125 29.9922,171.3125 Q30.1563,171.3125 30.5625,171.3125 L31.2656,175 L30.2031,175 Q29.7656,173.9063 29.1953,173.4531 Q28.625,173 27.7031,173 Q26.5469,173 25.8672,174.1797 Q25.1875,175.3594 25.1875,177.1875 Q25.1875,179.2031 25.7109,180.2578 Q26.2344,181.3125 27.6406,181.3125 Q28.5625,181.3125 29.2109,180.7422 Q29.8594,180.1719 30.2031,178.7813 L31.2344,179.2969 Q30.8438,181.0469 29.9063,182.0234 Q28.9688,183 27.6875,183 Z "/><text fill="#000000" font-family="sans-serif" font-size="12" lengthAdjust="spacingAndGlyphs" textLength="82" x="42" y="182.5576">CaffeWithHook</text><line style="stroke: #A80036; stroke-width: 1.5;" x1="14" x2="126" y1="193" y2="193"/><line style="stroke: #A80036; stroke-width: 1.5;" x1="14" x2="126" y1="201" y2="201"/><text fill="#000000" font-family="sans-serif" font-size="11" lengthAdjust="spacingAndGlyphs" textLength="34" x="19" y="217.606">brew()</text><text fill="#000000" font-family="sans-serif" font-size="11" lengthAdjust="spacingAndGlyphs" textLength="26" x="19" y="232.6289">add()</text><!--class Tea--><rect fill="#FEFECE" filter="url(#f1vniexab011uf)" height="78.0459" id="Tea" style="stroke: #A80036; stroke-width: 1.5;" width="53" x="162.5" y="161"/><ellipse cx="177.5" cy="177" fill="#ADD1B2" rx="11" ry="11" style="stroke: #A80036; stroke-width: 1.0;"/><path d="M177.1875,183 Q175.25,183 174.125,181.5703 Q173,180.1406 173,177.1875 Q173,174.6875 174.1875,173 Q175.375,171.3125 177.4375,171.3125 Q177.8906,171.3125 178.3281,171.3125 Q178.7656,171.3125 179.0781,171.3125 Q179.3281,171.3125 179.4922,171.3125 Q179.6563,171.3125 180.0625,171.3125 L180.7656,175 L179.7031,175 Q179.2656,173.9063 178.6953,173.4531 Q178.125,173 177.2031,173 Q176.0469,173 175.3672,174.1797 Q174.6875,175.3594 174.6875,177.1875 Q174.6875,179.2031 175.2109,180.2578 Q175.7344,181.3125 177.1406,181.3125 Q178.0625,181.3125 178.7109,180.7422 Q179.3594,180.1719 179.7031,178.7813 L180.7344,179.2969 Q180.3438,181.0469 179.4063,182.0234 Q178.4688,183 177.1875,183 Z "/><text fill="#000000" font-family="sans-serif" font-size="12" lengthAdjust="spacingAndGlyphs" textLength="21" x="191.5" y="182.5576">Tea</text><line style="stroke: #A80036; stroke-width: 1.5;" x1="163.5" x2="214.5" y1="193" y2="193"/><line style="stroke: #A80036; stroke-width: 1.5;" x1="163.5" x2="214.5" y1="201" y2="201"/><text fill="#000000" font-family="sans-serif" font-size="11" lengthAdjust="spacingAndGlyphs" textLength="34" x="168.5" y="217.606">brew()</text><text fill="#000000" font-family="sans-serif" font-size="11" lengthAdjust="spacingAndGlyphs" textLength="26" x="168.5" y="232.6289">add()</text><!--link CaffeineBeverageWithHook to CaffeWithHook--><path d="M102.5098,119.93 C96.7615,133.911 90.8591,148.2663 85.6881,160.8435 " fill="none" id="CaffeineBeverageWithHook-CaffeWithHook" style="stroke: #A80036; stroke-width: 1.0;"/><polygon fill="none" points="96.0903,117.135,110.17,101.299,109.039,122.458,96.0903,117.135" style="stroke: #A80036; stroke-width: 1.0;"/><!--link CaffeineBeverageWithHook to Tea--><path d="M155.939,119.93 C161.785,133.911 167.787,148.2663 173.046,160.8435 " fill="none" id="CaffeineBeverageWithHook-Tea" style="stroke: #A80036; stroke-width: 1.0;"/><polygon fill="none" points="149.406,122.451,148.149,101.299,162.323,117.051,149.406,122.451" style="stroke: #A80036; stroke-width: 1.0;"/><!--
@startuml

abstract class CaffeineBeverageWithHook{
    prepare()   //模板方法
    brew()      //抽象方法，交给具体实现的类去实现
    add()       //抽象方法，交给具体实现的类去实现
}

 class CaffeWithHook{
     brew()
     add() 
 }
 
  class Tea{
      brew()
      add() 
  }
  
  CaffeineBeverageWithHook <|- - CaffeWithHook
  CaffeineBeverageWithHook <|- - Tea
@enduml

PlantUML version 1.2018.11(Sun Sep 23 00:43:53 CST 2018)
(GPL source distribution)
Java Runtime: OpenJDK Runtime Environment
JVM: OpenJDK 64-Bit Server VM
Java Version: 1.8.0_152-release-1248-b22
Operating System: Windows 10
OS Version: 10.0
Default Encoding: GBK
Language: zh
Country: CN
--></g></svg>