<?xml version="1.0" encoding="UTF-8" standalone="no"?><svg xmlns="http://www.w3.org/2000/svg" xmlns:xlink="http://www.w3.org/1999/xlink" contentScriptType="application/ecmascript" contentStyleType="text/css" height="250px" preserveAspectRatio="none" style="width:682px;height:250px;" version="1.1" viewBox="0 0 682 250" width="682px" zoomAndPan="magnify"><defs><filter height="300%" id="ftx2dadmvs1wz" width="300%" x="-1" y="-1"><feGaussianBlur result="blurOut" stdDeviation="2.0"/><feColorMatrix in="blurOut" result="blurOut2" type="matrix" values="0 0 0 0 0 0 0 0 0 0 0 0 0 0 0 0 0 0 .4 0"/><feOffset dx="4.0" dy="4.0" in="blurOut2" result="blurOut3"/><feBlend in="SourceGraphic" in2="blurOut3" mode="normal"/></filter></defs><g><!--class AbstractClass--><rect fill="#FEFECE" filter="url(#ftx2dadmvs1wz)" height="93.0688" id="AbstractClass" style="stroke: #A80036; stroke-width: 1.5;" width="259" x="6" y="8"/><ellipse cx="93.25" cy="24" fill="#A9DCDF" rx="11" ry="11" style="stroke: #A80036; stroke-width: 1.0;"/><path d="M94.3281,25 L91.5156,25 L90.7031,26.6094 Q90.6563,26.7656 90.6563,26.9063 Q90.6563,27.0938 90.7031,27.2031 Q90.75,27.3125 90.9688,27.3125 L91.5156,27.3125 L91.5156,29 L88.25,29 L88.25,27.3125 L88.8125,27.3125 Q89.0313,27.3125 89.1484,27.25 Q89.2656,27.1875 89.3125,27 L92.4063,17.3125 L93.7813,17.3125 L96.8125,26.8906 Q96.9063,27.125 97.0469,27.2188 Q97.1875,27.3125 97.375,27.3125 L97.9375,27.3125 L97.9375,29 L94.2813,29 L94.2813,27.3125 L94.8906,27.3125 Q95.0625,27.3125 95.0703,27.2969 Q95.0781,27.2813 95.0781,27.2188 Q95.0781,27.0469 95.0469,26.9531 L94.3281,25 Z M89.1094,28 L89.1094,28 Z M89.7813,28 L89.7813,28 Z M94.5,28 L94.5,28 Z M95.625,28 L95.625,28 Z M92.8281,19.4063 L92.9063,19.4063 L92.0469,23.3125 L94,23.3125 L92.8281,19.4063 Z "/><text fill="#000000" font-family="sans-serif" font-size="12" font-style="italic" lengthAdjust="spacingAndGlyphs" textLength="76" x="113.75" y="29.5576">AbstractClass</text><line style="stroke: #A80036; stroke-width: 1.5;" x1="7" x2="264" y1="40" y2="40"/><line style="stroke: #A80036; stroke-width: 1.5;" x1="7" x2="264" y1="48" y2="48"/><text fill="#000000" font-family="sans-serif" font-size="11" lengthAdjust="spacingAndGlyphs" textLength="212" x="12" y="64.606">templateMethod()        //对外暴露的算法框架</text><text fill="#000000" font-family="sans-serif" font-size="11" lengthAdjust="spacingAndGlyphs" textLength="247" x="12" y="79.6289">primitiveOperation1()   //模板方法使用到的原语操作</text><text fill="#000000" font-family="sans-serif" font-size="11" lengthAdjust="spacingAndGlyphs" textLength="247" x="12" y="94.6519">primitiveOperation2()   //模板方法使用到的原语操作</text><!--class ConcreteClass--><rect fill="#FEFECE" filter="url(#ftx2dadmvs1wz)" height="78.0459" id="ConcreteClass" style="stroke: #A80036; stroke-width: 1.5;" width="115" x="78" y="161"/><ellipse cx="93" cy="177" fill="#ADD1B2" rx="11" ry="11" style="stroke: #A80036; stroke-width: 1.0;"/><path d="M92.6875,183 Q90.75,183 89.625,181.5703 Q88.5,180.1406 88.5,177.1875 Q88.5,174.6875 89.6875,173 Q90.875,171.3125 92.9375,171.3125 Q93.3906,171.3125 93.8281,171.3125 Q94.2656,171.3125 94.5781,171.3125 Q94.8281,171.3125 94.9922,171.3125 Q95.1563,171.3125 95.5625,171.3125 L96.2656,175 L95.2031,175 Q94.7656,173.9063 94.1953,173.4531 Q93.625,173 92.7031,173 Q91.5469,173 90.8672,174.1797 Q90.1875,175.3594 90.1875,177.1875 Q90.1875,179.2031 90.7109,180.2578 Q91.2344,181.3125 92.6406,181.3125 Q93.5625,181.3125 94.2109,180.7422 Q94.8594,180.1719 95.2031,178.7813 L96.2344,179.2969 Q95.8438,181.0469 94.9063,182.0234 Q93.9688,183 92.6875,183 Z "/><text fill="#000000" font-family="sans-serif" font-size="12" lengthAdjust="spacingAndGlyphs" textLength="83" x="107" y="182.5576">ConcreteClass</text><line style="stroke: #A80036; stroke-width: 1.5;" x1="79" x2="192" y1="193" y2="193"/><line style="stroke: #A80036; stroke-width: 1.5;" x1="79" x2="192" y1="201" y2="201"/><text fill="#000000" font-family="sans-serif" font-size="11" lengthAdjust="spacingAndGlyphs" textLength="100" x="84" y="217.606">primitiveOperation1()</text><text fill="#000000" font-family="sans-serif" font-size="11" lengthAdjust="spacingAndGlyphs" textLength="100" x="84" y="232.6289">primitiveOperation2()</text><path d="M228.5,177 L228.5,196 L193.148,200 L228.5,204 L228.5,222.5088 A0,0 0 0 0 228.5,222.5088 L670.5,222.5088 A0,0 0 0 0 670.5,222.5088 L670.5,187 L660.5,177 L228.5,177 A0,0 0 0 0 228.5,177 " fill="#FBFB77" filter="url(#ftx2dadmvs1wz)" style="stroke: #A80036; stroke-width: 1.0;"/><path d="M660.5,177 L660.5,187 L670.5,187 L660.5,177 " fill="#FBFB77" style="stroke: #A80036; stroke-width: 1.0;"/><text fill="#000000" font-family="sans-serif" font-size="13" lengthAdjust="spacingAndGlyphs" textLength="421" x="234.5" y="196.8979">"这个具体类实现抽象的操作，当模板方法小这两个抽象方时，会调用它们</text><text fill="#000000" font-family="sans-serif" font-size="13" lengthAdjust="spacingAndGlyphs" textLength="122" x="234.5" y="214.6523">可能会有多个具体类"</text><!--link AbstractClass to ConcreteClass--><path d="M135.5,121.361 C135.5,134.887 135.5,148.6951 135.5,160.8435 " fill="none" id="AbstractClass-ConcreteClass" style="stroke: #A80036; stroke-width: 1.0;"/><polygon fill="none" points="128.5,121.299,135.5,101.299,142.5,121.299,128.5,121.299" style="stroke: #A80036; stroke-width: 1.0;"/><!--
@startuml

abstract class AbstractClass{
    templateMethod()        //对外暴露的算法框架
    primitiveOperation1()   //模板方法使用到的原语操作
    primitiveOperation2()   //模板方法使用到的原语操作
}


class ConcreteClass{        
    primitiveOperation1()   
    primitiveOperation2()   
}
note right: "这个具体类实现抽象的操作，当模板方法小这两个抽象方时，会调用它们\n可能会有多个具体类"

AbstractClass <|- - ConcreteClass
@enduml

PlantUML version 1.2018.11(Sun Sep 23 00:43:53 CST 2018)
(GPL source distribution)
Java Runtime: OpenJDK Runtime Environment
JVM: OpenJDK 64-Bit Server VM
Java Version: 1.8.0_152-release-1248-b22
Operating System: Windows 10
OS Version: 10.0
Default Encoding: GBK
Language: zh
Country: CN
--></g></svg>