<?xml version="1.0" encoding="UTF-8" standalone="no"?><svg xmlns="http://www.w3.org/2000/svg" xmlns:xlink="http://www.w3.org/1999/xlink" contentScriptType="application/ecmascript" contentStyleType="text/css" height="265px" preserveAspectRatio="none" style="width:589px;height:265px;" version="1.1" viewBox="0 0 589 265" width="589px" zoomAndPan="magnify"><defs><filter height="300%" id="fvav8wiwqqimf" width="300%" x="-1" y="-1"><feGaussianBlur result="blurOut" stdDeviation="2.0"/><feColorMatrix in="blurOut" result="blurOut2" type="matrix" values="0 0 0 0 0 0 0 0 0 0 0 0 0 0 0 0 0 0 .4 0"/><feOffset dx="4.0" dy="4.0" in="blurOut2" result="blurOut3"/><feBlend in="SourceGraphic" in2="blurOut3" mode="normal"/></filter></defs><g><!--class Aggregate--><rect fill="#FEFECE" filter="url(#fvav8wiwqqimf)" height="63.0229" id="Aggregate" style="stroke: #A80036; stroke-width: 1.5;" width="89" x="212" y="23"/><ellipse cx="227" cy="39" fill="#B4A7E5" rx="11" ry="11" style="stroke: #A80036; stroke-width: 1.0;"/><path d="M223.875,35 L223.875,33.3125 L229.8125,33.3125 L229.8125,35 L227.9375,35 Q227.7813,35 227.7344,35.0313 Q227.6875,35.0625 227.6875,35.1094 L227.6875,43.2031 Q227.6875,43.25 227.7344,43.2813 Q227.7813,43.3125 227.9375,43.3125 L229.8125,43.3125 L229.8125,45 L223.875,45 L223.875,43.3125 L225.75,43.3125 Q225.9531,43.3125 225.9766,43.2969 Q226,43.2813 226,43.2031 L226,35.1094 Q226,35.0313 225.9766,35.0156 Q225.9531,35 225.75,35 L223.875,35 Z "/><text fill="#000000" font-family="sans-serif" font-size="12" font-style="italic" lengthAdjust="spacingAndGlyphs" textLength="57" x="241" y="44.5576">Aggregate</text><line style="stroke: #A80036; stroke-width: 1.5;" x1="213" x2="300" y1="55" y2="55"/><line style="stroke: #A80036; stroke-width: 1.5;" x1="213" x2="300" y1="63" y2="63"/><text fill="#000000" font-family="sans-serif" font-size="11" lengthAdjust="spacingAndGlyphs" textLength="73" x="218" y="79.606">createIterator()</text><!--class ConcreteAggregate--><rect fill="#FEFECE" filter="url(#fvav8wiwqqimf)" height="63.0229" id="ConcreteAggregate" style="stroke: #A80036; stroke-width: 1.5;" width="138" x="174.5" y="176"/><ellipse cx="189.5" cy="192" fill="#ADD1B2" rx="11" ry="11" style="stroke: #A80036; stroke-width: 1.0;"/><path d="M189.1875,198 Q187.25,198 186.125,196.5703 Q185,195.1406 185,192.1875 Q185,189.6875 186.1875,188 Q187.375,186.3125 189.4375,186.3125 Q189.8906,186.3125 190.3281,186.3125 Q190.7656,186.3125 191.0781,186.3125 Q191.3281,186.3125 191.4922,186.3125 Q191.6563,186.3125 192.0625,186.3125 L192.7656,190 L191.7031,190 Q191.2656,188.9063 190.6953,188.4531 Q190.125,188 189.2031,188 Q188.0469,188 187.3672,189.1797 Q186.6875,190.3594 186.6875,192.1875 Q186.6875,194.2031 187.2109,195.2578 Q187.7344,196.3125 189.1406,196.3125 Q190.0625,196.3125 190.7109,195.7422 Q191.3594,195.1719 191.7031,193.7813 L192.7344,194.2969 Q192.3438,196.0469 191.4063,197.0234 Q190.4688,198 189.1875,198 Z "/><text fill="#000000" font-family="sans-serif" font-size="12" lengthAdjust="spacingAndGlyphs" textLength="106" x="203.5" y="197.5576">ConcreteAggregate</text><line style="stroke: #A80036; stroke-width: 1.5;" x1="175.5" x2="311.5" y1="208" y2="208"/><line style="stroke: #A80036; stroke-width: 1.5;" x1="175.5" x2="311.5" y1="216" y2="216"/><text fill="#000000" font-family="sans-serif" font-size="11" lengthAdjust="spacingAndGlyphs" textLength="73" x="180.5" y="232.606">createIterator()</text><path d="M348,184.5 L348,203.5 L312.793,207.5 L348,211.5 L348,230.0088 A0,0 0 0 0 348,230.0088 L577,230.0088 A0,0 0 0 0 577,230.0088 L577,194.5 L567,184.5 L348,184.5 A0,0 0 0 0 348,184.5 " fill="#FBFB77" filter="url(#fvav8wiwqqimf)" style="stroke: #A80036; stroke-width: 1.0;"/><path d="M567,184.5 L567,194.5 L577,194.5 L567,184.5 " fill="#FBFB77" style="stroke: #A80036; stroke-width: 1.0;"/><text fill="#000000" font-family="sans-serif" font-size="13" lengthAdjust="spacingAndGlyphs" textLength="208" x="354" y="204.3979">将集合的遍历职责委托到跌倒器中，</text><text fill="#000000" font-family="sans-serif" font-size="13" lengthAdjust="spacingAndGlyphs" textLength="156" x="354" y="222.1523">让集合集中维护自己的功能</text><!--class Iterator--><rect fill="#FEFECE" filter="url(#fvav8wiwqqimf)" height="93.0688" id="Iterator" style="stroke: #A80036; stroke-width: 1.5;" width="71" x="6" y="8"/><ellipse cx="21" cy="24" fill="#B4A7E5" rx="11" ry="11" style="stroke: #A80036; stroke-width: 1.0;"/><path d="M17.875,20 L17.875,18.3125 L23.8125,18.3125 L23.8125,20 L21.9375,20 Q21.7813,20 21.7344,20.0313 Q21.6875,20.0625 21.6875,20.1094 L21.6875,28.2031 Q21.6875,28.25 21.7344,28.2813 Q21.7813,28.3125 21.9375,28.3125 L23.8125,28.3125 L23.8125,30 L17.875,30 L17.875,28.3125 L19.75,28.3125 Q19.9531,28.3125 19.9766,28.2969 Q20,28.2813 20,28.2031 L20,20.1094 Q20,20.0313 19.9766,20.0156 Q19.9531,20 19.75,20 L17.875,20 Z "/><text fill="#000000" font-family="sans-serif" font-size="12" font-style="italic" lengthAdjust="spacingAndGlyphs" textLength="39" x="35" y="29.5576">Iterator</text><line style="stroke: #A80036; stroke-width: 1.5;" x1="7" x2="76" y1="40" y2="40"/><line style="stroke: #A80036; stroke-width: 1.5;" x1="7" x2="76" y1="48" y2="48"/><text fill="#000000" font-family="sans-serif" font-size="11" lengthAdjust="spacingAndGlyphs" textLength="48" x="12" y="64.606">hasNext()</text><text fill="#000000" font-family="sans-serif" font-size="11" lengthAdjust="spacingAndGlyphs" textLength="29" x="12" y="79.6289">next()</text><text fill="#000000" font-family="sans-serif" font-size="11" lengthAdjust="spacingAndGlyphs" textLength="44" x="12" y="94.6519">remove()</text><!--class ConcreteIterator--><rect fill="#FEFECE" filter="url(#fvav8wiwqqimf)" height="93.0688" id="ConcreteIterator" style="stroke: #A80036; stroke-width: 1.5;" width="120" x="6.5" y="161"/><ellipse cx="21.5" cy="177" fill="#ADD1B2" rx="11" ry="11" style="stroke: #A80036; stroke-width: 1.0;"/><path d="M21.1875,183 Q19.25,183 18.125,181.5703 Q17,180.1406 17,177.1875 Q17,174.6875 18.1875,173 Q19.375,171.3125 21.4375,171.3125 Q21.8906,171.3125 22.3281,171.3125 Q22.7656,171.3125 23.0781,171.3125 Q23.3281,171.3125 23.4922,171.3125 Q23.6563,171.3125 24.0625,171.3125 L24.7656,175 L23.7031,175 Q23.2656,173.9063 22.6953,173.4531 Q22.125,173 21.2031,173 Q20.0469,173 19.3672,174.1797 Q18.6875,175.3594 18.6875,177.1875 Q18.6875,179.2031 19.2109,180.2578 Q19.7344,181.3125 21.1406,181.3125 Q22.0625,181.3125 22.7109,180.7422 Q23.3594,180.1719 23.7031,178.7813 L24.7344,179.2969 Q24.3438,181.0469 23.4063,182.0234 Q22.4688,183 21.1875,183 Z "/><text fill="#000000" font-family="sans-serif" font-size="12" lengthAdjust="spacingAndGlyphs" textLength="88" x="35.5" y="182.5576">ConcreteIterator</text><line style="stroke: #A80036; stroke-width: 1.5;" x1="7.5" x2="125.5" y1="193" y2="193"/><line style="stroke: #A80036; stroke-width: 1.5;" x1="7.5" x2="125.5" y1="201" y2="201"/><text fill="#000000" font-family="sans-serif" font-size="11" lengthAdjust="spacingAndGlyphs" textLength="48" x="12.5" y="217.606">hasNext()</text><text fill="#000000" font-family="sans-serif" font-size="11" lengthAdjust="spacingAndGlyphs" textLength="29" x="12.5" y="232.6289">next()</text><text fill="#000000" font-family="sans-serif" font-size="11" lengthAdjust="spacingAndGlyphs" textLength="44" x="12.5" y="247.6519">remove()</text><!--class Client--><rect fill="#FEFECE" filter="url(#fvav8wiwqqimf)" height="48" id="Client" style="stroke: #A80036; stroke-width: 1.5;" width="64" x="112.5" y="30.5"/><ellipse cx="127.5" cy="46.5" fill="#ADD1B2" rx="11" ry="11" style="stroke: #A80036; stroke-width: 1.0;"/><path d="M127.1875,52.5 Q125.25,52.5 124.125,51.0703 Q123,49.6406 123,46.6875 Q123,44.1875 124.1875,42.5 Q125.375,40.8125 127.4375,40.8125 Q127.8906,40.8125 128.3281,40.8125 Q128.7656,40.8125 129.0781,40.8125 Q129.3281,40.8125 129.4922,40.8125 Q129.6563,40.8125 130.0625,40.8125 L130.7656,44.5 L129.7031,44.5 Q129.2656,43.4063 128.6953,42.9531 Q128.125,42.5 127.2031,42.5 Q126.0469,42.5 125.3672,43.6797 Q124.6875,44.8594 124.6875,46.6875 Q124.6875,48.7031 125.2109,49.7578 Q125.7344,50.8125 127.1406,50.8125 Q128.0625,50.8125 128.7109,50.2422 Q129.3594,49.6719 129.7031,48.2813 L130.7344,48.7969 Q130.3438,50.5469 129.4063,51.5234 Q128.4688,52.5 127.1875,52.5 Z "/><text fill="#000000" font-family="sans-serif" font-size="12" lengthAdjust="spacingAndGlyphs" textLength="32" x="141.5" y="52.0576">Client</text><line style="stroke: #A80036; stroke-width: 1.5;" x1="113.5" x2="175.5" y1="62.5" y2="62.5"/><line style="stroke: #A80036; stroke-width: 1.5;" x1="113.5" x2="175.5" y1="70.5" y2="70.5"/><!--link Aggregate to ConcreteAggregate--><path d="M252.148,106.056 C250.152,129.232 247.853,155.9407 246.127,175.9883 " fill="none" id="Aggregate-ConcreteAggregate" style="stroke: #A80036; stroke-width: 1.0; stroke-dasharray: 7.0,7.0;"/><polygon fill="none" points="245.179,105.383,253.869,86.057,259.128,106.584,245.179,105.383" style="stroke: #A80036; stroke-width: 1.0;"/><!--link Iterator to ConcreteIterator--><path d="M52.3553,121.066 C54.5814,134.512 56.8784,148.385 58.9571,160.9406 " fill="none" id="Iterator-ConcreteIterator" style="stroke: #A80036; stroke-width: 1.0; stroke-dasharray: 7.0,7.0;"/><polygon fill="none" points="45.4295,122.09,49.0687,101.215,59.2415,119.803,45.4295,122.09" style="stroke: #A80036; stroke-width: 1.0;"/><!--link ConcreteIterator to ConcreteAggregate--><path d="M131.844,207.5 C145.937,207.5 160.029,207.5 174.122,207.5 " fill="none" id="ConcreteIterator-ConcreteAggregate" style="stroke: #A80036; stroke-width: 1.0;"/><polygon fill="#A80036" points="126.652,207.5,135.652,211.5,131.652,207.5,135.652,203.5,126.652,207.5" style="stroke: #A80036; stroke-width: 1.0;"/><!--link Client to Aggregate--><path d="M176.875,54.5 C186.763,54.5 196.652,54.5 206.54,54.5 " fill="none" id="Client-Aggregate" style="stroke: #A80036; stroke-width: 1.0;"/><polygon fill="#A80036" points="211.711,54.5,202.711,50.5,206.711,54.5,202.711,58.5,211.711,54.5" style="stroke: #A80036; stroke-width: 1.0;"/><!--link Iterator to Client--><path d="M82.5292,54.5 C92.5125,54.5 102.4958,54.5 112.479,54.5 " fill="none" id="Iterator-Client" style="stroke: #A80036; stroke-width: 1.0;"/><polygon fill="#A80036" points="77.3086,54.5,86.3086,58.5,82.3086,54.5,86.3086,50.5,77.3086,54.5" style="stroke: #A80036; stroke-width: 1.0;"/><!--
@startuml

interface Aggregate{
    createIterator()
}


class ConcreteAggregate{
        createIterator()
}
note right: 将集合的遍历职责委托到跌倒器中，\n让集合集中维护自己的功能

interface Iterator{
    hasNext()
    next()
    remove()
}

class ConcreteIterator{
        hasNext()
        next()
        remove()
}

Aggregate <|.. ConcreteAggregate
Iterator <|.. ConcreteIterator

ConcreteIterator <- ConcreteAggregate

Client -> Aggregate
Iterator <- Client


@enduml

PlantUML version 1.2018.11(Sun Sep 23 00:43:53 CST 2018)
(GPL source distribution)
Java Runtime: OpenJDK Runtime Environment
JVM: OpenJDK 64-Bit Server VM
Java Version: 1.8.0_152-release-1248-b22
Operating System: Windows 10
OS Version: 10.0
Default Encoding: GBK
Language: zh
Country: CN
--></g></svg>