<?xml version="1.0" encoding="UTF-8" standalone="no"?><svg xmlns="http://www.w3.org/2000/svg" xmlns:xlink="http://www.w3.org/1999/xlink" contentScriptType="application/ecmascript" contentStyleType="text/css" height="80.4px" preserveAspectRatio="none" style="width:499px;height:80px;" version="1.1" viewBox="0 0 499 80" width="499.2px" zoomAndPan="magnify"><defs><filter height="300%" id="fsxtcwz6e1vu" width="300%" x="-1" y="-1"><feGaussianBlur result="blurOut" stdDeviation="2.4000000953674316"/><feColorMatrix in="blurOut" result="blurOut2" type="matrix" values="0 0 0 0 0 0 0 0 0 0 0 0 0 0 0 0 0 0 .4 0"/><feOffset dx="4.800000190734863" dy="4.800000190734863" in="blurOut2" result="blurOut3"/><feBlend in="SourceGraphic" in2="blurOut3" mode="normal"/></filter></defs><g><!--class Client--><rect fill="#FEFECE" filter="url(#fsxtcwz6e1vu)" height="57.6" id="Client" style="stroke: #A80036; stroke-width: 1.8000000715255737;" width="76.8" x="7.2" y="9.6"/><ellipse cx="25.2" cy="28.8" fill="#ADD1B2" rx="13.2" ry="13.2" style="stroke: #A80036; stroke-width: 1.2000000476837158;"/><path d="M24.825,36 Q22.5,36 21.15,34.2844 Q19.8,32.5688 19.8,29.025 Q19.8,26.025 21.225,24 Q22.65,21.975 25.125,21.975 Q25.6688,21.975 26.1938,21.975 Q26.7188,21.975 27.0938,21.975 Q27.3938,21.975 27.5906,21.975 Q27.7875,21.975 28.275,21.975 L29.1188,26.4 L27.8438,26.4 Q27.3188,25.0875 26.6344,24.5438 Q25.95,24 24.8438,24 Q23.4563,24 22.6406,25.4156 Q21.825,26.8313 21.825,29.025 Q21.825,31.4438 22.4531,32.7094 Q23.0813,33.975 24.7688,33.975 Q25.875,33.975 26.6531,33.2906 Q27.4313,32.6063 27.8438,30.9375 L29.0813,31.5563 Q28.6125,33.6563 27.4875,34.8281 Q26.3625,36 24.825,36 Z "/><text fill="#000000" font-family="sans-serif" font-size="14.4" lengthAdjust="spacingAndGlyphs" textLength="38.4" x="42" y="35.4691">Client</text><line style="stroke: #A80036; stroke-width: 1.8000000715255737;" x1="8.4" x2="82.8" y1="48" y2="48"/><line style="stroke: #A80036; stroke-width: 1.8000000715255737;" x1="8.4" x2="82.8" y1="57.6" y2="57.6"/><!--class Proxy--><rect fill="#FEFECE" filter="url(#fsxtcwz6e1vu)" height="57.6" id="Proxy" style="stroke: #A80036; stroke-width: 1.8000000715255737;" width="73.2" x="189" y="9.6"/><ellipse cx="207" cy="28.8" fill="#ADD1B2" rx="13.2" ry="13.2" style="stroke: #A80036; stroke-width: 1.2000000476837158;"/><path d="M206.625,36 Q204.3,36 202.95,34.2844 Q201.6,32.5688 201.6,29.025 Q201.6,26.025 203.025,24 Q204.45,21.975 206.925,21.975 Q207.4688,21.975 207.9938,21.975 Q208.5188,21.975 208.8938,21.975 Q209.1938,21.975 209.3906,21.975 Q209.5875,21.975 210.075,21.975 L210.9188,26.4 L209.6438,26.4 Q209.1188,25.0875 208.4344,24.5438 Q207.75,24 206.6438,24 Q205.2563,24 204.4406,25.4156 Q203.625,26.8313 203.625,29.025 Q203.625,31.4438 204.2531,32.7094 Q204.8813,33.975 206.5688,33.975 Q207.675,33.975 208.4531,33.2906 Q209.2313,32.6063 209.6438,30.9375 L210.8813,31.5563 Q210.4125,33.6563 209.2875,34.8281 Q208.1625,36 206.625,36 Z "/><text fill="#000000" font-family="sans-serif" font-size="14.4" lengthAdjust="spacingAndGlyphs" textLength="34.8" x="223.8" y="35.4691">Proxy</text><line style="stroke: #A80036; stroke-width: 1.8000000715255737;" x1="190.2" x2="261" y1="48" y2="48"/><line style="stroke: #A80036; stroke-width: 1.8000000715255737;" x1="190.2" x2="261" y1="57.6" y2="57.6"/><!--class RealSubject--><rect fill="#FEFECE" filter="url(#fsxtcwz6e1vu)" height="57.6" id="RealSubject" style="stroke: #A80036; stroke-width: 1.8000000715255737;" width="118.8" x="367.8" y="9.6"/><ellipse cx="385.8" cy="28.8" fill="#ADD1B2" rx="13.2" ry="13.2" style="stroke: #A80036; stroke-width: 1.2000000476837158;"/><path d="M385.425,36 Q383.1,36 381.75,34.2844 Q380.4,32.5688 380.4,29.025 Q380.4,26.025 381.825,24 Q383.25,21.975 385.725,21.975 Q386.2688,21.975 386.7938,21.975 Q387.3188,21.975 387.6938,21.975 Q387.9938,21.975 388.1906,21.975 Q388.3875,21.975 388.875,21.975 L389.7188,26.4 L388.4438,26.4 Q387.9188,25.0875 387.2344,24.5438 Q386.55,24 385.4438,24 Q384.0563,24 383.2406,25.4156 Q382.425,26.8313 382.425,29.025 Q382.425,31.4438 383.0531,32.7094 Q383.6813,33.975 385.3688,33.975 Q386.475,33.975 387.2531,33.2906 Q388.0313,32.6063 388.4438,30.9375 L389.6813,31.5563 Q389.2125,33.6563 388.0875,34.8281 Q386.9625,36 385.425,36 Z "/><text fill="#000000" font-family="sans-serif" font-size="14.4" lengthAdjust="spacingAndGlyphs" textLength="80.4" x="402.6" y="35.4691">RealSubject</text><line style="stroke: #A80036; stroke-width: 1.8000000715255737;" x1="369" x2="485.4" y1="48" y2="48"/><line style="stroke: #A80036; stroke-width: 1.8000000715255737;" x1="369" x2="485.4" y1="57.6" y2="57.6"/><!--link Client to Proxy--><path d="M90.5428,38.4 C118.7543,38.4 154.926,38.4 182.7336,38.4 " fill="none" id="Client-Proxy" style="stroke: #A80036; stroke-width: 1.2000000476837158;"/><polygon fill="#A80036" points="188.8932,38.4,178.0932,33.6,182.8932,38.4,178.0932,43.2,188.8932,38.4" style="stroke: #A80036; stroke-width: 1.2000000476837158;"/><polygon fill="#A80036" points="84.2146,38.4,95.0146,43.2,90.2146,38.4,95.0146,33.6,84.2146,38.4" style="stroke: #A80036; stroke-width: 1.2000000476837158;"/><text fill="#000000" font-family="sans-serif" font-size="15.6" lengthAdjust="spacingAndGlyphs" textLength="61.2" x="105.9" y="31.0775">request()</text><!--link Proxy to RealSubject--><path d="M268.938,38.4 C295.914,38.4 331.1364,38.4 361.5012,38.4 " fill="none" id="Proxy-RealSubject" style="stroke: #A80036; stroke-width: 1.2000000476837158;"/><polygon fill="#A80036" points="367.506,38.4,356.706,33.6,361.506,38.4,356.706,43.2,367.506,38.4" style="stroke: #A80036; stroke-width: 1.2000000476837158;"/><polygon fill="#A80036" points="262.5768,38.4,273.3768,43.2,268.5768,38.4,273.3768,33.6,262.5768,38.4" style="stroke: #A80036; stroke-width: 1.2000000476837158;"/><text fill="#000000" font-family="sans-serif" font-size="15.6" lengthAdjust="spacingAndGlyphs" textLength="61.2" x="284.4" y="31.0775">request()</text><!--
@startuml

class Client{

}

Client <-> Proxy: request()
Proxy <-> RealSubject: request()

@enduml

PlantUML version 1.2018.11(Sun Sep 23 00:43:53 CST 2018)
(GPL source distribution)
Java Runtime: OpenJDK Runtime Environment
JVM: OpenJDK 64-Bit Server VM
Java Version: 1.8.0_152-release-1248-b22
Operating System: Windows 10
OS Version: 10.0
Default Encoding: GBK
Language: zh
Country: CN
--></g></svg>