<?xml version="1.0" encoding="UTF-8" standalone="no"?><svg xmlns="http://www.w3.org/2000/svg" xmlns:xlink="http://www.w3.org/1999/xlink" contentScriptType="application/ecmascript" contentStyleType="text/css" height="187.2px" preserveAspectRatio="none" style="width:620px;height:187px;" version="1.1" viewBox="0 0 620 187" width="620.4px" zoomAndPan="magnify"><defs><filter height="300%" id="f7cz7rqe0zx8w" width="300%" x="-1" y="-1"><feGaussianBlur result="blurOut" stdDeviation="2.4000000953674316"/><feColorMatrix in="blurOut" result="blurOut2" type="matrix" values="0 0 0 0 0 0 0 0 0 0 0 0 0 0 0 0 0 0 .4 0"/><feOffset dx="4.800000190734863" dy="4.800000190734863" in="blurOut2" result="blurOut3"/><feBlend in="SourceGraphic" in2="blurOut3" mode="normal"/></filter></defs><g><!--class Client--><rect fill="#FEFECE" filter="url(#f7cz7rqe0zx8w)" height="57.6" id="Client" style="stroke: #A80036; stroke-width: 1.8000000715255737;" width="76.8" x="88.2" y="116.4"/><ellipse cx="106.2" cy="135.6" fill="#ADD1B2" rx="13.2" ry="13.2" style="stroke: #A80036; stroke-width: 1.2000000476837158;"/><path d="M105.825,142.8 Q103.5,142.8 102.15,141.0844 Q100.8,139.3688 100.8,135.825 Q100.8,132.825 102.225,130.8 Q103.65,128.775 106.125,128.775 Q106.6688,128.775 107.1938,128.775 Q107.7188,128.775 108.0938,128.775 Q108.3938,128.775 108.5906,128.775 Q108.7875,128.775 109.275,128.775 L110.1188,133.2 L108.8438,133.2 Q108.3188,131.8875 107.6344,131.3438 Q106.95,130.8 105.8438,130.8 Q104.4563,130.8 103.6406,132.2156 Q102.825,133.6313 102.825,135.825 Q102.825,138.2438 103.4531,139.5094 Q104.0813,140.775 105.7688,140.775 Q106.875,140.775 107.6531,140.0906 Q108.4313,139.4063 108.8438,137.7375 L110.0813,138.3563 Q109.6125,140.4563 108.4875,141.6281 Q107.3625,142.8 105.825,142.8 Z "/><text fill="#000000" font-family="sans-serif" font-size="14.4" lengthAdjust="spacingAndGlyphs" textLength="38.4" x="123" y="142.2691">Client</text><line style="stroke: #A80036; stroke-width: 1.8000000715255737;" x1="89.4" x2="163.8" y1="154.8" y2="154.8"/><line style="stroke: #A80036; stroke-width: 1.8000000715255737;" x1="89.4" x2="163.8" y1="164.4" y2="164.4"/><!--class Proxy--><rect fill="#FEFECE" filter="url(#f7cz7rqe0zx8w)" height="57.6" id="Proxy" style="stroke: #A80036; stroke-width: 1.8000000715255737;" width="73.2" x="270" y="116.4"/><ellipse cx="288" cy="135.6" fill="#ADD1B2" rx="13.2" ry="13.2" style="stroke: #A80036; stroke-width: 1.2000000476837158;"/><path d="M287.625,142.8 Q285.3,142.8 283.95,141.0844 Q282.6,139.3688 282.6,135.825 Q282.6,132.825 284.025,130.8 Q285.45,128.775 287.925,128.775 Q288.4688,128.775 288.9938,128.775 Q289.5188,128.775 289.8938,128.775 Q290.1938,128.775 290.3906,128.775 Q290.5875,128.775 291.075,128.775 L291.9188,133.2 L290.6438,133.2 Q290.1188,131.8875 289.4344,131.3438 Q288.75,130.8 287.6438,130.8 Q286.2563,130.8 285.4406,132.2156 Q284.625,133.6313 284.625,135.825 Q284.625,138.2438 285.2531,139.5094 Q285.8813,140.775 287.5688,140.775 Q288.675,140.775 289.4531,140.0906 Q290.2313,139.4063 290.6438,137.7375 L291.8813,138.3563 Q291.4125,140.4563 290.2875,141.6281 Q289.1625,142.8 287.625,142.8 Z "/><text fill="#000000" font-family="sans-serif" font-size="14.4" lengthAdjust="spacingAndGlyphs" textLength="34.8" x="304.8" y="142.2691">Proxy</text><line style="stroke: #A80036; stroke-width: 1.8000000715255737;" x1="271.2" x2="342" y1="154.8" y2="154.8"/><line style="stroke: #A80036; stroke-width: 1.8000000715255737;" x1="271.2" x2="342" y1="164.4" y2="164.4"/><path d="M7.2,9.6 L7.2,42.9053 A0,0 0 0 0 7.2,42.9053 L301.8,42.9053 L306.6,116.0777 L311.4,42.9053 L606,42.9053 A0,0 0 0 0 606,42.9053 L606,21.6 L594,9.6 L7.2,9.6 A0,0 0 0 0 7.2,9.6 " fill="#FBFB77" filter="url(#f7cz7rqe0zx8w)" style="stroke: #A80036; stroke-width: 1.2000000476837158;"/><path d="M594,9.6 L594,21.6 L606,21.6 L594,9.6 " fill="#FBFB77" style="stroke: #A80036; stroke-width: 1.2000000476837158;"/><text fill="#000000" font-family="sans-serif" font-size="15.6" lengthAdjust="spacingAndGlyphs" textLength="573.6" x="14.4" y="33.4775">代理可以处理这些请求。如果RealSubject已经创建了，代理请求委托给RealSubject</text><!--class RealSubject--><rect fill="#FEFECE" filter="url(#f7cz7rqe0zx8w)" height="57.6" id="RealSubject" style="stroke: #A80036; stroke-width: 1.8000000715255737;" width="118.8" x="448.8" y="116.4"/><ellipse cx="466.8" cy="135.6" fill="#ADD1B2" rx="13.2" ry="13.2" style="stroke: #A80036; stroke-width: 1.2000000476837158;"/><path d="M466.425,142.8 Q464.1,142.8 462.75,141.0844 Q461.4,139.3688 461.4,135.825 Q461.4,132.825 462.825,130.8 Q464.25,128.775 466.725,128.775 Q467.2688,128.775 467.7938,128.775 Q468.3188,128.775 468.6938,128.775 Q468.9938,128.775 469.1906,128.775 Q469.3875,128.775 469.875,128.775 L470.7188,133.2 L469.4438,133.2 Q468.9188,131.8875 468.2344,131.3438 Q467.55,130.8 466.4438,130.8 Q465.0563,130.8 464.2406,132.2156 Q463.425,133.6313 463.425,135.825 Q463.425,138.2438 464.0531,139.5094 Q464.6813,140.775 466.3688,140.775 Q467.475,140.775 468.2531,140.0906 Q469.0313,139.4063 469.4438,137.7375 L470.6813,138.3563 Q470.2125,140.4563 469.0875,141.6281 Q467.9625,142.8 466.425,142.8 Z "/><text fill="#000000" font-family="sans-serif" font-size="14.4" lengthAdjust="spacingAndGlyphs" textLength="80.4" x="483.6" y="142.2691">RealSubject</text><line style="stroke: #A80036; stroke-width: 1.8000000715255737;" x1="450" x2="566.4" y1="154.8" y2="154.8"/><line style="stroke: #A80036; stroke-width: 1.8000000715255737;" x1="450" x2="566.4" y1="164.4" y2="164.4"/><!--link Client to Proxy--><path d="M171.5424,145.2 C199.7544,145.2 235.926,145.2 263.7336,145.2 " fill="none" id="Client-Proxy" style="stroke: #A80036; stroke-width: 1.2000000476837158;"/><polygon fill="#A80036" points="269.8932,145.2,259.0932,140.4,263.8932,145.2,259.0932,150,269.8932,145.2" style="stroke: #A80036; stroke-width: 1.2000000476837158;"/><polygon fill="#A80036" points="165.2148,145.2,176.0148,150,171.2148,145.2,176.0148,140.4,165.2148,145.2" style="stroke: #A80036; stroke-width: 1.2000000476837158;"/><text fill="#000000" font-family="sans-serif" font-size="15.6" lengthAdjust="spacingAndGlyphs" textLength="61.2" x="186.9" y="137.8775">request()</text><!--link Proxy to RealSubject--><path d="M349.938,145.2 C376.914,145.2 412.1364,145.2 442.5012,145.2 " fill="none" id="Proxy-RealSubject" style="stroke: #A80036; stroke-width: 1.2000000476837158;"/><polygon fill="#A80036" points="448.506,145.2,437.706,140.4,442.506,145.2,437.706,150,448.506,145.2" style="stroke: #A80036; stroke-width: 1.2000000476837158;"/><polygon fill="#A80036" points="343.5768,145.2,354.3768,150,349.5768,145.2,354.3768,140.4,343.5768,145.2" style="stroke: #A80036; stroke-width: 1.2000000476837158;"/><text fill="#000000" font-family="sans-serif" font-size="15.6" lengthAdjust="spacingAndGlyphs" textLength="61.2" x="365.4" y="137.8775">request()</text><!--
@startuml

class Client{

}

class Proxy{
}
note top: 代理可以处理这些请求。如果RealSubject已经创建了，代理请求委托给RealSubject

Client <-> Proxy: request()
Proxy <-> RealSubject: request()

@enduml

PlantUML version 1.2018.11(Sun Sep 23 00:43:53 CST 2018)
(GPL source distribution)
Java Runtime: OpenJDK Runtime Environment
JVM: OpenJDK 64-Bit Server VM
Java Version: 1.8.0_152-release-1248-b22
Operating System: Windows 10
OS Version: 10.0
Default Encoding: GBK
Language: zh
Country: CN
--></g></svg>