<?xml version="1.0" encoding="UTF-8" standalone="no"?><svg xmlns="http://www.w3.org/2000/svg" xmlns:xlink="http://www.w3.org/1999/xlink" contentScriptType="application/ecmascript" contentStyleType="text/css" height="241.8px" preserveAspectRatio="none" style="width:432px;height:241px;" version="1.1" viewBox="0 0 432 241" width="432px" zoomAndPan="magnify"><defs><filter height="300%" id="f14v6l0tsuri6q" width="300%" x="-1" y="-1"><feGaussianBlur result="blurOut" stdDeviation="1.2000000476837158"/><feColorMatrix in="blurOut" result="blurOut2" type="matrix" values="0 0 0 0 0 0 0 0 0 0 0 0 0 0 0 0 0 0 .4 0"/><feOffset dx="2.4000000953674316" dy="2.4000000953674316" in="blurOut2" result="blurOut3"/><feBlend in="SourceGraphic" in2="blurOut3" mode="normal"/></filter></defs><g><!--class Beverage--><rect fill="#FEFECE" filter="url(#f14v6l0tsuri6q)" height="55.8413" id="Beverage" style="stroke: #A80036; stroke-width: 0.9000000357627869;" width="53.4" x="119.4" y="4.8"/><ellipse cx="129.48" cy="14.4" fill="#A9DCDF" rx="6.6" ry="6.6" style="stroke: #A80036; stroke-width: 0.6000000238418579;"/><path d="M130.1269,15 L128.4394,15 L127.9519,15.9656 Q127.9238,16.0594 127.9238,16.1438 Q127.9238,16.2563 127.9519,16.3219 Q127.98,16.3875 128.1113,16.3875 L128.4394,16.3875 L128.4394,17.4 L126.48,17.4 L126.48,16.3875 L126.8175,16.3875 Q126.9488,16.3875 127.0191,16.35 Q127.0894,16.3125 127.1175,16.2 L128.9738,10.3875 L129.7988,10.3875 L131.6175,16.1344 Q131.6738,16.275 131.7581,16.3313 Q131.8425,16.3875 131.955,16.3875 L132.2925,16.3875 L132.2925,17.4 L130.0988,17.4 L130.0988,16.3875 L130.4644,16.3875 Q130.5675,16.3875 130.5722,16.3781 Q130.5769,16.3688 130.5769,16.3313 Q130.5769,16.2281 130.5581,16.1719 L130.1269,15 Z M126.9956,16.8 L126.9956,16.8 Z M127.3988,16.8 L127.3988,16.8 Z M130.23,16.8 L130.23,16.8 Z M130.905,16.8 L130.905,16.8 Z M129.2269,11.6438 L129.2738,11.6438 L128.7581,13.9875 L129.93,13.9875 L129.2269,11.6438 Z "/><text fill="#000000" font-family="sans-serif" font-size="7.2" font-style="italic" lengthAdjust="spacingAndGlyphs" textLength="31.8" x="138.12" y="17.7346">Beverage</text><line style="stroke: #A80036; stroke-width: 0.9000000357627869;" x1="120" x2="172.2" y1="24" y2="24"/><text fill="#000000" font-family="sans-serif" font-size="6.6" lengthAdjust="spacingAndGlyphs" textLength="31.8" x="123" y="33.9636">description</text><line style="stroke: #A80036; stroke-width: 0.9000000357627869;" x1="120" x2="172.2" y1="37.8138" y2="37.8138"/><text fill="#000000" font-family="sans-serif" font-size="6.6" lengthAdjust="spacingAndGlyphs" textLength="46.2" x="123" y="47.7773">getDescription()</text><text fill="#000000" font-family="sans-serif" font-size="6.6" lengthAdjust="spacingAndGlyphs" textLength="17.4" x="123" y="56.7911">cost()</text><!--class HouseBlend--><rect fill="#FEFECE" filter="url(#f14v6l0tsuri6q)" height="37.8138" id="HouseBlend" style="stroke: #A80036; stroke-width: 0.9000000357627869;" width="60.6" x="3.6" y="101.1"/><ellipse cx="12.6" cy="110.7" fill="#ADD1B2" rx="6.6" ry="6.6" style="stroke: #A80036; stroke-width: 0.6000000238418579;"/><path d="M12.4125,114.3 Q11.25,114.3 10.575,113.4422 Q9.9,112.5844 9.9,110.8125 Q9.9,109.3125 10.6125,108.3 Q11.325,107.2875 12.5625,107.2875 Q12.8344,107.2875 13.0969,107.2875 Q13.3594,107.2875 13.5469,107.2875 Q13.6969,107.2875 13.7953,107.2875 Q13.8938,107.2875 14.1375,107.2875 L14.5594,109.5 L13.9219,109.5 Q13.6594,108.8438 13.3172,108.5719 Q12.975,108.3 12.4219,108.3 Q11.7281,108.3 11.3203,109.0078 Q10.9125,109.7156 10.9125,110.8125 Q10.9125,112.0219 11.2266,112.6547 Q11.5406,113.2875 12.3844,113.2875 Q12.9375,113.2875 13.3266,112.9453 Q13.7156,112.6031 13.9219,111.7688 L14.5406,112.0781 Q14.3063,113.1281 13.7438,113.7141 Q13.1813,114.3 12.4125,114.3 Z "/><text fill="#000000" font-family="sans-serif" font-size="7.2" lengthAdjust="spacingAndGlyphs" textLength="41.4" x="21" y="114.0346">HouseBlend</text><line style="stroke: #A80036; stroke-width: 0.9000000357627869;" x1="4.2" x2="63.6" y1="120.3" y2="120.3"/><line style="stroke: #A80036; stroke-width: 0.9000000357627869;" x1="4.2" x2="63.6" y1="125.1" y2="125.1"/><text fill="#000000" font-family="sans-serif" font-size="6.6" lengthAdjust="spacingAndGlyphs" textLength="17.4" x="7.2" y="135.0636">cost()</text><!--class DarkRoast--><rect fill="#FEFECE" filter="url(#f14v6l0tsuri6q)" height="37.8138" id="DarkRoast" style="stroke: #A80036; stroke-width: 0.9000000357627869;" width="54.6" x="85.2" y="101.1"/><ellipse cx="94.2" cy="110.7" fill="#ADD1B2" rx="6.6" ry="6.6" style="stroke: #A80036; stroke-width: 0.6000000238418579;"/><path d="M94.0125,114.3 Q92.85,114.3 92.175,113.4422 Q91.5,112.5844 91.5,110.8125 Q91.5,109.3125 92.2125,108.3 Q92.925,107.2875 94.1625,107.2875 Q94.4344,107.2875 94.6969,107.2875 Q94.9594,107.2875 95.1469,107.2875 Q95.2969,107.2875 95.3953,107.2875 Q95.4938,107.2875 95.7375,107.2875 L96.1594,109.5 L95.5219,109.5 Q95.2594,108.8438 94.9172,108.5719 Q94.575,108.3 94.0219,108.3 Q93.3281,108.3 92.9203,109.0078 Q92.5125,109.7156 92.5125,110.8125 Q92.5125,112.0219 92.8266,112.6547 Q93.1406,113.2875 93.9844,113.2875 Q94.5375,113.2875 94.9266,112.9453 Q95.3156,112.6031 95.5219,111.7688 L96.1406,112.0781 Q95.9063,113.1281 95.3438,113.7141 Q94.7813,114.3 94.0125,114.3 Z "/><text fill="#000000" font-family="sans-serif" font-size="7.2" lengthAdjust="spacingAndGlyphs" textLength="35.4" x="102.6" y="114.0346">DarkRoast</text><line style="stroke: #A80036; stroke-width: 0.9000000357627869;" x1="85.8" x2="139.2" y1="120.3" y2="120.3"/><line style="stroke: #A80036; stroke-width: 0.9000000357627869;" x1="85.8" x2="139.2" y1="125.1" y2="125.1"/><text fill="#000000" font-family="sans-serif" font-size="6.6" lengthAdjust="spacingAndGlyphs" textLength="17.4" x="88.8" y="135.0636">cost()</text><!--class Decaf--><rect fill="#FEFECE" filter="url(#f14v6l0tsuri6q)" height="37.8138" id="Decaf" style="stroke: #A80036; stroke-width: 0.9000000357627869;" width="38.4" x="161.1" y="101.1"/><ellipse cx="170.1" cy="110.7" fill="#ADD1B2" rx="6.6" ry="6.6" style="stroke: #A80036; stroke-width: 0.6000000238418579;"/><path d="M169.9125,114.3 Q168.75,114.3 168.075,113.4422 Q167.4,112.5844 167.4,110.8125 Q167.4,109.3125 168.1125,108.3 Q168.825,107.2875 170.0625,107.2875 Q170.3344,107.2875 170.5969,107.2875 Q170.8594,107.2875 171.0469,107.2875 Q171.1969,107.2875 171.2953,107.2875 Q171.3938,107.2875 171.6375,107.2875 L172.0594,109.5 L171.4219,109.5 Q171.1594,108.8438 170.8172,108.5719 Q170.475,108.3 169.9219,108.3 Q169.2281,108.3 168.8203,109.0078 Q168.4125,109.7156 168.4125,110.8125 Q168.4125,112.0219 168.7266,112.6547 Q169.0406,113.2875 169.8844,113.2875 Q170.4375,113.2875 170.8266,112.9453 Q171.2156,112.6031 171.4219,111.7688 L172.0406,112.0781 Q171.8063,113.1281 171.2438,113.7141 Q170.6813,114.3 169.9125,114.3 Z "/><text fill="#000000" font-family="sans-serif" font-size="7.2" lengthAdjust="spacingAndGlyphs" textLength="19.2" x="178.5" y="114.0346">Decaf</text><line style="stroke: #A80036; stroke-width: 0.9000000357627869;" x1="161.7" x2="198.9" y1="120.3" y2="120.3"/><line style="stroke: #A80036; stroke-width: 0.9000000357627869;" x1="161.7" x2="198.9" y1="125.1" y2="125.1"/><text fill="#000000" font-family="sans-serif" font-size="6.6" lengthAdjust="spacingAndGlyphs" textLength="17.4" x="164.7" y="135.0636">cost()</text><!--class CondimentDecorator--><rect fill="#FEFECE" filter="url(#f14v6l0tsuri6q)" height="46.8275" id="CondimentDecorator" style="stroke: #A80036; stroke-width: 0.9000000357627869;" width="88.2" x="220.8" y="96.6"/><ellipse cx="229.8" cy="106.2" fill="#A9DCDF" rx="6.6" ry="6.6" style="stroke: #A80036; stroke-width: 0.6000000238418579;"/><path d="M230.4469,106.8 L228.7594,106.8 L228.2719,107.7656 Q228.2438,107.8594 228.2438,107.9438 Q228.2438,108.0563 228.2719,108.1219 Q228.3,108.1875 228.4313,108.1875 L228.7594,108.1875 L228.7594,109.2 L226.8,109.2 L226.8,108.1875 L227.1375,108.1875 Q227.2688,108.1875 227.3391,108.15 Q227.4094,108.1125 227.4375,108 L229.2938,102.1875 L230.1188,102.1875 L231.9375,107.9344 Q231.9938,108.075 232.0781,108.1313 Q232.1625,108.1875 232.275,108.1875 L232.6125,108.1875 L232.6125,109.2 L230.4188,109.2 L230.4188,108.1875 L230.7844,108.1875 Q230.8875,108.1875 230.8922,108.1781 Q230.8969,108.1688 230.8969,108.1313 Q230.8969,108.0281 230.8781,107.9719 L230.4469,106.8 Z M227.3156,108.6 L227.3156,108.6 Z M227.7188,108.6 L227.7188,108.6 Z M230.55,108.6 L230.55,108.6 Z M231.225,108.6 L231.225,108.6 Z M229.5469,103.4438 L229.5938,103.4438 L229.0781,105.7875 L230.25,105.7875 L229.5469,103.4438 Z "/><text fill="#000000" font-family="sans-serif" font-size="7.2" font-style="italic" lengthAdjust="spacingAndGlyphs" textLength="69" x="238.2" y="109.5346">CondimentDecorator</text><line style="stroke: #A80036; stroke-width: 0.9000000357627869;" x1="221.4" x2="308.4" y1="115.8" y2="115.8"/><text fill="#000000" font-family="sans-serif" font-size="6.6" lengthAdjust="spacingAndGlyphs" textLength="57.6" x="224.4" y="125.7636">Beverage beverage</text><line style="stroke: #A80036; stroke-width: 0.9000000357627869;" x1="221.4" x2="308.4" y1="129.6138" y2="129.6138"/><text fill="#000000" font-family="sans-serif" font-size="6.6" lengthAdjust="spacingAndGlyphs" textLength="46.2" x="224.4" y="139.5773">getDescription()</text><!--class Milk--><rect fill="#FEFECE" filter="url(#f14v6l0tsuri6q)" height="55.8413" id="Milk" style="stroke: #A80036; stroke-width: 0.9000000357627869;" width="64.8" x="103.5" y="179.4"/><ellipse cx="127.35" cy="189" fill="#ADD1B2" rx="6.6" ry="6.6" style="stroke: #A80036; stroke-width: 0.6000000238418579;"/><path d="M127.1625,192.6 Q126,192.6 125.325,191.7422 Q124.65,190.8844 124.65,189.1125 Q124.65,187.6125 125.3625,186.6 Q126.075,185.5875 127.3125,185.5875 Q127.5844,185.5875 127.8469,185.5875 Q128.1094,185.5875 128.2969,185.5875 Q128.4469,185.5875 128.5453,185.5875 Q128.6438,185.5875 128.8875,185.5875 L129.3094,187.8 L128.6719,187.8 Q128.4094,187.1438 128.0672,186.8719 Q127.725,186.6 127.1719,186.6 Q126.4781,186.6 126.0703,187.3078 Q125.6625,188.0156 125.6625,189.1125 Q125.6625,190.3219 125.9766,190.9547 Q126.2906,191.5875 127.1344,191.5875 Q127.6875,191.5875 128.0766,191.2453 Q128.4656,190.9031 128.6719,190.0688 L129.2906,190.3781 Q129.0563,191.4281 128.4938,192.0141 Q127.9313,192.6 127.1625,192.6 Z "/><text fill="#000000" font-family="sans-serif" font-size="7.2" lengthAdjust="spacingAndGlyphs" textLength="12.6" x="139.05" y="192.3346">Milk</text><line style="stroke: #A80036; stroke-width: 0.9000000357627869;" x1="104.1" x2="167.7" y1="198.6" y2="198.6"/><text fill="#000000" font-family="sans-serif" font-size="6.6" lengthAdjust="spacingAndGlyphs" textLength="57.6" x="107.1" y="208.5636">Beverage beverage</text><line style="stroke: #A80036; stroke-width: 0.9000000357627869;" x1="104.1" x2="167.7" y1="212.4138" y2="212.4138"/><text fill="#000000" font-family="sans-serif" font-size="6.6" lengthAdjust="spacingAndGlyphs" textLength="17.4" x="107.1" y="222.3774">cost()</text><text fill="#000000" font-family="sans-serif" font-size="6.6" lengthAdjust="spacingAndGlyphs" textLength="46.2" x="107.1" y="231.3911">getDescription()</text><!--class Mocha--><rect fill="#FEFECE" filter="url(#f14v6l0tsuri6q)" height="55.8413" id="Mocha" style="stroke: #A80036; stroke-width: 0.9000000357627869;" width="64.8" x="189.3" y="179.4"/><ellipse cx="209.1" cy="189" fill="#ADD1B2" rx="6.6" ry="6.6" style="stroke: #A80036; stroke-width: 0.6000000238418579;"/><path d="M208.9125,192.6 Q207.75,192.6 207.075,191.7422 Q206.4,190.8844 206.4,189.1125 Q206.4,187.6125 207.1125,186.6 Q207.825,185.5875 209.0625,185.5875 Q209.3344,185.5875 209.5969,185.5875 Q209.8594,185.5875 210.0469,185.5875 Q210.1969,185.5875 210.2953,185.5875 Q210.3938,185.5875 210.6375,185.5875 L211.0594,187.8 L210.4219,187.8 Q210.1594,187.1438 209.8172,186.8719 Q209.475,186.6 208.9219,186.6 Q208.2281,186.6 207.8203,187.3078 Q207.4125,188.0156 207.4125,189.1125 Q207.4125,190.3219 207.7266,190.9547 Q208.0406,191.5875 208.8844,191.5875 Q209.4375,191.5875 209.8266,191.2453 Q210.2156,190.9031 210.4219,190.0688 L211.0406,190.3781 Q210.8063,191.4281 210.2438,192.0141 Q209.6813,192.6 208.9125,192.6 Z "/><text fill="#000000" font-family="sans-serif" font-size="7.2" lengthAdjust="spacingAndGlyphs" textLength="21.6" x="219.9" y="192.3346">Mocha</text><line style="stroke: #A80036; stroke-width: 0.9000000357627869;" x1="189.9" x2="253.5" y1="198.6" y2="198.6"/><text fill="#000000" font-family="sans-serif" font-size="6.6" lengthAdjust="spacingAndGlyphs" textLength="57.6" x="192.9" y="208.5636">Beverage beverage</text><line style="stroke: #A80036; stroke-width: 0.9000000357627869;" x1="189.9" x2="253.5" y1="212.4138" y2="212.4138"/><text fill="#000000" font-family="sans-serif" font-size="6.6" lengthAdjust="spacingAndGlyphs" textLength="17.4" x="192.9" y="222.3774">cost()</text><text fill="#000000" font-family="sans-serif" font-size="6.6" lengthAdjust="spacingAndGlyphs" textLength="46.2" x="192.9" y="231.3911">getDescription()</text><!--class Soy--><rect fill="#FEFECE" filter="url(#f14v6l0tsuri6q)" height="55.8413" id="Soy" style="stroke: #A80036; stroke-width: 0.9000000357627869;" width="64.8" x="275.1" y="179.4"/><ellipse cx="299.22" cy="189" fill="#ADD1B2" rx="6.6" ry="6.6" style="stroke: #A80036; stroke-width: 0.6000000238418579;"/><path d="M299.0325,192.6 Q297.87,192.6 297.195,191.7422 Q296.52,190.8844 296.52,189.1125 Q296.52,187.6125 297.2325,186.6 Q297.945,185.5875 299.1825,185.5875 Q299.4544,185.5875 299.7169,185.5875 Q299.9794,185.5875 300.1669,185.5875 Q300.3169,185.5875 300.4153,185.5875 Q300.5138,185.5875 300.7575,185.5875 L301.1794,187.8 L300.5419,187.8 Q300.2794,187.1438 299.9372,186.8719 Q299.595,186.6 299.0419,186.6 Q298.3481,186.6 297.9403,187.3078 Q297.5325,188.0156 297.5325,189.1125 Q297.5325,190.3219 297.8466,190.9547 Q298.1606,191.5875 299.0044,191.5875 Q299.5575,191.5875 299.9466,191.2453 Q300.3356,190.9031 300.5419,190.0688 L301.1606,190.3781 Q300.9263,191.4281 300.3638,192.0141 Q299.8013,192.6 299.0325,192.6 Z "/><text fill="#000000" font-family="sans-serif" font-size="7.2" lengthAdjust="spacingAndGlyphs" textLength="12" x="310.98" y="192.3346">Soy</text><line style="stroke: #A80036; stroke-width: 0.9000000357627869;" x1="275.7" x2="339.3" y1="198.6" y2="198.6"/><text fill="#000000" font-family="sans-serif" font-size="6.6" lengthAdjust="spacingAndGlyphs" textLength="57.6" x="278.7" y="208.5636">Beverage beverage</text><line style="stroke: #A80036; stroke-width: 0.9000000357627869;" x1="275.7" x2="339.3" y1="212.4138" y2="212.4138"/><text fill="#000000" font-family="sans-serif" font-size="6.6" lengthAdjust="spacingAndGlyphs" textLength="17.4" x="278.7" y="222.3774">cost()</text><text fill="#000000" font-family="sans-serif" font-size="6.6" lengthAdjust="spacingAndGlyphs" textLength="46.2" x="278.7" y="231.3911">getDescription()</text><!--class Whip--><rect fill="#FEFECE" filter="url(#f14v6l0tsuri6q)" height="55.8413" id="Whip" style="stroke: #A80036; stroke-width: 0.9000000357627869;" width="64.8" x="360.9" y="179.4"/><ellipse cx="382.86" cy="189" fill="#ADD1B2" rx="6.6" ry="6.6" style="stroke: #A80036; stroke-width: 0.6000000238418579;"/><path d="M382.6725,192.6 Q381.51,192.6 380.835,191.7422 Q380.16,190.8844 380.16,189.1125 Q380.16,187.6125 380.8725,186.6 Q381.585,185.5875 382.8225,185.5875 Q383.0944,185.5875 383.3569,185.5875 Q383.6194,185.5875 383.8069,185.5875 Q383.9569,185.5875 384.0553,185.5875 Q384.1538,185.5875 384.3975,185.5875 L384.8194,187.8 L384.1819,187.8 Q383.9194,187.1438 383.5772,186.8719 Q383.235,186.6 382.6819,186.6 Q381.9881,186.6 381.5803,187.3078 Q381.1725,188.0156 381.1725,189.1125 Q381.1725,190.3219 381.4866,190.9547 Q381.8006,191.5875 382.6444,191.5875 Q383.1975,191.5875 383.5866,191.2453 Q383.9756,190.9031 384.1819,190.0688 L384.8006,190.3781 Q384.5663,191.4281 384.0038,192.0141 Q383.4413,192.6 382.6725,192.6 Z "/><text fill="#000000" font-family="sans-serif" font-size="7.2" lengthAdjust="spacingAndGlyphs" textLength="16.8" x="394.14" y="192.3346">Whip</text><line style="stroke: #A80036; stroke-width: 0.9000000357627869;" x1="361.5" x2="425.1" y1="198.6" y2="198.6"/><text fill="#000000" font-family="sans-serif" font-size="6.6" lengthAdjust="spacingAndGlyphs" textLength="57.6" x="364.5" y="208.5636">Beverage beverage</text><line style="stroke: #A80036; stroke-width: 0.9000000357627869;" x1="361.5" x2="425.1" y1="212.4138" y2="212.4138"/><text fill="#000000" font-family="sans-serif" font-size="6.6" lengthAdjust="spacingAndGlyphs" textLength="17.4" x="364.5" y="222.3774">cost()</text><text fill="#000000" font-family="sans-serif" font-size="6.6" lengthAdjust="spacingAndGlyphs" textLength="46.2" x="364.5" y="231.3911">getDescription()</text><!--link Beverage to HouseBlend--><path d="M109.6074,61.3038 C92.6406,74.3238 72.936,89.4444 57.8837,100.9956 " fill="none" id="Beverage-HouseBlend" style="stroke: #A80036; stroke-width: 0.6000000238418579;"/><polygon fill="none" points="107.1486,57.8964,119.2254,53.9232,112.2624,64.5606,107.1486,57.8964" style="stroke: #A80036; stroke-width: 0.6000000238418579;"/><!--link Beverage to DarkRoast--><path d="M130.9746,72.0594 C127.062,82.0848 123.027,92.424 119.73,100.8726 " fill="none" id="Beverage-DarkRoast" style="stroke: #A80036; stroke-width: 0.6000000238418579;"/><polygon fill="none" points="127.101,70.4316,135.3762,60.7794,134.9262,73.485,127.101,70.4316" style="stroke: #A80036; stroke-width: 0.6000000238418579;"/><!--link Beverage to Decaf--><path d="M161.4954,72.0594 C165.4782,82.0848 169.5846,92.424 172.9404,100.8726 " fill="none" id="Beverage-Decaf" style="stroke: #A80036; stroke-width: 0.6000000238418579;"/><polygon fill="none" points="157.5414,73.482,157.0152,60.7794,165.3486,70.3812,157.5414,73.482" style="stroke: #A80036; stroke-width: 0.6000000238418579;"/><!--link Beverage to CondimentDecorator--><path d="M182.9868,60.0336 C199.1514,71.7492 217.9272,85.3566 233.4222,96.5862 " fill="none" id="Beverage-CondimentDecorator" style="stroke: #A80036; stroke-width: 0.6000000238418579;"/><polygon fill="none" points="180.3096,63.2802,173.0574,52.8372,185.2386,56.4786,180.3096,63.2802" style="stroke: #A80036; stroke-width: 0.6000000238418579;"/><!--link CondimentDecorator to Milk--><path d="M220.6164,150.1566 C203.517,161.5698 184.3086,174.39 168.5106,184.9342 " fill="none" id="CondimentDecorator-Milk" style="stroke: #A80036; stroke-width: 0.6000000238418579;"/><polygon fill="none" points="218.3562,146.6154,230.6688,143.4474,223.0194,153.6024,218.3562,146.6154" style="stroke: #A80036; stroke-width: 0.6000000238418579;"/><!--link CondimentDecorator to Mocha--><path d="M247.9842,154.3146 C243.8298,162.594 239.433,171.357 235.449,179.2979 " fill="none" id="CondimentDecorator-Mocha" style="stroke: #A80036; stroke-width: 0.6000000238418579;"/><polygon fill="none" points="244.3008,152.289,253.4364,143.4474,251.8092,156.0564,244.3008,152.289" style="stroke: #A80036; stroke-width: 0.6000000238418579;"/><!--link CondimentDecorator to Whip--><path d="M308.9778,150.1566 C325.9974,161.5698 345.1164,174.39 360.8412,184.9342 " fill="none" id="CondimentDecorator-Whip" style="stroke: #A80036; stroke-width: 0.6000000238418579;"/><polygon fill="none" points="306.5994,153.6186,298.9716,143.4474,311.2776,146.6424,306.5994,153.6186" style="stroke: #A80036; stroke-width: 0.6000000238418579;"/><!--link CondimentDecorator to Soy--><path d="M281.5812,154.3146 C285.6774,162.594 290.013,171.357 293.9424,179.2979 " fill="none" id="CondimentDecorator-Soy" style="stroke: #A80036; stroke-width: 0.6000000238418579;"/><polygon fill="none" points="277.7616,156.0654,276.204,143.4474,285.2904,152.34,277.7616,156.0654" style="stroke: #A80036; stroke-width: 0.6000000238418579;"/><!--
@startuml

abstract Beverage{
    description
    getDescription()
    cost()
}

class HouseBlend{
     cost()
}

class DarkRoast{
     cost()
}

class Decaf{
     cost()
}

abstract CondimentDecorator{
     Beverage beverage
     getDescription()
}


Beverage <|- - HouseBlend
Beverage <|- - DarkRoast
Beverage <|- - Decaf
Beverage <|- - CondimentDecorator

class Milk{
    Beverage beverage
    cost()
    getDescription()
}

class Mocha{
    Beverage beverage
    cost()
    getDescription()
}


class Soy{
    Beverage beverage
    cost()
    getDescription()
}


class Whip{
    Beverage beverage
    cost()
    getDescription()
}

CondimentDecorator <|- - Milk
CondimentDecorator <|- - Mocha
CondimentDecorator <|- - Whip
CondimentDecorator <|- - Soy



@enduml

PlantUML version 1.2018.11(Sun Sep 23 00:43:53 CST 2018)
(GPL source distribution)
Java Runtime: OpenJDK Runtime Environment
JVM: OpenJDK 64-Bit Server VM
Java Version: 1.8.0_152-release-1248-b22
Operating System: Windows 10
OS Version: 10.0
Default Encoding: GBK
Language: zh
Country: CN
--></g></svg>