<?xml version="1.0" encoding="UTF-8" standalone="no"?><svg xmlns="http://www.w3.org/2000/svg" xmlns:xlink="http://www.w3.org/1999/xlink" contentScriptType="application/ecmascript" contentStyleType="text/css" height="370.8px" preserveAspectRatio="none" style="width:660px;height:370px;" version="1.1" viewBox="0 0 660 370" width="660px" zoomAndPan="magnify"><defs><filter height="300%" id="fnvazz7fnznch" width="300%" x="-1" y="-1"><feGaussianBlur result="blurOut" stdDeviation="2.4000000953674316"/><feColorMatrix in="blurOut" result="blurOut2" type="matrix" values="0 0 0 0 0 0 0 0 0 0 0 0 0 0 0 0 0 0 .4 0"/><feOffset dx="4.800000190734863" dy="4.800000190734863" in="blurOut2" result="blurOut3"/><feBlend in="SourceGraphic" in2="blurOut3" mode="normal"/></filter></defs><g><!--cluster 场景/对象--><polygon fill="#FFFFFF" filter="url(#fnvazz7fnznch)" points="121.2,28.8,205.2,28.8,213.6,58.9441,272.4,58.9441,272.4,187.2,121.2,187.2,121.2,28.8" style="stroke: #000000; stroke-width: 1.8000000715255737;"/><line style="stroke: #000000; stroke-width: 1.8000000715255737;" x1="121.2" x2="213.6" y1="58.9441" y2="58.9441"/><text fill="#000000" font-family="sans-serif" font-size="16.8" font-weight="bold" lengthAdjust="spacingAndGlyphs" textLength="76.8" x="126" y="50.4527">场景/对象</text><!--cluster 状态--><polygon fill="#FFFFFF" filter="url(#fnvazz7fnznch)" points="26.4,216,69.6,216,78,246.1442,633.6,246.1442,633.6,356.4,26.4,356.4,26.4,216" style="stroke: #000000; stroke-width: 1.8000000715255737;"/><line style="stroke: #000000; stroke-width: 1.8000000715255737;" x1="26.4" x2="78" y1="246.1442" y2="246.1442"/><text fill="#000000" font-family="sans-serif" font-size="16.8" font-weight="bold" lengthAdjust="spacingAndGlyphs" textLength="36" x="31.2" y="237.6527">状态</text><!--class Context--><rect fill="#FEFECE" filter="url(#fnvazz7fnznch)" height="93.6551" id="Context" style="stroke: #A80036; stroke-width: 1.8000000715255737;" width="112.8" x="140.4" y="74.4"/><ellipse cx="169.2" cy="93.6" fill="#A9DCDF" rx="13.2" ry="13.2" style="stroke: #A80036; stroke-width: 1.2000000476837158;"/><path d="M170.4938,94.8 L167.1188,94.8 L166.1438,96.7313 Q166.0875,96.9188 166.0875,97.0875 Q166.0875,97.3125 166.1438,97.4438 Q166.2,97.575 166.4625,97.575 L167.1188,97.575 L167.1188,99.6 L163.2,99.6 L163.2,97.575 L163.875,97.575 Q164.1375,97.575 164.2781,97.5 Q164.4188,97.425 164.475,97.2 L168.1875,85.575 L169.8375,85.575 L173.475,97.0688 Q173.5875,97.35 173.7563,97.4625 Q173.925,97.575 174.15,97.575 L174.825,97.575 L174.825,99.6 L170.4375,99.6 L170.4375,97.575 L171.1688,97.575 Q171.375,97.575 171.3844,97.5563 Q171.3938,97.5375 171.3938,97.4625 Q171.3938,97.2563 171.3563,97.1438 L170.4938,94.8 Z M164.2313,98.4 L164.2313,98.4 Z M165.0375,98.4 L165.0375,98.4 Z M170.7,98.4 L170.7,98.4 Z M172.05,98.4 L172.05,98.4 Z M168.6938,88.0875 L168.7875,88.0875 L167.7563,92.775 L170.1,92.775 L168.6938,88.0875 Z "/><text fill="#000000" font-family="sans-serif" font-size="14.4" font-style="italic" lengthAdjust="spacingAndGlyphs" textLength="50.4" x="188.4" y="100.2691">Context</text><line style="stroke: #A80036; stroke-width: 1.8000000715255737;" x1="141.6" x2="252" y1="112.8" y2="112.8"/><text fill="#000000" font-family="sans-serif" font-size="13.2" lengthAdjust="spacingAndGlyphs" textLength="30" x="147.6" y="132.7272">State</text><line style="stroke: #A80036; stroke-width: 1.8000000715255737;" x1="141.6" x2="252" y1="140.4275" y2="140.4275"/><text fill="#000000" font-family="sans-serif" font-size="13.2" lengthAdjust="spacingAndGlyphs" textLength="98.4" x="147.6" y="160.3547">setState(State s)</text><!--class ConcreteStrategyA--><rect fill="#FEFECE" filter="url(#fnvazz7fnznch)" height="75.6275" id="ConcreteStrategyA" style="stroke: #A80036; stroke-width: 1.8000000715255737;" width="159.6" x="454.2" y="261.6"/><ellipse cx="472.2" cy="280.8" fill="#ADD1B2" rx="13.2" ry="13.2" style="stroke: #A80036; stroke-width: 1.2000000476837158;"/><path d="M471.825,288 Q469.5,288 468.15,286.2844 Q466.8,284.5688 466.8,281.025 Q466.8,278.025 468.225,276 Q469.65,273.975 472.125,273.975 Q472.6688,273.975 473.1938,273.975 Q473.7188,273.975 474.0938,273.975 Q474.3938,273.975 474.5906,273.975 Q474.7875,273.975 475.275,273.975 L476.1188,278.4 L474.8438,278.4 Q474.3188,277.0875 473.6344,276.5438 Q472.95,276 471.8438,276 Q470.4563,276 469.6406,277.4156 Q468.825,278.8313 468.825,281.025 Q468.825,283.4438 469.4531,284.7094 Q470.0813,285.975 471.7688,285.975 Q472.875,285.975 473.6531,285.2906 Q474.4313,284.6063 474.8438,282.9375 L476.0813,283.5563 Q475.6125,285.6563 474.4875,286.8281 Q473.3625,288 471.825,288 Z "/><text fill="#000000" font-family="sans-serif" font-size="14.4" lengthAdjust="spacingAndGlyphs" textLength="121.2" x="489" y="287.4692">ConcreteStrategyA</text><line style="stroke: #A80036; stroke-width: 1.8000000715255737;" x1="455.4" x2="612.6" y1="300" y2="300"/><line style="stroke: #A80036; stroke-width: 1.8000000715255737;" x1="455.4" x2="612.6" y1="309.6" y2="309.6"/><text fill="#000000" font-family="sans-serif" font-size="13.2" lengthAdjust="spacingAndGlyphs" textLength="48" x="461.4" y="329.5272">handle()</text><!--class ConcreteStrategyB--><rect fill="#FEFECE" filter="url(#fnvazz7fnznch)" height="75.6275" id="ConcreteStrategyB" style="stroke: #A80036; stroke-width: 1.8000000715255737;" width="160.8" x="250.8" y="261.6"/><ellipse cx="268.8" cy="280.8" fill="#ADD1B2" rx="13.2" ry="13.2" style="stroke: #A80036; stroke-width: 1.2000000476837158;"/><path d="M268.425,288 Q266.1,288 264.75,286.2844 Q263.4,284.5688 263.4,281.025 Q263.4,278.025 264.825,276 Q266.25,273.975 268.725,273.975 Q269.2688,273.975 269.7938,273.975 Q270.3188,273.975 270.6938,273.975 Q270.9938,273.975 271.1906,273.975 Q271.3875,273.975 271.875,273.975 L272.7188,278.4 L271.4438,278.4 Q270.9188,277.0875 270.2344,276.5438 Q269.55,276 268.4438,276 Q267.0563,276 266.2406,277.4156 Q265.425,278.8313 265.425,281.025 Q265.425,283.4438 266.0531,284.7094 Q266.6813,285.975 268.3688,285.975 Q269.475,285.975 270.2531,285.2906 Q271.0313,284.6063 271.4438,282.9375 L272.6813,283.5563 Q272.2125,285.6563 271.0875,286.8281 Q269.9625,288 268.425,288 Z "/><text fill="#000000" font-family="sans-serif" font-size="14.4" lengthAdjust="spacingAndGlyphs" textLength="122.4" x="285.6" y="287.4692">ConcreteStrategyB</text><line style="stroke: #A80036; stroke-width: 1.8000000715255737;" x1="252" x2="410.4" y1="300" y2="300"/><line style="stroke: #A80036; stroke-width: 1.8000000715255737;" x1="252" x2="410.4" y1="309.6" y2="309.6"/><text fill="#000000" font-family="sans-serif" font-size="13.2" lengthAdjust="spacingAndGlyphs" textLength="48" x="258" y="329.5272">handle()</text><!--class ConcreteStrategyC--><rect fill="#FEFECE" filter="url(#fnvazz7fnznch)" height="75.6275" id="ConcreteStrategyC" style="stroke: #A80036; stroke-width: 1.8000000715255737;" width="162" x="46.2" y="261.6"/><ellipse cx="64.2" cy="280.8" fill="#ADD1B2" rx="13.2" ry="13.2" style="stroke: #A80036; stroke-width: 1.2000000476837158;"/><path d="M63.825,288 Q61.5,288 60.15,286.2844 Q58.8,284.5688 58.8,281.025 Q58.8,278.025 60.225,276 Q61.65,273.975 64.125,273.975 Q64.6688,273.975 65.1938,273.975 Q65.7188,273.975 66.0938,273.975 Q66.3938,273.975 66.5906,273.975 Q66.7875,273.975 67.275,273.975 L68.1188,278.4 L66.8438,278.4 Q66.3188,277.0875 65.6344,276.5438 Q64.95,276 63.8438,276 Q62.4563,276 61.6406,277.4156 Q60.825,278.8313 60.825,281.025 Q60.825,283.4438 61.4531,284.7094 Q62.0813,285.975 63.7688,285.975 Q64.875,285.975 65.6531,285.2906 Q66.4313,284.6063 66.8438,282.9375 L68.0813,283.5563 Q67.6125,285.6563 66.4875,286.8281 Q65.3625,288 63.825,288 Z "/><text fill="#000000" font-family="sans-serif" font-size="14.4" lengthAdjust="spacingAndGlyphs" textLength="123.6" x="81" y="287.4692">ConcreteStrategyC</text><line style="stroke: #A80036; stroke-width: 1.8000000715255737;" x1="47.4" x2="207" y1="300" y2="300"/><line style="stroke: #A80036; stroke-width: 1.8000000715255737;" x1="47.4" x2="207" y1="309.6" y2="309.6"/><text fill="#000000" font-family="sans-serif" font-size="13.2" lengthAdjust="spacingAndGlyphs" textLength="48" x="53.4" y="329.5272">handle()</text><!--class State--><rect fill="#FEFECE" filter="url(#fnvazz7fnznch)" height="75.6275" id="State" style="stroke: #A80036; stroke-width: 1.8000000715255737;" width="72" x="295.2" y="83.4"/><ellipse cx="313.2" cy="102.6" fill="#B4A7E5" rx="13.2" ry="13.2" style="stroke: #A80036; stroke-width: 1.2000000476837158;"/><path d="M309.45,97.8 L309.45,95.775 L316.575,95.775 L316.575,97.8 L314.325,97.8 Q314.1375,97.8 314.0813,97.8375 Q314.025,97.875 314.025,97.9313 L314.025,107.6438 Q314.025,107.7 314.0813,107.7375 Q314.1375,107.775 314.325,107.775 L316.575,107.775 L316.575,109.8 L309.45,109.8 L309.45,107.775 L311.7,107.775 Q311.9438,107.775 311.9719,107.7563 Q312,107.7375 312,107.6438 L312,97.9313 Q312,97.8375 311.9719,97.8188 Q311.9438,97.8 311.7,97.8 L309.45,97.8 Z "/><text fill="#000000" font-family="sans-serif" font-size="14.4" font-style="italic" lengthAdjust="spacingAndGlyphs" textLength="33.6" x="330" y="109.2691">State</text><line style="stroke: #A80036; stroke-width: 1.8000000715255737;" x1="296.4" x2="366" y1="121.8" y2="121.8"/><line style="stroke: #A80036; stroke-width: 1.8000000715255737;" x1="296.4" x2="366" y1="131.4" y2="131.4"/><text fill="#000000" font-family="sans-serif" font-size="13.2" lengthAdjust="spacingAndGlyphs" textLength="48" x="302.4" y="151.3272">handle()</text><!--link Context to State--><path d="M253.5,121.2 C265.3032,121.2 277.1064,121.2 288.9096,121.2 " fill="none" id="Context-State" style="stroke: #A80036; stroke-width: 1.2000000476837158;"/><polygon fill="#A80036" points="295.0812,121.2,284.2812,116.4,289.0812,121.2,284.2812,126,295.0812,121.2" style="stroke: #A80036; stroke-width: 1.2000000476837158;"/><!--link State to ConcreteStrategyA--><path d="M386.0436,166.7244 C401.43,179.3856 418.0812,193.3044 433.2,206.4 C453.7752,224.2212 476.2056,244.5564 494.6736,261.5506 " fill="none" id="State-ConcreteStrategyA" style="stroke: #A80036; stroke-width: 1.2000000476837158; stroke-dasharray: 7.0,7.0;"/><polygon fill="none" points="380.7036,173.208,367.44,151.5132,391.3368,160.2024,380.7036,173.208" style="stroke: #A80036; stroke-width: 1.2000000476837158;"/><!--link State to ConcreteStrategyB--><path d="M331.2,183.654 C331.2,209.5716 331.2,238.902 331.2,261.3951 " fill="none" id="State-ConcreteStrategyB" style="stroke: #A80036; stroke-width: 1.2000000476837158; stroke-dasharray: 7.0,7.0;"/><polygon fill="none" points="322.8,183.2532,331.2,159.2532,339.6,183.2532,322.8,183.2532" style="stroke: #A80036; stroke-width: 1.2000000476837158;"/><!--link State to ConcreteStrategyC--><path d="M294.492,178.0848 C287.8488,185.2032 280.4436,191.7528 272.4,196.8 C255.7392,207.2532 246.684,197.3916 229.2,206.4 C202.7268,220.0392 177.7872,242.2452 159.1956,261.4012 " fill="none" id="State-ConcreteStrategyC" style="stroke: #A80036; stroke-width: 1.2000000476837158; stroke-dasharray: 7.0,7.0;"/><polygon fill="none" points="288.174,172.5396,309.7944,159.1584,301.2372,183.102,288.174,172.5396" style="stroke: #A80036; stroke-width: 1.2000000476837158;"/><!--
@startuml

package 场景/对象{
abstract class Context{
    State
    setState(State s)
}
}


Context -> State

package 状态{
interface State{
    handle()
}

class ConcreteStrategyA{
    handle()
}

class ConcreteStrategyB{
    handle()
}

class ConcreteStrategyC{
    handle()
}

State <|.. ConcreteStrategyA
State <|.. ConcreteStrategyB
State <|.. ConcreteStrategyC
}






@enduml

PlantUML version 1.2018.11(Sun Sep 23 00:43:53 CST 2018)
(GPL source distribution)
Java Runtime: OpenJDK Runtime Environment
JVM: OpenJDK 64-Bit Server VM
Java Version: 1.8.0_152-release-1248-b22
Operating System: Windows 10
OS Version: 10.0
Default Encoding: GBK
Language: zh
Country: CN
--></g></svg>